<svg width="46" height="32" viewBox="0 0 46 32" fill="none" xmlns="http://www.w3.org/2000/svg">
<path d="M42.0345 32H3.96552C2.91418 31.9987 1.90627 31.5769 1.16286 30.827C0.419458 30.0772 0.00125934 29.0605 0 28V4C0.00125934 2.93952 0.419458 1.92285 1.16286 1.17298C1.90627 0.423106 2.91418 0.00127029 3.96552 0H42.0345C43.0858 0.00127029 44.0937 0.423106 44.8371 1.17298C45.5805 1.92285 45.9987 2.93952 46 4V28C45.9987 29.0605 45.5805 30.0772 44.8371 30.827C44.0937 31.5769 43.0858 31.9987 42.0345 32V32ZM3.96552 1.6C3.33448 1.6 2.7293 1.85286 2.28309 2.30294C1.83688 2.75303 1.58621 3.36348 1.58621 4V28C1.58621 28.6365 1.83688 29.247 2.28309 29.6971C2.7293 30.1471 3.33448 30.4 3.96552 30.4H42.0345C42.6655 30.4 43.2707 30.1471 43.7169 29.6971C44.1631 29.247 44.4138 28.6365 44.4138 28V4C44.4138 3.36348 44.1631 2.75303 43.7169 2.30294C43.2707 1.85286 42.6655 1.6 42.0345 1.6H3.96552Z" fill="#A7A7A7"/>
<path d="M11.1033 13.6H6.34464C5.71361 13.6 5.10842 13.3471 4.66222 12.8971C4.21601 12.447 3.96533 11.8365 3.96533 11.2V6.4C3.96533 5.76348 4.21601 5.15303 4.66222 4.70294C5.10842 4.25286 5.71361 4 6.34464 4H11.1033C11.7343 4 12.3395 4.25286 12.7857 4.70294C13.2319 5.15303 13.4826 5.76348 13.4826 6.4V11.2C13.4826 11.8365 13.2319 12.447 12.7857 12.8971C12.3395 13.3471 11.7343 13.6 11.1033 13.6ZM6.34464 5.6C6.1343 5.6 5.93257 5.68428 5.78383 5.83431C5.6351 5.98434 5.55154 6.18783 5.55154 6.4V11.2C5.55154 11.4122 5.6351 11.6157 5.78383 11.7657C5.93257 11.9157 6.1343 12 6.34464 12H11.1033C11.3136 12 11.5153 11.9157 11.6641 11.7657C11.8128 11.6157 11.8964 11.4122 11.8964 11.2V6.4C11.8964 6.18783 11.8128 5.98434 11.6641 5.83431C11.5153 5.68428 11.3136 5.6 11.1033 5.6H6.34464ZM37.2757 28C36.0313 28.0059 34.8346 27.5173 33.9446 26.64C33.4929 26.1921 33.134 25.6581 32.8888 25.069C32.6435 24.4799 32.517 23.8475 32.5164 23.2085C32.5158 22.5696 32.6412 21.937 32.8853 21.3474C33.1294 20.7578 33.4874 20.2231 33.9383 19.7744C34.4953 19.2229 35.1783 18.8181 35.927 18.5956C36.6757 18.3732 37.4672 18.3399 38.2316 18.4987C38.9961 18.6575 39.7101 19.0036 40.3107 19.5064C40.9113 20.0092 41.3801 20.6533 41.6757 21.3819C41.9713 22.1106 42.0848 22.9014 42.0059 23.6846C41.9271 24.4679 41.6585 25.2196 41.2238 25.8735C40.7891 26.5274 40.2016 27.0633 39.5131 27.4342C38.8246 27.805 38.0562 27.9993 37.2757 28V28ZM37.2757 20C36.4459 19.9966 35.6482 20.3227 35.055 20.908C34.7533 21.208 34.5139 21.5655 34.3506 21.9598C34.1874 22.3541 34.1036 22.7772 34.1042 23.2045C34.1048 23.6318 34.1897 24.0547 34.3541 24.4486C34.5184 24.8424 34.7588 25.1993 35.0613 25.4984C35.4343 25.8628 35.8903 26.1294 36.3892 26.2746C36.8881 26.4198 37.4147 26.4392 37.9229 26.3312C38.431 26.2232 38.905 25.991 39.3034 25.6551C39.7018 25.3191 40.0124 24.8896 40.2078 24.4043C40.4032 23.9191 40.4776 23.3928 40.4243 22.8718C40.3711 22.3507 40.1918 21.8509 39.9023 21.416C39.6128 20.9812 39.222 20.6247 38.764 20.3778C38.306 20.1309 37.795 20.0012 37.2757 20V20Z" fill="#A7A7A7"/>
<path d="M31.724 27.9999C30.9447 27.9979 30.1778 27.8029 29.4907 27.4319C28.8036 27.061 28.2174 26.5255 27.7835 25.8725C27.3496 25.2196 27.0813 24.4691 27.0022 23.6871C26.9231 22.9051 27.0356 22.1155 27.3299 21.3876C27.6241 20.6597 28.0911 20.0158 28.6898 19.5126C29.2884 19.0093 30.0005 18.6621 30.7633 18.5014C31.5261 18.3406 32.3164 18.3714 33.0647 18.5908C33.8131 18.8103 34.4965 19.2117 35.055 19.76C35.13 19.8339 35.1897 19.9222 35.2306 20.0196C35.2716 20.117 35.293 20.2216 35.2936 20.3274C35.2942 20.4332 35.2739 20.5381 35.2341 20.6359C35.1942 20.7338 35.1355 20.8227 35.0613 20.8976C34.7583 21.1972 34.5175 21.5548 34.3532 21.9495C34.1888 22.3441 34.1041 22.7679 34.1041 23.1959C34.1041 23.624 34.1888 24.0478 34.3532 24.4424C34.5175 24.8371 34.7583 25.1947 35.0613 25.4943C35.1367 25.5693 35.1964 25.6587 35.237 25.7573C35.2776 25.8559 35.2982 25.9617 35.2976 26.0685C35.297 26.1753 35.2752 26.2808 35.2336 26.379C35.1919 26.4771 35.1312 26.5658 35.055 26.6399C34.165 27.5173 32.9683 28.0058 31.724 27.9999ZM31.724 20C31.2354 20.0015 30.7538 20.1169 30.3167 20.3371C29.8796 20.5573 29.4989 20.8763 29.2041 21.2693C28.9093 21.6623 28.7085 22.1187 28.6174 22.6028C28.5262 23.087 28.5471 23.5858 28.6785 24.0605C28.8099 24.5352 29.0482 24.9728 29.3748 25.3393C29.7015 25.7058 30.1076 25.9912 30.5616 26.1733C31.0155 26.3555 31.5051 26.4294 31.992 26.3893C32.479 26.3493 32.9502 26.1963 33.3689 25.9424C32.8143 25.1372 32.5171 24.1803 32.5171 23.1999C32.5171 22.2196 32.8143 21.2627 33.3689 20.4575C32.8723 20.1564 32.3034 19.9981 31.724 20ZM12.6895 27.9999H4.75844C4.54809 27.9999 4.34636 27.9157 4.19763 27.7656C4.04889 27.6156 3.96533 27.4121 3.96533 27.1999C3.96533 26.9878 4.04889 26.7843 4.19763 26.6343C4.34636 26.4842 4.54809 26.3999 4.75844 26.3999H12.6895C12.8998 26.3999 13.1015 26.4842 13.2503 26.6343C13.399 26.7843 13.4826 26.9878 13.4826 27.1999C13.4826 27.4121 13.399 27.6156 13.2503 27.7656C13.1015 27.9157 12.8998 27.9999 12.6895 27.9999ZM24.586 27.9999H16.655C16.4446 27.9999 16.2429 27.9157 16.0942 27.7656C15.9454 27.6156 15.8619 27.4121 15.8619 27.1999C15.8619 26.9878 15.9454 26.7843 16.0942 26.6343C16.2429 26.4842 16.4446 26.3999 16.655 26.3999H24.586C24.7964 26.3999 24.9981 26.4842 25.1468 26.6343C25.2956 26.7843 25.3791 26.9878 25.3791 27.1999C25.3791 27.4121 25.2956 27.6156 25.1468 27.7656C24.9981 27.9157 24.7964 27.9999 24.586 27.9999ZM24.586 23.9999H19.8274C19.6171 23.9999 19.4153 23.9157 19.2666 23.7656C19.1179 23.6156 19.0343 23.4121 19.0343 23.1999C19.0343 22.9878 19.1179 22.7843 19.2666 22.6343C19.4153 22.4842 19.6171 22.4 19.8274 22.4H24.586C24.7964 22.4 24.9981 22.4842 25.1468 22.6343C25.2956 22.7843 25.3791 22.9878 25.3791 23.1999C25.3791 23.4121 25.2956 23.6156 25.1468 23.7656C24.9981 23.9157 24.7964 23.9999 24.586 23.9999ZM9.51706 16.8H4.75844C4.54809 16.8 4.34636 16.7157 4.19763 16.5656C4.04889 16.4156 3.96533 16.2121 3.96533 16C3.96533 15.7878 4.04889 15.5843 4.19763 15.4343C4.34636 15.2842 4.54809 15.2 4.75844 15.2H9.51706C9.7274 15.2 9.92913 15.2842 10.0779 15.4343C10.2266 15.5843 10.3102 15.7878 10.3102 16C10.3102 16.2121 10.2266 16.4156 10.0779 16.5656C9.92913 16.7157 9.7274 16.8 9.51706 16.8ZM17.4481 16.8H12.6895C12.4791 16.8 12.2774 16.7157 12.1287 16.5656C11.9799 16.4156 11.8964 16.2121 11.8964 16C11.8964 15.7878 11.9799 15.5843 12.1287 15.4343C12.2774 15.2842 12.4791 15.2 12.6895 15.2H17.4481C17.6584 15.2 17.8602 15.2842 18.0089 15.4343C18.1576 15.5843 18.2412 15.7878 18.2412 16C18.2412 16.2121 18.1576 16.4156 18.0089 16.5656C17.8602 16.7157 17.6584 16.8 17.4481 16.8ZM25.3791 16.8H20.6205C20.4102 16.8 20.2084 16.7157 20.0597 16.5656C19.911 16.4156 19.8274 16.2121 19.8274 16C19.8274 15.7878 19.911 15.5843 20.0597 15.4343C20.2084 15.2842 20.4102 15.2 20.6205 15.2H25.3791C25.5895 15.2 25.7912 15.2842 25.9399 15.4343C26.0887 15.5843 26.1722 15.7878 26.1722 16C26.1722 16.2121 26.0887 16.4156 25.9399 16.5656C25.7912 16.7157 25.5895 16.8 25.3791 16.8ZM33.3102 16.8H28.5515C28.3412 16.8 28.1395 16.7157 27.9907 16.5656C27.842 16.4156 27.7584 16.2121 27.7584 16C27.7584 15.7878 27.842 15.5843 27.9907 15.4343C28.1395 15.2842 28.3412 15.2 28.5515 15.2H33.3102C33.5205 15.2 33.7222 15.2842 33.871 15.4343C34.0197 15.5843 34.1033 15.7878 34.1033 16C34.1033 16.2121 34.0197 16.4156 33.871 16.5656C33.7222 16.7157 33.5205 16.8 33.3102 16.8ZM31.724 4.79995H28.5515C28.3412 4.79995 28.1395 4.71567 27.9907 4.56564C27.842 4.41561 27.7584 4.21212 27.7584 3.99995C27.7584 3.78778 27.842 3.58429 27.9907 3.43427C28.1395 3.28424 28.3412 3.19995 28.5515 3.19995H31.724C31.9343 3.19995 32.136 3.28424 32.2848 3.43427C32.4335 3.58429 32.5171 3.78778 32.5171 3.99995C32.5171 4.21212 32.4335 4.41561 32.2848 4.56564C32.136 4.71567 31.9343 4.79995 31.724 4.79995ZM41.2412 16.8H36.4826C36.2722 16.8 36.0705 16.7157 35.9218 16.5656C35.773 16.4156 35.6895 16.2121 35.6895 16C35.6895 15.7878 35.773 15.5843 35.9218 15.4343C36.0705 15.2842 36.2722 15.2 36.4826 15.2H41.2412C41.4515 15.2 41.6533 15.2842 41.802 15.4343C41.9507 15.5843 42.0343 15.7878 42.0343 16C42.0343 16.2121 41.9507 16.4156 41.802 16.5656C41.6533 16.7157 41.4515 16.8 41.2412 16.8ZM42.0343 7.99995C41.824 7.99995 41.6222 7.91567 41.4735 7.76564C41.3248 7.61561 41.2412 7.41212 41.2412 7.19995V5.59995C41.2412 5.38778 41.1576 5.18429 41.0089 5.03427C40.8602 4.88424 40.6584 4.79995 40.4481 4.79995H34.1033C33.8929 4.79995 33.6912 4.71567 33.5425 4.56564C33.3937 4.41561 33.3102 4.21212 33.3102 3.99995C33.3102 3.78778 33.3937 3.58429 33.5425 3.43427C33.6912 3.28424 33.8929 3.19995 34.1033 3.19995H40.4481C41.0791 3.19995 41.6843 3.45281 42.1305 3.90289C42.5767 4.35298 42.8274 4.96343 42.8274 5.59995V7.19995C42.8274 7.41212 42.7438 7.61561 42.5951 7.76564C42.4464 7.91567 42.2446 7.99995 42.0343 7.99995Z" fill="#A7A7A7"/>
</svg>
