<svg width="147" height="52" viewBox="0 0 147 52" fill="none" xmlns="http://www.w3.org/2000/svg">
<rect x="1" y="1" width="145" height="50" rx="4" fill="white"/>
<path d="M39.6754 38.0001C40.4068 38.0001 41 37.407 41 36.6755V15.3246C41 14.593 40.4068 14 39.6754 14H18.3246C17.5929 14 17 14.593 17 15.3246V36.6755C17 37.407 17.5929 38.0001 18.3246 38.0001H39.6754Z" fill="#395185"/>
<path d="M33.5596 38.0001V28.706H36.6793L37.1464 25.084H33.5596V22.7713C33.5596 21.7227 33.8509 21.008 35.3547 21.008L37.2728 21.0072V17.7676C36.9409 17.7235 35.8024 17.6248 34.4779 17.6248C31.7125 17.6248 29.8193 19.3128 29.8193 22.4128V25.084H26.6916V28.706H29.8193V38.0001H33.5596Z" fill="white"/>
<path d="M58.26 31V21.816H63.552V22.796H59.422V25.904H62.922V26.884H59.422V31H58.26ZM67.3604 25.862L66.9264 27.262H69.6844L69.2504 25.862C69.0824 25.3487 68.9238 24.84 68.7744 24.336C68.6251 23.8227 68.4758 23.3 68.3264 22.768H68.2704C68.1304 23.3 67.9858 23.8227 67.8364 24.336C67.6871 24.84 67.5284 25.3487 67.3604 25.862ZM64.5604 31L67.6684 21.816H68.9844L72.0924 31H70.8464L69.9784 28.2H66.6324L65.7504 31H64.5604ZM77.849 31.168C77.2703 31.168 76.7383 31.0607 76.253 30.846C75.7676 30.6313 75.343 30.3233 74.979 29.922C74.6243 29.5113 74.3443 29.012 74.139 28.424C73.943 27.8267 73.845 27.1547 73.845 26.408C73.845 25.6707 73.9476 25.008 74.153 24.42C74.3583 23.832 74.643 23.3327 75.007 22.922C75.371 22.5113 75.8003 22.1987 76.295 21.984C76.7896 21.76 77.331 21.648 77.919 21.648C78.479 21.648 78.969 21.7647 79.389 21.998C79.8183 22.222 80.1683 22.4833 80.439 22.782L79.809 23.538C79.5663 23.2767 79.291 23.0667 78.983 22.908C78.675 22.7493 78.325 22.67 77.933 22.67C77.4943 22.67 77.0976 22.7587 76.743 22.936C76.3883 23.104 76.085 23.3513 75.833 23.678C75.581 23.9953 75.385 24.3827 75.245 24.84C75.1143 25.2973 75.049 25.8107 75.049 26.38C75.049 26.9587 75.1143 27.4813 75.245 27.948C75.385 28.4053 75.5763 28.7973 75.819 29.124C76.0616 29.4507 76.3556 29.7027 76.701 29.88C77.0556 30.0573 77.4523 30.146 77.891 30.146C78.339 30.146 78.731 30.0573 79.067 29.88C79.403 29.6933 79.7203 29.4367 80.019 29.11L80.663 29.838C80.299 30.258 79.8883 30.5847 79.431 30.818C78.9736 31.0513 78.4463 31.168 77.849 31.168ZM83.495 31V21.816H88.787V22.796H84.657V25.68H88.143V26.674H84.657V30.006H88.927V31H83.495ZM91.9978 31V21.816H94.7278C95.1945 21.816 95.6191 21.858 96.0018 21.942C96.3938 22.026 96.7251 22.1567 96.9958 22.334C97.2758 22.5113 97.4905 22.7447 97.6398 23.034C97.7985 23.314 97.8778 23.6547 97.8778 24.056C97.8778 24.5133 97.7611 24.9287 97.5278 25.302C97.3038 25.666 96.9725 25.918 96.5338 26.058V26.114C97.0938 26.2167 97.5465 26.45 97.8918 26.814C98.2371 27.178 98.4098 27.6773 98.4098 28.312C98.4098 28.76 98.3258 29.152 98.1578 29.488C97.9898 29.824 97.7518 30.104 97.4438 30.328C97.1358 30.552 96.7671 30.72 96.3378 30.832C95.9085 30.944 95.4371 31 94.9238 31H91.9978ZM93.1598 25.722H94.5178C95.3018 25.722 95.8665 25.5867 96.2118 25.316C96.5571 25.0453 96.7298 24.6767 96.7298 24.21C96.7298 23.678 96.5478 23.3 96.1838 23.076C95.8291 22.852 95.2925 22.74 94.5738 22.74H93.1598V25.722ZM93.1598 30.076H94.7558C95.5491 30.076 96.1651 29.9313 96.6038 29.642C97.0425 29.3433 97.2618 28.886 97.2618 28.27C97.2618 27.7007 97.0471 27.2853 96.6178 27.024C96.1885 26.7533 95.5678 26.618 94.7558 26.618H93.1598V30.076ZM104.736 31.168C104.158 31.168 103.626 31.056 103.14 30.832C102.664 30.608 102.254 30.2907 101.908 29.88C101.563 29.46 101.292 28.956 101.096 28.368C100.91 27.7707 100.816 27.1033 100.816 26.366C100.816 25.6287 100.91 24.9707 101.096 24.392C101.292 23.804 101.563 23.3093 101.908 22.908C102.254 22.4973 102.664 22.1847 103.14 21.97C103.626 21.7553 104.158 21.648 104.736 21.648C105.315 21.648 105.842 21.76 106.318 21.984C106.804 22.1987 107.219 22.5113 107.564 22.922C107.919 23.3233 108.19 23.818 108.376 24.406C108.572 24.9847 108.67 25.638 108.67 26.366C108.67 27.1033 108.572 27.7707 108.376 28.368C108.19 28.956 107.919 29.46 107.564 29.88C107.219 30.2907 106.804 30.608 106.318 30.832C105.842 31.056 105.315 31.168 104.736 31.168ZM104.736 30.146C105.147 30.146 105.516 30.0573 105.842 29.88C106.178 29.7027 106.463 29.4507 106.696 29.124C106.939 28.788 107.126 28.3913 107.256 27.934C107.387 27.4673 107.452 26.9447 107.452 26.366C107.452 25.7967 107.387 25.2833 107.256 24.826C107.126 24.3687 106.939 23.9813 106.696 23.664C106.463 23.3467 106.178 23.104 105.842 22.936C105.516 22.7587 105.147 22.67 104.736 22.67C104.326 22.67 103.952 22.7587 103.616 22.936C103.29 23.104 103.005 23.3467 102.762 23.664C102.529 23.9813 102.347 24.3687 102.216 24.826C102.086 25.2833 102.02 25.7967 102.02 26.366C102.02 26.9447 102.086 27.4673 102.216 27.934C102.347 28.3913 102.529 28.788 102.762 29.124C103.005 29.4507 103.29 29.7027 103.616 29.88C103.952 30.0573 104.326 30.146 104.736 30.146ZM115.153 31.168C114.574 31.168 114.042 31.056 113.557 30.832C113.081 30.608 112.67 30.2907 112.325 29.88C111.98 29.46 111.709 28.956 111.513 28.368C111.326 27.7707 111.233 27.1033 111.233 26.366C111.233 25.6287 111.326 24.9707 111.513 24.392C111.709 23.804 111.98 23.3093 112.325 22.908C112.67 22.4973 113.081 22.1847 113.557 21.97C114.042 21.7553 114.574 21.648 115.153 21.648C115.732 21.648 116.259 21.76 116.735 21.984C117.22 22.1987 117.636 22.5113 117.981 22.922C118.336 23.3233 118.606 23.818 118.793 24.406C118.989 24.9847 119.087 25.638 119.087 26.366C119.087 27.1033 118.989 27.7707 118.793 28.368C118.606 28.956 118.336 29.46 117.981 29.88C117.636 30.2907 117.22 30.608 116.735 30.832C116.259 31.056 115.732 31.168 115.153 31.168ZM115.153 30.146C115.564 30.146 115.932 30.0573 116.259 29.88C116.595 29.7027 116.88 29.4507 117.113 29.124C117.356 28.788 117.542 28.3913 117.673 27.934C117.804 27.4673 117.869 26.9447 117.869 26.366C117.869 25.7967 117.804 25.2833 117.673 24.826C117.542 24.3687 117.356 23.9813 117.113 23.664C116.88 23.3467 116.595 23.104 116.259 22.936C115.932 22.7587 115.564 22.67 115.153 22.67C114.742 22.67 114.369 22.7587 114.033 22.936C113.706 23.104 113.422 23.3467 113.179 23.664C112.946 23.9813 112.764 24.3687 112.633 24.826C112.502 25.2833 112.437 25.7967 112.437 26.366C112.437 26.9447 112.502 27.4673 112.633 27.934C112.764 28.3913 112.946 28.788 113.179 29.124C113.422 29.4507 113.706 29.7027 114.033 29.88C114.369 30.0573 114.742 30.146 115.153 30.146ZM122.182 31V21.816H123.344V26.422H123.386L127.208 21.816H128.524L125.654 25.316L128.972 31H127.67L124.926 26.226L123.344 28.088V31H122.182Z" fill="#3F414D"/>
<rect x="1" y="1" width="145" height="50" rx="4" stroke="#A7A7A7" stroke-width="0.5"/>
</svg>
