<svg width="130" height="52" viewBox="0 0 130 52" fill="none" xmlns="http://www.w3.org/2000/svg">
<path d="M1 5C1 2.79086 2.79086 1 5 1H125C127.209 1 129 2.79086 129 5V47C129 49.2091 127.209 51 125 51H5C2.79086 51 1 49.2091 1 47V5Z" fill="white"/>
<path d="M38.8055 24.0415H38V24H29V28H34.6515C33.827 30.3285 31.6115 32 29 32C25.6865 32 23 29.3135 23 26C23 22.6865 25.6865 20 29 20C30.5295 20 31.921 20.577 32.9805 21.5195L35.809 18.691C34.023 17.0265 31.634 16 29 16C23.4775 16 19 20.4775 19 26C19 31.5225 23.4775 36 29 36C34.5225 36 39 31.5225 39 26C39 25.3295 38.931 24.675 38.8055 24.0415Z" fill="#FFC107"/>
<path d="M20.1527 21.3455L23.4382 23.755C24.3272 21.554 26.4802 20 28.9997 20C30.5292 20 31.9207 20.577 32.9802 21.5195L35.8087 18.691C34.0227 17.0265 31.6337 16 28.9997 16C25.1587 16 21.8277 18.1685 20.1527 21.3455Z" fill="#FF3D00"/>
<path d="M28.9999 35.9997C31.5829 35.9997 33.9299 35.0112 35.7044 33.4037L32.6094 30.7847C31.5716 31.5739 30.3036 32.0007 28.9999 31.9997C26.3989 31.9997 24.1904 30.3412 23.3584 28.0267L20.0974 30.5392C21.7524 33.7777 25.1134 35.9997 28.9999 35.9997Z" fill="#4CAF50"/>
<path d="M38.8055 24.0415H38V24H29V28H34.6515C34.2571 29.1082 33.5467 30.0766 32.608 30.7855L32.6095 30.7845L35.7045 33.4035C35.4855 33.6025 39 31 39 26C39 25.3295 38.931 24.675 38.8055 24.0415Z" fill="#1976D2"/>
<path d="M61.872 31.168C61.2653 31.168 60.7053 31.0607 60.192 30.846C59.688 30.6313 59.254 30.3233 58.89 29.922C58.526 29.5113 58.2413 29.012 58.036 28.424C57.8307 27.8267 57.728 27.1547 57.728 26.408C57.728 25.6707 57.8307 25.008 58.036 24.42C58.2507 23.832 58.5447 23.3327 58.918 22.922C59.2913 22.5113 59.7347 22.1987 60.248 21.984C60.7707 21.76 61.3353 21.648 61.942 21.648C62.2593 21.648 62.5487 21.6807 62.81 21.746C63.0807 21.8113 63.3233 21.9 63.538 22.012C63.762 22.1147 63.958 22.236 64.126 22.376C64.3033 22.5067 64.4573 22.642 64.588 22.782L63.944 23.538C63.7107 23.2953 63.44 23.09 63.132 22.922C62.824 22.754 62.4367 22.67 61.97 22.67C61.5033 22.67 61.0833 22.7587 60.71 22.936C60.3367 23.104 60.0193 23.3513 59.758 23.678C59.4967 23.9953 59.2913 24.3827 59.142 24.84C59.002 25.2973 58.932 25.8107 58.932 26.38C58.932 26.9587 58.9973 27.4813 59.128 27.948C59.268 28.4053 59.464 28.7973 59.716 29.124C59.9773 29.4507 60.2947 29.7027 60.668 29.88C61.0507 30.0573 61.4893 30.146 61.984 30.146C62.3107 30.146 62.6187 30.0993 62.908 30.006C63.2067 29.9033 63.4493 29.768 63.636 29.6V27.206H61.69V26.24H64.7V30.104C64.4013 30.412 64.0093 30.6687 63.524 30.874C63.0387 31.07 62.488 31.168 61.872 31.168ZM71.4086 31.168C70.83 31.168 70.298 31.056 69.8126 30.832C69.3366 30.608 68.926 30.2907 68.5806 29.88C68.2353 29.46 67.9646 28.956 67.7686 28.368C67.582 27.7707 67.4886 27.1033 67.4886 26.366C67.4886 25.6287 67.582 24.9707 67.7686 24.392C67.9646 23.804 68.2353 23.3093 68.5806 22.908C68.926 22.4973 69.3366 22.1847 69.8126 21.97C70.298 21.7553 70.83 21.648 71.4086 21.648C71.9873 21.648 72.5146 21.76 72.9906 21.984C73.476 22.1987 73.8913 22.5113 74.2366 22.922C74.5913 23.3233 74.862 23.818 75.0486 24.406C75.2446 24.9847 75.3426 25.638 75.3426 26.366C75.3426 27.1033 75.2446 27.7707 75.0486 28.368C74.862 28.956 74.5913 29.46 74.2366 29.88C73.8913 30.2907 73.476 30.608 72.9906 30.832C72.5146 31.056 71.9873 31.168 71.4086 31.168ZM71.4086 30.146C71.8193 30.146 72.188 30.0573 72.5146 29.88C72.8506 29.7027 73.1353 29.4507 73.3686 29.124C73.6113 28.788 73.798 28.3913 73.9286 27.934C74.0593 27.4673 74.1246 26.9447 74.1246 26.366C74.1246 25.7967 74.0593 25.2833 73.9286 24.826C73.798 24.3687 73.6113 23.9813 73.3686 23.664C73.1353 23.3467 72.8506 23.104 72.5146 22.936C72.188 22.7587 71.8193 22.67 71.4086 22.67C70.998 22.67 70.6246 22.7587 70.2886 22.936C69.962 23.104 69.6773 23.3467 69.4346 23.664C69.2013 23.9813 69.0193 24.3687 68.8886 24.826C68.758 25.2833 68.6926 25.7967 68.6926 26.366C68.6926 26.9447 68.758 27.4673 68.8886 27.934C69.0193 28.3913 69.2013 28.788 69.4346 29.124C69.6773 29.4507 69.962 29.7027 70.2886 29.88C70.6246 30.0573 70.998 30.146 71.4086 30.146ZM81.8255 31.168C81.2468 31.168 80.7148 31.056 80.2295 30.832C79.7535 30.608 79.3428 30.2907 78.9975 29.88C78.6522 29.46 78.3815 28.956 78.1855 28.368C77.9988 27.7707 77.9055 27.1033 77.9055 26.366C77.9055 25.6287 77.9988 24.9707 78.1855 24.392C78.3815 23.804 78.6522 23.3093 78.9975 22.908C79.3428 22.4973 79.7535 22.1847 80.2295 21.97C80.7148 21.7553 81.2468 21.648 81.8255 21.648C82.4042 21.648 82.9315 21.76 83.4075 21.984C83.8928 22.1987 84.3082 22.5113 84.6535 22.922C85.0082 23.3233 85.2788 23.818 85.4655 24.406C85.6615 24.9847 85.7595 25.638 85.7595 26.366C85.7595 27.1033 85.6615 27.7707 85.4655 28.368C85.2788 28.956 85.0082 29.46 84.6535 29.88C84.3082 30.2907 83.8928 30.608 83.4075 30.832C82.9315 31.056 82.4042 31.168 81.8255 31.168ZM81.8255 30.146C82.2362 30.146 82.6048 30.0573 82.9315 29.88C83.2675 29.7027 83.5522 29.4507 83.7855 29.124C84.0282 28.788 84.2148 28.3913 84.3455 27.934C84.4762 27.4673 84.5415 26.9447 84.5415 26.366C84.5415 25.7967 84.4762 25.2833 84.3455 24.826C84.2148 24.3687 84.0282 23.9813 83.7855 23.664C83.5522 23.3467 83.2675 23.104 82.9315 22.936C82.6048 22.7587 82.2362 22.67 81.8255 22.67C81.4148 22.67 81.0415 22.7587 80.7055 22.936C80.3788 23.104 80.0942 23.3467 79.8515 23.664C79.6182 23.9813 79.4362 24.3687 79.3055 24.826C79.1748 25.2833 79.1095 25.7967 79.1095 26.366C79.1095 26.9447 79.1748 27.4673 79.3055 27.934C79.4362 28.3913 79.6182 28.788 79.8515 29.124C80.0942 29.4507 80.3788 29.7027 80.7055 29.88C81.0415 30.0573 81.4148 30.146 81.8255 30.146ZM92.4664 31.168C91.8597 31.168 91.2997 31.0607 90.7864 30.846C90.2824 30.6313 89.8484 30.3233 89.4844 29.922C89.1204 29.5113 88.8357 29.012 88.6304 28.424C88.425 27.8267 88.3224 27.1547 88.3224 26.408C88.3224 25.6707 88.425 25.008 88.6304 24.42C88.845 23.832 89.139 23.3327 89.5124 22.922C89.8857 22.5113 90.329 22.1987 90.8424 21.984C91.365 21.76 91.9297 21.648 92.5364 21.648C92.8537 21.648 93.143 21.6807 93.4044 21.746C93.675 21.8113 93.9177 21.9 94.1324 22.012C94.3564 22.1147 94.5524 22.236 94.7204 22.376C94.8977 22.5067 95.0517 22.642 95.1824 22.782L94.5384 23.538C94.305 23.2953 94.0344 23.09 93.7264 22.922C93.4184 22.754 93.031 22.67 92.5644 22.67C92.0977 22.67 91.6777 22.7587 91.3044 22.936C90.931 23.104 90.6137 23.3513 90.3524 23.678C90.091 23.9953 89.8857 24.3827 89.7364 24.84C89.5964 25.2973 89.5264 25.8107 89.5264 26.38C89.5264 26.9587 89.5917 27.4813 89.7224 27.948C89.8624 28.4053 90.0584 28.7973 90.3104 29.124C90.5717 29.4507 90.889 29.7027 91.2624 29.88C91.645 30.0573 92.0837 30.146 92.5784 30.146C92.905 30.146 93.213 30.0993 93.5024 30.006C93.801 29.9033 94.0437 29.768 94.2304 29.6V27.206H92.2844V26.24H95.2944V30.104C94.9957 30.412 94.6037 30.6687 94.1184 30.874C93.633 31.07 93.0824 31.168 92.4664 31.168ZM98.615 31V21.816H99.777V30.006H103.795V31H98.615ZM106.544 31V21.816H111.836V22.796H107.706V25.68H111.192V26.674H107.706V30.006H111.976V31H106.544Z" fill="#3F414D"/>
<path d="M5 1.25H125V0.75H5V1.25ZM128.75 5V47H129.25V5H128.75ZM125 50.75H5V51.25H125V50.75ZM1.25 47V5H0.75V47H1.25ZM5 50.75C2.92893 50.75 1.25 49.0711 1.25 47H0.75C0.75 49.3472 2.65279 51.25 5 51.25V50.75ZM128.75 47C128.75 49.0711 127.071 50.75 125 50.75V51.25C127.347 51.25 129.25 49.3472 129.25 47H128.75ZM125 1.25C127.071 1.25 128.75 2.92893 128.75 5H129.25C129.25 2.65279 127.347 0.75 125 0.75V1.25ZM5 0.75C2.65279 0.75 0.75 2.65279 0.75 5H1.25C1.25 2.92893 2.92893 1.25 5 1.25V0.75Z" fill="#A7A7A7"/>
</svg>
