<svg width="109" height="36" viewBox="0 0 109 36" fill="none" xmlns="http://www.w3.org/2000/svg">
<path d="M31.6994 2.27043C32.8615 0.0432342 29.0962 0.669634 29.0962 0.669634C27.7482 0.669634 27.1439 2.29363 26.865 2.75763L22.7976 10.7616C22.0306 12.084 19.4972 17.7448 18.6605 18.9976C18.5908 17.7216 18.6837 15.1696 18.707 14.5664C18.8697 12.1536 19.0324 10.3208 19.288 8.11683C19.474 6.40003 19.8458 4.47443 19.4972 2.75763C19.2648 1.69043 18.9162 1.62083 17.3822 1.45843C15.7785 1.29603 14.6861 3.61603 14.1515 4.70643C12.1992 8.74323 10.0144 12.6872 8.27124 16.8168C7.75991 18.0232 7.13237 19.2296 6.5978 20.4128C5.97026 21.8512 5.38921 23.2664 4.71518 24.6816C3.99468 26.1664 1.74018 31.0384 1.11265 32.5696C0.41538 34.24 0.275927 35.5856 3.06499 35.516C3.50659 35.516 4.48276 35.6088 5.69136 34.3096C6.64429 33.2888 6.83022 32.3376 7.38804 30.9224C9.38686 25.9112 10.8046 22.5936 12.9894 17.6288C13.1986 17.1416 13.6867 15.7264 14.1748 14.636C14.1515 16.1904 13.8958 18.0464 13.7796 19.276C13.4078 23.7768 13.1521 28.1152 12.757 32.5696C12.7105 33.1728 12.5478 33.892 12.8267 34.4488C13.1056 35.0056 13.8029 35.1448 14.3607 35.2144C16.5919 35.4928 16.8244 34.3792 17.5216 32.848C18.1492 31.4792 18.521 30.3656 19.0789 28.9736C20.7988 24.6816 22.6117 20.436 24.6105 16.26C25.1218 15.1928 25.6332 14.1488 26.191 13.1048C27.2136 11.1792 28.0503 9.36963 29.166 7.23523C30.0027 5.70403 30.8162 3.96403 31.6994 2.27043ZM108.282 14.3576C108.027 11.7824 104.494 13.0816 102.379 13.476C101.589 13.6152 99.1482 14.0792 96.3359 14.6128C96.2197 11.7128 96.2662 12.2928 96.2429 10.5296C96.1732 7.97763 96.0337 5.98243 95.8943 3.73203C95.8013 2.31683 95.5921 0.344834 93.0355 0.716034C90.0605 1.13363 89.5724 2.61843 88.7822 4.40483C86.7136 9.06803 86.7833 9.09123 84.4359 14.288C84.2499 14.6824 83.39 16.7704 83.2505 17.188C83.1576 17.2112 82.9716 17.2576 82.7392 17.3272C81.7863 17.536 80.6242 17.7912 79.3458 18.0696L79.3691 17.9536C79.6712 15.5872 80.0431 13.2208 80.3685 10.8544C80.6707 8.69683 80.996 5.17043 81.2517 3.01283C81.5306 0.692834 78.8345 0.739234 78.8345 0.739234C77.1843 0.646434 76.5568 1.13363 75.5109 2.47923C73.7212 4.79923 71.5597 7.30483 69.6539 9.85683C66.1908 14.4736 63.6574 17.9536 60.5197 22.5936C59.6132 23.9392 58.2187 25.9808 57.0101 27.5816C56.1966 25.9808 55.4994 24.2176 54.8253 22.5936C53.8492 20.2736 53.1287 18.8352 52.6638 17.304C52.2455 15.9584 52.7568 15.7728 53.7562 15.0072C56.6382 12.8264 59.8921 11.3184 62.8439 9.23043C64.9357 7.74563 67.4459 6.09843 69.4912 4.56723C69.4912 4.56723 70.6765 3.87123 71.3273 2.98963C72.1408 1.87603 69.8398 0.716034 69.8398 0.716034C68.5382 0.507234 67.8177 0.808834 66.9113 1.22643C65.9816 1.64403 64.773 2.59523 63.9828 3.22163C62.2396 4.56723 60.0316 6.16803 58.3117 7.51363C56.1966 9.16083 54.7556 10.1816 52.4314 11.5504L58.3349 2.73443C60.264 0.252034 55.1507 -0.443966 53.1984 2.17763C51.3855 4.52083 50.1537 6.58563 48.7359 8.72003C45.3193 13.8008 42.507 19.1368 39.6947 24.728C38.6255 26.8624 37.5796 29.0896 36.6035 31.2936C36.1386 32.3608 34.7673 34.82 36.6499 35.0752C40.6708 35.5856 41.3216 33.6832 42.2281 31.3864C43.7156 27.6048 44.2037 26.9088 45.1566 24.5656C46.0863 22.292 46.7603 20.9928 47.8062 19.044C47.8294 19.0208 48.1316 18.5336 48.1316 18.5336C48.3175 18.928 49.5494 23.0112 49.7121 23.4752C50.5488 25.6792 52.013 30.8296 52.8498 33.1728C53.454 35.1216 53.6167 35.6784 56.2431 35.6088C57.5447 35.5856 58.1025 35.0752 58.9625 33.4512C59.8224 31.8272 63.5412 24.9136 63.5412 24.9136C64.6568 24.728 66.2605 24.4496 67.3064 24.264C67.4923 24.2408 67.9107 24.148 68.4918 24.032C68.8869 23.9856 69.2123 23.916 69.4679 23.8464C69.4912 23.8464 69.4912 23.8464 69.5144 23.8232C70.5371 23.6144 71.8386 23.3592 73.2564 23.0808C73.0007 24.3568 72.2105 27.164 72.0478 27.8832C72.0478 27.8832 70.3279 34.5648 72.5591 34.9128C73.9537 35.1216 74.6742 34.8896 74.6742 34.8896C77.2773 34.588 77.3238 31.0848 77.3238 31.0848L78.7416 22.0136C79.7642 21.8048 80.7869 21.596 81.7863 21.4104L78.7183 31.7576C78.2767 33.2192 77.9513 35.0984 80.5777 35.0984C82.716 35.2144 82.8554 33.8688 82.8554 33.8688C82.9019 33.66 84.5986 28.208 85.0169 26.2592C85.2958 25.0064 86.2953 21.7816 86.6904 20.4824C87.806 20.2736 88.6427 20.1112 89.0378 20.0416C89.5027 19.972 90.4091 19.8096 91.5945 19.624C91.5712 20.8304 91.5945 22.5008 91.6177 22.7328C91.8734 26.3984 91.5945 30.2032 92.3615 33.7992C92.4777 34.3792 92.7101 35.1216 93.4539 35.1216C94.3371 35.1216 94.616 35.0288 95.5457 34.9592C98.2418 34.7272 97.7537 32.0128 97.591 30.296C97.405 28.3936 97.2191 26.7928 96.9634 24.8904C96.7542 23.336 96.6148 21.2944 96.5916 18.8352V18.7888C101.008 18.0464 105.772 17.2344 106.469 17.1184C107.585 16.8168 108.515 16.9096 108.282 14.3576ZM73.7677 19.2296C73.7677 19.2528 73.7445 19.2528 73.7445 19.276C70.6533 19.9488 67.748 20.5984 66.121 20.9696C67.748 18.2552 74.9066 8.37203 75.999 7.21203C75.3947 10.2744 74.4185 15.9584 73.7677 19.2296ZM91.6177 15.332V15.4944C90.1302 15.7728 88.7357 16.0512 87.6201 16.26C89.0378 12.5944 90.5253 8.09363 91.4085 5.82003C91.3388 7.51363 91.6875 13.6616 91.6177 15.332ZM48.271 4.40483C48.7359 3.54643 49.7818 1.85283 48.4802 1.20323C47.7132 0.832034 46.6906 0.600034 45.9003 0.994434C45.2496 1.34243 44.7615 2.01523 44.4361 2.64163L39.4623 10.46C38.6488 11.5736 37.8818 12.9656 36.2316 13.1512C35.1392 13.2672 34.349 12.8032 34.3722 11.8288C34.3955 10.8312 34.9765 9.50883 35.4181 8.65043C36.7197 6.19123 36.8824 5.35603 38.1375 2.92003C39.346 0.576834 35.3949 0.0432344 34.4187 1.73683C33.7214 2.94323 32.3734 5.21683 32.0712 5.98243C31.5134 7.37443 27.3298 14.0096 29.1427 16.6312C31.4669 19.6008 37.6494 14.9144 34.4884 20.32C31.9318 24.6584 30.3281 27.1408 28.0968 31.1544C27.6087 32.0128 27.0044 32.8712 26.8417 33.892C26.6093 35.3304 28.5849 35.3072 29.4449 35.2608C30.9556 35.1448 31.6761 34.4488 32.2804 33.08C32.6058 32.3608 33.0474 31.4792 33.3728 30.76C36.3013 24.38 39.4158 18.8352 43.274 12.664C45.1101 9.74083 46.7371 7.23523 48.271 4.40483Z" fill="#FC2779"/>
</svg>
