<svg width="583" height="65" viewBox="0 0 583 65" fill="none" xmlns="http://www.w3.org/2000/svg">
<rect width="583" height="65" fill="#FFFEFE"/>
<circle cx="124" cy="34" r="20" fill="#FC2779"/>
<path d="M121.264 40V38.912H123.6V31.392H121.744V30.544C122.213 30.4587 122.619 30.3573 122.96 30.24C123.312 30.112 123.627 29.9627 123.904 29.792H124.912V38.912H127.024V40H121.264Z" fill="white"/>
<path d="M193.64 39V38.216C194.408 37.448 195.091 36.7547 195.688 36.136C196.285 35.5173 196.787 34.9467 197.192 34.424C197.597 33.8907 197.907 33.4053 198.12 32.968C198.333 32.52 198.44 32.088 198.44 31.672C198.44 31.0853 198.28 30.6053 197.96 30.232C197.64 29.8587 197.155 29.672 196.504 29.672C196.077 29.672 195.683 29.7947 195.32 30.04C194.957 30.2747 194.627 30.5627 194.328 30.904L193.576 30.152C194.003 29.6827 194.456 29.3093 194.936 29.032C195.416 28.744 195.992 28.6 196.664 28.6C197.613 28.6 198.36 28.8773 198.904 29.432C199.448 29.976 199.72 30.7013 199.72 31.608C199.72 32.088 199.613 32.5733 199.4 33.064C199.197 33.544 198.909 34.0453 198.536 34.568C198.173 35.08 197.736 35.6187 197.224 36.184C196.723 36.7387 196.168 37.3307 195.56 37.96C195.837 37.9387 196.125 37.9173 196.424 37.896C196.723 37.8747 197.005 37.864 197.272 37.864H200.232V39H193.64Z" fill="#8C8D94"/>
<path d="M269.776 39.192C269.371 39.192 268.997 39.1493 268.656 39.064C268.325 38.9893 268.021 38.888 267.744 38.76C267.467 38.6213 267.216 38.4667 266.992 38.296C266.779 38.1253 266.587 37.944 266.416 37.752L267.088 36.888C267.397 37.208 267.755 37.4907 268.16 37.736C268.576 37.9813 269.088 38.104 269.696 38.104C270.315 38.104 270.821 37.9387 271.216 37.608C271.611 37.2667 271.808 36.808 271.808 36.232C271.808 35.9333 271.749 35.6613 271.632 35.416C271.525 35.16 271.344 34.9413 271.088 34.76C270.832 34.5787 270.496 34.44 270.08 34.344C269.664 34.248 269.152 34.2 268.544 34.2V33.192C269.088 33.192 269.541 33.144 269.904 33.048C270.277 32.952 270.576 32.8187 270.8 32.648C271.035 32.4773 271.2 32.2747 271.296 32.04C271.392 31.8053 271.44 31.5547 271.44 31.288C271.44 30.7867 271.28 30.392 270.96 30.104C270.651 29.816 270.224 29.672 269.68 29.672C269.253 29.672 268.859 29.768 268.496 29.96C268.144 30.152 267.813 30.4027 267.504 30.712L266.8 29.88C267.195 29.5067 267.627 29.2027 268.096 28.968C268.576 28.7227 269.12 28.6 269.728 28.6C270.176 28.6 270.587 28.6587 270.96 28.776C271.333 28.8933 271.653 29.064 271.92 29.288C272.197 29.5013 272.411 29.768 272.56 30.088C272.709 30.408 272.784 30.776 272.784 31.192C272.784 31.8107 272.613 32.3173 272.272 32.712C271.931 33.1067 271.483 33.4107 270.928 33.624V33.688C271.237 33.7627 271.525 33.8747 271.792 34.024C272.059 34.1627 272.293 34.344 272.496 34.568C272.699 34.7813 272.853 35.032 272.96 35.32C273.077 35.608 273.136 35.928 273.136 36.28C273.136 36.728 273.045 37.1333 272.864 37.496C272.693 37.8587 272.453 38.168 272.144 38.424C271.845 38.6693 271.493 38.8613 271.088 39C270.683 39.128 270.245 39.192 269.776 39.192Z" fill="#8C8D94"/>
<path d="M343.864 39V36.184H339.272V35.32L343.64 28.792H345.112V35.128H346.504V36.184H345.112V39H343.864ZM340.664 35.128H343.864V32.168C343.864 31.8907 343.869 31.5653 343.88 31.192C343.901 30.808 343.923 30.4773 343.944 30.2H343.88C343.752 30.4453 343.619 30.6853 343.48 30.92C343.341 31.1547 343.197 31.3947 343.048 31.64L340.664 35.128Z" fill="#8C8D94"/>
<path d="M415.744 39.192C415.339 39.192 414.965 39.1493 414.624 39.064C414.293 38.9893 413.989 38.888 413.712 38.76C413.445 38.632 413.2 38.488 412.976 38.328C412.763 38.1573 412.571 37.9813 412.4 37.8L413.04 36.936C413.339 37.2453 413.691 37.5173 414.096 37.752C414.512 37.9867 415.019 38.104 415.616 38.104C415.925 38.104 416.213 38.0507 416.48 37.944C416.757 37.8267 416.997 37.6667 417.2 37.464C417.403 37.2613 417.563 37.016 417.68 36.728C417.797 36.44 417.856 36.12 417.856 35.768C417.856 35.064 417.659 34.5147 417.264 34.12C416.869 33.7253 416.341 33.528 415.68 33.528C415.328 33.528 415.024 33.5813 414.768 33.688C414.523 33.7947 414.245 33.9493 413.936 34.152L413.232 33.704L413.568 28.792H418.672V29.928H414.72L414.448 32.952C414.693 32.824 414.939 32.7227 415.184 32.648C415.429 32.5733 415.707 32.536 416.016 32.536C416.453 32.536 416.864 32.6 417.248 32.728C417.632 32.856 417.968 33.0533 418.256 33.32C418.544 33.576 418.768 33.9067 418.928 34.312C419.099 34.7067 419.184 35.1813 419.184 35.736C419.184 36.2907 419.088 36.7813 418.896 37.208C418.704 37.6347 418.448 37.9973 418.128 38.296C417.808 38.584 417.44 38.808 417.024 38.968C416.619 39.1173 416.192 39.192 415.744 39.192Z" fill="#8C8D94"/>
<g filter="url(#filter0_d_656_173093)">
<circle cx="72" cy="34" r="20" transform="rotate(-180 72 34)" fill="white"/>
</g>
<g clip-path="url(#clip0_656_173093)">
<path d="M75.7888 27L76.4079 27.495C76.9091 27.8958 76.9084 28.6583 76.4064 29.0582L70.5563 33.7186C70.054 34.1187 70.0537 34.8817 70.5556 35.2823L76.4218 39.9639C76.918 40.3599 76.9175 41.1144 76.4207 41.5097C76.0601 41.7966 75.5491 41.7962 75.1889 41.5088L67.1993 35.1325C66.7884 34.8109 66.7884 34.1891 67.1993 33.8675" fill="#FC2779"/>
</g>
<g filter="url(#filter1_d_656_173093)">
<circle cx="468" cy="34" r="20" fill="white"/>
</g>
<g clip-path="url(#clip1_656_173093)">
<path d="M464.211 41L463.592 40.505C463.091 40.1042 463.092 39.3417 463.594 38.9418L469.444 34.2814C469.946 33.8813 469.946 33.1183 469.444 32.7177L463.578 28.0361C463.082 27.6401 463.083 26.8856 463.579 26.4903C463.94 26.2034 464.451 26.2038 464.811 26.4912L472.801 32.8675C473.212 33.1891 473.212 33.8109 472.801 34.1325" fill="#FC2779"/>
</g>
<defs>
<filter id="filter0_d_656_173093" x="48" y="10" width="48" height="48" filterUnits="userSpaceOnUse" color-interpolation-filters="sRGB">
<feFlood flood-opacity="0" result="BackgroundImageFix"/>
<feColorMatrix in="SourceAlpha" type="matrix" values="0 0 0 0 0 0 0 0 0 0 0 0 0 0 0 0 0 0 127 0" result="hardAlpha"/>
<feOffset/>
<feGaussianBlur stdDeviation="2"/>
<feComposite in2="hardAlpha" operator="out"/>
<feColorMatrix type="matrix" values="0 0 0 0 0.608333 0 0 0 0 0.608333 0 0 0 0 0.608333 0 0 0 0.62 0"/>
<feBlend mode="normal" in2="BackgroundImageFix" result="effect1_dropShadow_656_173093"/>
<feBlend mode="normal" in="SourceGraphic" in2="effect1_dropShadow_656_173093" result="shape"/>
</filter>
<filter id="filter1_d_656_173093" x="444" y="10" width="48" height="48" filterUnits="userSpaceOnUse" color-interpolation-filters="sRGB">
<feFlood flood-opacity="0" result="BackgroundImageFix"/>
<feColorMatrix in="SourceAlpha" type="matrix" values="0 0 0 0 0 0 0 0 0 0 0 0 0 0 0 0 0 0 127 0" result="hardAlpha"/>
<feOffset/>
<feGaussianBlur stdDeviation="2"/>
<feComposite in2="hardAlpha" operator="out"/>
<feColorMatrix type="matrix" values="0 0 0 0 0.608333 0 0 0 0 0.608333 0 0 0 0 0.608333 0 0 0 0.62 0"/>
<feBlend mode="normal" in2="BackgroundImageFix" result="effect1_dropShadow_656_173093"/>
<feBlend mode="normal" in="SourceGraphic" in2="effect1_dropShadow_656_173093" result="shape"/>
</filter>
<clipPath id="clip0_656_173093">
<rect x="78" y="26" width="16" height="12" rx="1" transform="rotate(90 78 26)" fill="white"/>
</clipPath>
<clipPath id="clip1_656_173093">
<rect x="462" y="42" width="16" height="12" rx="1" transform="rotate(-90 462 42)" fill="white"/>
</clipPath>
</defs>
</svg>
