<svg width="270" height="52" viewBox="0 0 270 52" fill="none" xmlns="http://www.w3.org/2000/svg">
<g filter="url(#filter0_d_656_173069)">
<path d="M0 4C0 1.79086 1.79086 0 4 0H266C268.209 0 270 1.79086 270 4V46C270 48.2091 268.209 50 266 50H3.99999C1.79086 50 0 48.2091 0 46V4Z" fill="white"/>
<path d="M15.808 30.168C15.164 30.168 14.5667 30.0467 14.016 29.804C13.4653 29.5613 12.9893 29.23 12.588 28.81L13.288 27.998C13.6147 28.3433 13.9973 28.6233 14.436 28.838C14.884 29.0433 15.346 29.146 15.822 29.146C16.4287 29.146 16.9 29.0107 17.236 28.74C17.572 28.46 17.74 28.096 17.74 27.648C17.74 27.4147 17.698 27.2187 17.614 27.06C17.5393 26.892 17.432 26.752 17.292 26.64C17.1613 26.5187 17.0027 26.4113 16.816 26.318C16.6293 26.2247 16.4287 26.1267 16.214 26.024L14.898 25.45C14.6833 25.3567 14.464 25.2447 14.24 25.114C14.016 24.9833 13.8153 24.8247 13.638 24.638C13.4607 24.4513 13.316 24.232 13.204 23.98C13.092 23.7187 13.036 23.42 13.036 23.084C13.036 22.7387 13.106 22.4167 13.246 22.118C13.3953 21.8193 13.596 21.5627 13.848 21.348C14.1093 21.124 14.4127 20.9513 14.758 20.83C15.1127 20.7087 15.5 20.648 15.92 20.648C16.4707 20.648 16.9793 20.7553 17.446 20.97C17.9127 21.1753 18.3093 21.446 18.636 21.782L18.006 22.538C17.726 22.2673 17.4133 22.0573 17.068 21.908C16.732 21.7493 16.3493 21.67 15.92 21.67C15.4067 21.67 14.9913 21.7913 14.674 22.034C14.366 22.2673 14.212 22.594 14.212 23.014C14.212 23.238 14.254 23.4293 14.338 23.588C14.4313 23.7373 14.5527 23.8727 14.702 23.994C14.8513 24.106 15.0147 24.2087 15.192 24.302C15.3693 24.386 15.5513 24.4653 15.738 24.54L17.04 25.1C17.3013 25.212 17.5487 25.3427 17.782 25.492C18.0153 25.632 18.216 25.8 18.384 25.996C18.552 26.1827 18.6827 26.4067 18.776 26.668C18.8787 26.92 18.93 27.214 18.93 27.55C18.93 27.914 18.8553 28.2547 18.706 28.572C18.566 28.8893 18.3607 29.1693 18.09 29.412C17.8193 29.6453 17.4927 29.832 17.11 29.972C16.7273 30.1027 16.2933 30.168 15.808 30.168ZM23.2725 30.168C22.8525 30.168 22.4512 30.0887 22.0685 29.93C21.6952 29.7713 21.3638 29.5427 21.0745 29.244C20.7852 28.936 20.5518 28.5627 20.3745 28.124C20.2065 27.676 20.1225 27.172 20.1225 26.612C20.1225 26.0427 20.2065 25.5387 20.3745 25.1C20.5518 24.652 20.7852 24.274 21.0745 23.966C21.3638 23.658 21.6952 23.4247 22.0685 23.266C22.4512 23.1073 22.8525 23.028 23.2725 23.028C23.6925 23.028 24.0892 23.1073 24.4625 23.266C24.8452 23.4247 25.1812 23.658 25.4705 23.966C25.7598 24.274 25.9885 24.652 26.1565 25.1C26.3338 25.5387 26.4225 26.0427 26.4225 26.612C26.4225 27.172 26.3338 27.676 26.1565 28.124C25.9885 28.5627 25.7598 28.936 25.4705 29.244C25.1812 29.5427 24.8452 29.7713 24.4625 29.93C24.0892 30.0887 23.6925 30.168 23.2725 30.168ZM23.2725 29.216C23.5618 29.216 23.8278 29.1553 24.0705 29.034C24.3132 28.9033 24.5185 28.726 24.6865 28.502C24.8638 28.2687 24.9992 27.9933 25.0925 27.676C25.1858 27.3587 25.2325 27.004 25.2325 26.612C25.2325 26.22 25.1858 25.8653 25.0925 25.548C24.9992 25.2213 24.8638 24.9413 24.6865 24.708C24.5185 24.4747 24.3132 24.2973 24.0705 24.176C23.8278 24.0453 23.5618 23.98 23.2725 23.98C22.9832 23.98 22.7172 24.0453 22.4745 24.176C22.2318 24.2973 22.0218 24.4747 21.8445 24.708C21.6765 24.9413 21.5458 25.2213 21.4525 25.548C21.3592 25.8653 21.3125 26.22 21.3125 26.612C21.3125 27.004 21.3592 27.3587 21.4525 27.676C21.5458 27.9933 21.6765 28.2687 21.8445 28.502C22.0218 28.726 22.2318 28.9033 22.4745 29.034C22.7172 29.1553 22.9832 29.216 23.2725 29.216ZM28.2144 30V23.196H29.1664L29.2644 24.428H29.3064C29.5397 23.9987 29.8197 23.658 30.1464 23.406C30.4824 23.154 30.8464 23.028 31.2384 23.028C31.5091 23.028 31.7517 23.0747 31.9664 23.168L31.7424 24.176C31.6304 24.1387 31.5277 24.1107 31.4344 24.092C31.3411 24.0733 31.2244 24.064 31.0844 24.064C30.7951 24.064 30.4917 24.1807 30.1744 24.414C29.8664 24.6473 29.5957 25.0533 29.3624 25.632V30H28.2144ZM35.2099 30.168C34.8459 30.168 34.5379 30.112 34.2859 30C34.0433 29.888 33.8426 29.734 33.6839 29.538C33.5346 29.342 33.4273 29.104 33.3619 28.824C33.2966 28.544 33.2639 28.236 33.2639 27.9V24.134H32.2559V23.266L33.3199 23.196L33.4599 21.292H34.4259V23.196H36.2599V24.134H34.4259V27.914C34.4259 28.334 34.5006 28.6607 34.6499 28.894C34.8086 29.118 35.0839 29.23 35.4759 29.23C35.5973 29.23 35.7279 29.2113 35.8679 29.174C36.0079 29.1367 36.1339 29.0947 36.2459 29.048L36.4699 29.916C36.2833 29.9813 36.0779 30.0373 35.8539 30.084C35.6393 30.14 35.4246 30.168 35.2099 30.168ZM43.6111 30.168C43.2938 30.168 42.9625 30.0933 42.6171 29.944C42.2811 29.7853 41.9638 29.5707 41.6651 29.3H41.6231L41.5251 30H40.6011V20.032H41.7491V22.748L41.7211 23.98C42.0291 23.7093 42.3651 23.4853 42.7291 23.308C43.0931 23.1213 43.4665 23.028 43.8491 23.028C44.2878 23.028 44.6751 23.112 45.0111 23.28C45.3471 23.4387 45.6271 23.672 45.8511 23.98C46.0845 24.2787 46.2571 24.6427 46.3691 25.072C46.4905 25.492 46.5511 25.9633 46.5511 26.486C46.5511 27.0647 46.4718 27.5827 46.3131 28.04C46.1545 28.4973 45.9398 28.8847 45.6691 29.202C45.3985 29.5193 45.0858 29.762 44.7311 29.93C44.3765 30.0887 44.0031 30.168 43.6111 30.168ZM43.4151 29.202C43.6951 29.202 43.9518 29.1413 44.1851 29.02C44.4278 28.8893 44.6331 28.712 44.8011 28.488C44.9785 28.2547 45.1138 27.97 45.2071 27.634C45.3098 27.298 45.3611 26.92 45.3611 26.5C45.3611 26.1267 45.3285 25.786 45.2631 25.478C45.1978 25.17 45.0905 24.9087 44.9411 24.694C44.8011 24.47 44.6145 24.2973 44.3811 24.176C44.1571 24.0547 43.8865 23.994 43.5691 23.994C43.0185 23.994 42.4118 24.302 41.7491 24.918V28.488C42.0478 28.7493 42.3418 28.936 42.6311 29.048C42.9298 29.1507 43.1911 29.202 43.4151 29.202ZM48.3967 32.926C48.2381 32.926 48.0934 32.912 47.9627 32.884C47.8321 32.8653 47.7107 32.8327 47.5987 32.786L47.8227 31.876C47.8974 31.8947 47.9814 31.9133 48.0747 31.932C48.1681 31.96 48.2567 31.974 48.3407 31.974C48.7327 31.974 49.0501 31.834 49.2927 31.554C49.5447 31.2833 49.7407 30.938 49.8807 30.518L50.0347 30.014L47.3047 23.196H48.4947L49.8807 26.962C49.9834 27.2607 50.0907 27.578 50.2027 27.914C50.3241 28.2407 50.4361 28.5627 50.5387 28.88H50.5947C50.6974 28.572 50.7954 28.25 50.8887 27.914C50.9821 27.578 51.0754 27.2607 51.1687 26.962L52.3867 23.196H53.5067L50.9447 30.56C50.8234 30.896 50.6881 31.2087 50.5387 31.498C50.3894 31.7873 50.2121 32.0347 50.0067 32.24C49.8014 32.4547 49.5681 32.6227 49.3067 32.744C49.0454 32.8653 48.7421 32.926 48.3967 32.926ZM58.2246 25.114C57.9913 25.114 57.7906 25.0347 57.6226 24.876C57.4639 24.708 57.3846 24.498 57.3846 24.246C57.3846 23.9753 57.4639 23.7607 57.6226 23.602C57.7906 23.434 57.9913 23.35 58.2246 23.35C58.4486 23.35 58.6399 23.434 58.7986 23.602C58.9666 23.7607 59.0506 23.9753 59.0506 24.246C59.0506 24.498 58.9666 24.708 58.7986 24.876C58.6399 25.0347 58.4486 25.114 58.2246 25.114ZM58.2246 30.168C57.9913 30.168 57.7906 30.0887 57.6226 29.93C57.4639 29.762 57.3846 29.552 57.3846 29.3C57.3846 29.0293 57.4639 28.8147 57.6226 28.656C57.7906 28.488 57.9913 28.404 58.2246 28.404C58.4486 28.404 58.6399 28.488 58.7986 28.656C58.9666 28.8147 59.0506 29.0293 59.0506 29.3C59.0506 29.552 58.9666 29.762 58.7986 29.93C58.6399 30.0887 58.4486 30.168 58.2246 30.168ZM64.0237 30V20.816H66.6417C67.155 20.816 67.6217 20.8627 68.0417 20.956C68.471 21.0493 68.835 21.2033 69.1337 21.418C69.4323 21.6233 69.6657 21.8987 69.8337 22.244C70.0017 22.5893 70.0857 23.014 70.0857 23.518C70.0857 24.0033 70.0017 24.4233 69.8337 24.778C69.675 25.1327 69.4463 25.4267 69.1477 25.66C68.849 25.8933 68.4897 26.0707 68.0697 26.192C67.659 26.304 67.2017 26.36 66.6977 26.36H65.1857V30H64.0237ZM65.1857 25.408H66.5577C67.3603 25.408 67.953 25.2587 68.3357 24.96C68.7277 24.652 68.9237 24.1713 68.9237 23.518C68.9237 22.8553 68.7183 22.398 68.3077 22.146C67.9063 21.8847 67.3043 21.754 66.5017 21.754H65.1857V25.408ZM74.1456 30.168C73.7256 30.168 73.3242 30.0887 72.9416 29.93C72.5682 29.7713 72.2369 29.5427 71.9476 29.244C71.6582 28.936 71.4249 28.5627 71.2476 28.124C71.0796 27.676 70.9956 27.172 70.9956 26.612C70.9956 26.0427 71.0796 25.5387 71.2476 25.1C71.4249 24.652 71.6582 24.274 71.9476 23.966C72.2369 23.658 72.5682 23.4247 72.9416 23.266C73.3242 23.1073 73.7256 23.028 74.1456 23.028C74.5656 23.028 74.9622 23.1073 75.3356 23.266C75.7182 23.4247 76.0542 23.658 76.3436 23.966C76.6329 24.274 76.8616 24.652 77.0296 25.1C77.2069 25.5387 77.2956 26.0427 77.2956 26.612C77.2956 27.172 77.2069 27.676 77.0296 28.124C76.8616 28.5627 76.6329 28.936 76.3436 29.244C76.0542 29.5427 75.7182 29.7713 75.3356 29.93C74.9622 30.0887 74.5656 30.168 74.1456 30.168ZM74.1456 29.216C74.4349 29.216 74.7009 29.1553 74.9436 29.034C75.1862 28.9033 75.3916 28.726 75.5596 28.502C75.7369 28.2687 75.8722 27.9933 75.9656 27.676C76.0589 27.3587 76.1056 27.004 76.1056 26.612C76.1056 26.22 76.0589 25.8653 75.9656 25.548C75.8722 25.2213 75.7369 24.9413 75.5596 24.708C75.3916 24.4747 75.1862 24.2973 74.9436 24.176C74.7009 24.0453 74.4349 23.98 74.1456 23.98C73.8562 23.98 73.5902 24.0453 73.3476 24.176C73.1049 24.2973 72.8949 24.4747 72.7176 24.708C72.5496 24.9413 72.4189 25.2213 72.3256 25.548C72.2322 25.8653 72.1856 26.22 72.1856 26.612C72.1856 27.004 72.2322 27.3587 72.3256 27.676C72.4189 27.9933 72.5496 28.2687 72.7176 28.502C72.8949 28.726 73.1049 28.9033 73.3476 29.034C73.5902 29.1553 73.8562 29.216 74.1456 29.216ZM79.0875 32.87V23.196H80.0395L80.1375 23.98H80.1795C80.4875 23.7187 80.8235 23.4947 81.1875 23.308C81.5608 23.1213 81.9481 23.028 82.3495 23.028C82.7881 23.028 83.1755 23.112 83.5115 23.28C83.8475 23.4387 84.1275 23.672 84.3515 23.98C84.5755 24.2787 84.7435 24.6427 84.8555 25.072C84.9768 25.492 85.0375 25.968 85.0375 26.5C85.0375 27.0787 84.9581 27.5967 84.7995 28.054C84.6408 28.502 84.4261 28.8847 84.1555 29.202C83.8848 29.5193 83.5721 29.762 83.2175 29.93C82.8628 30.0887 82.4895 30.168 82.0975 30.168C81.7801 30.168 81.4628 30.098 81.1455 29.958C80.8375 29.818 80.5248 29.6267 80.2075 29.384L80.2355 30.574V32.87H79.0875ZM81.9015 29.202C82.1815 29.202 82.4381 29.1413 82.6715 29.02C82.9141 28.8893 83.1195 28.712 83.2875 28.488C83.4648 28.2547 83.6001 27.97 83.6935 27.634C83.7961 27.298 83.8475 26.92 83.8475 26.5C83.8475 26.1267 83.8148 25.786 83.7495 25.478C83.6841 25.17 83.5768 24.9087 83.4275 24.694C83.2875 24.47 83.1008 24.2973 82.8675 24.176C82.6435 24.0547 82.3728 23.994 82.0555 23.994C81.7661 23.994 81.4721 24.0733 81.1735 24.232C80.8841 24.3907 80.5715 24.6193 80.2355 24.918V28.488C80.5435 28.7493 80.8421 28.936 81.1315 29.048C81.4208 29.1507 81.6775 29.202 81.9015 29.202ZM88.8411 30.168C88.1131 30.168 87.5811 29.944 87.2451 29.496C86.9184 29.048 86.7551 28.3853 86.7551 27.508V23.196H87.9171V27.354C87.9171 27.998 88.0151 28.4647 88.2111 28.754C88.4164 29.034 88.7431 29.174 89.1911 29.174C89.5457 29.174 89.8584 29.0853 90.1291 28.908C90.3997 28.7213 90.6984 28.4273 91.0251 28.026V23.196H92.1731V30H91.2211L91.1231 28.936H91.0811C90.7637 29.3093 90.4277 29.608 90.0731 29.832C89.7277 30.056 89.3171 30.168 88.8411 30.168ZM95.6863 30.168C95.2476 30.168 94.935 30.0373 94.7483 29.776C94.5616 29.5147 94.4683 29.132 94.4683 28.628V20.032H95.6163V28.712C95.6163 28.8987 95.649 29.0293 95.7143 29.104C95.7796 29.1787 95.8543 29.216 95.9383 29.216C95.9756 29.216 96.0083 29.216 96.0363 29.216C96.0736 29.216 96.125 29.2067 96.1903 29.188L96.3443 30.056C96.2696 30.0933 96.181 30.1213 96.0783 30.14C95.9756 30.1587 95.845 30.168 95.6863 30.168ZM99.6047 30.168C99.0353 30.168 98.5593 30 98.1767 29.664C97.8033 29.328 97.6167 28.852 97.6167 28.236C97.6167 27.4893 97.948 26.92 98.6107 26.528C99.2733 26.1267 100.333 25.8467 101.789 25.688C101.789 25.4733 101.765 25.2633 101.719 25.058C101.681 24.8527 101.611 24.6707 101.509 24.512C101.406 24.3533 101.261 24.2273 101.075 24.134C100.897 24.0313 100.669 23.98 100.389 23.98C99.9967 23.98 99.628 24.0547 99.2827 24.204C98.9373 24.3533 98.6293 24.5213 98.3587 24.708L97.9107 23.91C98.228 23.7047 98.6153 23.5087 99.0727 23.322C99.53 23.126 100.034 23.028 100.585 23.028C101.415 23.028 102.017 23.2847 102.391 23.798C102.764 24.302 102.951 24.9787 102.951 25.828V30H101.999L101.901 29.188H101.859C101.532 29.4587 101.182 29.692 100.809 29.888C100.435 30.0747 100.034 30.168 99.6047 30.168ZM99.9407 29.244C100.267 29.244 100.575 29.1693 100.865 29.02C101.154 28.8613 101.462 28.6327 101.789 28.334V26.444C101.219 26.5187 100.739 26.6073 100.347 26.71C99.964 26.8127 99.6513 26.934 99.4087 27.074C99.1753 27.214 99.0027 27.3773 98.8907 27.564C98.788 27.7413 98.7367 27.9373 98.7367 28.152C98.7367 28.544 98.8533 28.824 99.0867 28.992C99.32 29.16 99.6047 29.244 99.9407 29.244ZM105.091 30V23.196H106.043L106.141 24.428H106.183C106.417 23.9987 106.697 23.658 107.023 23.406C107.359 23.154 107.723 23.028 108.115 23.028C108.386 23.028 108.629 23.0747 108.843 23.168L108.619 24.176C108.507 24.1387 108.405 24.1107 108.311 24.092C108.218 24.0733 108.101 24.064 107.961 24.064C107.672 24.064 107.369 24.1807 107.051 24.414C106.743 24.6473 106.473 25.0533 106.239 25.632V30H105.091ZM109.945 30V23.196H111.093V30H109.945ZM110.533 21.796C110.309 21.796 110.118 21.726 109.959 21.586C109.81 21.446 109.735 21.2687 109.735 21.054C109.735 20.83 109.81 20.6527 109.959 20.522C110.118 20.382 110.309 20.312 110.533 20.312C110.757 20.312 110.944 20.382 111.093 20.522C111.252 20.6527 111.331 20.83 111.331 21.054C111.331 21.2687 111.252 21.446 111.093 21.586C110.944 21.726 110.757 21.796 110.533 21.796ZM115.532 30.168C115.168 30.168 114.86 30.112 114.608 30C114.366 29.888 114.165 29.734 114.006 29.538C113.857 29.342 113.75 29.104 113.684 28.824C113.619 28.544 113.586 28.236 113.586 27.9V24.134H112.578V23.266L113.642 23.196L113.782 21.292H114.748V23.196H116.582V24.134H114.748V27.914C114.748 28.334 114.823 28.6607 114.972 28.894C115.131 29.118 115.406 29.23 115.798 29.23C115.92 29.23 116.05 29.2113 116.19 29.174C116.33 29.1367 116.456 29.0947 116.568 29.048L116.792 29.916C116.606 29.9813 116.4 30.0373 116.176 30.084C115.962 30.14 115.747 30.168 115.532 30.168ZM118.233 32.926C118.074 32.926 117.929 32.912 117.799 32.884C117.668 32.8653 117.547 32.8327 117.435 32.786L117.659 31.876C117.733 31.8947 117.817 31.9133 117.911 31.932C118.004 31.96 118.093 31.974 118.177 31.974C118.569 31.974 118.886 31.834 119.129 31.554C119.381 31.2833 119.577 30.938 119.717 30.518L119.871 30.014L117.141 23.196H118.331L119.717 26.962C119.819 27.2607 119.927 27.578 120.039 27.914C120.16 28.2407 120.272 28.5627 120.375 28.88H120.431C120.533 28.572 120.631 28.25 120.725 27.914C120.818 27.578 120.911 27.2607 121.005 26.962L122.223 23.196H123.343L120.781 30.56C120.659 30.896 120.524 31.2087 120.375 31.498C120.225 31.7873 120.048 32.0347 119.843 32.24C119.637 32.4547 119.404 32.6227 119.143 32.744C118.881 32.8653 118.578 32.926 118.233 32.926Z" fill="#3F414D"/>
<path d="M247.555 22.6713C247.809 22.3816 247.81 21.9478 247.555 21.6579C247.249 21.3094 246.706 21.3097 246.401 21.6586L242.751 25.8252C242.353 26.2798 241.646 26.2802 241.248 25.8261L237.582 21.6506C237.28 21.3058 236.743 21.3058 236.44 21.6507C236.188 21.9375 236.188 22.3665 236.44 22.6533L241.494 28.4112C241.76 28.7209 242.24 28.7209 242.506 28.4112L247.555 22.6713Z" fill="#FC2779"/>
</g>
<defs>
<filter id="filter0_d_656_173069" x="-1" y="0" width="272" height="52" filterUnits="userSpaceOnUse" color-interpolation-filters="sRGB">
<feFlood flood-opacity="0" result="BackgroundImageFix"/>
<feColorMatrix in="SourceAlpha" type="matrix" values="0 0 0 0 0 0 0 0 0 0 0 0 0 0 0 0 0 0 127 0" result="hardAlpha"/>
<feOffset dy="1"/>
<feGaussianBlur stdDeviation="0.5"/>
<feComposite in2="hardAlpha" operator="out"/>
<feColorMatrix type="matrix" values="0 0 0 0 0 0 0 0 0 0 0 0 0 0 0 0 0 0 0.25 0"/>
<feBlend mode="normal" in2="BackgroundImageFix" result="effect1_dropShadow_656_173069"/>
<feBlend mode="normal" in="SourceGraphic" in2="effect1_dropShadow_656_173069" result="shape"/>
</filter>
</defs>
</svg>
