<svg width="270" height="488" viewBox="0 0 270 488" fill="none" xmlns="http://www.w3.org/2000/svg">
<g filter="url(#filter0_d_656_173070)">
<path d="M0 4C0 1.79086 1.79086 0 4 0H266C268.209 0 270 1.79086 270 4V484C270 486.209 268.209 488 266 488H3.99999C1.79086 488 0 486.209 0 484V4Z" fill="white"/>
<path d="M16.732 30.168C16.1533 30.168 15.6213 30.0607 15.136 29.846C14.6507 29.6313 14.226 29.3233 13.862 28.922C13.5073 28.5113 13.2273 28.012 13.022 27.424C12.826 26.8267 12.728 26.1547 12.728 25.408C12.728 24.6707 12.8307 24.008 13.036 23.42C13.2413 22.832 13.526 22.3327 13.89 21.922C14.254 21.5113 14.6833 21.1987 15.178 20.984C15.6727 20.76 16.214 20.648 16.802 20.648C17.362 20.648 17.852 20.7647 18.272 20.998C18.7013 21.222 19.0513 21.4833 19.322 21.782L18.692 22.538C18.4493 22.2767 18.174 22.0667 17.866 21.908C17.558 21.7493 17.208 21.67 16.816 21.67C16.3773 21.67 15.9807 21.7587 15.626 21.936C15.2713 22.104 14.968 22.3513 14.716 22.678C14.464 22.9953 14.268 23.3827 14.128 23.84C13.9973 24.2973 13.932 24.8107 13.932 25.38C13.932 25.9587 13.9973 26.4813 14.128 26.948C14.268 27.4053 14.4593 27.7973 14.702 28.124C14.9447 28.4507 15.2387 28.7027 15.584 28.88C15.9387 29.0573 16.3353 29.146 16.774 29.146C17.222 29.146 17.614 29.0573 17.95 28.88C18.286 28.6933 18.6033 28.4367 18.902 28.11L19.546 28.838C19.182 29.258 18.7713 29.5847 18.314 29.818C17.8567 30.0513 17.3293 30.168 16.732 30.168ZM22.714 30.168C22.1447 30.168 21.6687 30 21.286 29.664C20.9127 29.328 20.726 28.852 20.726 28.236C20.726 27.4893 21.0574 26.92 21.72 26.528C22.3827 26.1267 23.442 25.8467 24.898 25.688C24.898 25.4733 24.8747 25.2633 24.828 25.058C24.7907 24.8527 24.7207 24.6707 24.618 24.512C24.5154 24.3533 24.3707 24.2273 24.184 24.134C24.0067 24.0313 23.778 23.98 23.498 23.98C23.106 23.98 22.7374 24.0547 22.392 24.204C22.0467 24.3533 21.7387 24.5213 21.468 24.708L21.02 23.91C21.3374 23.7047 21.7247 23.5087 22.182 23.322C22.6394 23.126 23.1434 23.028 23.694 23.028C24.5247 23.028 25.1267 23.2847 25.5 23.798C25.8734 24.302 26.06 24.9787 26.06 25.828V30H25.108L25.01 29.188H24.968C24.6414 29.4587 24.2914 29.692 23.918 29.888C23.5447 30.0747 23.1434 30.168 22.714 30.168ZM23.05 29.244C23.3767 29.244 23.6847 29.1693 23.974 29.02C24.2634 28.8613 24.5714 28.6327 24.898 28.334V26.444C24.3287 26.5187 23.848 26.6073 23.456 26.71C23.0734 26.8127 22.7607 26.934 22.518 27.074C22.2847 27.214 22.112 27.3773 22 27.564C21.8974 27.7413 21.846 27.9373 21.846 28.152C21.846 28.544 21.9627 28.824 22.196 28.992C22.4294 29.16 22.714 29.244 23.05 29.244ZM30.1513 30.168C29.7873 30.168 29.4793 30.112 29.2273 30C28.9847 29.888 28.784 29.734 28.6253 29.538C28.476 29.342 28.3687 29.104 28.3033 28.824C28.238 28.544 28.2053 28.236 28.2053 27.9V24.134H27.1973V23.266L28.2613 23.196L28.4013 21.292H29.3673V23.196H31.2013V24.134H29.3673V27.914C29.3673 28.334 29.442 28.6607 29.5913 28.894C29.75 29.118 30.0253 29.23 30.4173 29.23C30.5387 29.23 30.6693 29.2113 30.8093 29.174C30.9493 29.1367 31.0753 29.0947 31.1873 29.048L31.4113 29.916C31.2247 29.9813 31.0193 30.0373 30.7953 30.084C30.5807 30.14 30.366 30.168 30.1513 30.168ZM35.3064 30.168C34.8491 30.168 34.4197 30.0887 34.0184 29.93C33.6264 29.762 33.2811 29.5287 32.9824 29.23C32.6931 28.922 32.4644 28.5487 32.2964 28.11C32.1284 27.6713 32.0444 27.172 32.0444 26.612C32.0444 26.052 32.1284 25.5527 32.2964 25.114C32.4737 24.666 32.7024 24.288 32.9824 23.98C33.2717 23.672 33.5984 23.4387 33.9624 23.28C34.3264 23.112 34.7044 23.028 35.0964 23.028C35.5257 23.028 35.9084 23.1027 36.2444 23.252C36.5897 23.4013 36.8744 23.616 37.0984 23.896C37.3317 24.176 37.5091 24.512 37.6304 24.904C37.7517 25.296 37.8124 25.7347 37.8124 26.22C37.8124 26.3413 37.8077 26.4627 37.7984 26.584C37.7984 26.696 37.7891 26.794 37.7704 26.878H33.1784C33.2251 27.606 33.4491 28.1847 33.8504 28.614C34.2611 29.034 34.7931 29.244 35.4464 29.244C35.7731 29.244 36.0717 29.1973 36.3424 29.104C36.6224 29.0013 36.8884 28.8707 37.1404 28.712L37.5464 29.468C37.2477 29.6547 36.9164 29.818 36.5524 29.958C36.1884 30.098 35.7731 30.168 35.3064 30.168ZM33.1644 26.052H36.8044C36.8044 25.3613 36.6551 24.8387 36.3564 24.484C36.0671 24.12 35.6564 23.938 35.1244 23.938C34.8817 23.938 34.6484 23.9847 34.4244 24.078C34.2097 24.1713 34.0137 24.3113 33.8364 24.498C33.6591 24.6753 33.5097 24.8947 33.3884 25.156C33.2764 25.4173 33.2017 25.716 33.1644 26.052ZM41.653 33.136C41.233 33.136 40.8503 33.094 40.505 33.01C40.1597 32.9353 39.861 32.8187 39.609 32.66C39.3663 32.5013 39.175 32.31 39.035 32.086C38.9043 31.862 38.839 31.6007 38.839 31.302C38.839 31.0127 38.9277 30.7373 39.105 30.476C39.2823 30.2147 39.525 29.9767 39.833 29.762V29.706C39.665 29.6033 39.5203 29.4633 39.399 29.286C39.287 29.0993 39.231 28.8707 39.231 28.6C39.231 28.3107 39.3103 28.0587 39.469 27.844C39.6277 27.6293 39.7957 27.4613 39.973 27.34V27.284C39.749 27.0973 39.5437 26.85 39.357 26.542C39.1797 26.2247 39.091 25.8607 39.091 25.45C39.091 25.0767 39.1563 24.7407 39.287 24.442C39.427 24.1433 39.6137 23.8913 39.847 23.686C40.0803 23.4713 40.351 23.308 40.659 23.196C40.9763 23.084 41.3077 23.028 41.653 23.028C41.8397 23.028 42.0123 23.0467 42.171 23.084C42.339 23.112 42.4883 23.1493 42.619 23.196H44.985V24.078H43.585C43.7437 24.2367 43.8743 24.4373 43.977 24.68C44.089 24.9227 44.145 25.1887 44.145 25.478C44.145 25.842 44.0797 26.1733 43.949 26.472C43.8183 26.7613 43.641 27.0087 43.417 27.214C43.193 27.41 42.927 27.564 42.619 27.676C42.3203 27.788 41.9983 27.844 41.653 27.844C41.485 27.844 41.3123 27.8253 41.135 27.788C40.9577 27.7413 40.7897 27.6807 40.631 27.606C40.5097 27.7087 40.407 27.8253 40.323 27.956C40.239 28.0773 40.197 28.2313 40.197 28.418C40.197 28.6327 40.281 28.81 40.449 28.95C40.617 29.09 40.9343 29.16 41.401 29.16H42.717C43.5103 29.16 44.103 29.2907 44.495 29.552C44.8963 29.804 45.097 30.2147 45.097 30.784C45.097 31.1013 45.0177 31.4 44.859 31.68C44.7003 31.9693 44.4717 32.2213 44.173 32.436C43.8743 32.6507 43.5103 32.8187 43.081 32.94C42.661 33.0707 42.185 33.136 41.653 33.136ZM41.653 27.074C41.849 27.074 42.031 27.0367 42.199 26.962C42.3763 26.8873 42.5303 26.78 42.661 26.64C42.801 26.5 42.9083 26.332 42.983 26.136C43.0577 25.9307 43.095 25.702 43.095 25.45C43.095 24.946 42.955 24.5587 42.675 24.288C42.395 24.008 42.0543 23.868 41.653 23.868C41.2517 23.868 40.911 24.008 40.631 24.288C40.351 24.5587 40.211 24.946 40.211 25.45C40.211 25.702 40.2483 25.9307 40.323 26.136C40.3977 26.332 40.5003 26.5 40.631 26.64C40.771 26.78 40.925 26.8873 41.093 26.962C41.2703 27.0367 41.457 27.074 41.653 27.074ZM41.821 32.338C42.1477 32.338 42.4417 32.296 42.703 32.212C42.9737 32.1373 43.2023 32.0347 43.389 31.904C43.5757 31.7827 43.7203 31.638 43.823 31.47C43.9257 31.302 43.977 31.1293 43.977 30.952C43.977 30.6347 43.8603 30.4153 43.627 30.294C43.3937 30.1727 43.053 30.112 42.605 30.112H41.429C41.2983 30.112 41.1537 30.1027 40.995 30.084C40.8457 30.0747 40.6963 30.0467 40.547 30C40.3043 30.1773 40.127 30.364 40.015 30.56C39.903 30.756 39.847 30.952 39.847 31.148C39.847 31.512 40.0197 31.8013 40.365 32.016C40.7197 32.2307 41.205 32.338 41.821 32.338ZM48.8663 30.168C48.4463 30.168 48.0449 30.0887 47.6623 29.93C47.2889 29.7713 46.9576 29.5427 46.6683 29.244C46.3789 28.936 46.1456 28.5627 45.9683 28.124C45.8003 27.676 45.7163 27.172 45.7163 26.612C45.7163 26.0427 45.8003 25.5387 45.9683 25.1C46.1456 24.652 46.3789 24.274 46.6683 23.966C46.9576 23.658 47.2889 23.4247 47.6623 23.266C48.0449 23.1073 48.4463 23.028 48.8663 23.028C49.2863 23.028 49.6829 23.1073 50.0563 23.266C50.4389 23.4247 50.7749 23.658 51.0643 23.966C51.3536 24.274 51.5823 24.652 51.7503 25.1C51.9276 25.5387 52.0163 26.0427 52.0163 26.612C52.0163 27.172 51.9276 27.676 51.7503 28.124C51.5823 28.5627 51.3536 28.936 51.0643 29.244C50.7749 29.5427 50.4389 29.7713 50.0563 29.93C49.6829 30.0887 49.2863 30.168 48.8663 30.168ZM48.8663 29.216C49.1556 29.216 49.4216 29.1553 49.6643 29.034C49.9069 28.9033 50.1123 28.726 50.2803 28.502C50.4576 28.2687 50.5929 27.9933 50.6863 27.676C50.7796 27.3587 50.8263 27.004 50.8263 26.612C50.8263 26.22 50.7796 25.8653 50.6863 25.548C50.5929 25.2213 50.4576 24.9413 50.2803 24.708C50.1123 24.4747 49.9069 24.2973 49.6643 24.176C49.4216 24.0453 49.1556 23.98 48.8663 23.98C48.5769 23.98 48.3109 24.0453 48.0683 24.176C47.8256 24.2973 47.6156 24.4747 47.4383 24.708C47.2703 24.9413 47.1396 25.2213 47.0463 25.548C46.9529 25.8653 46.9063 26.22 46.9063 26.612C46.9063 27.004 46.9529 27.3587 47.0463 27.676C47.1396 27.9933 47.2703 28.2687 47.4383 28.502C47.6156 28.726 47.8256 28.9033 48.0683 29.034C48.3109 29.1553 48.5769 29.216 48.8663 29.216ZM53.8082 30V23.196H54.7602L54.8582 24.428H54.9002C55.1335 23.9987 55.4135 23.658 55.7402 23.406C56.0762 23.154 56.4402 23.028 56.8322 23.028C57.1028 23.028 57.3455 23.0747 57.5602 23.168L57.3362 24.176C57.2242 24.1387 57.1215 24.1107 57.0282 24.092C56.9348 24.0733 56.8182 24.064 56.6782 24.064C56.3888 24.064 56.0855 24.1807 55.7682 24.414C55.4602 24.6473 55.1895 25.0533 54.9562 25.632V30H53.8082ZM59.1291 32.926C58.9705 32.926 58.8258 32.912 58.6951 32.884C58.5645 32.8653 58.4431 32.8327 58.3311 32.786L58.5551 31.876C58.6298 31.8947 58.7138 31.9133 58.8071 31.932C58.9005 31.96 58.9891 31.974 59.0731 31.974C59.4651 31.974 59.7825 31.834 60.0251 31.554C60.2771 31.2833 60.4731 30.938 60.6131 30.518L60.7671 30.014L58.0371 23.196H59.2271L60.6131 26.962C60.7158 27.2607 60.8231 27.578 60.9351 27.914C61.0565 28.2407 61.1685 28.5627 61.2711 28.88H61.3271C61.4298 28.572 61.5278 28.25 61.6211 27.914C61.7145 27.578 61.8078 27.2607 61.9011 26.962L63.1191 23.196H64.2391L61.6771 30.56C61.5558 30.896 61.4205 31.2087 61.2711 31.498C61.1218 31.7873 60.9445 32.0347 60.7391 32.24C60.5338 32.4547 60.3005 32.6227 60.0391 32.744C59.7778 32.8653 59.4745 32.926 59.1291 32.926Z" fill="#3F414D"/>
<path d="M245.555 22.6713C245.809 22.3816 245.81 21.9478 245.555 21.6579C245.249 21.3094 244.706 21.3097 244.401 21.6586L240.751 25.8252C240.353 26.2798 239.646 26.2802 239.248 25.8261L235.582 21.6506C235.28 21.3058 234.743 21.3058 234.44 21.6507C234.188 21.9375 234.188 22.3665 234.44 22.6533L239.494 28.4112C239.76 28.7209 240.24 28.7209 240.506 28.4112L245.555 22.6713Z" fill="#8C8D94"/>
<line x1="-4.37114e-08" y1="43.5" x2="270" y2="43.5" stroke="#EEE9E9"/>
<path d="M13.26 74V64.816H15.878C16.3913 64.816 16.858 64.8627 17.278 64.956C17.7073 65.0493 18.0713 65.2033 18.37 65.418C18.6687 65.6233 18.902 65.8987 19.07 66.244C19.238 66.5893 19.322 67.014 19.322 67.518C19.322 68.0033 19.238 68.4233 19.07 68.778C18.9113 69.1327 18.6827 69.4267 18.384 69.66C18.0853 69.8933 17.726 70.0707 17.306 70.192C16.8953 70.304 16.438 70.36 15.934 70.36H14.422V74H13.26ZM14.422 69.408H15.794C16.5967 69.408 17.1893 69.2587 17.572 68.96C17.964 68.652 18.16 68.1713 18.16 67.518C18.16 66.8553 17.9547 66.398 17.544 66.146C17.1427 65.8847 16.5407 65.754 15.738 65.754H14.422V69.408ZM21.0777 74V67.196H22.0297L22.1277 68.428H22.1697C22.403 67.9987 22.683 67.658 23.0097 67.406C23.3457 67.154 23.7097 67.028 24.1017 67.028C24.3724 67.028 24.615 67.0747 24.8297 67.168L24.6057 68.176C24.4937 68.1387 24.391 68.1107 24.2977 68.092C24.2044 68.0733 24.0877 68.064 23.9477 68.064C23.6584 68.064 23.355 68.1807 23.0377 68.414C22.7297 68.6473 22.459 69.0533 22.2257 69.632V74H21.0777ZM25.9312 74V67.196H27.0792V74H25.9312ZM26.5192 65.796C26.2952 65.796 26.1039 65.726 25.9452 65.586C25.7959 65.446 25.7212 65.2687 25.7212 65.054C25.7212 64.83 25.7959 64.6527 25.9452 64.522C26.1039 64.382 26.2952 64.312 26.5192 64.312C26.7432 64.312 26.9299 64.382 27.0792 64.522C27.2379 64.6527 27.3172 64.83 27.3172 65.054C27.3172 65.2687 27.2379 65.446 27.0792 65.586C26.9299 65.726 26.7432 65.796 26.5192 65.796ZM32.0645 74.168C31.6165 74.168 31.1965 74.0887 30.8045 73.93C30.4125 73.7713 30.0718 73.5427 29.7825 73.244C29.5025 72.936 29.2785 72.5627 29.1105 72.124C28.9518 71.676 28.8725 71.172 28.8725 70.612C28.8725 70.0427 28.9612 69.5387 29.1385 69.1C29.3158 68.652 29.5538 68.274 29.8525 67.966C30.1512 67.658 30.4965 67.4247 30.8885 67.266C31.2898 67.1073 31.7098 67.028 32.1485 67.028C32.5965 67.028 32.9792 67.1073 33.2965 67.266C33.6138 67.4247 33.8938 67.6113 34.1365 67.826L33.5485 68.582C33.3525 68.4047 33.1425 68.26 32.9185 68.148C32.7038 68.036 32.4612 67.98 32.1905 67.98C31.8825 67.98 31.5978 68.0453 31.3365 68.176C31.0752 68.2973 30.8512 68.4747 30.6645 68.708C30.4778 68.9413 30.3285 69.2213 30.2165 69.548C30.1138 69.8653 30.0625 70.22 30.0625 70.612C30.0625 71.004 30.1138 71.3587 30.2165 71.676C30.3192 71.9933 30.4592 72.2687 30.6365 72.502C30.8232 72.726 31.0472 72.9033 31.3085 73.034C31.5698 73.1553 31.8545 73.216 32.1625 73.216C32.4798 73.216 32.7692 73.1507 33.0305 73.02C33.3012 72.88 33.5438 72.7167 33.7585 72.53L34.2625 73.3C33.9545 73.5707 33.6138 73.7853 33.2405 73.944C32.8672 74.0933 32.4752 74.168 32.0645 74.168ZM38.2185 74.168C37.7612 74.168 37.3318 74.0887 36.9305 73.93C36.5385 73.762 36.1932 73.5287 35.8945 73.23C35.6052 72.922 35.3765 72.5487 35.2085 72.11C35.0405 71.6713 34.9565 71.172 34.9565 70.612C34.9565 70.052 35.0405 69.5527 35.2085 69.114C35.3858 68.666 35.6145 68.288 35.8945 67.98C36.1838 67.672 36.5105 67.4387 36.8745 67.28C37.2385 67.112 37.6165 67.028 38.0085 67.028C38.4378 67.028 38.8205 67.1027 39.1565 67.252C39.5018 67.4013 39.7865 67.616 40.0105 67.896C40.2438 68.176 40.4212 68.512 40.5425 68.904C40.6638 69.296 40.7245 69.7347 40.7245 70.22C40.7245 70.3413 40.7198 70.4627 40.7105 70.584C40.7105 70.696 40.7012 70.794 40.6825 70.878H36.0905C36.1372 71.606 36.3612 72.1847 36.7625 72.614C37.1732 73.034 37.7052 73.244 38.3585 73.244C38.6852 73.244 38.9838 73.1973 39.2545 73.104C39.5345 73.0013 39.8005 72.8707 40.0525 72.712L40.4585 73.468C40.1598 73.6547 39.8285 73.818 39.4645 73.958C39.1005 74.098 38.6852 74.168 38.2185 74.168ZM36.0765 70.052H39.7165C39.7165 69.3613 39.5672 68.8387 39.2685 68.484C38.9792 68.12 38.5685 67.938 38.0365 67.938C37.7938 67.938 37.5605 67.9847 37.3365 68.078C37.1218 68.1713 36.9258 68.3113 36.7485 68.498C36.5712 68.6753 36.4218 68.8947 36.3005 69.156C36.1885 69.4173 36.1138 69.716 36.0765 70.052Z" fill="#3F414D"/>
<path d="M245.555 66.6713C245.809 66.3816 245.81 65.9478 245.555 65.6579C245.249 65.3094 244.706 65.3097 244.401 65.6586L240.751 69.8252C240.353 70.2798 239.646 70.2802 239.248 69.8261L235.582 65.6506C235.28 65.3058 234.743 65.3058 234.44 65.6507C234.188 65.9375 234.188 66.3665 234.44 66.6533L239.494 72.4112C239.76 72.7209 240.24 72.7209 240.506 72.4112L245.555 66.6713Z" fill="#8C8D94"/>
<line x1="-4.37114e-08" y1="87.5" x2="270" y2="87.5" stroke="#EEE9E9"/>
<path d="M13.26 118V108.816H15.556C16.9747 108.816 18.0527 109.208 18.79 109.992C19.5273 110.776 19.896 111.901 19.896 113.366C19.896 114.094 19.8027 114.747 19.616 115.326C19.4293 115.895 19.154 116.381 18.79 116.782C18.426 117.174 17.978 117.477 17.446 117.692C16.914 117.897 16.3027 118 15.612 118H13.26ZM14.422 117.048H15.472C16.5453 117.048 17.348 116.726 17.88 116.082C18.4213 115.438 18.692 114.533 18.692 113.366C18.692 112.199 18.4213 111.308 17.88 110.692C17.348 110.076 16.5453 109.768 15.472 109.768H14.422V117.048ZM21.7613 118V111.196H22.9093V118H21.7613ZM22.3493 109.796C22.1253 109.796 21.9339 109.726 21.7753 109.586C21.6259 109.446 21.5513 109.269 21.5513 109.054C21.5513 108.83 21.6259 108.653 21.7753 108.522C21.9339 108.382 22.1253 108.312 22.3493 108.312C22.5733 108.312 22.7599 108.382 22.9093 108.522C23.0679 108.653 23.1473 108.83 23.1473 109.054C23.1473 109.269 23.0679 109.446 22.9093 109.586C22.7599 109.726 22.5733 109.796 22.3493 109.796ZM26.9846 118.168C26.4993 118.168 26.0373 118.079 25.5986 117.902C25.1599 117.725 24.7773 117.501 24.4506 117.23L25.0246 116.46C25.3233 116.703 25.6266 116.899 25.9346 117.048C26.2519 117.197 26.6159 117.272 27.0266 117.272C27.4746 117.272 27.8106 117.169 28.0346 116.964C28.2586 116.759 28.3706 116.507 28.3706 116.208C28.3706 116.031 28.3239 115.877 28.2306 115.746C28.1373 115.615 28.0159 115.503 27.8666 115.41C27.7266 115.307 27.5633 115.219 27.3766 115.144C27.1899 115.069 27.0033 114.995 26.8166 114.92C26.5739 114.836 26.3313 114.743 26.0886 114.64C25.8459 114.528 25.6266 114.397 25.4306 114.248C25.2439 114.089 25.0899 113.907 24.9686 113.702C24.8473 113.497 24.7866 113.249 24.7866 112.96C24.7866 112.689 24.8379 112.437 24.9406 112.204C25.0526 111.961 25.2066 111.756 25.4026 111.588C25.6079 111.411 25.8553 111.275 26.1446 111.182C26.4339 111.079 26.7606 111.028 27.1246 111.028C27.5539 111.028 27.9459 111.103 28.3006 111.252C28.6646 111.401 28.9773 111.583 29.2386 111.798L28.6926 112.526C28.4593 112.349 28.2166 112.204 27.9646 112.092C27.7126 111.98 27.4373 111.924 27.1386 111.924C26.7093 111.924 26.3919 112.022 26.1866 112.218C25.9906 112.414 25.8926 112.643 25.8926 112.904C25.8926 113.063 25.9346 113.203 26.0186 113.324C26.1026 113.436 26.2146 113.539 26.3546 113.632C26.4946 113.716 26.6533 113.795 26.8306 113.87C27.0173 113.935 27.2086 114.005 27.4046 114.08C27.6473 114.173 27.8899 114.271 28.1326 114.374C28.3846 114.477 28.6086 114.607 28.8046 114.766C29.0006 114.915 29.1593 115.102 29.2806 115.326C29.4113 115.55 29.4766 115.821 29.4766 116.138C29.4766 116.418 29.4206 116.679 29.3086 116.922C29.2059 117.165 29.0473 117.379 28.8326 117.566C28.6273 117.753 28.3659 117.897 28.0486 118C27.7406 118.112 27.3859 118.168 26.9846 118.168ZM33.7598 118.168C33.3118 118.168 32.8918 118.089 32.4998 117.93C32.1078 117.771 31.7672 117.543 31.4778 117.244C31.1978 116.936 30.9738 116.563 30.8058 116.124C30.6472 115.676 30.5678 115.172 30.5678 114.612C30.5678 114.043 30.6565 113.539 30.8338 113.1C31.0112 112.652 31.2492 112.274 31.5478 111.966C31.8465 111.658 32.1918 111.425 32.5838 111.266C32.9852 111.107 33.4052 111.028 33.8438 111.028C34.2918 111.028 34.6745 111.107 34.9918 111.266C35.3092 111.425 35.5892 111.611 35.8318 111.826L35.2438 112.582C35.0478 112.405 34.8378 112.26 34.6138 112.148C34.3992 112.036 34.1565 111.98 33.8858 111.98C33.5778 111.98 33.2932 112.045 33.0318 112.176C32.7705 112.297 32.5465 112.475 32.3598 112.708C32.1732 112.941 32.0238 113.221 31.9118 113.548C31.8092 113.865 31.7578 114.22 31.7578 114.612C31.7578 115.004 31.8092 115.359 31.9118 115.676C32.0145 115.993 32.1545 116.269 32.3318 116.502C32.5185 116.726 32.7425 116.903 33.0038 117.034C33.2652 117.155 33.5498 117.216 33.8578 117.216C34.1752 117.216 34.4645 117.151 34.7258 117.02C34.9965 116.88 35.2392 116.717 35.4538 116.53L35.9578 117.3C35.6498 117.571 35.3092 117.785 34.9358 117.944C34.5625 118.093 34.1705 118.168 33.7598 118.168ZM39.8018 118.168C39.3818 118.168 38.9805 118.089 38.5978 117.93C38.2245 117.771 37.8931 117.543 37.6038 117.244C37.3145 116.936 37.0811 116.563 36.9038 116.124C36.7358 115.676 36.6518 115.172 36.6518 114.612C36.6518 114.043 36.7358 113.539 36.9038 113.1C37.0811 112.652 37.3145 112.274 37.6038 111.966C37.8931 111.658 38.2245 111.425 38.5978 111.266C38.9805 111.107 39.3818 111.028 39.8018 111.028C40.2218 111.028 40.6185 111.107 40.9918 111.266C41.3745 111.425 41.7105 111.658 41.9998 111.966C42.2891 112.274 42.5178 112.652 42.6858 113.1C42.8631 113.539 42.9518 114.043 42.9518 114.612C42.9518 115.172 42.8631 115.676 42.6858 116.124C42.5178 116.563 42.2891 116.936 41.9998 117.244C41.7105 117.543 41.3745 117.771 40.9918 117.93C40.6185 118.089 40.2218 118.168 39.8018 118.168ZM39.8018 117.216C40.0911 117.216 40.3571 117.155 40.5998 117.034C40.8425 116.903 41.0478 116.726 41.2158 116.502C41.3931 116.269 41.5285 115.993 41.6218 115.676C41.7151 115.359 41.7618 115.004 41.7618 114.612C41.7618 114.22 41.7151 113.865 41.6218 113.548C41.5285 113.221 41.3931 112.941 41.2158 112.708C41.0478 112.475 40.8425 112.297 40.5998 112.176C40.3571 112.045 40.0911 111.98 39.8018 111.98C39.5125 111.98 39.2465 112.045 39.0038 112.176C38.7611 112.297 38.5511 112.475 38.3738 112.708C38.2058 112.941 38.0751 113.221 37.9818 113.548C37.8885 113.865 37.8418 114.22 37.8418 114.612C37.8418 115.004 37.8885 115.359 37.9818 115.676C38.0751 115.993 38.2058 116.269 38.3738 116.502C38.5511 116.726 38.7611 116.903 39.0038 117.034C39.2465 117.155 39.5125 117.216 39.8018 117.216ZM46.7317 118.168C46.0037 118.168 45.4717 117.944 45.1357 117.496C44.809 117.048 44.6457 116.385 44.6457 115.508V111.196H45.8077V115.354C45.8077 115.998 45.9057 116.465 46.1017 116.754C46.307 117.034 46.6337 117.174 47.0817 117.174C47.4364 117.174 47.749 117.085 48.0197 116.908C48.2904 116.721 48.589 116.427 48.9157 116.026V111.196H50.0637V118H49.1117L49.0137 116.936H48.9717C48.6544 117.309 48.3184 117.608 47.9637 117.832C47.6184 118.056 47.2077 118.168 46.7317 118.168ZM52.3589 118V111.196H53.3109L53.4089 112.176H53.4509C53.7776 111.849 54.1183 111.579 54.4729 111.364C54.8369 111.14 55.2569 111.028 55.7329 111.028C56.4516 111.028 56.9743 111.252 57.3009 111.7C57.6369 112.148 57.8049 112.811 57.8049 113.688V118H56.6569V113.842C56.6569 113.198 56.5543 112.736 56.3489 112.456C56.1436 112.167 55.8169 112.022 55.3689 112.022C55.0143 112.022 54.7016 112.111 54.4309 112.288C54.1603 112.465 53.8523 112.727 53.5069 113.072V118H52.3589ZM62.1572 118.168C61.7932 118.168 61.4852 118.112 61.2332 118C60.9905 117.888 60.7899 117.734 60.6312 117.538C60.4819 117.342 60.3745 117.104 60.3092 116.824C60.2439 116.544 60.2112 116.236 60.2112 115.9V112.134H59.2032V111.266L60.2672 111.196L60.4072 109.292H61.3732V111.196H63.2072V112.134H61.3732V115.914C61.3732 116.334 61.4479 116.661 61.5972 116.894C61.7559 117.118 62.0312 117.23 62.4232 117.23C62.5445 117.23 62.6752 117.211 62.8152 117.174C62.9552 117.137 63.0812 117.095 63.1932 117.048L63.4172 117.916C63.2305 117.981 63.0252 118.037 62.8012 118.084C62.5865 118.14 62.3719 118.168 62.1572 118.168Z" fill="#3F414D"/>
<path d="M245.555 110.671C245.809 110.382 245.81 109.948 245.555 109.658C245.249 109.309 244.706 109.31 244.401 109.659L240.751 113.825C240.353 114.28 239.646 114.28 239.248 113.826L235.582 109.651C235.28 109.306 234.743 109.306 234.44 109.651C234.188 109.937 234.188 110.367 234.44 110.653L239.494 116.411C239.76 116.721 240.24 116.721 240.506 116.411L245.555 110.671Z" fill="#8C8D94"/>
<line x1="-4.37114e-08" y1="131.5" x2="270" y2="131.5" stroke="#EEE9E9"/>
<path d="M14.842 156.862L14.408 158.262H17.166L16.732 156.862C16.564 156.349 16.4053 155.84 16.256 155.336C16.1067 154.823 15.9573 154.3 15.808 153.768H15.752C15.612 154.3 15.4673 154.823 15.318 155.336C15.1687 155.84 15.01 156.349 14.842 156.862ZM12.042 162L15.15 152.816H16.466L19.574 162H18.328L17.46 159.2H14.114L13.232 162H12.042ZM22.1375 162L19.6875 155.196H20.8775L22.1655 159.06C22.2682 159.396 22.3709 159.732 22.4735 160.068C22.5855 160.404 22.6929 160.735 22.7955 161.062H22.8515C22.9542 160.735 23.0569 160.404 23.1595 160.068C23.2622 159.732 23.3649 159.396 23.4675 159.06L24.7555 155.196H25.8895L23.4815 162H22.1375ZM29.4987 165.136C29.0787 165.136 28.696 165.094 28.3507 165.01C28.0054 164.935 27.7067 164.819 27.4547 164.66C27.212 164.501 27.0207 164.31 26.8807 164.086C26.75 163.862 26.6847 163.601 26.6847 163.302C26.6847 163.013 26.7734 162.737 26.9507 162.476C27.128 162.215 27.3707 161.977 27.6787 161.762V161.706C27.5107 161.603 27.366 161.463 27.2447 161.286C27.1327 161.099 27.0767 160.871 27.0767 160.6C27.0767 160.311 27.156 160.059 27.3147 159.844C27.4734 159.629 27.6414 159.461 27.8187 159.34V159.284C27.5947 159.097 27.3894 158.85 27.2027 158.542C27.0254 158.225 26.9367 157.861 26.9367 157.45C26.9367 157.077 27.002 156.741 27.1327 156.442C27.2727 156.143 27.4594 155.891 27.6927 155.686C27.926 155.471 28.1967 155.308 28.5047 155.196C28.822 155.084 29.1534 155.028 29.4987 155.028C29.6854 155.028 29.858 155.047 30.0167 155.084C30.1847 155.112 30.334 155.149 30.4647 155.196H32.8307V156.078H31.4307C31.5894 156.237 31.72 156.437 31.8227 156.68C31.9347 156.923 31.9907 157.189 31.9907 157.478C31.9907 157.842 31.9254 158.173 31.7947 158.472C31.664 158.761 31.4867 159.009 31.2627 159.214C31.0387 159.41 30.7727 159.564 30.4647 159.676C30.166 159.788 29.844 159.844 29.4987 159.844C29.3307 159.844 29.158 159.825 28.9807 159.788C28.8034 159.741 28.6354 159.681 28.4767 159.606C28.3554 159.709 28.2527 159.825 28.1687 159.956C28.0847 160.077 28.0427 160.231 28.0427 160.418C28.0427 160.633 28.1267 160.81 28.2947 160.95C28.4627 161.09 28.78 161.16 29.2467 161.16H30.5627C31.356 161.16 31.9487 161.291 32.3407 161.552C32.742 161.804 32.9427 162.215 32.9427 162.784C32.9427 163.101 32.8634 163.4 32.7047 163.68C32.546 163.969 32.3174 164.221 32.0187 164.436C31.72 164.651 31.356 164.819 30.9267 164.94C30.5067 165.071 30.0307 165.136 29.4987 165.136ZM29.4987 159.074C29.6947 159.074 29.8767 159.037 30.0447 158.962C30.222 158.887 30.376 158.78 30.5067 158.64C30.6467 158.5 30.754 158.332 30.8287 158.136C30.9034 157.931 30.9407 157.702 30.9407 157.45C30.9407 156.946 30.8007 156.559 30.5207 156.288C30.2407 156.008 29.9 155.868 29.4987 155.868C29.0974 155.868 28.7567 156.008 28.4767 156.288C28.1967 156.559 28.0567 156.946 28.0567 157.45C28.0567 157.702 28.094 157.931 28.1687 158.136C28.2434 158.332 28.346 158.5 28.4767 158.64C28.6167 158.78 28.7707 158.887 28.9387 158.962C29.116 159.037 29.3027 159.074 29.4987 159.074ZM29.6667 164.338C29.9934 164.338 30.2874 164.296 30.5487 164.212C30.8194 164.137 31.048 164.035 31.2347 163.904C31.4214 163.783 31.566 163.638 31.6687 163.47C31.7714 163.302 31.8227 163.129 31.8227 162.952C31.8227 162.635 31.706 162.415 31.4727 162.294C31.2394 162.173 30.8987 162.112 30.4507 162.112H29.2747C29.144 162.112 28.9994 162.103 28.8407 162.084C28.6914 162.075 28.542 162.047 28.3927 162C28.15 162.177 27.9727 162.364 27.8607 162.56C27.7487 162.756 27.6927 162.952 27.6927 163.148C27.6927 163.512 27.8654 163.801 28.2107 164.016C28.5654 164.231 29.0507 164.338 29.6667 164.338ZM40.6441 162.168C40.0654 162.168 39.5334 162.061 39.0481 161.846C38.5628 161.631 38.1381 161.323 37.7741 160.922C37.4194 160.511 37.1394 160.012 36.9341 159.424C36.7381 158.827 36.6401 158.155 36.6401 157.408C36.6401 156.671 36.7428 156.008 36.9481 155.42C37.1534 154.832 37.4381 154.333 37.8021 153.922C38.1661 153.511 38.5954 153.199 39.0901 152.984C39.5848 152.76 40.1261 152.648 40.7141 152.648C41.2741 152.648 41.7641 152.765 42.1841 152.998C42.6134 153.222 42.9634 153.483 43.2341 153.782L42.6041 154.538C42.3614 154.277 42.0861 154.067 41.7781 153.908C41.4701 153.749 41.1201 153.67 40.7281 153.67C40.2894 153.67 39.8928 153.759 39.5381 153.936C39.1834 154.104 38.8801 154.351 38.6281 154.678C38.3761 154.995 38.1801 155.383 38.0401 155.84C37.9094 156.297 37.8441 156.811 37.8441 157.38C37.8441 157.959 37.9094 158.481 38.0401 158.948C38.1801 159.405 38.3714 159.797 38.6141 160.124C38.8568 160.451 39.1508 160.703 39.4961 160.88C39.8508 161.057 40.2474 161.146 40.6861 161.146C41.1341 161.146 41.5261 161.057 41.8621 160.88C42.1981 160.693 42.5154 160.437 42.8141 160.11L43.4581 160.838C43.0941 161.258 42.6834 161.585 42.2261 161.818C41.7688 162.051 41.2414 162.168 40.6441 162.168ZM46.9094 162.168C46.1814 162.168 45.6494 161.944 45.3134 161.496C44.9868 161.048 44.8234 160.385 44.8234 159.508V155.196H45.9854V159.354C45.9854 159.998 46.0834 160.465 46.2794 160.754C46.4848 161.034 46.8114 161.174 47.2594 161.174C47.6141 161.174 47.9268 161.085 48.1974 160.908C48.4681 160.721 48.7668 160.427 49.0934 160.026V155.196H50.2414V162H49.2894L49.1914 160.936H49.1494C48.8321 161.309 48.4961 161.608 48.1414 161.832C47.7961 162.056 47.3854 162.168 46.9094 162.168ZM54.3147 162.168C53.8293 162.168 53.3673 162.079 52.9287 161.902C52.49 161.725 52.1073 161.501 51.7807 161.23L52.3547 160.46C52.6533 160.703 52.9567 160.899 53.2647 161.048C53.582 161.197 53.946 161.272 54.3567 161.272C54.8047 161.272 55.1407 161.169 55.3647 160.964C55.5887 160.759 55.7007 160.507 55.7007 160.208C55.7007 160.031 55.654 159.877 55.5607 159.746C55.4673 159.615 55.346 159.503 55.1967 159.41C55.0567 159.307 54.8933 159.219 54.7067 159.144C54.52 159.069 54.3333 158.995 54.1467 158.92C53.904 158.836 53.6613 158.743 53.4187 158.64C53.176 158.528 52.9567 158.397 52.7607 158.248C52.574 158.089 52.42 157.907 52.2987 157.702C52.1773 157.497 52.1167 157.249 52.1167 156.96C52.1167 156.689 52.168 156.437 52.2707 156.204C52.3827 155.961 52.5367 155.756 52.7327 155.588C52.938 155.411 53.1853 155.275 53.4747 155.182C53.764 155.079 54.0907 155.028 54.4547 155.028C54.884 155.028 55.276 155.103 55.6307 155.252C55.9947 155.401 56.3073 155.583 56.5687 155.798L56.0227 156.526C55.7893 156.349 55.5467 156.204 55.2947 156.092C55.0427 155.98 54.7673 155.924 54.4687 155.924C54.0393 155.924 53.722 156.022 53.5167 156.218C53.3207 156.414 53.2227 156.643 53.2227 156.904C53.2227 157.063 53.2647 157.203 53.3487 157.324C53.4327 157.436 53.5447 157.539 53.6847 157.632C53.8247 157.716 53.9833 157.795 54.1607 157.87C54.3473 157.935 54.5387 158.005 54.7347 158.08C54.9773 158.173 55.22 158.271 55.4627 158.374C55.7147 158.477 55.9387 158.607 56.1347 158.766C56.3307 158.915 56.4893 159.102 56.6107 159.326C56.7413 159.55 56.8067 159.821 56.8067 160.138C56.8067 160.418 56.7507 160.679 56.6387 160.922C56.536 161.165 56.3773 161.379 56.1627 161.566C55.9573 161.753 55.696 161.897 55.3787 162C55.0707 162.112 54.716 162.168 54.3147 162.168ZM60.2705 162.168C59.9065 162.168 59.5985 162.112 59.3465 162C59.1038 161.888 58.9031 161.734 58.7445 161.538C58.5951 161.342 58.4878 161.104 58.4225 160.824C58.3571 160.544 58.3245 160.236 58.3245 159.9V156.134H57.3165V155.266L58.3805 155.196L58.5205 153.292H59.4865V155.196H61.3205V156.134H59.4865V159.914C59.4865 160.334 59.5611 160.661 59.7105 160.894C59.8691 161.118 60.1445 161.23 60.5365 161.23C60.6578 161.23 60.7885 161.211 60.9285 161.174C61.0685 161.137 61.1945 161.095 61.3065 161.048L61.5305 161.916C61.3438 161.981 61.1385 162.037 60.9145 162.084C60.6998 162.14 60.4851 162.168 60.2705 162.168ZM65.3135 162.168C64.8935 162.168 64.4922 162.089 64.1095 161.93C63.7362 161.771 63.4049 161.543 63.1155 161.244C62.8262 160.936 62.5929 160.563 62.4155 160.124C62.2475 159.676 62.1635 159.172 62.1635 158.612C62.1635 158.043 62.2475 157.539 62.4155 157.1C62.5929 156.652 62.8262 156.274 63.1155 155.966C63.4049 155.658 63.7362 155.425 64.1095 155.266C64.4922 155.107 64.8935 155.028 65.3135 155.028C65.7335 155.028 66.1302 155.107 66.5035 155.266C66.8862 155.425 67.2222 155.658 67.5115 155.966C67.8009 156.274 68.0295 156.652 68.1975 157.1C68.3749 157.539 68.4635 158.043 68.4635 158.612C68.4635 159.172 68.3749 159.676 68.1975 160.124C68.0295 160.563 67.8009 160.936 67.5115 161.244C67.2222 161.543 66.8862 161.771 66.5035 161.93C66.1302 162.089 65.7335 162.168 65.3135 162.168ZM65.3135 161.216C65.6029 161.216 65.8689 161.155 66.1115 161.034C66.3542 160.903 66.5595 160.726 66.7275 160.502C66.9049 160.269 67.0402 159.993 67.1335 159.676C67.2269 159.359 67.2735 159.004 67.2735 158.612C67.2735 158.22 67.2269 157.865 67.1335 157.548C67.0402 157.221 66.9049 156.941 66.7275 156.708C66.5595 156.475 66.3542 156.297 66.1115 156.176C65.8689 156.045 65.6029 155.98 65.3135 155.98C65.0242 155.98 64.7582 156.045 64.5155 156.176C64.2729 156.297 64.0629 156.475 63.8855 156.708C63.7175 156.941 63.5869 157.221 63.4935 157.548C63.4002 157.865 63.3535 158.22 63.3535 158.612C63.3535 159.004 63.4002 159.359 63.4935 159.676C63.5869 159.993 63.7175 160.269 63.8855 160.502C64.0629 160.726 64.2729 160.903 64.5155 161.034C64.7582 161.155 65.0242 161.216 65.3135 161.216ZM70.2554 162V155.196H71.2074L71.3054 156.176H71.3474C71.6461 155.849 71.9681 155.579 72.3134 155.364C72.6681 155.14 73.0508 155.028 73.4614 155.028C73.9841 155.028 74.3901 155.145 74.6794 155.378C74.9781 155.602 75.1974 155.919 75.3374 156.33C75.6921 155.938 76.0468 155.625 76.4014 155.392C76.7654 155.149 77.1574 155.028 77.5774 155.028C78.2774 155.028 78.7954 155.252 79.1314 155.7C79.4768 156.148 79.6494 156.811 79.6494 157.688V162H78.5014V157.842C78.5014 157.198 78.3988 156.736 78.1934 156.456C77.9881 156.167 77.6708 156.022 77.2414 156.022C76.7281 156.022 76.1588 156.372 75.5334 157.072V162H74.3854V157.842C74.3854 157.198 74.2828 156.736 74.0774 156.456C73.8721 156.167 73.5501 156.022 73.1114 156.022C72.5981 156.022 72.0288 156.372 71.4034 157.072V162H70.2554ZM84.6208 162.168C84.1635 162.168 83.7342 162.089 83.3328 161.93C82.9408 161.762 82.5955 161.529 82.2968 161.23C82.0075 160.922 81.7788 160.549 81.6108 160.11C81.4428 159.671 81.3588 159.172 81.3588 158.612C81.3588 158.052 81.4428 157.553 81.6108 157.114C81.7882 156.666 82.0168 156.288 82.2968 155.98C82.5862 155.672 82.9128 155.439 83.2768 155.28C83.6408 155.112 84.0188 155.028 84.4108 155.028C84.8402 155.028 85.2228 155.103 85.5588 155.252C85.9042 155.401 86.1888 155.616 86.4128 155.896C86.6462 156.176 86.8235 156.512 86.9448 156.904C87.0662 157.296 87.1268 157.735 87.1268 158.22C87.1268 158.341 87.1222 158.463 87.1128 158.584C87.1128 158.696 87.1035 158.794 87.0848 158.878H82.4928C82.5395 159.606 82.7635 160.185 83.1648 160.614C83.5755 161.034 84.1075 161.244 84.7608 161.244C85.0875 161.244 85.3862 161.197 85.6568 161.104C85.9368 161.001 86.2028 160.871 86.4548 160.712L86.8608 161.468C86.5622 161.655 86.2308 161.818 85.8668 161.958C85.5028 162.098 85.0875 162.168 84.6208 162.168ZM82.4788 158.052H86.1188C86.1188 157.361 85.9695 156.839 85.6708 156.484C85.3815 156.12 84.9708 155.938 84.4388 155.938C84.1962 155.938 83.9628 155.985 83.7388 156.078C83.5242 156.171 83.3282 156.311 83.1508 156.498C82.9735 156.675 82.8242 156.895 82.7028 157.156C82.5908 157.417 82.5162 157.716 82.4788 158.052ZM88.8082 162V155.196H89.7602L89.8582 156.428H89.9002C90.1335 155.999 90.4135 155.658 90.7402 155.406C91.0762 155.154 91.4402 155.028 91.8322 155.028C92.1028 155.028 92.3455 155.075 92.5602 155.168L92.3362 156.176C92.2242 156.139 92.1215 156.111 92.0282 156.092C91.9348 156.073 91.8182 156.064 91.6782 156.064C91.3888 156.064 91.0855 156.181 90.7682 156.414C90.4602 156.647 90.1895 157.053 89.9562 157.632V162H88.8082ZM96.5764 162V152.816H99.4464C99.9131 152.816 100.342 152.863 100.734 152.956C101.136 153.04 101.476 153.185 101.756 153.39C102.046 153.595 102.27 153.861 102.428 154.188C102.587 154.515 102.666 154.916 102.666 155.392C102.666 156.111 102.48 156.685 102.106 157.114C101.733 157.543 101.229 157.837 100.594 157.996L102.932 162H101.616L99.4044 158.122H97.7384V162H96.5764ZM97.7384 157.17H99.2784C99.9971 157.17 100.548 157.025 100.93 156.736C101.313 156.437 101.504 155.989 101.504 155.392C101.504 154.785 101.313 154.361 100.93 154.118C100.548 153.875 99.9971 153.754 99.2784 153.754H97.7384V157.17ZM105.948 162.168C105.379 162.168 104.903 162 104.52 161.664C104.147 161.328 103.96 160.852 103.96 160.236C103.96 159.489 104.292 158.92 104.954 158.528C105.617 158.127 106.676 157.847 108.132 157.688C108.132 157.473 108.109 157.263 108.062 157.058C108.025 156.853 107.955 156.671 107.852 156.512C107.75 156.353 107.605 156.227 107.418 156.134C107.241 156.031 107.012 155.98 106.732 155.98C106.34 155.98 105.972 156.055 105.626 156.204C105.281 156.353 104.973 156.521 104.702 156.708L104.254 155.91C104.572 155.705 104.959 155.509 105.416 155.322C105.874 155.126 106.378 155.028 106.928 155.028C107.759 155.028 108.361 155.285 108.734 155.798C109.108 156.302 109.294 156.979 109.294 157.828V162H108.342L108.244 161.188H108.202C107.876 161.459 107.526 161.692 107.152 161.888C106.779 162.075 106.378 162.168 105.948 162.168ZM106.284 161.244C106.611 161.244 106.919 161.169 107.208 161.02C107.498 160.861 107.806 160.633 108.132 160.334V158.444C107.563 158.519 107.082 158.607 106.69 158.71C106.308 158.813 105.995 158.934 105.752 159.074C105.519 159.214 105.346 159.377 105.234 159.564C105.132 159.741 105.08 159.937 105.08 160.152C105.08 160.544 105.197 160.824 105.43 160.992C105.664 161.16 105.948 161.244 106.284 161.244ZM113.386 162.168C113.022 162.168 112.714 162.112 112.462 162C112.219 161.888 112.018 161.734 111.86 161.538C111.71 161.342 111.603 161.104 111.538 160.824C111.472 160.544 111.44 160.236 111.44 159.9V156.134H110.432V155.266L111.496 155.196L111.636 153.292H112.602V155.196H114.436V156.134H112.602V159.914C112.602 160.334 112.676 160.661 112.826 160.894C112.984 161.118 113.26 161.23 113.652 161.23C113.773 161.23 113.904 161.211 114.044 161.174C114.184 161.137 114.31 161.095 114.422 161.048L114.646 161.916C114.459 161.981 114.254 162.037 114.03 162.084C113.815 162.14 113.6 162.168 113.386 162.168ZM115.974 162V155.196H117.122V162H115.974ZM116.562 153.796C116.338 153.796 116.147 153.726 115.988 153.586C115.839 153.446 115.764 153.269 115.764 153.054C115.764 152.83 115.839 152.653 115.988 152.522C116.147 152.382 116.338 152.312 116.562 152.312C116.786 152.312 116.973 152.382 117.122 152.522C117.281 152.653 117.36 152.83 117.36 153.054C117.36 153.269 117.281 153.446 117.122 153.586C116.973 153.726 116.786 153.796 116.562 153.796ZM119.419 162V155.196H120.371L120.469 156.176H120.511C120.838 155.849 121.179 155.579 121.533 155.364C121.897 155.14 122.317 155.028 122.793 155.028C123.512 155.028 124.035 155.252 124.361 155.7C124.697 156.148 124.865 156.811 124.865 157.688V162H123.717V157.842C123.717 157.198 123.615 156.736 123.409 156.456C123.204 156.167 122.877 156.022 122.429 156.022C122.075 156.022 121.762 156.111 121.491 156.288C121.221 156.465 120.913 156.727 120.567 157.072V162H119.419ZM129.372 165.136C128.952 165.136 128.569 165.094 128.224 165.01C127.878 164.935 127.58 164.819 127.328 164.66C127.085 164.501 126.894 164.31 126.754 164.086C126.623 163.862 126.558 163.601 126.558 163.302C126.558 163.013 126.646 162.737 126.824 162.476C127.001 162.215 127.244 161.977 127.552 161.762V161.706C127.384 161.603 127.239 161.463 127.118 161.286C127.006 161.099 126.95 160.871 126.95 160.6C126.95 160.311 127.029 160.059 127.188 159.844C127.346 159.629 127.514 159.461 127.692 159.34V159.284C127.468 159.097 127.262 158.85 127.076 158.542C126.898 158.225 126.81 157.861 126.81 157.45C126.81 157.077 126.875 156.741 127.006 156.442C127.146 156.143 127.332 155.891 127.566 155.686C127.799 155.471 128.07 155.308 128.378 155.196C128.695 155.084 129.026 155.028 129.372 155.028C129.558 155.028 129.731 155.047 129.89 155.084C130.058 155.112 130.207 155.149 130.338 155.196H132.704V156.078H131.304C131.462 156.237 131.593 156.437 131.696 156.68C131.808 156.923 131.864 157.189 131.864 157.478C131.864 157.842 131.798 158.173 131.668 158.472C131.537 158.761 131.36 159.009 131.136 159.214C130.912 159.41 130.646 159.564 130.338 159.676C130.039 159.788 129.717 159.844 129.372 159.844C129.204 159.844 129.031 159.825 128.854 159.788C128.676 159.741 128.508 159.681 128.35 159.606C128.228 159.709 128.126 159.825 128.042 159.956C127.958 160.077 127.916 160.231 127.916 160.418C127.916 160.633 128 160.81 128.168 160.95C128.336 161.09 128.653 161.16 129.12 161.16H130.436C131.229 161.16 131.822 161.291 132.214 161.552C132.615 161.804 132.816 162.215 132.816 162.784C132.816 163.101 132.736 163.4 132.578 163.68C132.419 163.969 132.19 164.221 131.892 164.436C131.593 164.651 131.229 164.819 130.8 164.94C130.38 165.071 129.904 165.136 129.372 165.136ZM129.372 159.074C129.568 159.074 129.75 159.037 129.918 158.962C130.095 158.887 130.249 158.78 130.38 158.64C130.52 158.5 130.627 158.332 130.702 158.136C130.776 157.931 130.814 157.702 130.814 157.45C130.814 156.946 130.674 156.559 130.394 156.288C130.114 156.008 129.773 155.868 129.372 155.868C128.97 155.868 128.63 156.008 128.35 156.288C128.07 156.559 127.93 156.946 127.93 157.45C127.93 157.702 127.967 157.931 128.042 158.136C128.116 158.332 128.219 158.5 128.35 158.64C128.49 158.78 128.644 158.887 128.812 158.962C128.989 159.037 129.176 159.074 129.372 159.074ZM129.54 164.338C129.866 164.338 130.16 164.296 130.422 164.212C130.692 164.137 130.921 164.035 131.108 163.904C131.294 163.783 131.439 163.638 131.542 163.47C131.644 163.302 131.696 163.129 131.696 162.952C131.696 162.635 131.579 162.415 131.346 162.294C131.112 162.173 130.772 162.112 130.324 162.112H129.148C129.017 162.112 128.872 162.103 128.714 162.084C128.564 162.075 128.415 162.047 128.266 162C128.023 162.177 127.846 162.364 127.734 162.56C127.622 162.756 127.566 162.952 127.566 163.148C127.566 163.512 127.738 163.801 128.084 164.016C128.438 164.231 128.924 164.338 129.54 164.338Z" fill="#3F414D"/>
<path d="M245.555 154.671C245.809 154.382 245.81 153.948 245.555 153.658C245.249 153.309 244.706 153.31 244.401 153.659L240.751 157.825C240.353 158.28 239.646 158.28 239.248 157.826L235.582 153.651C235.28 153.306 234.743 153.306 234.44 153.651C234.188 153.937 234.188 154.367 234.44 154.653L239.494 160.411C239.76 160.721 240.24 160.721 240.506 160.411L245.555 154.671Z" fill="#8C8D94"/>
<line x1="-4.37114e-08" y1="175.5" x2="270" y2="175.5" stroke="#EEE9E9"/>
<path d="M13.26 206V196.816H15.878C16.3913 196.816 16.858 196.863 17.278 196.956C17.7073 197.049 18.0713 197.203 18.37 197.418C18.6687 197.623 18.902 197.899 19.07 198.244C19.238 198.589 19.322 199.014 19.322 199.518C19.322 200.003 19.238 200.423 19.07 200.778C18.9113 201.133 18.6827 201.427 18.384 201.66C18.0853 201.893 17.726 202.071 17.306 202.192C16.8953 202.304 16.438 202.36 15.934 202.36H14.422V206H13.26ZM14.422 201.408H15.794C16.5967 201.408 17.1893 201.259 17.572 200.96C17.964 200.652 18.16 200.171 18.16 199.518C18.16 198.855 17.9547 198.398 17.544 198.146C17.1427 197.885 16.5407 197.754 15.738 197.754H14.422V201.408ZM21.0777 206V199.196H22.0297L22.1277 200.428H22.1697C22.403 199.999 22.683 199.658 23.0097 199.406C23.3457 199.154 23.7097 199.028 24.1017 199.028C24.3724 199.028 24.615 199.075 24.8297 199.168L24.6057 200.176C24.4937 200.139 24.391 200.111 24.2977 200.092C24.2044 200.073 24.0877 200.064 23.9477 200.064C23.6584 200.064 23.355 200.181 23.0377 200.414C22.7297 200.647 22.459 201.053 22.2257 201.632V206H21.0777ZM28.5525 206.168C28.0952 206.168 27.6658 206.089 27.2645 205.93C26.8725 205.762 26.5272 205.529 26.2285 205.23C25.9392 204.922 25.7105 204.549 25.5425 204.11C25.3745 203.671 25.2905 203.172 25.2905 202.612C25.2905 202.052 25.3745 201.553 25.5425 201.114C25.7198 200.666 25.9485 200.288 26.2285 199.98C26.5178 199.672 26.8445 199.439 27.2085 199.28C27.5725 199.112 27.9505 199.028 28.3425 199.028C28.7718 199.028 29.1545 199.103 29.4905 199.252C29.8358 199.401 30.1205 199.616 30.3445 199.896C30.5778 200.176 30.7552 200.512 30.8765 200.904C30.9978 201.296 31.0585 201.735 31.0585 202.22C31.0585 202.341 31.0538 202.463 31.0445 202.584C31.0445 202.696 31.0352 202.794 31.0165 202.878H26.4245C26.4712 203.606 26.6952 204.185 27.0965 204.614C27.5072 205.034 28.0392 205.244 28.6925 205.244C29.0192 205.244 29.3178 205.197 29.5885 205.104C29.8685 205.001 30.1345 204.871 30.3865 204.712L30.7925 205.468C30.4938 205.655 30.1625 205.818 29.7985 205.958C29.4345 206.098 29.0192 206.168 28.5525 206.168ZM26.4105 202.052H30.0505C30.0505 201.361 29.9012 200.839 29.6025 200.484C29.3132 200.12 28.9025 199.938 28.3705 199.938C28.1278 199.938 27.8945 199.985 27.6705 200.078C27.4558 200.171 27.2598 200.311 27.0825 200.498C26.9052 200.675 26.7558 200.895 26.6345 201.156C26.5225 201.417 26.4478 201.716 26.4105 202.052ZM32.9358 206V200.134H32.0118V199.266L32.9358 199.196V198.118C32.9358 197.418 33.0945 196.867 33.4118 196.466C33.7385 196.065 34.2425 195.864 34.9238 195.864C35.1385 195.864 35.3391 195.887 35.5258 195.934C35.7218 195.971 35.8991 196.023 36.0578 196.088L35.8058 196.97C35.5538 196.858 35.2971 196.802 35.0358 196.802C34.4011 196.802 34.0838 197.241 34.0838 198.118V199.196H35.5258V200.134H34.0838V206H32.9358ZM39.449 206.168C38.9916 206.168 38.5623 206.089 38.161 205.93C37.769 205.762 37.4236 205.529 37.125 205.23C36.8356 204.922 36.607 204.549 36.439 204.11C36.271 203.671 36.187 203.172 36.187 202.612C36.187 202.052 36.271 201.553 36.439 201.114C36.6163 200.666 36.845 200.288 37.125 199.98C37.4143 199.672 37.741 199.439 38.105 199.28C38.469 199.112 38.847 199.028 39.239 199.028C39.6683 199.028 40.051 199.103 40.387 199.252C40.7323 199.401 41.017 199.616 41.241 199.896C41.4743 200.176 41.6516 200.512 41.773 200.904C41.8943 201.296 41.955 201.735 41.955 202.22C41.955 202.341 41.9503 202.463 41.941 202.584C41.941 202.696 41.9316 202.794 41.913 202.878H37.321C37.3676 203.606 37.5916 204.185 37.993 204.614C38.4036 205.034 38.9356 205.244 39.589 205.244C39.9156 205.244 40.2143 205.197 40.485 205.104C40.765 205.001 41.031 204.871 41.283 204.712L41.689 205.468C41.3903 205.655 41.059 205.818 40.695 205.958C40.331 206.098 39.9156 206.168 39.449 206.168ZM37.307 202.052H40.947C40.947 201.361 40.7976 200.839 40.499 200.484C40.2096 200.12 39.799 199.938 39.267 199.938C39.0243 199.938 38.791 199.985 38.567 200.078C38.3523 200.171 38.1563 200.311 37.979 200.498C37.8016 200.675 37.6523 200.895 37.531 201.156C37.419 201.417 37.3443 201.716 37.307 202.052ZM43.6363 206V199.196H44.5883L44.6863 200.428H44.7283C44.9616 199.999 45.2416 199.658 45.5683 199.406C45.9043 199.154 46.2683 199.028 46.6603 199.028C46.9309 199.028 47.1736 199.075 47.3883 199.168L47.1643 200.176C47.0523 200.139 46.9496 200.111 46.8563 200.092C46.7629 200.073 46.6463 200.064 46.5063 200.064C46.2169 200.064 45.9136 200.181 45.5963 200.414C45.2883 200.647 45.0176 201.053 44.7843 201.632V206H43.6363ZM51.1111 206.168C50.6537 206.168 50.2244 206.089 49.8231 205.93C49.4311 205.762 49.0857 205.529 48.7871 205.23C48.4977 204.922 48.2691 204.549 48.1011 204.11C47.9331 203.671 47.8491 203.172 47.8491 202.612C47.8491 202.052 47.9331 201.553 48.1011 201.114C48.2784 200.666 48.5071 200.288 48.7871 199.98C49.0764 199.672 49.4031 199.439 49.7671 199.28C50.1311 199.112 50.5091 199.028 50.9011 199.028C51.3304 199.028 51.7131 199.103 52.0491 199.252C52.3944 199.401 52.6791 199.616 52.9031 199.896C53.1364 200.176 53.3137 200.512 53.4351 200.904C53.5564 201.296 53.6171 201.735 53.6171 202.22C53.6171 202.341 53.6124 202.463 53.6031 202.584C53.6031 202.696 53.5937 202.794 53.5751 202.878H48.9831C49.0297 203.606 49.2537 204.185 49.6551 204.614C50.0657 205.034 50.5977 205.244 51.2511 205.244C51.5777 205.244 51.8764 205.197 52.1471 205.104C52.4271 205.001 52.6931 204.871 52.9451 204.712L53.3511 205.468C53.0524 205.655 52.7211 205.818 52.3571 205.958C51.9931 206.098 51.5777 206.168 51.1111 206.168ZM48.9691 202.052H52.6091C52.6091 201.361 52.4597 200.839 52.1611 200.484C51.8717 200.12 51.4611 199.938 50.9291 199.938C50.6864 199.938 50.4531 199.985 50.2291 200.078C50.0144 200.171 49.8184 200.311 49.6411 200.498C49.4637 200.675 49.3144 200.895 49.1931 201.156C49.0811 201.417 49.0064 201.716 48.9691 202.052ZM55.2984 206V199.196H56.2504L56.3484 200.176H56.3904C56.7171 199.849 57.0577 199.579 57.4124 199.364C57.7764 199.14 58.1964 199.028 58.6724 199.028C59.3911 199.028 59.9137 199.252 60.2404 199.7C60.5764 200.148 60.7444 200.811 60.7444 201.688V206H59.5964V201.842C59.5964 201.198 59.4937 200.736 59.2884 200.456C59.0831 200.167 58.7564 200.022 58.3084 200.022C57.9537 200.022 57.6411 200.111 57.3704 200.288C57.0997 200.465 56.7917 200.727 56.4464 201.072V206H55.2984ZM65.6426 206.168C65.1946 206.168 64.7746 206.089 64.3826 205.93C63.9906 205.771 63.65 205.543 63.3606 205.244C63.0806 204.936 62.8566 204.563 62.6886 204.124C62.53 203.676 62.4506 203.172 62.4506 202.612C62.4506 202.043 62.5393 201.539 62.7166 201.1C62.894 200.652 63.132 200.274 63.4306 199.966C63.7293 199.658 64.0746 199.425 64.4666 199.266C64.868 199.107 65.288 199.028 65.7266 199.028C66.1746 199.028 66.5573 199.107 66.8746 199.266C67.192 199.425 67.472 199.611 67.7146 199.826L67.1266 200.582C66.9306 200.405 66.7206 200.26 66.4966 200.148C66.282 200.036 66.0393 199.98 65.7686 199.98C65.4606 199.98 65.176 200.045 64.9146 200.176C64.6533 200.297 64.4293 200.475 64.2426 200.708C64.056 200.941 63.9066 201.221 63.7946 201.548C63.692 201.865 63.6406 202.22 63.6406 202.612C63.6406 203.004 63.692 203.359 63.7946 203.676C63.8973 203.993 64.0373 204.269 64.2146 204.502C64.4013 204.726 64.6253 204.903 64.8866 205.034C65.148 205.155 65.4326 205.216 65.7406 205.216C66.058 205.216 66.3473 205.151 66.6086 205.02C66.8793 204.88 67.122 204.717 67.3366 204.53L67.8406 205.3C67.5326 205.571 67.192 205.785 66.8186 205.944C66.4453 206.093 66.0533 206.168 65.6426 206.168ZM71.7966 206.168C71.3393 206.168 70.91 206.089 70.5086 205.93C70.1166 205.762 69.7713 205.529 69.4726 205.23C69.1833 204.922 68.9546 204.549 68.7866 204.11C68.6186 203.671 68.5346 203.172 68.5346 202.612C68.5346 202.052 68.6186 201.553 68.7866 201.114C68.964 200.666 69.1926 200.288 69.4726 199.98C69.762 199.672 70.0886 199.439 70.4526 199.28C70.8166 199.112 71.1946 199.028 71.5866 199.028C72.016 199.028 72.3986 199.103 72.7346 199.252C73.08 199.401 73.3646 199.616 73.5886 199.896C73.822 200.176 73.9993 200.512 74.1206 200.904C74.242 201.296 74.3026 201.735 74.3026 202.22C74.3026 202.341 74.298 202.463 74.2886 202.584C74.2886 202.696 74.2793 202.794 74.2606 202.878H69.6686C69.7153 203.606 69.9393 204.185 70.3406 204.614C70.7513 205.034 71.2833 205.244 71.9366 205.244C72.2633 205.244 72.562 205.197 72.8326 205.104C73.1126 205.001 73.3786 204.871 73.6306 204.712L74.0366 205.468C73.738 205.655 73.4066 205.818 73.0426 205.958C72.6786 206.098 72.2633 206.168 71.7966 206.168ZM69.6546 202.052H73.2946C73.2946 201.361 73.1453 200.839 72.8466 200.484C72.5573 200.12 72.1466 199.938 71.6146 199.938C71.372 199.938 71.1386 199.985 70.9146 200.078C70.7 200.171 70.504 200.311 70.3266 200.498C70.1493 200.675 70 200.895 69.8786 201.156C69.7666 201.417 69.692 201.716 69.6546 202.052Z" fill="#3F414D"/>
<path d="M245.555 198.671C245.809 198.382 245.81 197.948 245.555 197.658C245.249 197.309 244.706 197.31 244.401 197.659L240.751 201.825C240.353 202.28 239.646 202.28 239.248 201.826L235.582 197.651C235.28 197.306 234.743 197.306 234.44 197.651C234.188 197.937 234.188 198.367 234.44 198.653L239.494 204.411C239.76 204.721 240.24 204.721 240.506 204.411L245.555 198.671Z" fill="#8C8D94"/>
<line x1="-4.37114e-08" y1="219.5" x2="270" y2="219.5" stroke="#EEE9E9"/>
<path d="M16.732 250.168C16.1533 250.168 15.6213 250.061 15.136 249.846C14.6507 249.631 14.226 249.323 13.862 248.922C13.5073 248.511 13.2273 248.012 13.022 247.424C12.826 246.827 12.728 246.155 12.728 245.408C12.728 244.671 12.8307 244.008 13.036 243.42C13.2413 242.832 13.526 242.333 13.89 241.922C14.254 241.511 14.6833 241.199 15.178 240.984C15.6727 240.76 16.214 240.648 16.802 240.648C17.362 240.648 17.852 240.765 18.272 240.998C18.7013 241.222 19.0513 241.483 19.322 241.782L18.692 242.538C18.4493 242.277 18.174 242.067 17.866 241.908C17.558 241.749 17.208 241.67 16.816 241.67C16.3773 241.67 15.9807 241.759 15.626 241.936C15.2713 242.104 14.968 242.351 14.716 242.678C14.464 242.995 14.268 243.383 14.128 243.84C13.9973 244.297 13.932 244.811 13.932 245.38C13.932 245.959 13.9973 246.481 14.128 246.948C14.268 247.405 14.4593 247.797 14.702 248.124C14.9447 248.451 15.2387 248.703 15.584 248.88C15.9387 249.057 16.3353 249.146 16.774 249.146C17.222 249.146 17.614 249.057 17.95 248.88C18.286 248.693 18.6033 248.437 18.902 248.11L19.546 248.838C19.182 249.258 18.7713 249.585 18.314 249.818C17.8567 250.051 17.3293 250.168 16.732 250.168ZM23.792 250.168C23.372 250.168 22.9707 250.089 22.588 249.93C22.2147 249.771 21.8834 249.543 21.594 249.244C21.3047 248.936 21.0714 248.563 20.894 248.124C20.726 247.676 20.642 247.172 20.642 246.612C20.642 246.043 20.726 245.539 20.894 245.1C21.0714 244.652 21.3047 244.274 21.594 243.966C21.8834 243.658 22.2147 243.425 22.588 243.266C22.9707 243.107 23.372 243.028 23.792 243.028C24.212 243.028 24.6087 243.107 24.982 243.266C25.3647 243.425 25.7007 243.658 25.99 243.966C26.2794 244.274 26.508 244.652 26.676 245.1C26.8534 245.539 26.942 246.043 26.942 246.612C26.942 247.172 26.8534 247.676 26.676 248.124C26.508 248.563 26.2794 248.936 25.99 249.244C25.7007 249.543 25.3647 249.771 24.982 249.93C24.6087 250.089 24.212 250.168 23.792 250.168ZM23.792 249.216C24.0814 249.216 24.3474 249.155 24.59 249.034C24.8327 248.903 25.038 248.726 25.206 248.502C25.3834 248.269 25.5187 247.993 25.612 247.676C25.7054 247.359 25.752 247.004 25.752 246.612C25.752 246.22 25.7054 245.865 25.612 245.548C25.5187 245.221 25.3834 244.941 25.206 244.708C25.038 244.475 24.8327 244.297 24.59 244.176C24.3474 244.045 24.0814 243.98 23.792 243.98C23.5027 243.98 23.2367 244.045 22.994 244.176C22.7514 244.297 22.5414 244.475 22.364 244.708C22.196 244.941 22.0654 245.221 21.972 245.548C21.8787 245.865 21.832 246.22 21.832 246.612C21.832 247.004 21.8787 247.359 21.972 247.676C22.0654 247.993 22.196 248.269 22.364 248.502C22.5414 248.726 22.7514 248.903 22.994 249.034C23.2367 249.155 23.5027 249.216 23.792 249.216ZM28.7339 250V243.196H29.6859L29.7839 244.176H29.8259C30.1526 243.849 30.4933 243.579 30.8479 243.364C31.2119 243.14 31.6319 243.028 32.1079 243.028C32.8266 243.028 33.3493 243.252 33.6759 243.7C34.0119 244.148 34.1799 244.811 34.1799 245.688V250H33.0319V245.842C33.0319 245.198 32.9293 244.736 32.7239 244.456C32.5186 244.167 32.1919 244.022 31.7439 244.022C31.3893 244.022 31.0766 244.111 30.8059 244.288C30.5353 244.465 30.2273 244.727 29.8819 245.072V250H28.7339ZM39.0782 250.168C38.6302 250.168 38.2102 250.089 37.8182 249.93C37.4262 249.771 37.0855 249.543 36.7962 249.244C36.5162 248.936 36.2922 248.563 36.1242 248.124C35.9655 247.676 35.8862 247.172 35.8862 246.612C35.8862 246.043 35.9749 245.539 36.1522 245.1C36.3295 244.652 36.5675 244.274 36.8662 243.966C37.1649 243.658 37.5102 243.425 37.9022 243.266C38.3035 243.107 38.7235 243.028 39.1622 243.028C39.6102 243.028 39.9929 243.107 40.3102 243.266C40.6275 243.425 40.9075 243.611 41.1502 243.826L40.5622 244.582C40.3662 244.405 40.1562 244.26 39.9322 244.148C39.7175 244.036 39.4749 243.98 39.2042 243.98C38.8962 243.98 38.6115 244.045 38.3502 244.176C38.0889 244.297 37.8649 244.475 37.6782 244.708C37.4915 244.941 37.3422 245.221 37.2302 245.548C37.1275 245.865 37.0762 246.22 37.0762 246.612C37.0762 247.004 37.1275 247.359 37.2302 247.676C37.3329 247.993 37.4729 248.269 37.6502 248.502C37.8369 248.726 38.0609 248.903 38.3222 249.034C38.5835 249.155 38.8682 249.216 39.1762 249.216C39.4935 249.216 39.7829 249.151 40.0442 249.02C40.3149 248.88 40.5575 248.717 40.7722 248.53L41.2762 249.3C40.9682 249.571 40.6275 249.785 40.2542 249.944C39.8809 250.093 39.4889 250.168 39.0782 250.168ZM45.2322 250.168C44.7748 250.168 44.3455 250.089 43.9442 249.93C43.5522 249.762 43.2068 249.529 42.9082 249.23C42.6188 248.922 42.3902 248.549 42.2222 248.11C42.0542 247.671 41.9702 247.172 41.9702 246.612C41.9702 246.052 42.0542 245.553 42.2222 245.114C42.3995 244.666 42.6282 244.288 42.9082 243.98C43.1975 243.672 43.5242 243.439 43.8882 243.28C44.2522 243.112 44.6302 243.028 45.0222 243.028C45.4515 243.028 45.8342 243.103 46.1702 243.252C46.5155 243.401 46.8002 243.616 47.0242 243.896C47.2575 244.176 47.4348 244.512 47.5562 244.904C47.6775 245.296 47.7382 245.735 47.7382 246.22C47.7382 246.341 47.7335 246.463 47.7242 246.584C47.7242 246.696 47.7148 246.794 47.6962 246.878H43.1042C43.1508 247.606 43.3748 248.185 43.7762 248.614C44.1868 249.034 44.7188 249.244 45.3722 249.244C45.6988 249.244 45.9975 249.197 46.2682 249.104C46.5482 249.001 46.8142 248.871 47.0662 248.712L47.4722 249.468C47.1735 249.655 46.8422 249.818 46.4782 249.958C46.1142 250.098 45.6988 250.168 45.2322 250.168ZM43.0902 246.052H46.7302C46.7302 245.361 46.5808 244.839 46.2822 244.484C45.9928 244.12 45.5822 243.938 45.0502 243.938C44.8075 243.938 44.5742 243.985 44.3502 244.078C44.1355 244.171 43.9395 244.311 43.7622 244.498C43.5848 244.675 43.4355 244.895 43.3142 245.156C43.2022 245.417 43.1275 245.716 43.0902 246.052ZM49.4195 250V243.196H50.3715L50.4695 244.428H50.5115C50.7448 243.999 51.0248 243.658 51.3515 243.406C51.6875 243.154 52.0515 243.028 52.4435 243.028C52.7142 243.028 52.9568 243.075 53.1715 243.168L52.9475 244.176C52.8355 244.139 52.7328 244.111 52.6395 244.092C52.5462 244.073 52.4295 244.064 52.2895 244.064C52.0002 244.064 51.6968 244.181 51.3795 244.414C51.0715 244.647 50.8008 245.053 50.5675 245.632V250H49.4195ZM54.273 250V243.196H55.225L55.323 244.176H55.365C55.6917 243.849 56.0323 243.579 56.387 243.364C56.751 243.14 57.171 243.028 57.647 243.028C58.3657 243.028 58.8883 243.252 59.215 243.7C59.551 244.148 59.719 244.811 59.719 245.688V250H58.571V245.842C58.571 245.198 58.4683 244.736 58.263 244.456C58.0577 244.167 57.731 244.022 57.283 244.022C56.9283 244.022 56.6157 244.111 56.345 244.288C56.0743 244.465 55.7663 244.727 55.421 245.072V250H54.273Z" fill="#3F414D"/>
<path d="M245.555 242.671C245.809 242.382 245.81 241.948 245.555 241.658C245.249 241.309 244.706 241.31 244.401 241.659L240.751 245.825C240.353 246.28 239.646 246.28 239.248 245.826L235.582 241.651C235.28 241.306 234.743 241.306 234.44 241.651C234.188 241.937 234.188 242.367 234.44 242.653L239.494 248.411C239.76 248.721 240.24 248.721 240.506 248.411L245.555 242.671Z" fill="#8C8D94"/>
<line x1="-4.37114e-08" y1="263.5" x2="270" y2="263.5" stroke="#EEE9E9"/>
<path d="M15.808 294.168C15.164 294.168 14.5667 294.047 14.016 293.804C13.4653 293.561 12.9893 293.23 12.588 292.81L13.288 291.998C13.6147 292.343 13.9973 292.623 14.436 292.838C14.884 293.043 15.346 293.146 15.822 293.146C16.4287 293.146 16.9 293.011 17.236 292.74C17.572 292.46 17.74 292.096 17.74 291.648C17.74 291.415 17.698 291.219 17.614 291.06C17.5393 290.892 17.432 290.752 17.292 290.64C17.1613 290.519 17.0027 290.411 16.816 290.318C16.6293 290.225 16.4287 290.127 16.214 290.024L14.898 289.45C14.6833 289.357 14.464 289.245 14.24 289.114C14.016 288.983 13.8153 288.825 13.638 288.638C13.4607 288.451 13.316 288.232 13.204 287.98C13.092 287.719 13.036 287.42 13.036 287.084C13.036 286.739 13.106 286.417 13.246 286.118C13.3953 285.819 13.596 285.563 13.848 285.348C14.1093 285.124 14.4127 284.951 14.758 284.83C15.1127 284.709 15.5 284.648 15.92 284.648C16.4707 284.648 16.9793 284.755 17.446 284.97C17.9127 285.175 18.3093 285.446 18.636 285.782L18.006 286.538C17.726 286.267 17.4133 286.057 17.068 285.908C16.732 285.749 16.3493 285.67 15.92 285.67C15.4067 285.67 14.9913 285.791 14.674 286.034C14.366 286.267 14.212 286.594 14.212 287.014C14.212 287.238 14.254 287.429 14.338 287.588C14.4313 287.737 14.5527 287.873 14.702 287.994C14.8513 288.106 15.0147 288.209 15.192 288.302C15.3693 288.386 15.5513 288.465 15.738 288.54L17.04 289.1C17.3013 289.212 17.5487 289.343 17.782 289.492C18.0153 289.632 18.216 289.8 18.384 289.996C18.552 290.183 18.6827 290.407 18.776 290.668C18.8787 290.92 18.93 291.214 18.93 291.55C18.93 291.914 18.8553 292.255 18.706 292.572C18.566 292.889 18.3607 293.169 18.09 293.412C17.8193 293.645 17.4927 293.832 17.11 293.972C16.7273 294.103 16.2933 294.168 15.808 294.168ZM20.6265 294V284.032H21.7605V290.78H21.8025L24.7005 287.196H25.9745L23.6925 289.926L26.2825 294H25.0225L23.0345 290.724L21.7605 292.208V294H20.6265ZM27.5582 294V287.196H28.7062V294H27.5582ZM28.1462 285.796C27.9222 285.796 27.7308 285.726 27.5722 285.586C27.4228 285.446 27.3482 285.269 27.3482 285.054C27.3482 284.83 27.4228 284.653 27.5722 284.522C27.7308 284.382 27.9222 284.312 28.1462 284.312C28.3702 284.312 28.5568 284.382 28.7062 284.522C28.8648 284.653 28.9442 284.83 28.9442 285.054C28.9442 285.269 28.8648 285.446 28.7062 285.586C28.5568 285.726 28.3702 285.796 28.1462 285.796ZM31.0035 294V287.196H31.9555L32.0535 288.176H32.0955C32.4221 287.849 32.7628 287.579 33.1175 287.364C33.4815 287.14 33.9015 287.028 34.3775 287.028C35.0961 287.028 35.6188 287.252 35.9455 287.7C36.2815 288.148 36.4495 288.811 36.4495 289.688V294H35.3015V289.842C35.3015 289.198 35.1988 288.736 34.9935 288.456C34.7881 288.167 34.4615 288.022 34.0135 288.022C33.6588 288.022 33.3461 288.111 33.0755 288.288C32.8048 288.465 32.4968 288.727 32.1515 289.072V294H31.0035ZM43.4785 294V285.796H40.7065V284.816H47.4265V285.796H44.6545V294H43.4785ZM48.6155 296.926C48.4568 296.926 48.3121 296.912 48.1815 296.884C48.0508 296.865 47.9295 296.833 47.8175 296.786L48.0415 295.876C48.1161 295.895 48.2001 295.913 48.2935 295.932C48.3868 295.96 48.4755 295.974 48.5595 295.974C48.9515 295.974 49.2688 295.834 49.5115 295.554C49.7635 295.283 49.9595 294.938 50.0995 294.518L50.2535 294.014L47.5235 287.196H48.7135L50.0995 290.962C50.2021 291.261 50.3095 291.578 50.4215 291.914C50.5428 292.241 50.6548 292.563 50.7575 292.88H50.8135C50.9161 292.572 51.0141 292.25 51.1075 291.914C51.2008 291.578 51.2941 291.261 51.3875 290.962L52.6055 287.196H53.7255L51.1635 294.56C51.0421 294.896 50.9068 295.209 50.7575 295.498C50.6081 295.787 50.4308 296.035 50.2255 296.24C50.0201 296.455 49.7868 296.623 49.5255 296.744C49.2641 296.865 48.9608 296.926 48.6155 296.926ZM55.0386 296.87V287.196H55.9906L56.0886 287.98H56.1306C56.4386 287.719 56.7746 287.495 57.1386 287.308C57.512 287.121 57.8993 287.028 58.3006 287.028C58.7393 287.028 59.1266 287.112 59.4626 287.28C59.7986 287.439 60.0786 287.672 60.3026 287.98C60.5266 288.279 60.6946 288.643 60.8066 289.072C60.928 289.492 60.9886 289.968 60.9886 290.5C60.9886 291.079 60.9093 291.597 60.7506 292.054C60.592 292.502 60.3773 292.885 60.1066 293.202C59.836 293.519 59.5233 293.762 59.1686 293.93C58.814 294.089 58.4406 294.168 58.0486 294.168C57.7313 294.168 57.414 294.098 57.0966 293.958C56.7886 293.818 56.476 293.627 56.1586 293.384L56.1866 294.574V296.87H55.0386ZM57.8526 293.202C58.1326 293.202 58.3893 293.141 58.6226 293.02C58.8653 292.889 59.0706 292.712 59.2386 292.488C59.416 292.255 59.5513 291.97 59.6446 291.634C59.7473 291.298 59.7986 290.92 59.7986 290.5C59.7986 290.127 59.766 289.786 59.7006 289.478C59.6353 289.17 59.528 288.909 59.3786 288.694C59.2386 288.47 59.052 288.297 58.8186 288.176C58.5946 288.055 58.324 287.994 58.0066 287.994C57.7173 287.994 57.4233 288.073 57.1246 288.232C56.8353 288.391 56.5226 288.619 56.1866 288.918V292.488C56.4946 292.749 56.7933 292.936 57.0826 293.048C57.372 293.151 57.6286 293.202 57.8526 293.202ZM65.5623 294.168C65.1049 294.168 64.6756 294.089 64.2743 293.93C63.8823 293.762 63.5369 293.529 63.2383 293.23C62.9489 292.922 62.7203 292.549 62.5523 292.11C62.3843 291.671 62.3003 291.172 62.3003 290.612C62.3003 290.052 62.3843 289.553 62.5523 289.114C62.7296 288.666 62.9583 288.288 63.2383 287.98C63.5276 287.672 63.8543 287.439 64.2183 287.28C64.5823 287.112 64.9603 287.028 65.3522 287.028C65.7816 287.028 66.1643 287.103 66.5003 287.252C66.8456 287.401 67.1303 287.616 67.3543 287.896C67.5876 288.176 67.7649 288.512 67.8863 288.904C68.0076 289.296 68.0683 289.735 68.0683 290.22C68.0683 290.341 68.0636 290.463 68.0543 290.584C68.0543 290.696 68.0449 290.794 68.0263 290.878H63.4343C63.4809 291.606 63.7049 292.185 64.1063 292.614C64.5169 293.034 65.0489 293.244 65.7023 293.244C66.0289 293.244 66.3276 293.197 66.5983 293.104C66.8783 293.001 67.1443 292.871 67.3963 292.712L67.8023 293.468C67.5036 293.655 67.1723 293.818 66.8083 293.958C66.4443 294.098 66.0289 294.168 65.5623 294.168ZM63.4203 290.052H67.0603C67.0603 289.361 66.9109 288.839 66.6123 288.484C66.3229 288.12 65.9123 287.938 65.3803 287.938C65.1376 287.938 64.9043 287.985 64.6803 288.078C64.4656 288.171 64.2696 288.311 64.0923 288.498C63.9149 288.675 63.7656 288.895 63.6443 289.156C63.5323 289.417 63.4576 289.716 63.4203 290.052Z" fill="#3F414D"/>
<path d="M245.555 286.671C245.809 286.382 245.81 285.948 245.555 285.658C245.249 285.309 244.706 285.31 244.401 285.659L240.751 289.825C240.353 290.28 239.646 290.28 239.248 289.826L235.582 285.651C235.28 285.306 234.743 285.306 234.44 285.651C234.188 285.937 234.188 286.367 234.44 286.653L239.494 292.411C239.76 292.721 240.24 292.721 240.506 292.411L245.555 286.671Z" fill="#8C8D94"/>
<line x1="-4.37114e-08" y1="307.5" x2="270" y2="307.5" stroke="#EEE9E9"/>
<path d="M13.26 338V328.816H18.552V329.796H14.422V332.904H17.922V333.884H14.422V338H13.26ZM22.5206 338.168C22.1006 338.168 21.6992 338.089 21.3166 337.93C20.9432 337.771 20.6119 337.543 20.3226 337.244C20.0332 336.936 19.7999 336.563 19.6226 336.124C19.4546 335.676 19.3706 335.172 19.3706 334.612C19.3706 334.043 19.4546 333.539 19.6226 333.1C19.7999 332.652 20.0332 332.274 20.3226 331.966C20.6119 331.658 20.9432 331.425 21.3166 331.266C21.6992 331.107 22.1006 331.028 22.5206 331.028C22.9406 331.028 23.3372 331.107 23.7106 331.266C24.0932 331.425 24.4292 331.658 24.7186 331.966C25.0079 332.274 25.2366 332.652 25.4046 333.1C25.5819 333.539 25.6706 334.043 25.6706 334.612C25.6706 335.172 25.5819 335.676 25.4046 336.124C25.2366 336.563 25.0079 336.936 24.7186 337.244C24.4292 337.543 24.0932 337.771 23.7106 337.93C23.3372 338.089 22.9406 338.168 22.5206 338.168ZM22.5206 337.216C22.8099 337.216 23.0759 337.155 23.3186 337.034C23.5612 336.903 23.7666 336.726 23.9346 336.502C24.1119 336.269 24.2472 335.993 24.3406 335.676C24.4339 335.359 24.4806 335.004 24.4806 334.612C24.4806 334.22 24.4339 333.865 24.3406 333.548C24.2472 333.221 24.1119 332.941 23.9346 332.708C23.7666 332.475 23.5612 332.297 23.3186 332.176C23.0759 332.045 22.8099 331.98 22.5206 331.98C22.2312 331.98 21.9652 332.045 21.7226 332.176C21.4799 332.297 21.2699 332.475 21.0926 332.708C20.9246 332.941 20.7939 333.221 20.7006 333.548C20.6072 333.865 20.5606 334.22 20.5606 334.612C20.5606 335.004 20.6072 335.359 20.7006 335.676C20.7939 335.993 20.9246 336.269 21.0926 336.502C21.2699 336.726 21.4799 336.903 21.7226 337.034C21.9652 337.155 22.2312 337.216 22.5206 337.216ZM27.4625 338V331.196H28.4145L28.5125 332.428H28.5545C28.7878 331.999 29.0678 331.658 29.3945 331.406C29.7305 331.154 30.0945 331.028 30.4865 331.028C30.7571 331.028 30.9998 331.075 31.2145 331.168L30.9905 332.176C30.8785 332.139 30.7758 332.111 30.6825 332.092C30.5891 332.073 30.4725 332.064 30.3325 332.064C30.0431 332.064 29.7398 332.181 29.4225 332.414C29.1145 332.647 28.8438 333.053 28.6105 333.632V338H27.4625ZM32.316 338V331.196H33.268L33.366 332.176H33.408C33.7066 331.849 34.0286 331.579 34.374 331.364C34.7286 331.14 35.1113 331.028 35.522 331.028C36.0446 331.028 36.4506 331.145 36.74 331.378C37.0386 331.602 37.258 331.919 37.398 332.33C37.7526 331.938 38.1073 331.625 38.462 331.392C38.826 331.149 39.218 331.028 39.638 331.028C40.338 331.028 40.856 331.252 41.192 331.7C41.5373 332.148 41.71 332.811 41.71 333.688V338H40.562V333.842C40.562 333.198 40.4593 332.736 40.254 332.456C40.0486 332.167 39.7313 332.022 39.302 332.022C38.7886 332.022 38.2193 332.372 37.594 333.072V338H36.446V333.842C36.446 333.198 36.3433 332.736 36.138 332.456C35.9326 332.167 35.6106 332.022 35.172 332.022C34.6586 332.022 34.0893 332.372 33.464 333.072V338H32.316ZM45.9114 338.168C45.1834 338.168 44.6514 337.944 44.3154 337.496C43.9887 337.048 43.8254 336.385 43.8254 335.508V331.196H44.9874V335.354C44.9874 335.998 45.0854 336.465 45.2814 336.754C45.4867 337.034 45.8134 337.174 46.2614 337.174C46.6161 337.174 46.9287 337.085 47.1994 336.908C47.4701 336.721 47.7687 336.427 48.0954 336.026V331.196H49.2434V338H48.2914L48.1934 336.936H48.1514C47.8341 337.309 47.4981 337.608 47.1434 337.832C46.7981 338.056 46.3874 338.168 45.9114 338.168ZM52.7566 338.168C52.318 338.168 52.0053 338.037 51.8186 337.776C51.632 337.515 51.5386 337.132 51.5386 336.628V328.032H52.6866V336.712C52.6866 336.899 52.7193 337.029 52.7846 337.104C52.85 337.179 52.9246 337.216 53.0086 337.216C53.046 337.216 53.0786 337.216 53.1066 337.216C53.144 337.216 53.1953 337.207 53.2606 337.188L53.4146 338.056C53.34 338.093 53.2513 338.121 53.1486 338.14C53.046 338.159 52.9153 338.168 52.7566 338.168ZM56.675 338.168C56.1057 338.168 55.6297 338 55.247 337.664C54.8737 337.328 54.687 336.852 54.687 336.236C54.687 335.489 55.0183 334.92 55.681 334.528C56.3437 334.127 57.403 333.847 58.859 333.688C58.859 333.473 58.8357 333.263 58.789 333.058C58.7517 332.853 58.6817 332.671 58.579 332.512C58.4763 332.353 58.3317 332.227 58.145 332.134C57.9677 332.031 57.739 331.98 57.459 331.98C57.067 331.98 56.6983 332.055 56.353 332.204C56.0077 332.353 55.6997 332.521 55.429 332.708L54.981 331.91C55.2983 331.705 55.6857 331.509 56.143 331.322C56.6003 331.126 57.1043 331.028 57.655 331.028C58.4857 331.028 59.0877 331.285 59.461 331.798C59.8343 332.302 60.021 332.979 60.021 333.828V338H59.069L58.971 337.188H58.929C58.6023 337.459 58.2523 337.692 57.879 337.888C57.5057 338.075 57.1043 338.168 56.675 338.168ZM57.011 337.244C57.3377 337.244 57.6457 337.169 57.935 337.02C58.2243 336.861 58.5323 336.633 58.859 336.334V334.444C58.2897 334.519 57.809 334.607 57.417 334.71C57.0343 334.813 56.7217 334.934 56.479 335.074C56.2457 335.214 56.073 335.377 55.961 335.564C55.8583 335.741 55.807 335.937 55.807 336.152C55.807 336.544 55.9237 336.824 56.157 336.992C56.3903 337.16 56.675 337.244 57.011 337.244ZM64.1123 338.168C63.7483 338.168 63.4403 338.112 63.1883 338C62.9456 337.888 62.7449 337.734 62.5863 337.538C62.4369 337.342 62.3296 337.104 62.2643 336.824C62.1989 336.544 62.1663 336.236 62.1663 335.9V332.134H61.1583V331.266L62.2223 331.196L62.3623 329.292H63.3283V331.196H65.1623V332.134H63.3283V335.914C63.3283 336.334 63.4029 336.661 63.5523 336.894C63.7109 337.118 63.9863 337.23 64.3783 337.23C64.4996 337.23 64.6303 337.211 64.7703 337.174C64.9103 337.137 65.0363 337.095 65.1483 337.048L65.3723 337.916C65.1856 337.981 64.9803 338.037 64.7563 338.084C64.5416 338.14 64.3269 338.168 64.1123 338.168ZM66.7007 338V331.196H67.8487V338H66.7007ZM67.2887 329.796C67.0647 329.796 66.8734 329.726 66.7147 329.586C66.5654 329.446 66.4907 329.269 66.4907 329.054C66.4907 328.83 66.5654 328.653 66.7147 328.522C66.8734 328.382 67.0647 328.312 67.2887 328.312C67.5127 328.312 67.6994 328.382 67.8487 328.522C68.0074 328.653 68.0867 328.83 68.0867 329.054C68.0867 329.269 68.0074 329.446 67.8487 329.586C67.6994 329.726 67.5127 329.796 67.2887 329.796ZM72.792 338.168C72.372 338.168 71.9707 338.089 71.588 337.93C71.2147 337.771 70.8834 337.543 70.594 337.244C70.3047 336.936 70.0714 336.563 69.894 336.124C69.726 335.676 69.642 335.172 69.642 334.612C69.642 334.043 69.726 333.539 69.894 333.1C70.0714 332.652 70.3047 332.274 70.594 331.966C70.8834 331.658 71.2147 331.425 71.588 331.266C71.9707 331.107 72.372 331.028 72.792 331.028C73.212 331.028 73.6087 331.107 73.982 331.266C74.3647 331.425 74.7007 331.658 74.99 331.966C75.2794 332.274 75.508 332.652 75.676 333.1C75.8534 333.539 75.942 334.043 75.942 334.612C75.942 335.172 75.8534 335.676 75.676 336.124C75.508 336.563 75.2794 336.936 74.99 337.244C74.7007 337.543 74.3647 337.771 73.982 337.93C73.6087 338.089 73.212 338.168 72.792 338.168ZM72.792 337.216C73.0814 337.216 73.3474 337.155 73.59 337.034C73.8327 336.903 74.038 336.726 74.206 336.502C74.3834 336.269 74.5187 335.993 74.612 335.676C74.7054 335.359 74.752 335.004 74.752 334.612C74.752 334.22 74.7054 333.865 74.612 333.548C74.5187 333.221 74.3834 332.941 74.206 332.708C74.038 332.475 73.8327 332.297 73.59 332.176C73.3474 332.045 73.0814 331.98 72.792 331.98C72.5027 331.98 72.2367 332.045 71.994 332.176C71.7514 332.297 71.5414 332.475 71.364 332.708C71.196 332.941 71.0654 333.221 70.972 333.548C70.8787 333.865 70.832 334.22 70.832 334.612C70.832 335.004 70.8787 335.359 70.972 335.676C71.0654 335.993 71.196 336.269 71.364 336.502C71.5414 336.726 71.7514 336.903 71.994 337.034C72.2367 337.155 72.5027 337.216 72.792 337.216ZM77.7339 338V331.196H78.6859L78.7839 332.176H78.8259C79.1526 331.849 79.4933 331.579 79.8479 331.364C80.2119 331.14 80.6319 331.028 81.1079 331.028C81.8266 331.028 82.3493 331.252 82.6759 331.7C83.0119 332.148 83.1799 332.811 83.1799 333.688V338H82.0319V333.842C82.0319 333.198 81.9293 332.736 81.7239 332.456C81.5186 332.167 81.1919 332.022 80.7439 332.022C80.3893 332.022 80.0766 332.111 79.8059 332.288C79.5353 332.465 79.2273 332.727 78.8819 333.072V338H77.7339Z" fill="#3F414D"/>
<path d="M245.555 330.671C245.809 330.382 245.81 329.948 245.555 329.658C245.249 329.309 244.706 329.31 244.401 329.659L240.751 333.825C240.353 334.28 239.646 334.28 239.248 333.826L235.582 329.651C235.28 329.306 234.743 329.306 234.44 329.651C234.188 329.937 234.188 330.367 234.44 330.653L239.494 336.411C239.76 336.721 240.24 336.721 240.506 336.411L245.555 330.671Z" fill="#8C8D94"/>
<line x1="-4.37114e-08" y1="351.5" x2="270" y2="351.5" stroke="#EEE9E9"/>
<path d="M16.872 382.168C16.2653 382.168 15.7053 382.061 15.192 381.846C14.688 381.631 14.254 381.323 13.89 380.922C13.526 380.511 13.2413 380.012 13.036 379.424C12.8307 378.827 12.728 378.155 12.728 377.408C12.728 376.671 12.8307 376.008 13.036 375.42C13.2507 374.832 13.5447 374.333 13.918 373.922C14.2913 373.511 14.7347 373.199 15.248 372.984C15.7707 372.76 16.3353 372.648 16.942 372.648C17.2593 372.648 17.5487 372.681 17.81 372.746C18.0807 372.811 18.3233 372.9 18.538 373.012C18.762 373.115 18.958 373.236 19.126 373.376C19.3033 373.507 19.4573 373.642 19.588 373.782L18.944 374.538C18.7107 374.295 18.44 374.09 18.132 373.922C17.824 373.754 17.4367 373.67 16.97 373.67C16.5033 373.67 16.0833 373.759 15.71 373.936C15.3367 374.104 15.0193 374.351 14.758 374.678C14.4967 374.995 14.2913 375.383 14.142 375.84C14.002 376.297 13.932 376.811 13.932 377.38C13.932 377.959 13.9973 378.481 14.128 378.948C14.268 379.405 14.464 379.797 14.716 380.124C14.9773 380.451 15.2947 380.703 15.668 380.88C16.0507 381.057 16.4893 381.146 16.984 381.146C17.3107 381.146 17.6187 381.099 17.908 381.006C18.2067 380.903 18.4493 380.768 18.636 380.6V378.206H16.69V377.24H19.7V381.104C19.4013 381.412 19.0093 381.669 18.524 381.874C18.0387 382.07 17.488 382.168 16.872 382.168ZM24.5466 382.168C24.0893 382.168 23.66 382.089 23.2586 381.93C22.8666 381.762 22.5213 381.529 22.2226 381.23C21.9333 380.922 21.7046 380.549 21.5366 380.11C21.3686 379.671 21.2846 379.172 21.2846 378.612C21.2846 378.052 21.3686 377.553 21.5366 377.114C21.714 376.666 21.9426 376.288 22.2226 375.98C22.512 375.672 22.8386 375.439 23.2026 375.28C23.5666 375.112 23.9446 375.028 24.3366 375.028C24.766 375.028 25.1486 375.103 25.4846 375.252C25.83 375.401 26.1146 375.616 26.3386 375.896C26.572 376.176 26.7493 376.512 26.8706 376.904C26.992 377.296 27.0526 377.735 27.0526 378.22C27.0526 378.341 27.048 378.463 27.0386 378.584C27.0386 378.696 27.0293 378.794 27.0106 378.878H22.4186C22.4653 379.606 22.6893 380.185 23.0906 380.614C23.5013 381.034 24.0333 381.244 24.6866 381.244C25.0133 381.244 25.312 381.197 25.5826 381.104C25.8626 381.001 26.1286 380.871 26.3806 380.712L26.7866 381.468C26.488 381.655 26.1566 381.818 25.7926 381.958C25.4286 382.098 25.0133 382.168 24.5466 382.168ZM22.4046 378.052H26.0446C26.0446 377.361 25.8953 376.839 25.5966 376.484C25.3073 376.12 24.8966 375.938 24.3646 375.938C24.122 375.938 23.8886 375.985 23.6646 376.078C23.45 376.171 23.254 376.311 23.0766 376.498C22.8993 376.675 22.75 376.895 22.6286 377.156C22.5166 377.417 22.442 377.716 22.4046 378.052ZM28.7339 382V375.196H29.6859L29.7839 376.176H29.8259C30.1526 375.849 30.4933 375.579 30.8479 375.364C31.2119 375.14 31.6319 375.028 32.1079 375.028C32.8266 375.028 33.3493 375.252 33.6759 375.7C34.0119 376.148 34.1799 376.811 34.1799 377.688V382H33.0319V377.842C33.0319 377.198 32.9293 376.736 32.7239 376.456C32.5186 376.167 32.1919 376.022 31.7439 376.022C31.3893 376.022 31.0766 376.111 30.8059 376.288C30.5353 376.465 30.2273 376.727 29.8819 377.072V382H28.7339ZM38.7142 382.168C37.8555 382.168 37.1695 381.86 36.6562 381.244C36.1522 380.628 35.9002 379.751 35.9002 378.612C35.9002 378.061 35.9795 377.567 36.1382 377.128C36.3062 376.68 36.5255 376.302 36.7962 375.994C37.0669 375.686 37.3795 375.448 37.7342 375.28C38.0889 375.112 38.4622 375.028 38.8542 375.028C39.2462 375.028 39.5869 375.098 39.8762 375.238C40.1655 375.378 40.4595 375.569 40.7582 375.812L40.7022 374.65V372.032H41.8642V382H40.9122L40.8142 381.202H40.7722C40.5015 381.463 40.1889 381.692 39.8342 381.888C39.4889 382.075 39.1155 382.168 38.7142 382.168ZM38.9662 381.202C39.2835 381.202 39.5822 381.127 39.8622 380.978C40.1422 380.819 40.4222 380.581 40.7022 380.264V376.708C40.4129 376.447 40.1329 376.265 39.8622 376.162C39.6009 376.05 39.3302 375.994 39.0502 375.994C38.7795 375.994 38.5229 376.059 38.2802 376.19C38.0469 376.311 37.8415 376.489 37.6642 376.722C37.4869 376.946 37.3469 377.217 37.2442 377.534C37.1415 377.851 37.0902 378.206 37.0902 378.598C37.0902 379.419 37.2535 380.059 37.5802 380.516C37.9069 380.973 38.3689 381.202 38.9662 381.202ZM46.9138 382.168C46.4565 382.168 46.0271 382.089 45.6258 381.93C45.2338 381.762 44.8885 381.529 44.5898 381.23C44.3005 380.922 44.0718 380.549 43.9038 380.11C43.7358 379.671 43.6518 379.172 43.6518 378.612C43.6518 378.052 43.7358 377.553 43.9038 377.114C44.0811 376.666 44.3098 376.288 44.5898 375.98C44.8791 375.672 45.2058 375.439 45.5698 375.28C45.9338 375.112 46.3118 375.028 46.7038 375.028C47.1331 375.028 47.5158 375.103 47.8518 375.252C48.1971 375.401 48.4818 375.616 48.7058 375.896C48.9391 376.176 49.1165 376.512 49.2378 376.904C49.3591 377.296 49.4198 377.735 49.4198 378.22C49.4198 378.341 49.4151 378.463 49.4058 378.584C49.4058 378.696 49.3965 378.794 49.3778 378.878H44.7858C44.8325 379.606 45.0565 380.185 45.4578 380.614C45.8685 381.034 46.4005 381.244 47.0538 381.244C47.3805 381.244 47.6791 381.197 47.9498 381.104C48.2298 381.001 48.4958 380.871 48.7478 380.712L49.1538 381.468C48.8551 381.655 48.5238 381.818 48.1598 381.958C47.7958 382.098 47.3805 382.168 46.9138 382.168ZM44.7718 378.052H48.4118C48.4118 377.361 48.2625 376.839 47.9638 376.484C47.6745 376.12 47.2638 375.938 46.7318 375.938C46.4891 375.938 46.2558 375.985 46.0318 376.078C45.8171 376.171 45.6211 376.311 45.4438 376.498C45.2665 376.675 45.1171 376.895 44.9958 377.156C44.8838 377.417 44.8091 377.716 44.7718 378.052ZM51.1011 382V375.196H52.0531L52.1511 376.428H52.1931C52.4265 375.999 52.7065 375.658 53.0331 375.406C53.3691 375.154 53.7331 375.028 54.1251 375.028C54.3958 375.028 54.6385 375.075 54.8531 375.168L54.6291 376.176C54.5171 376.139 54.4145 376.111 54.3211 376.092C54.2278 376.073 54.1111 376.064 53.9711 376.064C53.6818 376.064 53.3785 376.181 53.0611 376.414C52.7531 376.647 52.4825 377.053 52.2491 377.632V382H51.1011Z" fill="#3F414D"/>
<path d="M245.555 374.671C245.809 374.382 245.81 373.948 245.555 373.658C245.249 373.309 244.706 373.31 244.401 373.659L240.751 377.825C240.353 378.28 239.646 378.28 239.248 377.826L235.582 373.651C235.28 373.306 234.743 373.306 234.44 373.651C234.188 373.937 234.188 374.367 234.44 374.653L239.494 380.411C239.76 380.721 240.24 380.721 240.506 380.411L245.555 374.671Z" fill="#8C8D94"/>
<line x1="-4.37114e-08" y1="395.5" x2="270" y2="395.5" stroke="#EEE9E9"/>
<path d="M13.26 426V416.816H14.422V420.666H18.692V416.816H19.868V426H18.692V421.674H14.422V426H13.26ZM23.8488 426.168C23.2795 426.168 22.8035 426 22.4208 425.664C22.0475 425.328 21.8608 424.852 21.8608 424.236C21.8608 423.489 22.1921 422.92 22.8548 422.528C23.5175 422.127 24.5768 421.847 26.0328 421.688C26.0328 421.473 26.0095 421.263 25.9628 421.058C25.9255 420.853 25.8555 420.671 25.7528 420.512C25.6501 420.353 25.5055 420.227 25.3188 420.134C25.1415 420.031 24.9128 419.98 24.6328 419.98C24.2408 419.98 23.8721 420.055 23.5268 420.204C23.1815 420.353 22.8735 420.521 22.6028 420.708L22.1548 419.91C22.4721 419.705 22.8595 419.509 23.3168 419.322C23.7741 419.126 24.2781 419.028 24.8288 419.028C25.6595 419.028 26.2615 419.285 26.6348 419.798C27.0081 420.302 27.1948 420.979 27.1948 421.828V426H26.2428L26.1448 425.188H26.1028C25.7761 425.459 25.4261 425.692 25.0528 425.888C24.6795 426.075 24.2781 426.168 23.8488 426.168ZM24.1848 425.244C24.5115 425.244 24.8195 425.169 25.1088 425.02C25.3981 424.861 25.7061 424.633 26.0328 424.334V422.444C25.4635 422.519 24.9828 422.607 24.5908 422.71C24.2081 422.813 23.8955 422.934 23.6528 423.074C23.4195 423.214 23.2468 423.377 23.1348 423.564C23.0321 423.741 22.9808 423.937 22.9808 424.152C22.9808 424.544 23.0975 424.824 23.3308 424.992C23.5641 425.16 23.8488 425.244 24.1848 425.244ZM29.3355 426V419.196H30.4835V426H29.3355ZM29.9235 417.796C29.6995 417.796 29.5082 417.726 29.3495 417.586C29.2002 417.446 29.1255 417.269 29.1255 417.054C29.1255 416.83 29.2002 416.653 29.3495 416.522C29.5082 416.382 29.6995 416.312 29.9235 416.312C30.1475 416.312 30.3342 416.382 30.4835 416.522C30.6422 416.653 30.7215 416.83 30.7215 417.054C30.7215 417.269 30.6422 417.446 30.4835 417.586C30.3342 417.726 30.1475 417.796 29.9235 417.796ZM32.7808 426V419.196H33.7328L33.8308 420.428H33.8728C34.1061 419.999 34.3861 419.658 34.7128 419.406C35.0488 419.154 35.4128 419.028 35.8048 419.028C36.0755 419.028 36.3181 419.075 36.5328 419.168L36.3088 420.176C36.1968 420.139 36.0941 420.111 36.0008 420.092C35.9075 420.073 35.7908 420.064 35.6508 420.064C35.3615 420.064 35.0581 420.181 34.7408 420.414C34.4328 420.647 34.1621 421.053 33.9288 421.632V426H32.7808ZM42.4531 426V417.796H39.6811V416.816H46.4011V417.796H43.6291V426H42.4531ZM47.5901 428.926C47.4314 428.926 47.2867 428.912 47.1561 428.884C47.0254 428.865 46.9041 428.833 46.7921 428.786L47.0161 427.876C47.0907 427.895 47.1747 427.913 47.2681 427.932C47.3614 427.96 47.4501 427.974 47.5341 427.974C47.9261 427.974 48.2434 427.834 48.4861 427.554C48.7381 427.283 48.9341 426.938 49.0741 426.518L49.2281 426.014L46.4981 419.196H47.6881L49.0741 422.962C49.1767 423.261 49.2841 423.578 49.3961 423.914C49.5174 424.241 49.6294 424.563 49.7321 424.88H49.7881C49.8907 424.572 49.9887 424.25 50.0821 423.914C50.1754 423.578 50.2687 423.261 50.3621 422.962L51.5801 419.196H52.7001L50.1381 426.56C50.0167 426.896 49.8814 427.209 49.7321 427.498C49.5827 427.787 49.4054 428.035 49.2001 428.24C48.9947 428.455 48.7614 428.623 48.5001 428.744C48.2387 428.865 47.9354 428.926 47.5901 428.926ZM54.0132 428.87V419.196H54.9652L55.0632 419.98H55.1052C55.4132 419.719 55.7492 419.495 56.1132 419.308C56.4866 419.121 56.8739 419.028 57.2752 419.028C57.7139 419.028 58.1012 419.112 58.4372 419.28C58.7732 419.439 59.0532 419.672 59.2772 419.98C59.5012 420.279 59.6692 420.643 59.7812 421.072C59.9026 421.492 59.9632 421.968 59.9632 422.5C59.9632 423.079 59.8839 423.597 59.7252 424.054C59.5666 424.502 59.3519 424.885 59.0812 425.202C58.8106 425.519 58.4979 425.762 58.1432 425.93C57.7886 426.089 57.4152 426.168 57.0232 426.168C56.7059 426.168 56.3886 426.098 56.0712 425.958C55.7632 425.818 55.4506 425.627 55.1332 425.384L55.1612 426.574V428.87H54.0132ZM56.8272 425.202C57.1072 425.202 57.3639 425.141 57.5972 425.02C57.8399 424.889 58.0452 424.712 58.2132 424.488C58.3906 424.255 58.5259 423.97 58.6192 423.634C58.7219 423.298 58.7732 422.92 58.7732 422.5C58.7732 422.127 58.7406 421.786 58.6752 421.478C58.6099 421.17 58.5026 420.909 58.3532 420.694C58.2132 420.47 58.0266 420.297 57.7932 420.176C57.5692 420.055 57.2986 419.994 56.9812 419.994C56.6919 419.994 56.3979 420.073 56.0992 420.232C55.8099 420.391 55.4972 420.619 55.1612 420.918V424.488C55.4692 424.749 55.7679 424.936 56.0572 425.048C56.3466 425.151 56.6032 425.202 56.8272 425.202ZM64.5369 426.168C64.0795 426.168 63.6502 426.089 63.2489 425.93C62.8569 425.762 62.5115 425.529 62.2129 425.23C61.9235 424.922 61.6949 424.549 61.5269 424.11C61.3589 423.671 61.2749 423.172 61.2749 422.612C61.2749 422.052 61.3589 421.553 61.5269 421.114C61.7042 420.666 61.9329 420.288 62.2129 419.98C62.5022 419.672 62.8289 419.439 63.1929 419.28C63.5569 419.112 63.9349 419.028 64.3269 419.028C64.7562 419.028 65.1389 419.103 65.4749 419.252C65.8202 419.401 66.1049 419.616 66.3289 419.896C66.5622 420.176 66.7395 420.512 66.8609 420.904C66.9822 421.296 67.0429 421.735 67.0429 422.22C67.0429 422.341 67.0382 422.463 67.0289 422.584C67.0289 422.696 67.0195 422.794 67.0009 422.878H62.4089C62.4555 423.606 62.6795 424.185 63.0809 424.614C63.4915 425.034 64.0235 425.244 64.6769 425.244C65.0035 425.244 65.3022 425.197 65.5729 425.104C65.8529 425.001 66.1189 424.871 66.3709 424.712L66.7769 425.468C66.4782 425.655 66.1469 425.818 65.7829 425.958C65.4189 426.098 65.0035 426.168 64.5369 426.168ZM62.3949 422.052H66.0349C66.0349 421.361 65.8855 420.839 65.5869 420.484C65.2975 420.12 64.8869 419.938 64.3549 419.938C64.1122 419.938 63.8789 419.985 63.6549 420.078C63.4402 420.171 63.2442 420.311 63.0669 420.498C62.8895 420.675 62.7402 420.895 62.6189 421.156C62.5069 421.417 62.4322 421.716 62.3949 422.052Z" fill="#3F414D"/>
<path d="M245.555 418.671C245.809 418.382 245.81 417.948 245.555 417.658C245.249 417.309 244.706 417.31 244.401 417.659L240.751 421.825C240.353 422.28 239.646 422.28 239.248 421.826L235.582 417.651C235.28 417.306 234.743 417.306 234.44 417.651C234.188 417.937 234.188 418.367 234.44 418.653L239.494 424.411C239.76 424.721 240.24 424.721 240.506 424.411L245.555 418.671Z" fill="#8C8D94"/>
<line x1="-4.37114e-08" y1="439.5" x2="270" y2="439.5" stroke="#EEE9E9"/>
<path d="M13.26 470V460.816H14.422V470H13.26ZM16.8257 470V463.196H17.7777L17.8757 464.176H17.9177C18.2444 463.849 18.5851 463.579 18.9397 463.364C19.3037 463.14 19.7237 463.028 20.1997 463.028C20.9184 463.028 21.4411 463.252 21.7677 463.7C22.1037 464.148 22.2717 464.811 22.2717 465.688V470H21.1237V465.842C21.1237 465.198 21.0211 464.736 20.8157 464.456C20.6104 464.167 20.2837 464.022 19.8357 464.022C19.4811 464.022 19.1684 464.111 18.8977 464.288C18.6271 464.465 18.3191 464.727 17.9737 465.072V470H16.8257ZM26.778 473.136C26.358 473.136 25.9753 473.094 25.63 473.01C25.2847 472.935 24.986 472.819 24.734 472.66C24.4913 472.501 24.3 472.31 24.16 472.086C24.0293 471.862 23.964 471.601 23.964 471.302C23.964 471.013 24.0527 470.737 24.23 470.476C24.4073 470.215 24.65 469.977 24.958 469.762V469.706C24.79 469.603 24.6453 469.463 24.524 469.286C24.412 469.099 24.356 468.871 24.356 468.6C24.356 468.311 24.4353 468.059 24.594 467.844C24.7527 467.629 24.9207 467.461 25.098 467.34V467.284C24.874 467.097 24.6687 466.85 24.482 466.542C24.3047 466.225 24.216 465.861 24.216 465.45C24.216 465.077 24.2813 464.741 24.412 464.442C24.552 464.143 24.7387 463.891 24.972 463.686C25.2053 463.471 25.476 463.308 25.784 463.196C26.1013 463.084 26.4327 463.028 26.778 463.028C26.9647 463.028 27.1373 463.047 27.296 463.084C27.464 463.112 27.6133 463.149 27.744 463.196H30.11V464.078H28.71C28.8687 464.237 28.9993 464.437 29.102 464.68C29.214 464.923 29.27 465.189 29.27 465.478C29.27 465.842 29.2047 466.173 29.074 466.472C28.9433 466.761 28.766 467.009 28.542 467.214C28.318 467.41 28.052 467.564 27.744 467.676C27.4453 467.788 27.1233 467.844 26.778 467.844C26.61 467.844 26.4373 467.825 26.26 467.788C26.0827 467.741 25.9147 467.681 25.756 467.606C25.6347 467.709 25.532 467.825 25.448 467.956C25.364 468.077 25.322 468.231 25.322 468.418C25.322 468.633 25.406 468.81 25.574 468.95C25.742 469.09 26.0593 469.16 26.526 469.16H27.842C28.6353 469.16 29.228 469.291 29.62 469.552C30.0213 469.804 30.222 470.215 30.222 470.784C30.222 471.101 30.1427 471.4 29.984 471.68C29.8253 471.969 29.5967 472.221 29.298 472.436C28.9993 472.651 28.6353 472.819 28.206 472.94C27.786 473.071 27.31 473.136 26.778 473.136ZM26.778 467.074C26.974 467.074 27.156 467.037 27.324 466.962C27.5013 466.887 27.6553 466.78 27.786 466.64C27.926 466.5 28.0333 466.332 28.108 466.136C28.1827 465.931 28.22 465.702 28.22 465.45C28.22 464.946 28.08 464.559 27.8 464.288C27.52 464.008 27.1793 463.868 26.778 463.868C26.3767 463.868 26.036 464.008 25.756 464.288C25.476 464.559 25.336 464.946 25.336 465.45C25.336 465.702 25.3733 465.931 25.448 466.136C25.5227 466.332 25.6253 466.5 25.756 466.64C25.896 466.78 26.05 466.887 26.218 466.962C26.3953 467.037 26.582 467.074 26.778 467.074ZM26.946 472.338C27.2727 472.338 27.5667 472.296 27.828 472.212C28.0987 472.137 28.3273 472.035 28.514 471.904C28.7007 471.783 28.8453 471.638 28.948 471.47C29.0507 471.302 29.102 471.129 29.102 470.952C29.102 470.635 28.9853 470.415 28.752 470.294C28.5187 470.173 28.178 470.112 27.73 470.112H26.554C26.4233 470.112 26.2787 470.103 26.12 470.084C25.9707 470.075 25.8213 470.047 25.672 470C25.4293 470.177 25.252 470.364 25.14 470.56C25.028 470.756 24.972 470.952 24.972 471.148C24.972 471.512 25.1447 471.801 25.49 472.016C25.8447 472.231 26.33 472.338 26.946 472.338ZM31.5367 470V463.196H32.4887L32.5867 464.428H32.6287C32.862 463.999 33.142 463.658 33.4687 463.406C33.8047 463.154 34.1687 463.028 34.5607 463.028C34.8313 463.028 35.074 463.075 35.2887 463.168L35.0647 464.176C34.9527 464.139 34.85 464.111 34.7567 464.092C34.6633 464.073 34.5467 464.064 34.4067 464.064C34.1173 464.064 33.814 464.181 33.4967 464.414C33.1887 464.647 32.918 465.053 32.6847 465.632V470H31.5367ZM39.0115 470.168C38.5541 470.168 38.1248 470.089 37.7235 469.93C37.3315 469.762 36.9861 469.529 36.6875 469.23C36.3981 468.922 36.1695 468.549 36.0015 468.11C35.8335 467.671 35.7495 467.172 35.7495 466.612C35.7495 466.052 35.8335 465.553 36.0015 465.114C36.1788 464.666 36.4075 464.288 36.6875 463.98C36.9768 463.672 37.3035 463.439 37.6675 463.28C38.0315 463.112 38.4095 463.028 38.8015 463.028C39.2308 463.028 39.6135 463.103 39.9495 463.252C40.2948 463.401 40.5795 463.616 40.8035 463.896C41.0368 464.176 41.2141 464.512 41.3355 464.904C41.4568 465.296 41.5175 465.735 41.5175 466.22C41.5175 466.341 41.5128 466.463 41.5035 466.584C41.5035 466.696 41.4941 466.794 41.4755 466.878H36.8835C36.9301 467.606 37.1541 468.185 37.5555 468.614C37.9661 469.034 38.4981 469.244 39.1515 469.244C39.4781 469.244 39.7768 469.197 40.0475 469.104C40.3275 469.001 40.5935 468.871 40.8455 468.712L41.2515 469.468C40.9528 469.655 40.6215 469.818 40.2575 469.958C39.8935 470.098 39.4781 470.168 39.0115 470.168ZM36.8695 466.052H40.5095C40.5095 465.361 40.3601 464.839 40.0615 464.484C39.7721 464.12 39.3615 463.938 38.8295 463.938C38.5868 463.938 38.3535 463.985 38.1295 464.078C37.9148 464.171 37.7188 464.311 37.5415 464.498C37.3641 464.675 37.2148 464.895 37.0935 465.156C36.9815 465.417 36.9068 465.716 36.8695 466.052ZM45.5228 470.168C44.6641 470.168 43.9781 469.86 43.4648 469.244C42.9608 468.628 42.7088 467.751 42.7088 466.612C42.7088 466.061 42.7881 465.567 42.9468 465.128C43.1148 464.68 43.3341 464.302 43.6048 463.994C43.8754 463.686 44.1881 463.448 44.5428 463.28C44.8974 463.112 45.2708 463.028 45.6628 463.028C46.0548 463.028 46.3954 463.098 46.6848 463.238C46.9741 463.378 47.2681 463.569 47.5668 463.812L47.5108 462.65V460.032H48.6728V470H47.7208L47.6228 469.202H47.5808C47.3101 469.463 46.9974 469.692 46.6428 469.888C46.2974 470.075 45.9241 470.168 45.5228 470.168ZM45.7748 469.202C46.0921 469.202 46.3908 469.127 46.6708 468.978C46.9508 468.819 47.2308 468.581 47.5108 468.264V464.708C47.2214 464.447 46.9414 464.265 46.6708 464.162C46.4094 464.05 46.1388 463.994 45.8588 463.994C45.5881 463.994 45.3314 464.059 45.0888 464.19C44.8554 464.311 44.6501 464.489 44.4728 464.722C44.2954 464.946 44.1554 465.217 44.0528 465.534C43.9501 465.851 43.8988 466.206 43.8988 466.598C43.8988 467.419 44.0621 468.059 44.3888 468.516C44.7154 468.973 45.1774 469.202 45.7748 469.202ZM50.9644 470V463.196H52.1124V470H50.9644ZM51.5524 461.796C51.3284 461.796 51.1371 461.726 50.9784 461.586C50.8291 461.446 50.7544 461.269 50.7544 461.054C50.7544 460.83 50.8291 460.653 50.9784 460.522C51.1371 460.382 51.3284 460.312 51.5524 460.312C51.7764 460.312 51.9631 460.382 52.1124 460.522C52.2711 460.653 52.3504 460.83 52.3504 461.054C52.3504 461.269 52.2711 461.446 52.1124 461.586C51.9631 461.726 51.7764 461.796 51.5524 461.796ZM57.1677 470.168C56.7104 470.168 56.2811 470.089 55.8797 469.93C55.4877 469.762 55.1424 469.529 54.8437 469.23C54.5544 468.922 54.3257 468.549 54.1577 468.11C53.9897 467.671 53.9057 467.172 53.9057 466.612C53.9057 466.052 53.9897 465.553 54.1577 465.114C54.3351 464.666 54.5637 464.288 54.8437 463.98C55.1331 463.672 55.4597 463.439 55.8237 463.28C56.1877 463.112 56.5657 463.028 56.9577 463.028C57.3871 463.028 57.7697 463.103 58.1057 463.252C58.4511 463.401 58.7357 463.616 58.9597 463.896C59.1931 464.176 59.3704 464.512 59.4917 464.904C59.6131 465.296 59.6737 465.735 59.6737 466.22C59.6737 466.341 59.6691 466.463 59.6597 466.584C59.6597 466.696 59.6504 466.794 59.6317 466.878H55.0397C55.0864 467.606 55.3104 468.185 55.7117 468.614C56.1224 469.034 56.6544 469.244 57.3077 469.244C57.6344 469.244 57.9331 469.197 58.2037 469.104C58.4837 469.001 58.7497 468.871 59.0017 468.712L59.4077 469.468C59.1091 469.655 58.7777 469.818 58.4137 469.958C58.0497 470.098 57.6344 470.168 57.1677 470.168ZM55.0257 466.052H58.6657C58.6657 465.361 58.5164 464.839 58.2177 464.484C57.9284 464.12 57.5177 463.938 56.9857 463.938C56.7431 463.938 56.5097 463.985 56.2857 464.078C56.0711 464.171 55.8751 464.311 55.6977 464.498C55.5204 464.675 55.3711 464.895 55.2497 465.156C55.1377 465.417 55.0631 465.716 55.0257 466.052ZM61.355 470V463.196H62.307L62.405 464.176H62.447C62.7737 463.849 63.1144 463.579 63.469 463.364C63.833 463.14 64.253 463.028 64.729 463.028C65.4477 463.028 65.9704 463.252 66.297 463.7C66.633 464.148 66.801 464.811 66.801 465.688V470H65.653V465.842C65.653 465.198 65.5504 464.736 65.345 464.456C65.1397 464.167 64.813 464.022 64.365 464.022C64.0104 464.022 63.6977 464.111 63.427 464.288C63.1564 464.465 62.8484 464.727 62.503 465.072V470H61.355ZM71.1533 470.168C70.7893 470.168 70.4813 470.112 70.2293 470C69.9866 469.888 69.7859 469.734 69.6273 469.538C69.4779 469.342 69.3706 469.104 69.3053 468.824C69.2399 468.544 69.2073 468.236 69.2073 467.9V464.134H68.1993V463.266L69.2633 463.196L69.4033 461.292H70.3693V463.196H72.2033V464.134H70.3693V467.914C70.3693 468.334 70.4439 468.661 70.5933 468.894C70.7519 469.118 71.0273 469.23 71.4193 469.23C71.5406 469.23 71.6713 469.211 71.8113 469.174C71.9513 469.137 72.0773 469.095 72.1893 469.048L72.4133 469.916C72.2266 469.981 72.0213 470.037 71.7973 470.084C71.5826 470.14 71.3679 470.168 71.1533 470.168Z" fill="#3F414D"/>
<path d="M245.555 462.671C245.809 462.382 245.81 461.948 245.555 461.658C245.249 461.309 244.706 461.31 244.401 461.659L240.751 465.825C240.353 466.28 239.646 466.28 239.248 465.826L235.582 461.651C235.28 461.306 234.743 461.306 234.44 461.651C234.188 461.937 234.188 462.367 234.44 462.653L239.494 468.411C239.76 468.721 240.24 468.721 240.506 468.411L245.555 462.671Z" fill="#8C8D94"/>
</g>
<defs>
<filter id="filter0_d_656_173070" x="-1" y="0" width="272" height="490" filterUnits="userSpaceOnUse" color-interpolation-filters="sRGB">
<feFlood flood-opacity="0" result="BackgroundImageFix"/>
<feColorMatrix in="SourceAlpha" type="matrix" values="0 0 0 0 0 0 0 0 0 0 0 0 0 0 0 0 0 0 127 0" result="hardAlpha"/>
<feOffset dy="1"/>
<feGaussianBlur stdDeviation="0.5"/>
<feComposite in2="hardAlpha" operator="out"/>
<feColorMatrix type="matrix" values="0 0 0 0 0 0 0 0 0 0 0 0 0 0 0 0 0 0 0.25 0"/>
<feBlend mode="normal" in2="BackgroundImageFix" result="effect1_dropShadow_656_173070"/>
<feBlend mode="normal" in="SourceGraphic" in2="effect1_dropShadow_656_173070" result="shape"/>
</filter>
</defs>
</svg>
