<svg width="714" height="49" viewBox="0 0 714 49" fill="none" xmlns="http://www.w3.org/2000/svg">
<rect width="714" height="49" fill="#F3F3F3"/>
<g clip-path="url(#clip0_1017_7536)" filter="url(#filter0_i_1017_7536)">
<path fill-rule="evenodd" clip-rule="evenodd" d="M67.9683 30.5H67.0121C67.054 30.5466 66.9702 31.2782 67.0121 31.372C67.0962 31.6061 67.7581 31.4653 67.9683 31.372C68.0277 31.3518 67.9243 31.4209 67.9683 31.372C68.0122 31.323 67.9502 31.4382 67.9683 31.372C68.0106 31.2782 68.0106 30.6408 67.9683 30.5Z" fill="#8C8D94"/>
<mask id="mask0_1017_7536" style="mask-type:alpha" maskUnits="userSpaceOnUse" x="60" y="11" width="26" height="27">
<path d="M60 11.5H86V37.5H60V11.5Z" fill="white"/>
</mask>
<g mask="url(#mask0_1017_7536)">
<path d="M81 30.5C81 30.8874 81.2761 31.5 81 31.5H78C77.7234 31.5 77 30.9425 77 30.5V27.5C77 27.058 77.6688 27.5 78 27.5H81C81.2761 27.5 81 27.058 81 27.5V30.5ZM76 28.5C76 30.3252 75.0556 31.5 75 31.5C75.0562 31.5556 74.0556 31.5 74 31.5H71C70.9454 31.5 71.0556 31.5 71 31.5C70.9449 31.4449 70 30.3252 70 28.5V22.5C70 22.3336 69.8336 22.5 70 22.5H76C76.1664 22.5 76 22.3341 76 22.5V28.5ZM69 30.5C68.8903 30.7766 69.2761 31.3892 69 31.5C68.5018 31.6659 67.1659 31.0528 67 30.5L64 21.5V19.5C64 19.4444 63.9449 19.5 64 19.5L65 20.5C65 20.5551 65 20.4449 65 20.5L69 30.5C69.1108 30.2785 69.1108 30.7766 69 30.5ZM71 20.5C71 20.3336 70.8341 20.5 71 20.5H74C74.1654 20.5 75 20.3341 75 20.5V21.5H71V20.5ZM71 17.5C71 17.4449 70.9444 17.5551 71 17.5C71.0556 17.5 70.8892 17.5 71 17.5C71.0551 17.5 73.0593 18.1126 74 18.5C74.1102 18.5551 74 18.3892 74 18.5V19.5C74.1664 19.5 74 19.3341 74 19.5H71C71 19.3336 71.8336 19.5 72 19.5L71 18.5C71 18.4444 71 18.5556 71 18.5V17.5ZM78 22.5C78 22.2234 77.778 21.5 78 21.5H80C80.2205 21.5 81 22.2234 81 22.5V26.5H78V22.5ZM78 20.5C78.0546 20.4449 78.5622 18.7766 80 18.5C80.0556 18.5 79.9449 18.4449 80 18.5C80.0556 18.5556 80 18.4449 80 18.5V21.5H78V20.5ZM73 11.5C65.8084 11.5 60 17.3084 60 24.5C60 31.6916 65.8084 37.5 73 37.5C80.1916 37.5 86 31.6916 86 24.5C86 17.3084 80.1916 11.5 73 11.5Z" fill="#FC2779"/>
<path d="M81 30.5C81 30.8874 81.2761 31.5 81 31.5H78C77.7234 31.5 77 30.9425 77 30.5V27.5C77 27.058 77.6688 27.5 78 27.5H81C81.2761 27.5 81 27.058 81 27.5V30.5ZM76 28.5C76 30.3252 75.0556 31.5 75 31.5C75.0562 31.5556 74.0556 31.5 74 31.5H71C70.9454 31.5 71.0556 31.5 71 31.5C70.9449 31.4449 70 30.3252 70 28.5V22.5C70 22.3336 69.8336 22.5 70 22.5H76C76.1664 22.5 76 22.3341 76 22.5V28.5ZM69 30.5C68.8903 30.7766 69.2761 31.3892 69 31.5C68.5018 31.6659 67.1659 31.0528 67 30.5L64 21.5V19.5C64 19.4444 63.9449 19.5 64 19.5L65 20.5C65 20.5551 65 20.4449 65 20.5L69 30.5C69.1108 30.2785 69.1108 30.7766 69 30.5ZM71 20.5C71 20.3336 70.8341 20.5 71 20.5H74C74.1654 20.5 75 20.3341 75 20.5V21.5H71V20.5ZM71 17.5C71 17.4449 70.9444 17.5551 71 17.5C71.0556 17.5 70.8892 17.5 71 17.5C71.0551 17.5 73.0593 18.1126 74 18.5C74.1102 18.5551 74 18.3892 74 18.5V19.5C74.1664 19.5 74 19.3341 74 19.5H71C71 19.3336 71.8336 19.5 72 19.5L71 18.5C71 18.4444 71 18.5556 71 18.5V17.5ZM78 22.5C78 22.2234 77.778 21.5 78 21.5H80C80.2205 21.5 81 22.2234 81 22.5V26.5H78V22.5ZM78 20.5C78.0546 20.4449 78.5622 18.7766 80 18.5C80.0556 18.5 79.9449 18.4449 80 18.5C80.0556 18.5556 80 18.4449 80 18.5V21.5H78V20.5ZM73 11.5C65.8084 11.5 60 17.3084 60 24.5C60 31.6916 65.8084 37.5 73 37.5C80.1916 37.5 86 31.6916 86 24.5C86 17.3084 80.1916 11.5 73 11.5Z" fill="#8C8D94"/>
</g>
<path fill-rule="evenodd" clip-rule="evenodd" d="M64 21.5H65L64 20.5V21.5Z" fill="#8C8D94"/>
</g>
<path d="M92.948 29V28.184H94.7V22.544H93.308V21.908C93.66 21.844 93.964 21.768 94.22 21.68C94.484 21.584 94.72 21.472 94.928 21.344H95.684V28.184H97.268V29H92.948ZM101.433 29.144C100.657 29.144 100.053 28.8 99.6208 28.112C99.1888 27.424 98.9728 26.436 98.9728 25.148C98.9728 23.86 99.1888 22.88 99.6208 22.208C100.053 21.536 100.657 21.2 101.433 21.2C102.201 21.2 102.801 21.536 103.233 22.208C103.665 22.88 103.881 23.86 103.881 25.148C103.881 26.436 103.665 27.424 103.233 28.112C102.801 28.8 102.201 29.144 101.433 29.144ZM101.433 28.352C101.657 28.352 101.857 28.292 102.033 28.172C102.217 28.044 102.373 27.852 102.501 27.596C102.637 27.332 102.741 27 102.813 26.6C102.885 26.192 102.921 25.708 102.921 25.148C102.921 24.588 102.885 24.108 102.813 23.708C102.741 23.308 102.637 22.984 102.501 22.736C102.373 22.48 102.217 22.292 102.033 22.172C101.857 22.052 101.657 21.992 101.433 21.992C101.209 21.992 101.005 22.052 100.821 22.172C100.637 22.292 100.477 22.48 100.341 22.736C100.213 22.984 100.113 23.308 100.041 23.708C99.9688 24.108 99.9328 24.588 99.9328 25.148C99.9328 26.268 100.069 27.084 100.341 27.596C100.621 28.1 100.985 28.352 101.433 28.352ZM107.878 29.144C107.102 29.144 106.498 28.8 106.066 28.112C105.634 27.424 105.418 26.436 105.418 25.148C105.418 23.86 105.634 22.88 106.066 22.208C106.498 21.536 107.102 21.2 107.878 21.2C108.646 21.2 109.246 21.536 109.678 22.208C110.11 22.88 110.326 23.86 110.326 25.148C110.326 26.436 110.11 27.424 109.678 28.112C109.246 28.8 108.646 29.144 107.878 29.144ZM107.878 28.352C108.102 28.352 108.302 28.292 108.478 28.172C108.662 28.044 108.818 27.852 108.946 27.596C109.082 27.332 109.186 27 109.258 26.6C109.33 26.192 109.366 25.708 109.366 25.148C109.366 24.588 109.33 24.108 109.258 23.708C109.186 23.308 109.082 22.984 108.946 22.736C108.818 22.48 108.662 22.292 108.478 22.172C108.302 22.052 108.102 21.992 107.878 21.992C107.654 21.992 107.45 22.052 107.266 22.172C107.082 22.292 106.922 22.48 106.786 22.736C106.658 22.984 106.558 23.308 106.486 23.708C106.414 24.108 106.378 24.588 106.378 25.148C106.378 26.268 106.514 27.084 106.786 27.596C107.066 28.1 107.43 28.352 107.878 28.352ZM113.543 25.952C112.999 25.952 112.563 25.736 112.235 25.304C111.915 24.872 111.755 24.256 111.755 23.456C111.755 22.664 111.915 22.056 112.235 21.632C112.563 21.2 112.999 20.984 113.543 20.984C114.079 20.984 114.511 21.2 114.839 21.632C115.167 22.056 115.331 22.664 115.331 23.456C115.331 24.256 115.167 24.872 114.839 25.304C114.511 25.736 114.079 25.952 113.543 25.952ZM113.543 25.34C113.847 25.34 114.095 25.184 114.287 24.872C114.479 24.552 114.575 24.08 114.575 23.456C114.575 22.832 114.479 22.368 114.287 22.064C114.095 21.752 113.847 21.596 113.543 21.596C113.231 21.596 112.979 21.752 112.787 22.064C112.595 22.368 112.499 22.832 112.499 23.456C112.499 24.08 112.595 24.552 112.787 24.872C112.979 25.184 113.231 25.34 113.543 25.34ZM113.759 29.144L118.103 20.984H118.775L114.431 29.144H113.759ZM119.027 29.144C118.483 29.144 118.047 28.928 117.719 28.496C117.399 28.064 117.239 27.448 117.239 26.648C117.239 25.856 117.399 25.248 117.719 24.824C118.047 24.392 118.483 24.176 119.027 24.176C119.563 24.176 119.995 24.392 120.323 24.824C120.651 25.248 120.815 25.856 120.815 26.648C120.815 27.448 120.651 28.064 120.323 28.496C119.995 28.928 119.563 29.144 119.027 29.144ZM119.027 28.532C119.331 28.532 119.579 28.376 119.771 28.064C119.963 27.744 120.059 27.272 120.059 26.648C120.059 26.024 119.963 25.56 119.771 25.256C119.579 24.944 119.331 24.788 119.027 24.788C118.715 24.788 118.463 24.944 118.271 25.256C118.079 25.56 117.983 26.024 117.983 26.648C117.983 27.272 118.079 27.744 118.271 28.064C118.463 28.376 118.715 28.532 119.027 28.532ZM128.764 29.144C128.244 29.144 127.764 29.052 127.324 28.868C126.892 28.684 126.52 28.42 126.208 28.076C125.896 27.724 125.652 27.296 125.476 26.792C125.3 26.28 125.212 25.704 125.212 25.064C125.212 24.432 125.3 23.864 125.476 23.36C125.66 22.856 125.912 22.428 126.232 22.076C126.552 21.724 126.932 21.456 127.372 21.272C127.82 21.08 128.304 20.984 128.824 20.984C129.096 20.984 129.344 21.012 129.568 21.068C129.8 21.124 130.008 21.2 130.192 21.296C130.384 21.384 130.552 21.488 130.696 21.608C130.848 21.72 130.98 21.836 131.092 21.956L130.54 22.604C130.34 22.396 130.108 22.22 129.844 22.076C129.58 21.932 129.248 21.86 128.848 21.86C128.448 21.86 128.088 21.936 127.768 22.088C127.448 22.232 127.176 22.444 126.952 22.724C126.728 22.996 126.552 23.328 126.424 23.72C126.304 24.112 126.244 24.552 126.244 25.04C126.244 25.536 126.3 25.984 126.412 26.384C126.532 26.776 126.7 27.112 126.916 27.392C127.14 27.672 127.412 27.888 127.732 28.04C128.06 28.192 128.436 28.268 128.86 28.268C129.14 28.268 129.404 28.228 129.652 28.148C129.908 28.06 130.116 27.944 130.276 27.8V25.748H128.608V24.92H131.188V28.232C130.932 28.496 130.596 28.716 130.18 28.892C129.764 29.06 129.292 29.144 128.764 29.144ZM133.554 29V21.128H138.09V21.968H134.55V24.44H137.538V25.292H134.55V28.148H138.21V29H133.554ZM140.362 29V21.128H141.394L144.238 26.072L145.09 27.704H145.138C145.114 27.304 145.086 26.892 145.054 26.468C145.03 26.036 145.018 25.612 145.018 25.196V21.128H145.966V29H144.934L142.078 24.044L141.226 22.424H141.178C141.21 22.824 141.238 23.232 141.262 23.648C141.294 24.056 141.31 24.468 141.31 24.884V29H140.362ZM151.407 29.144C151.007 29.144 150.631 29.088 150.279 28.976C149.935 28.856 149.635 28.664 149.379 28.4C149.131 28.128 148.935 27.776 148.791 27.344C148.647 26.912 148.575 26.38 148.575 25.748V21.128H149.571V25.772C149.571 26.244 149.619 26.64 149.715 26.96C149.811 27.28 149.939 27.536 150.099 27.728C150.267 27.92 150.463 28.06 150.687 28.148C150.911 28.228 151.151 28.268 151.407 28.268C151.671 28.268 151.915 28.228 152.139 28.148C152.363 28.06 152.559 27.92 152.727 27.728C152.895 27.536 153.027 27.28 153.123 26.96C153.219 26.64 153.267 26.244 153.267 25.772V21.128H154.227V25.748C154.227 26.38 154.155 26.912 154.011 27.344C153.867 27.776 153.667 28.128 153.411 28.4C153.163 28.664 152.867 28.856 152.523 28.976C152.179 29.088 151.807 29.144 151.407 29.144ZM156.826 29V21.128H157.822V29H156.826ZM160.458 29V21.128H161.49L164.334 26.072L165.186 27.704H165.234C165.21 27.304 165.182 26.892 165.15 26.468C165.126 26.036 165.114 25.612 165.114 25.196V21.128H166.062V29H165.03L162.174 24.044L161.322 22.424H161.274C161.306 22.824 161.334 23.232 161.358 23.648C161.39 24.056 161.406 24.468 161.406 24.884V29H160.458ZM168.708 29V21.128H173.244V21.968H169.704V24.44H172.692V25.292H169.704V28.148H173.364V29H168.708ZM181.28 29V21.128H183.524C183.964 21.128 184.364 21.168 184.724 21.248C185.092 21.328 185.404 21.46 185.66 21.644C185.916 21.82 186.116 22.056 186.26 22.352C186.404 22.648 186.476 23.012 186.476 23.444C186.476 23.86 186.404 24.22 186.26 24.524C186.124 24.828 185.928 25.08 185.672 25.28C185.416 25.48 185.108 25.632 184.748 25.736C184.396 25.832 184.004 25.88 183.572 25.88H182.276V29H181.28ZM182.276 25.064H183.452C184.14 25.064 184.648 24.936 184.976 24.68C185.312 24.416 185.48 24.004 185.48 23.444C185.48 22.876 185.304 22.484 184.952 22.268C184.608 22.044 184.092 21.932 183.404 21.932H182.276V25.064ZM188.557 29V21.128H191.017C191.417 21.128 191.785 21.168 192.121 21.248C192.465 21.32 192.757 21.444 192.997 21.62C193.245 21.796 193.437 22.024 193.573 22.304C193.709 22.584 193.777 22.928 193.777 23.336C193.777 23.952 193.617 24.444 193.297 24.812C192.977 25.18 192.545 25.432 192.001 25.568L194.005 29H192.877L190.981 25.676H189.553V29H188.557ZM189.553 24.86H190.873C191.489 24.86 191.961 24.736 192.289 24.488C192.617 24.232 192.781 23.848 192.781 23.336C192.781 22.816 192.617 22.452 192.289 22.244C191.961 22.036 191.489 21.932 190.873 21.932H189.553V24.86ZM198.773 29.144C198.277 29.144 197.821 29.048 197.405 28.856C196.997 28.664 196.645 28.392 196.349 28.04C196.053 27.68 195.821 27.248 195.653 26.744C195.493 26.232 195.413 25.66 195.413 25.028C195.413 24.396 195.493 23.832 195.653 23.336C195.821 22.832 196.053 22.408 196.349 22.064C196.645 21.712 196.997 21.444 197.405 21.26C197.821 21.076 198.277 20.984 198.773 20.984C199.269 20.984 199.721 21.08 200.129 21.272C200.545 21.456 200.901 21.724 201.197 22.076C201.501 22.42 201.733 22.844 201.893 23.348C202.061 23.844 202.145 24.404 202.145 25.028C202.145 25.66 202.061 26.232 201.893 26.744C201.733 27.248 201.501 27.68 201.197 28.04C200.901 28.392 200.545 28.664 200.129 28.856C199.721 29.048 199.269 29.144 198.773 29.144ZM198.773 28.268C199.125 28.268 199.441 28.192 199.721 28.04C200.009 27.888 200.253 27.672 200.453 27.392C200.661 27.104 200.821 26.764 200.933 26.372C201.045 25.972 201.101 25.524 201.101 25.028C201.101 24.54 201.045 24.1 200.933 23.708C200.821 23.316 200.661 22.984 200.453 22.712C200.253 22.44 200.009 22.232 199.721 22.088C199.441 21.936 199.125 21.86 198.773 21.86C198.421 21.86 198.101 21.936 197.813 22.088C197.533 22.232 197.289 22.44 197.081 22.712C196.881 22.984 196.725 23.316 196.613 23.708C196.501 24.1 196.445 24.54 196.445 25.028C196.445 25.524 196.501 25.972 196.613 26.372C196.725 26.764 196.881 27.104 197.081 27.392C197.289 27.672 197.533 27.888 197.813 28.04C198.101 28.192 198.421 28.268 198.773 28.268ZM204.318 29V21.128H206.286C207.502 21.128 208.426 21.464 209.058 22.136C209.69 22.808 210.006 23.772 210.006 25.028C210.006 25.652 209.926 26.212 209.766 26.708C209.606 27.196 209.37 27.612 209.058 27.956C208.746 28.292 208.362 28.552 207.906 28.736C207.45 28.912 206.926 29 206.334 29H204.318ZM205.314 28.184H206.214C207.134 28.184 207.822 27.908 208.278 27.356C208.742 26.804 208.974 26.028 208.974 25.028C208.974 24.028 208.742 23.264 208.278 22.736C207.822 22.208 207.134 21.944 206.214 21.944H205.314V28.184ZM214.977 29.144C214.577 29.144 214.201 29.088 213.849 28.976C213.505 28.856 213.205 28.664 212.949 28.4C212.701 28.128 212.505 27.776 212.361 27.344C212.217 26.912 212.145 26.38 212.145 25.748V21.128H213.141V25.772C213.141 26.244 213.189 26.64 213.285 26.96C213.381 27.28 213.509 27.536 213.669 27.728C213.837 27.92 214.033 28.06 214.257 28.148C214.481 28.228 214.721 28.268 214.977 28.268C215.241 28.268 215.485 28.228 215.709 28.148C215.933 28.06 216.129 27.92 216.297 27.728C216.465 27.536 216.597 27.28 216.693 26.96C216.789 26.64 216.837 26.244 216.837 25.772V21.128H217.797V25.748C217.797 26.38 217.725 26.912 217.581 27.344C217.437 27.776 217.237 28.128 216.981 28.4C216.733 28.664 216.437 28.856 216.093 28.976C215.749 29.088 215.377 29.144 214.977 29.144ZM223.371 29.144C222.875 29.144 222.419 29.052 222.003 28.868C221.587 28.684 221.223 28.42 220.911 28.076C220.607 27.724 220.367 27.296 220.191 26.792C220.023 26.28 219.939 25.704 219.939 25.064C219.939 24.432 220.027 23.864 220.203 23.36C220.379 22.856 220.623 22.428 220.935 22.076C221.247 21.724 221.615 21.456 222.039 21.272C222.463 21.08 222.927 20.984 223.431 20.984C223.911 20.984 224.331 21.084 224.691 21.284C225.059 21.476 225.359 21.7 225.591 21.956L225.051 22.604C224.843 22.38 224.607 22.2 224.343 22.064C224.079 21.928 223.779 21.86 223.443 21.86C223.067 21.86 222.727 21.936 222.423 22.088C222.119 22.232 221.859 22.444 221.643 22.724C221.427 22.996 221.259 23.328 221.139 23.72C221.027 24.112 220.971 24.552 220.971 25.04C220.971 25.536 221.027 25.984 221.139 26.384C221.259 26.776 221.423 27.112 221.631 27.392C221.839 27.672 222.091 27.888 222.387 28.04C222.691 28.192 223.031 28.268 223.407 28.268C223.791 28.268 224.127 28.192 224.415 28.04C224.703 27.88 224.975 27.66 225.231 27.38L225.783 28.004C225.471 28.364 225.119 28.644 224.727 28.844C224.335 29.044 223.883 29.144 223.371 29.144ZM229.152 29V21.968H226.776V21.128H232.536V21.968H230.16V29H229.152ZM236.149 29.144C235.597 29.144 235.085 29.04 234.613 28.832C234.141 28.624 233.733 28.34 233.389 27.98L233.989 27.284C234.269 27.58 234.597 27.82 234.973 28.004C235.357 28.18 235.753 28.268 236.161 28.268C236.681 28.268 237.085 28.152 237.373 27.92C237.661 27.68 237.805 27.368 237.805 26.984C237.805 26.784 237.769 26.616 237.697 26.48C237.633 26.336 237.541 26.216 237.421 26.12C237.309 26.016 237.173 25.924 237.013 25.844C236.853 25.764 236.681 25.68 236.497 25.592L235.369 25.1C235.185 25.02 234.997 24.924 234.805 24.812C234.613 24.7 234.441 24.564 234.289 24.404C234.137 24.244 234.013 24.056 233.917 23.84C233.821 23.616 233.773 23.36 233.773 23.072C233.773 22.776 233.833 22.5 233.953 22.244C234.081 21.988 234.253 21.768 234.469 21.584C234.693 21.392 234.953 21.244 235.249 21.14C235.553 21.036 235.885 20.984 236.245 20.984C236.717 20.984 237.153 21.076 237.553 21.26C237.953 21.436 238.293 21.668 238.573 21.956L238.033 22.604C237.793 22.372 237.525 22.192 237.229 22.064C236.941 21.928 236.613 21.86 236.245 21.86C235.805 21.86 235.449 21.964 235.177 22.172C234.913 22.372 234.781 22.652 234.781 23.012C234.781 23.204 234.817 23.368 234.889 23.504C234.969 23.632 235.073 23.748 235.201 23.852C235.329 23.948 235.469 24.036 235.621 24.116C235.773 24.188 235.929 24.256 236.089 24.32L237.205 24.8C237.429 24.896 237.641 25.008 237.841 25.136C238.041 25.256 238.213 25.4 238.357 25.568C238.501 25.728 238.613 25.92 238.693 26.144C238.781 26.36 238.825 26.612 238.825 26.9C238.825 27.212 238.761 27.504 238.633 27.776C238.513 28.048 238.337 28.288 238.105 28.496C237.873 28.696 237.593 28.856 237.265 28.976C236.937 29.088 236.565 29.144 236.149 29.144Z" fill="#00141F"/>
<g clip-path="url(#clip1_1017_7536)" filter="url(#filter1_i_1017_7536)">
<circle cx="305" cy="24.5" r="13" fill="#8C8D94"/>
<path d="M304.838 30.75H304.588V30.5V29.3801V29.1301H304.838H308.387C308.906 29.1301 309.509 28.7871 309.995 28.223C310.476 27.6638 310.801 26.9333 310.801 26.2347C310.801 25.4965 310.63 24.7557 310.302 24.2065C309.978 23.6628 309.515 23.325 308.914 23.3179H300.196L301.92 25.6382L302.034 25.792L301.916 25.9423L301.289 26.7352L301.089 26.9884L300.894 26.7315L297.801 22.6591L297.685 22.5067L297.802 22.3552L300.894 18.3473L301.089 18.0941L301.288 18.3448L301.915 19.1365L302.036 19.2887L301.918 19.4432L300.203 21.698H308.915C309.97 21.6925 310.811 22.2864 311.378 23.1384C311.943 23.9881 312.25 25.1122 312.25 26.2347C312.25 27.3862 311.746 28.5087 311.025 29.3415C310.308 30.17 309.341 30.75 308.387 30.75H304.838Z" fill="white" stroke="white" stroke-width="0.5"/>
</g>
<path d="M325.08 29V21.128H329.616V21.968H326.076V24.44H329.064V25.292H326.076V28.148H329.736V29H325.08ZM333.244 24.596L332.872 25.796H335.236L334.864 24.596C334.72 24.156 334.584 23.72 334.456 23.288C334.328 22.848 334.2 22.4 334.072 21.944H334.024C333.904 22.4 333.78 22.848 333.652 23.288C333.524 23.72 333.388 24.156 333.244 24.596ZM330.844 29L333.508 21.128H334.636L337.3 29H336.232L335.488 26.6H332.62L331.864 29H330.844ZM341.079 29.144C340.527 29.144 340.015 29.04 339.543 28.832C339.071 28.624 338.663 28.34 338.319 27.98L338.919 27.284C339.199 27.58 339.527 27.82 339.903 28.004C340.287 28.18 340.683 28.268 341.091 28.268C341.611 28.268 342.015 28.152 342.303 27.92C342.591 27.68 342.735 27.368 342.735 26.984C342.735 26.784 342.699 26.616 342.627 26.48C342.563 26.336 342.471 26.216 342.351 26.12C342.239 26.016 342.103 25.924 341.943 25.844C341.783 25.764 341.611 25.68 341.427 25.592L340.299 25.1C340.115 25.02 339.927 24.924 339.735 24.812C339.543 24.7 339.371 24.564 339.219 24.404C339.067 24.244 338.943 24.056 338.847 23.84C338.751 23.616 338.703 23.36 338.703 23.072C338.703 22.776 338.763 22.5 338.883 22.244C339.011 21.988 339.183 21.768 339.399 21.584C339.623 21.392 339.883 21.244 340.179 21.14C340.483 21.036 340.815 20.984 341.175 20.984C341.647 20.984 342.083 21.076 342.483 21.26C342.883 21.436 343.223 21.668 343.503 21.956L342.963 22.604C342.723 22.372 342.455 22.192 342.159 22.064C341.871 21.928 341.543 21.86 341.175 21.86C340.735 21.86 340.379 21.964 340.107 22.172C339.843 22.372 339.711 22.652 339.711 23.012C339.711 23.204 339.747 23.368 339.819 23.504C339.899 23.632 340.003 23.748 340.131 23.852C340.259 23.948 340.399 24.036 340.551 24.116C340.703 24.188 340.859 24.256 341.019 24.32L342.135 24.8C342.359 24.896 342.571 25.008 342.771 25.136C342.971 25.256 343.143 25.4 343.287 25.568C343.431 25.728 343.543 25.92 343.623 26.144C343.711 26.36 343.755 26.612 343.755 26.9C343.755 27.212 343.691 27.504 343.563 27.776C343.443 28.048 343.267 28.288 343.035 28.496C342.803 28.696 342.523 28.856 342.195 28.976C341.867 29.088 341.495 29.144 341.079 29.144ZM346.894 29V25.952L344.53 21.128H345.598L346.618 23.348C346.746 23.636 346.87 23.92 346.99 24.2C347.11 24.48 347.238 24.768 347.374 25.064H347.422C347.558 24.768 347.694 24.48 347.83 24.2C347.966 23.92 348.094 23.636 348.214 23.348L349.222 21.128H350.266L347.902 25.952V29H346.894ZM354.691 29V21.128H357.151C357.551 21.128 357.919 21.168 358.255 21.248C358.599 21.32 358.891 21.444 359.131 21.62C359.379 21.796 359.571 22.024 359.707 22.304C359.843 22.584 359.911 22.928 359.911 23.336C359.911 23.952 359.751 24.444 359.431 24.812C359.111 25.18 358.679 25.432 358.135 25.568L360.139 29H359.011L357.115 25.676H355.687V29H354.691ZM355.687 24.86H357.007C357.623 24.86 358.095 24.736 358.423 24.488C358.751 24.232 358.915 23.848 358.915 23.336C358.915 22.816 358.751 22.452 358.423 22.244C358.095 22.036 357.623 21.932 357.007 21.932H355.687V24.86ZM362.003 29V21.128H366.539V21.968H362.999V24.44H365.987V25.292H362.999V28.148H366.659V29H362.003ZM370.443 29V21.968H368.067V21.128H373.827V21.968H371.451V29H370.443ZM378.521 29.144C378.121 29.144 377.745 29.088 377.393 28.976C377.049 28.856 376.749 28.664 376.493 28.4C376.245 28.128 376.049 27.776 375.905 27.344C375.761 26.912 375.689 26.38 375.689 25.748V21.128H376.685V25.772C376.685 26.244 376.733 26.64 376.829 26.96C376.925 27.28 377.053 27.536 377.213 27.728C377.381 27.92 377.577 28.06 377.801 28.148C378.025 28.228 378.265 28.268 378.521 28.268C378.785 28.268 379.029 28.228 379.253 28.148C379.477 28.06 379.673 27.92 379.841 27.728C380.009 27.536 380.141 27.28 380.237 26.96C380.333 26.64 380.381 26.244 380.381 25.772V21.128H381.341V25.748C381.341 26.38 381.269 26.912 381.125 27.344C380.981 27.776 380.781 28.128 380.525 28.4C380.277 28.664 379.981 28.856 379.637 28.976C379.293 29.088 378.921 29.144 378.521 29.144ZM383.939 29V21.128H386.399C386.799 21.128 387.167 21.168 387.503 21.248C387.847 21.32 388.139 21.444 388.379 21.62C388.627 21.796 388.819 22.024 388.955 22.304C389.091 22.584 389.159 22.928 389.159 23.336C389.159 23.952 388.999 24.444 388.679 24.812C388.359 25.18 387.927 25.432 387.383 25.568L389.387 29H388.259L386.363 25.676H384.935V29H383.939ZM384.935 24.86H386.255C386.871 24.86 387.343 24.736 387.671 24.488C387.999 24.232 388.163 23.848 388.163 23.336C388.163 22.816 387.999 22.452 387.671 22.244C387.343 22.036 386.871 21.932 386.255 21.932H384.935V24.86ZM391.251 29V21.128H392.283L395.127 26.072L395.979 27.704H396.027C396.003 27.304 395.975 26.892 395.943 26.468C395.919 26.036 395.907 25.612 395.907 25.196V21.128H396.855V29H395.823L392.967 24.044L392.115 22.424H392.067C392.099 22.824 392.127 23.232 392.151 23.648C392.183 24.056 392.199 24.468 392.199 24.884V29H391.251ZM402.383 29V21.128H404.627C405.067 21.128 405.467 21.168 405.827 21.248C406.195 21.328 406.507 21.46 406.763 21.644C407.019 21.82 407.219 22.056 407.363 22.352C407.507 22.648 407.579 23.012 407.579 23.444C407.579 23.86 407.507 24.22 407.363 24.524C407.227 24.828 407.031 25.08 406.775 25.28C406.519 25.48 406.211 25.632 405.851 25.736C405.499 25.832 405.107 25.88 404.675 25.88H403.379V29H402.383ZM403.379 25.064H404.555C405.243 25.064 405.751 24.936 406.079 24.68C406.415 24.416 406.583 24.004 406.583 23.444C406.583 22.876 406.407 22.484 406.055 22.268C405.711 22.044 405.195 21.932 404.507 21.932H403.379V25.064ZM412.564 29.144C412.068 29.144 411.612 29.048 411.196 28.856C410.788 28.664 410.436 28.392 410.14 28.04C409.844 27.68 409.612 27.248 409.444 26.744C409.284 26.232 409.204 25.66 409.204 25.028C409.204 24.396 409.284 23.832 409.444 23.336C409.612 22.832 409.844 22.408 410.14 22.064C410.436 21.712 410.788 21.444 411.196 21.26C411.612 21.076 412.068 20.984 412.564 20.984C413.06 20.984 413.512 21.08 413.92 21.272C414.336 21.456 414.692 21.724 414.988 22.076C415.292 22.42 415.524 22.844 415.684 23.348C415.852 23.844 415.936 24.404 415.936 25.028C415.936 25.66 415.852 26.232 415.684 26.744C415.524 27.248 415.292 27.68 414.988 28.04C414.692 28.392 414.336 28.664 413.92 28.856C413.512 29.048 413.06 29.144 412.564 29.144ZM412.564 28.268C412.916 28.268 413.232 28.192 413.512 28.04C413.8 27.888 414.044 27.672 414.244 27.392C414.452 27.104 414.612 26.764 414.724 26.372C414.836 25.972 414.892 25.524 414.892 25.028C414.892 24.54 414.836 24.1 414.724 23.708C414.612 23.316 414.452 22.984 414.244 22.712C414.044 22.44 413.8 22.232 413.512 22.088C413.232 21.936 412.916 21.86 412.564 21.86C412.212 21.86 411.892 21.936 411.604 22.088C411.324 22.232 411.08 22.44 410.872 22.712C410.672 22.984 410.516 23.316 410.404 23.708C410.292 24.1 410.236 24.54 410.236 25.028C410.236 25.524 410.292 25.972 410.404 26.372C410.516 26.764 410.672 27.104 410.872 27.392C411.08 27.672 411.324 27.888 411.604 28.04C411.892 28.192 412.212 28.268 412.564 28.268ZM418.109 29V21.128H419.105V28.148H422.549V29H418.109ZM424.425 29V21.128H425.421V29H424.425ZM431.033 29.144C430.537 29.144 430.081 29.052 429.665 28.868C429.249 28.684 428.885 28.42 428.573 28.076C428.269 27.724 428.029 27.296 427.853 26.792C427.685 26.28 427.601 25.704 427.601 25.064C427.601 24.432 427.689 23.864 427.865 23.36C428.041 22.856 428.285 22.428 428.597 22.076C428.909 21.724 429.277 21.456 429.701 21.272C430.125 21.08 430.589 20.984 431.093 20.984C431.573 20.984 431.993 21.084 432.353 21.284C432.721 21.476 433.021 21.7 433.253 21.956L432.713 22.604C432.505 22.38 432.269 22.2 432.005 22.064C431.741 21.928 431.441 21.86 431.105 21.86C430.729 21.86 430.389 21.936 430.085 22.088C429.781 22.232 429.521 22.444 429.305 22.724C429.089 22.996 428.921 23.328 428.801 23.72C428.689 24.112 428.633 24.552 428.633 25.04C428.633 25.536 428.689 25.984 428.801 26.384C428.921 26.776 429.085 27.112 429.293 27.392C429.501 27.672 429.753 27.888 430.049 28.04C430.353 28.192 430.693 28.268 431.069 28.268C431.453 28.268 431.789 28.192 432.077 28.04C432.365 27.88 432.637 27.66 432.893 27.38L433.445 28.004C433.133 28.364 432.781 28.644 432.389 28.844C431.997 29.044 431.545 29.144 431.033 29.144ZM436.582 29V25.952L434.218 21.128H435.286L436.306 23.348C436.434 23.636 436.558 23.92 436.678 24.2C436.798 24.48 436.926 24.768 437.062 25.064H437.11C437.246 24.768 437.382 24.48 437.518 24.2C437.654 23.92 437.782 23.636 437.902 23.348L438.91 21.128H439.954L437.59 25.952V29H436.582Z" fill="#00141F"/>
<path d="M502.508 29.144C502.092 29.144 501.696 29.068 501.32 28.916C500.944 28.764 500.616 28.572 500.336 28.34L500.828 27.68C501.084 27.888 501.344 28.056 501.608 28.184C501.88 28.312 502.192 28.376 502.544 28.376C502.928 28.376 503.216 28.288 503.408 28.112C503.6 27.936 503.696 27.72 503.696 27.464C503.696 27.312 503.656 27.18 503.576 27.068C503.496 26.956 503.392 26.86 503.264 26.78C503.144 26.692 503.004 26.616 502.844 26.552C502.684 26.488 502.524 26.424 502.364 26.36C502.156 26.288 501.948 26.208 501.74 26.12C501.532 26.024 501.344 25.912 501.176 25.784C501.016 25.648 500.884 25.492 500.78 25.316C500.676 25.14 500.624 24.928 500.624 24.68C500.624 24.448 500.668 24.232 500.756 24.032C500.852 23.824 500.984 23.648 501.152 23.504C501.328 23.352 501.54 23.236 501.788 23.156C502.036 23.068 502.316 23.024 502.628 23.024C502.996 23.024 503.332 23.088 503.636 23.216C503.948 23.344 504.216 23.5 504.44 23.684L503.972 24.308C503.772 24.156 503.564 24.032 503.348 23.936C503.132 23.84 502.896 23.792 502.64 23.792C502.272 23.792 502 23.876 501.824 24.044C501.656 24.212 501.572 24.408 501.572 24.632C501.572 24.768 501.608 24.888 501.68 24.992C501.752 25.088 501.848 25.176 501.968 25.256C502.088 25.328 502.224 25.396 502.376 25.46C502.536 25.516 502.7 25.576 502.868 25.64C503.076 25.72 503.284 25.804 503.492 25.892C503.708 25.98 503.9 26.092 504.068 26.228C504.236 26.356 504.372 26.516 504.476 26.708C504.588 26.9 504.644 27.132 504.644 27.404C504.644 27.644 504.596 27.868 504.5 28.076C504.412 28.284 504.276 28.468 504.092 28.628C503.916 28.788 503.692 28.912 503.42 29C503.156 29.096 502.852 29.144 502.508 29.144ZM509.491 29.144C508.995 29.144 508.539 29.048 508.123 28.856C507.715 28.664 507.363 28.392 507.067 28.04C506.771 27.68 506.539 27.248 506.371 26.744C506.211 26.232 506.131 25.66 506.131 25.028C506.131 24.396 506.211 23.832 506.371 23.336C506.539 22.832 506.771 22.408 507.067 22.064C507.363 21.712 507.715 21.444 508.123 21.26C508.539 21.076 508.995 20.984 509.491 20.984C509.987 20.984 510.439 21.08 510.847 21.272C511.263 21.456 511.619 21.724 511.915 22.076C512.219 22.42 512.451 22.844 512.611 23.348C512.779 23.844 512.863 24.404 512.863 25.028C512.863 25.66 512.779 26.232 512.611 26.744C512.451 27.248 512.219 27.68 511.915 28.04C511.619 28.392 511.263 28.664 510.847 28.856C510.439 29.048 509.987 29.144 509.491 29.144ZM509.491 28.268C509.843 28.268 510.159 28.192 510.439 28.04C510.727 27.888 510.971 27.672 511.171 27.392C511.379 27.104 511.539 26.764 511.651 26.372C511.763 25.972 511.819 25.524 511.819 25.028C511.819 24.54 511.763 24.1 511.651 23.708C511.539 23.316 511.379 22.984 511.171 22.712C510.971 22.44 510.727 22.232 510.439 22.088C510.159 21.936 509.843 21.86 509.491 21.86C509.139 21.86 508.819 21.936 508.531 22.088C508.251 22.232 508.007 22.44 507.799 22.712C507.599 22.984 507.443 23.316 507.331 23.708C507.219 24.1 507.163 24.54 507.163 25.028C507.163 25.524 507.219 25.972 507.331 26.372C507.443 26.764 507.599 27.104 507.799 27.392C508.007 27.672 508.251 27.888 508.531 28.04C508.819 28.192 509.139 28.268 509.491 28.268ZM515.036 29V21.128H516.032V28.148H519.476V29H515.036ZM521.352 29V21.128H523.32C524.536 21.128 525.46 21.464 526.092 22.136C526.724 22.808 527.04 23.772 527.04 25.028C527.04 25.652 526.96 26.212 526.8 26.708C526.64 27.196 526.404 27.612 526.092 27.956C525.78 28.292 525.396 28.552 524.94 28.736C524.484 28.912 523.96 29 523.368 29H521.352ZM522.348 28.184H523.248C524.168 28.184 524.856 27.908 525.312 27.356C525.776 26.804 526.008 26.028 526.008 25.028C526.008 24.028 525.776 23.264 525.312 22.736C524.856 22.208 524.168 21.944 523.248 21.944H522.348V28.184ZM532.097 29V21.128H534.437C534.837 21.128 535.201 21.164 535.529 21.236C535.865 21.308 536.149 21.42 536.381 21.572C536.621 21.724 536.805 21.924 536.933 22.172C537.069 22.412 537.137 22.704 537.137 23.048C537.137 23.44 537.037 23.796 536.837 24.116C536.645 24.428 536.361 24.644 535.985 24.764V24.812C536.465 24.9 536.853 25.1 537.149 25.412C537.445 25.724 537.593 26.152 537.593 26.696C537.593 27.08 537.521 27.416 537.377 27.704C537.233 27.992 537.029 28.232 536.765 28.424C536.501 28.616 536.185 28.76 535.817 28.856C535.449 28.952 535.045 29 534.605 29H532.097ZM533.093 24.476H534.257C534.929 24.476 535.413 24.36 535.709 24.128C536.005 23.896 536.153 23.58 536.153 23.18C536.153 22.724 535.997 22.4 535.685 22.208C535.381 22.016 534.921 21.92 534.305 21.92H533.093V24.476ZM533.093 28.208H534.461C535.141 28.208 535.669 28.084 536.045 27.836C536.421 27.58 536.609 27.188 536.609 26.66C536.609 26.172 536.425 25.816 536.057 25.592C535.689 25.36 535.157 25.244 534.461 25.244H533.093V28.208ZM540.74 29V25.952L538.376 21.128H539.444L540.464 23.348C540.592 23.636 540.716 23.92 540.836 24.2C540.956 24.48 541.084 24.768 541.22 25.064H541.268C541.404 24.768 541.54 24.48 541.676 24.2C541.812 23.92 541.94 23.636 542.06 23.348L543.068 21.128H544.112L541.748 25.952V29H540.74ZM545.77 24.812C545.57 24.812 545.398 24.744 545.254 24.608C545.118 24.464 545.05 24.284 545.05 24.068C545.05 23.836 545.118 23.652 545.254 23.516C545.398 23.372 545.57 23.3 545.77 23.3C545.962 23.3 546.126 23.372 546.262 23.516C546.406 23.652 546.478 23.836 546.478 24.068C546.478 24.284 546.406 24.464 546.262 24.608C546.126 24.744 545.962 24.812 545.77 24.812ZM545.77 29.144C545.57 29.144 545.398 29.076 545.254 28.94C545.118 28.796 545.05 28.616 545.05 28.4C545.05 28.168 545.118 27.984 545.254 27.848C545.398 27.704 545.57 27.632 545.77 27.632C545.962 27.632 546.126 27.704 546.262 27.848C546.406 27.984 546.478 28.168 546.478 28.4C546.478 28.616 546.406 28.796 546.262 28.94C546.126 29.076 545.962 29.144 545.77 29.144ZM551.701 29V21.128H552.733L555.577 26.072L556.429 27.704H556.477C556.453 27.304 556.425 26.892 556.393 26.468C556.369 26.036 556.357 25.612 556.357 25.196V21.128H557.305V29H556.273L553.417 24.044L552.565 22.424H552.517C552.549 22.824 552.577 23.232 552.601 23.648C552.633 24.056 552.649 24.468 552.649 24.884V29H551.701ZM561.222 29V25.952L558.858 21.128H559.926L560.946 23.348C561.074 23.636 561.198 23.92 561.318 24.2C561.438 24.48 561.566 24.768 561.702 25.064H561.75C561.886 24.768 562.022 24.48 562.158 24.2C562.294 23.92 562.422 23.636 562.542 23.348L563.55 21.128H564.594L562.23 25.952V29H561.222ZM566.137 29V21.128H567.133V25.076H567.169L570.445 21.128H571.573L569.113 24.128L571.957 29H570.841L568.489 24.908L567.133 26.504V29H566.137ZM574.805 24.596L574.433 25.796H576.797L576.425 24.596C576.281 24.156 576.145 23.72 576.017 23.288C575.889 22.848 575.761 22.4 575.633 21.944H575.585C575.465 22.4 575.341 22.848 575.213 23.288C575.085 23.72 574.949 24.156 574.805 24.596ZM572.405 29L575.069 21.128H576.197L578.861 29H577.793L577.049 26.6H574.181L573.425 29H572.405ZM581.742 24.596L581.37 25.796H583.734L583.362 24.596C583.218 24.156 583.082 23.72 582.954 23.288C582.826 22.848 582.698 22.4 582.57 21.944H582.522C582.402 22.4 582.278 22.848 582.15 23.288C582.022 23.72 581.886 24.156 581.742 24.596ZM579.342 29L582.006 21.128H583.134L585.798 29H584.73L583.986 26.6H581.118L580.362 29H579.342ZM590.276 29V21.128H592.736C593.136 21.128 593.504 21.168 593.84 21.248C594.184 21.32 594.476 21.444 594.716 21.62C594.964 21.796 595.156 22.024 595.292 22.304C595.428 22.584 595.496 22.928 595.496 23.336C595.496 23.952 595.336 24.444 595.016 24.812C594.696 25.18 594.264 25.432 593.72 25.568L595.724 29H594.596L592.7 25.676H591.272V29H590.276ZM591.272 24.86H592.592C593.208 24.86 593.68 24.736 594.008 24.488C594.336 24.232 594.5 23.848 594.5 23.336C594.5 22.816 594.336 22.452 594.008 22.244C593.68 22.036 593.208 21.932 592.592 21.932H591.272V24.86ZM597.588 29V21.128H602.124V21.968H598.584V24.44H601.572V25.292H598.584V28.148H602.244V29H597.588ZM606.028 29V21.968H603.652V21.128H609.412V21.968H607.036V29H606.028ZM612.185 24.596L611.813 25.796H614.177L613.805 24.596C613.661 24.156 613.525 23.72 613.397 23.288C613.269 22.848 613.141 22.4 613.013 21.944H612.965C612.845 22.4 612.721 22.848 612.593 23.288C612.465 23.72 612.329 24.156 612.185 24.596ZM609.785 29L612.449 21.128H613.577L616.241 29H615.173L614.429 26.6H611.561L610.805 29H609.785ZM617.837 29V21.128H618.833V29H617.837ZM621.469 29V21.128H622.465V28.148H625.909V29H621.469ZM630.667 29V21.128H632.911C633.351 21.128 633.751 21.168 634.111 21.248C634.479 21.328 634.791 21.46 635.047 21.644C635.303 21.82 635.503 22.056 635.647 22.352C635.791 22.648 635.863 23.012 635.863 23.444C635.863 23.86 635.791 24.22 635.647 24.524C635.511 24.828 635.315 25.08 635.059 25.28C634.803 25.48 634.495 25.632 634.135 25.736C633.783 25.832 633.391 25.88 632.959 25.88H631.663V29H630.667ZM631.663 25.064H632.839C633.527 25.064 634.035 24.936 634.363 24.68C634.699 24.416 634.867 24.004 634.867 23.444C634.867 22.876 634.691 22.484 634.339 22.268C633.995 22.044 633.479 21.932 632.791 21.932H631.663V25.064ZM637.017 29.144C636.817 29.144 636.645 29.076 636.501 28.94C636.365 28.796 636.297 28.616 636.297 28.4C636.297 28.168 636.365 27.984 636.501 27.848C636.645 27.704 636.817 27.632 637.017 27.632C637.209 27.632 637.373 27.704 637.509 27.848C637.653 27.984 637.725 28.168 637.725 28.4C637.725 28.616 637.653 28.796 637.509 28.94C637.373 29.076 637.209 29.144 637.017 29.144ZM640.485 29.144C640.285 29.144 640.113 29.076 639.969 28.94C639.833 28.796 639.765 28.616 639.765 28.4C639.765 28.168 639.833 27.984 639.969 27.848C640.113 27.704 640.285 27.632 640.485 27.632C640.677 27.632 640.841 27.704 640.977 27.848C641.121 27.984 641.193 28.168 641.193 28.4C641.193 28.616 641.121 28.796 640.977 28.94C640.841 29.076 640.677 29.144 640.485 29.144ZM643.953 29.144C643.753 29.144 643.581 29.076 643.437 28.94C643.301 28.796 643.233 28.616 643.233 28.4C643.233 28.168 643.301 27.984 643.437 27.848C643.581 27.704 643.753 27.632 643.953 27.632C644.145 27.632 644.309 27.704 644.445 27.848C644.589 27.984 644.661 28.168 644.661 28.4C644.661 28.616 644.589 28.796 644.445 28.94C644.309 29.076 644.145 29.144 643.953 29.144Z" fill="#00141F"/>
<defs>
<filter id="filter0_i_1017_7536" x="60" y="11.5" width="26" height="27" filterUnits="userSpaceOnUse" color-interpolation-filters="sRGB">
<feFlood flood-opacity="0" result="BackgroundImageFix"/>
<feBlend mode="normal" in="SourceGraphic" in2="BackgroundImageFix" result="shape"/>
<feColorMatrix in="SourceAlpha" type="matrix" values="0 0 0 0 0 0 0 0 0 0 0 0 0 0 0 0 0 0 127 0" result="hardAlpha"/>
<feOffset dy="1"/>
<feGaussianBlur stdDeviation="1.5"/>
<feComposite in2="hardAlpha" operator="arithmetic" k2="-1" k3="1"/>
<feColorMatrix type="matrix" values="0 0 0 0 0 0 0 0 0 0 0 0 0 0 0 0 0 0 0.25 0"/>
<feBlend mode="normal" in2="shape" result="effect1_innerShadow_1017_7536"/>
</filter>
<filter id="filter1_i_1017_7536" x="292" y="11.5" width="26" height="26" filterUnits="userSpaceOnUse" color-interpolation-filters="sRGB">
<feFlood flood-opacity="0" result="BackgroundImageFix"/>
<feBlend mode="normal" in="SourceGraphic" in2="BackgroundImageFix" result="shape"/>
<feColorMatrix in="SourceAlpha" type="matrix" values="0 0 0 0 0 0 0 0 0 0 0 0 0 0 0 0 0 0 127 0" result="hardAlpha"/>
<feOffset/>
<feGaussianBlur stdDeviation="2"/>
<feComposite in2="hardAlpha" operator="arithmetic" k2="-1" k3="1"/>
<feColorMatrix type="matrix" values="0 0 0 0 0 0 0 0 0 0 0 0 0 0 0 0 0 0 0.25 0"/>
<feBlend mode="normal" in2="shape" result="effect1_innerShadow_1017_7536"/>
</filter>
<clipPath id="clip0_1017_7536">
<rect width="26" height="26" fill="white" transform="translate(60 11.5)"/>
</clipPath>
<clipPath id="clip1_1017_7536">
<rect width="26" height="26" fill="white" transform="matrix(1 0 0 -1 292 37.5)"/>
</clipPath>
</defs>
</svg>
