<svg width="858" height="124" viewBox="0 0 858 124" fill="none" xmlns="http://www.w3.org/2000/svg">
<rect width="858" height="124" fill="white"/>
<path d="M37.362 76V69.768H26.684V66.804L36.26 51.832H41.466V66.386H44.506V69.768H41.466V76H37.362ZM31.016 66.386H37.362V60.914C37.362 60.2047 37.3747 59.3687 37.4 58.406C37.4507 57.4433 37.5013 56.6073 37.552 55.898H37.4C37.096 56.5313 36.7793 57.152 36.45 57.76C36.1207 58.368 35.7787 59.0013 35.424 59.66L31.016 66.386ZM50.7264 76.456C49.9158 76.456 49.2318 76.1773 48.6744 75.62C48.1424 75.0627 47.8764 74.3533 47.8764 73.492C47.8764 72.6307 48.1424 71.9213 48.6744 71.364C49.2318 70.8067 49.9158 70.528 50.7264 70.528C51.5371 70.528 52.2084 70.8067 52.7404 71.364C53.2724 71.9213 53.5384 72.6307 53.5384 73.492C53.5384 74.3533 53.2724 75.0627 52.7404 75.62C52.2084 76.1773 51.5371 76.456 50.7264 76.456ZM67.3093 76V69.768H56.6313V66.804L66.2073 51.832H71.4133V66.386H74.4533V69.768H71.4133V76H67.3093ZM60.9633 66.386H67.3093V60.914C67.3093 60.2047 67.3219 59.3687 67.3473 58.406C67.3979 57.4433 67.4486 56.6073 67.4993 55.898H67.3473C67.0433 56.5313 66.7266 57.152 66.3973 57.76C66.0679 58.368 65.7259 59.0013 65.3713 59.66L60.9633 66.386Z" fill="#00141F"/>
<path d="M89.5635 49.873L79.4512 77H76.3711L86.4834 49.873H89.5635ZM101.808 60.4307C104.666 60.4307 106.911 61.1419 108.543 62.5645C110.189 63.9746 111.011 65.9105 111.011 68.3721C111.011 71.18 110.114 73.3818 108.321 74.9775C106.54 76.5732 104.078 77.3711 100.936 77.3711C97.8807 77.3711 95.549 76.8825 93.9409 75.9053V72.9365C94.8068 73.4932 95.883 73.9323 97.1694 74.2539C98.4559 74.5632 99.7238 74.7178 100.973 74.7178C103.15 74.7178 104.839 74.2044 106.039 73.1777C107.251 72.151 107.857 70.6667 107.857 68.7246C107.857 64.9395 105.538 63.0469 100.899 63.0469C99.7238 63.0469 98.1528 63.2262 96.186 63.585L94.5903 62.5645L95.6108 49.873H109.1V52.7119H98.2456L97.5591 60.8574C98.9816 60.5729 100.398 60.4307 101.808 60.4307Z" fill="#00141F"/>
<path d="M131.648 61.168C131.069 61.168 130.537 61.056 130.052 60.832C129.576 60.608 129.165 60.2907 128.82 59.88C128.475 59.46 128.204 58.956 128.008 58.368C127.821 57.7707 127.728 57.1033 127.728 56.366C127.728 55.6287 127.821 54.9707 128.008 54.392C128.204 53.804 128.475 53.3093 128.82 52.908C129.165 52.4973 129.576 52.1847 130.052 51.97C130.537 51.7553 131.069 51.648 131.648 51.648C132.227 51.648 132.754 51.76 133.23 51.984C133.715 52.1987 134.131 52.5113 134.476 52.922C134.831 53.3233 135.101 53.818 135.288 54.406C135.484 54.9847 135.582 55.638 135.582 56.366C135.582 57.1033 135.484 57.7707 135.288 58.368C135.101 58.956 134.831 59.46 134.476 59.88C134.131 60.2907 133.715 60.608 133.23 60.832C132.754 61.056 132.227 61.168 131.648 61.168ZM131.648 60.146C132.059 60.146 132.427 60.0573 132.754 59.88C133.09 59.7027 133.375 59.4507 133.608 59.124C133.851 58.788 134.037 58.3913 134.168 57.934C134.299 57.4673 134.364 56.9447 134.364 56.366C134.364 55.7967 134.299 55.2833 134.168 54.826C134.037 54.3687 133.851 53.9813 133.608 53.664C133.375 53.3467 133.09 53.104 132.754 52.936C132.427 52.7587 132.059 52.67 131.648 52.67C131.237 52.67 130.864 52.7587 130.528 52.936C130.201 53.104 129.917 53.3467 129.674 53.664C129.441 53.9813 129.259 54.3687 129.128 54.826C128.997 55.2833 128.932 55.7967 128.932 56.366C128.932 56.9447 128.997 57.4673 129.128 57.934C129.259 58.3913 129.441 58.788 129.674 59.124C129.917 59.4507 130.201 59.7027 130.528 59.88C130.864 60.0573 131.237 60.146 131.648 60.146ZM138.915 61L136.465 54.196H137.655L138.943 58.06C139.046 58.396 139.148 58.732 139.251 59.068C139.363 59.404 139.47 59.7353 139.573 60.062H139.629C139.732 59.7353 139.834 59.404 139.937 59.068C140.04 58.732 140.142 58.396 140.245 58.06L141.533 54.196H142.667L140.259 61H138.915ZM146.683 61.168C146.226 61.168 145.797 61.0887 145.395 60.93C145.003 60.762 144.658 60.5287 144.359 60.23C144.07 59.922 143.841 59.5487 143.673 59.11C143.505 58.6713 143.421 58.172 143.421 57.612C143.421 57.052 143.505 56.5527 143.673 56.114C143.851 55.666 144.079 55.288 144.359 54.98C144.649 54.672 144.975 54.4387 145.339 54.28C145.703 54.112 146.081 54.028 146.473 54.028C146.903 54.028 147.285 54.1027 147.621 54.252C147.967 54.4013 148.251 54.616 148.475 54.896C148.709 55.176 148.886 55.512 149.007 55.904C149.129 56.296 149.189 56.7347 149.189 57.22C149.189 57.3413 149.185 57.4627 149.175 57.584C149.175 57.696 149.166 57.794 149.147 57.878H144.555C144.602 58.606 144.826 59.1847 145.227 59.614C145.638 60.034 146.17 60.244 146.823 60.244C147.15 60.244 147.449 60.1973 147.719 60.104C147.999 60.0013 148.265 59.8707 148.517 59.712L148.923 60.468C148.625 60.6547 148.293 60.818 147.929 60.958C147.565 61.098 147.15 61.168 146.683 61.168ZM144.541 57.052H148.181C148.181 56.3613 148.032 55.8387 147.733 55.484C147.444 55.12 147.033 54.938 146.501 54.938C146.259 54.938 146.025 54.9847 145.801 55.078C145.587 55.1713 145.391 55.3113 145.213 55.498C145.036 55.6753 144.887 55.8947 144.765 56.156C144.653 56.4173 144.579 56.716 144.541 57.052ZM150.871 61V54.196H151.823L151.921 55.428H151.963C152.196 54.9987 152.476 54.658 152.803 54.406C153.139 54.154 153.503 54.028 153.895 54.028C154.165 54.028 154.408 54.0747 154.623 54.168L154.399 55.176C154.287 55.1387 154.184 55.1107 154.091 55.092C153.997 55.0733 153.881 55.064 153.741 55.064C153.451 55.064 153.148 55.1807 152.831 55.414C152.523 55.6473 152.252 56.0533 152.019 56.632V61H150.871ZM156.95 61.168C156.381 61.168 155.905 61 155.522 60.664C155.149 60.328 154.962 59.852 154.962 59.236C154.962 58.4893 155.294 57.92 155.956 57.528C156.619 57.1267 157.678 56.8467 159.134 56.688C159.134 56.4733 159.111 56.2633 159.064 56.058C159.027 55.8527 158.957 55.6707 158.854 55.512C158.752 55.3533 158.607 55.2273 158.42 55.134C158.243 55.0313 158.014 54.98 157.734 54.98C157.342 54.98 156.974 55.0547 156.628 55.204C156.283 55.3533 155.975 55.5213 155.704 55.708L155.256 54.91C155.574 54.7047 155.961 54.5087 156.418 54.322C156.876 54.126 157.38 54.028 157.93 54.028C158.761 54.028 159.363 54.2847 159.736 54.798C160.11 55.302 160.296 55.9787 160.296 56.828V61H159.344L159.246 60.188H159.204C158.878 60.4587 158.528 60.692 158.154 60.888C157.781 61.0747 157.38 61.168 156.95 61.168ZM157.286 60.244C157.613 60.244 157.921 60.1693 158.21 60.02C158.5 59.8613 158.808 59.6327 159.134 59.334V57.444C158.565 57.5187 158.084 57.6073 157.692 57.71C157.31 57.8127 156.997 57.934 156.754 58.074C156.521 58.214 156.348 58.3773 156.236 58.564C156.134 58.7413 156.082 58.9373 156.082 59.152C156.082 59.544 156.199 59.824 156.432 59.992C156.666 60.16 156.95 60.244 157.286 60.244ZM163.655 61.168C163.216 61.168 162.904 61.0373 162.717 60.776C162.53 60.5147 162.437 60.132 162.437 59.628V51.032H163.585V59.712C163.585 59.8987 163.618 60.0293 163.683 60.104C163.748 60.1787 163.823 60.216 163.907 60.216C163.944 60.216 163.977 60.216 164.005 60.216C164.042 60.216 164.094 60.2067 164.159 60.188L164.313 61.056C164.238 61.0933 164.15 61.1213 164.047 61.14C163.944 61.1587 163.814 61.168 163.655 61.168ZM167.223 61.168C166.785 61.168 166.472 61.0373 166.285 60.776C166.099 60.5147 166.005 60.132 166.005 59.628V51.032H167.153V59.712C167.153 59.8987 167.186 60.0293 167.251 60.104C167.317 60.1787 167.391 60.216 167.475 60.216C167.513 60.216 167.545 60.216 167.573 60.216C167.611 60.216 167.662 60.2067 167.727 60.188L167.881 61.056C167.807 61.0933 167.718 61.1213 167.615 61.14C167.513 61.1587 167.382 61.168 167.223 61.168ZM172.489 61V51.816H175.359C175.825 51.816 176.255 51.8627 176.647 51.956C177.048 52.04 177.389 52.1847 177.669 52.39C177.958 52.5953 178.182 52.8613 178.341 53.188C178.499 53.5147 178.579 53.916 178.579 54.392C178.579 55.1107 178.392 55.6847 178.019 56.114C177.645 56.5433 177.141 56.8373 176.507 56.996L178.845 61H177.529L175.317 57.122H173.651V61H172.489ZM173.651 56.17H175.191C175.909 56.17 176.46 56.0253 176.843 55.736C177.225 55.4373 177.417 54.9893 177.417 54.392C177.417 53.7853 177.225 53.3607 176.843 53.118C176.46 52.8753 175.909 52.754 175.191 52.754H173.651V56.17ZM181.861 61.168C181.291 61.168 180.815 61 180.433 60.664C180.059 60.328 179.873 59.852 179.873 59.236C179.873 58.4893 180.204 57.92 180.867 57.528C181.529 57.1267 182.589 56.8467 184.045 56.688C184.045 56.4733 184.021 56.2633 183.975 56.058C183.937 55.8527 183.867 55.6707 183.765 55.512C183.662 55.3533 183.517 55.2273 183.331 55.134C183.153 55.0313 182.925 54.98 182.645 54.98C182.253 54.98 181.884 55.0547 181.539 55.204C181.193 55.3533 180.885 55.5213 180.615 55.708L180.167 54.91C180.484 54.7047 180.871 54.5087 181.329 54.322C181.786 54.126 182.29 54.028 182.841 54.028C183.671 54.028 184.273 54.2847 184.647 54.798C185.02 55.302 185.207 55.9787 185.207 56.828V61H184.255L184.157 60.188H184.115C183.788 60.4587 183.438 60.692 183.065 60.888C182.691 61.0747 182.29 61.168 181.861 61.168ZM182.197 60.244C182.523 60.244 182.831 60.1693 183.121 60.02C183.41 59.8613 183.718 59.6327 184.045 59.334V57.444C183.475 57.5187 182.995 57.6073 182.603 57.71C182.22 57.8127 181.907 57.934 181.665 58.074C181.431 58.214 181.259 58.3773 181.147 58.564C181.044 58.7413 180.993 58.9373 180.993 59.152C180.993 59.544 181.109 59.824 181.343 59.992C181.576 60.16 181.861 60.244 182.197 60.244ZM189.298 61.168C188.934 61.168 188.626 61.112 188.374 61C188.131 60.888 187.93 60.734 187.772 60.538C187.622 60.342 187.515 60.104 187.45 59.824C187.384 59.544 187.352 59.236 187.352 58.9V55.134H186.344V54.266L187.408 54.196L187.548 52.292H188.514V54.196H190.348V55.134H188.514V58.914C188.514 59.334 188.588 59.6607 188.738 59.894C188.896 60.118 189.172 60.23 189.564 60.23C189.685 60.23 189.816 60.2113 189.956 60.174C190.096 60.1367 190.222 60.0947 190.334 60.048L190.558 60.916C190.371 60.9813 190.166 61.0373 189.942 61.084C189.727 61.14 189.512 61.168 189.298 61.168ZM191.886 61V54.196H193.034V61H191.886ZM192.474 52.796C192.25 52.796 192.059 52.726 191.9 52.586C191.751 52.446 191.676 52.2687 191.676 52.054C191.676 51.83 191.751 51.6527 191.9 51.522C192.059 51.382 192.25 51.312 192.474 51.312C192.698 51.312 192.885 51.382 193.034 51.522C193.193 51.6527 193.272 51.83 193.272 52.054C193.272 52.2687 193.193 52.446 193.034 52.586C192.885 52.726 192.698 52.796 192.474 52.796ZM195.332 61V54.196H196.284L196.382 55.176H196.424C196.75 54.8493 197.091 54.5787 197.446 54.364C197.81 54.14 198.23 54.028 198.706 54.028C199.424 54.028 199.947 54.252 200.274 54.7C200.61 55.148 200.778 55.8107 200.778 56.688V61H199.63V56.842C199.63 56.198 199.527 55.736 199.322 55.456C199.116 55.1667 198.79 55.022 198.342 55.022C197.987 55.022 197.674 55.1107 197.404 55.288C197.133 55.4653 196.825 55.7267 196.48 56.072V61H195.332ZM205.284 64.136C204.864 64.136 204.481 64.094 204.136 64.01C203.791 63.9353 203.492 63.8187 203.24 63.66C202.997 63.5013 202.806 63.31 202.666 63.086C202.535 62.862 202.47 62.6007 202.47 62.302C202.47 62.0127 202.559 61.7373 202.736 61.476C202.913 61.2147 203.156 60.9767 203.464 60.762V60.706C203.296 60.6033 203.151 60.4633 203.03 60.286C202.918 60.0993 202.862 59.8707 202.862 59.6C202.862 59.3107 202.941 59.0587 203.1 58.844C203.259 58.6293 203.427 58.4613 203.604 58.34V58.284C203.38 58.0973 203.175 57.85 202.988 57.542C202.811 57.2247 202.722 56.8607 202.722 56.45C202.722 56.0767 202.787 55.7407 202.918 55.442C203.058 55.1433 203.245 54.8913 203.478 54.686C203.711 54.4713 203.982 54.308 204.29 54.196C204.607 54.084 204.939 54.028 205.284 54.028C205.471 54.028 205.643 54.0467 205.802 54.084C205.97 54.112 206.119 54.1493 206.25 54.196H208.616V55.078H207.216C207.375 55.2367 207.505 55.4373 207.608 55.68C207.72 55.9227 207.776 56.1887 207.776 56.478C207.776 56.842 207.711 57.1733 207.58 57.472C207.449 57.7613 207.272 58.0087 207.048 58.214C206.824 58.41 206.558 58.564 206.25 58.676C205.951 58.788 205.629 58.844 205.284 58.844C205.116 58.844 204.943 58.8253 204.766 58.788C204.589 58.7413 204.421 58.6807 204.262 58.606C204.141 58.7087 204.038 58.8253 203.954 58.956C203.87 59.0773 203.828 59.2313 203.828 59.418C203.828 59.6327 203.912 59.81 204.08 59.95C204.248 60.09 204.565 60.16 205.032 60.16H206.348C207.141 60.16 207.734 60.2907 208.126 60.552C208.527 60.804 208.728 61.2147 208.728 61.784C208.728 62.1013 208.649 62.4 208.49 62.68C208.331 62.9693 208.103 63.2213 207.804 63.436C207.505 63.6507 207.141 63.8187 206.712 63.94C206.292 64.0707 205.816 64.136 205.284 64.136ZM205.284 58.074C205.48 58.074 205.662 58.0367 205.83 57.962C206.007 57.8873 206.161 57.78 206.292 57.64C206.432 57.5 206.539 57.332 206.614 57.136C206.689 56.9307 206.726 56.702 206.726 56.45C206.726 55.946 206.586 55.5587 206.306 55.288C206.026 55.008 205.685 54.868 205.284 54.868C204.883 54.868 204.542 55.008 204.262 55.288C203.982 55.5587 203.842 55.946 203.842 56.45C203.842 56.702 203.879 56.9307 203.954 57.136C204.029 57.332 204.131 57.5 204.262 57.64C204.402 57.78 204.556 57.8873 204.724 57.962C204.901 58.0367 205.088 58.074 205.284 58.074ZM205.452 63.338C205.779 63.338 206.073 63.296 206.334 63.212C206.605 63.1373 206.833 63.0347 207.02 62.904C207.207 62.7827 207.351 62.638 207.454 62.47C207.557 62.302 207.608 62.1293 207.608 61.952C207.608 61.6347 207.491 61.4153 207.258 61.294C207.025 61.1727 206.684 61.112 206.236 61.112H205.06C204.929 61.112 204.785 61.1027 204.626 61.084C204.477 61.0747 204.327 61.0467 204.178 61C203.935 61.1773 203.758 61.364 203.646 61.56C203.534 61.756 203.478 61.952 203.478 62.148C203.478 62.512 203.651 62.8013 203.996 63.016C204.351 63.2307 204.836 63.338 205.452 63.338Z" fill="#00141F"/>
<path d="M127.948 77V76.184H129.7V70.544H128.308V69.908C128.66 69.844 128.964 69.768 129.22 69.68C129.484 69.584 129.72 69.472 129.928 69.344H130.684V76.184H132.268V77H127.948ZM136.445 77.144C136.085 77.144 135.749 77.092 135.437 76.988C135.133 76.884 134.869 76.74 134.645 76.556C134.429 76.364 134.257 76.14 134.129 75.884C134.001 75.628 133.937 75.348 133.937 75.044C133.937 74.796 133.977 74.568 134.057 74.36C134.145 74.144 134.253 73.952 134.381 73.784C134.517 73.608 134.669 73.456 134.837 73.328C135.013 73.192 135.193 73.076 135.377 72.98V72.932C135.097 72.732 134.849 72.492 134.633 72.212C134.417 71.924 134.309 71.576 134.309 71.168C134.309 70.872 134.365 70.604 134.477 70.364C134.589 70.124 134.741 69.92 134.933 69.752C135.125 69.576 135.353 69.44 135.617 69.344C135.881 69.248 136.169 69.2 136.481 69.2C136.817 69.2 137.117 69.252 137.381 69.356C137.645 69.452 137.869 69.592 138.053 69.776C138.245 69.952 138.389 70.168 138.485 70.424C138.589 70.672 138.641 70.944 138.641 71.24C138.641 71.44 138.605 71.632 138.533 71.816C138.469 72 138.385 72.172 138.281 72.332C138.185 72.492 138.073 72.636 137.945 72.764C137.825 72.892 137.705 73 137.585 73.088V73.136C137.753 73.232 137.917 73.344 138.077 73.472C138.237 73.592 138.377 73.732 138.497 73.892C138.625 74.044 138.725 74.22 138.797 74.42C138.877 74.62 138.917 74.848 138.917 75.104C138.917 75.392 138.857 75.66 138.737 75.908C138.617 76.156 138.449 76.372 138.233 76.556C138.017 76.74 137.757 76.884 137.453 76.988C137.149 77.092 136.813 77.144 136.445 77.144ZM136.985 72.824C137.241 72.592 137.437 72.348 137.573 72.092C137.717 71.836 137.789 71.568 137.789 71.288C137.789 70.904 137.673 70.584 137.441 70.328C137.209 70.064 136.881 69.932 136.457 69.932C136.097 69.932 135.801 70.044 135.569 70.268C135.337 70.492 135.221 70.792 135.221 71.168C135.221 71.4 135.269 71.6 135.365 71.768C135.461 71.928 135.589 72.072 135.749 72.2C135.917 72.328 136.105 72.444 136.313 72.548C136.529 72.644 136.753 72.736 136.985 72.824ZM136.469 76.412C136.917 76.412 137.277 76.288 137.549 76.04C137.829 75.792 137.969 75.468 137.969 75.068C137.969 74.82 137.913 74.608 137.801 74.432C137.689 74.256 137.537 74.104 137.345 73.976C137.153 73.84 136.929 73.72 136.673 73.616C136.425 73.504 136.165 73.392 135.893 73.28C135.589 73.488 135.333 73.732 135.125 74.012C134.925 74.284 134.825 74.596 134.825 74.948C134.825 75.164 134.865 75.36 134.945 75.536C135.033 75.712 135.149 75.868 135.293 76.004C135.445 76.132 135.621 76.232 135.821 76.304C136.021 76.376 136.237 76.412 136.469 76.412ZM142.014 77C142.046 76.28 142.11 75.62 142.206 75.02C142.302 74.42 142.434 73.852 142.602 73.316C142.778 72.772 142.998 72.248 143.262 71.744C143.534 71.24 143.858 70.724 144.234 70.196H140.418V69.344H145.35V69.956C144.894 70.532 144.522 71.084 144.234 71.612C143.954 72.14 143.73 72.68 143.562 73.232C143.394 73.776 143.27 74.356 143.19 74.972C143.118 75.58 143.066 76.256 143.034 77H142.014ZM147.283 77V76.184H149.035V70.544H147.643V69.908C147.995 69.844 148.299 69.768 148.555 69.68C148.819 69.584 149.055 69.472 149.263 69.344H150.019V76.184H151.603V77H147.283ZM155.611 77.144C155.307 77.144 155.027 77.112 154.771 77.048C154.523 76.992 154.295 76.916 154.087 76.82C153.879 76.716 153.691 76.6 153.523 76.472C153.363 76.344 153.219 76.208 153.091 76.064L153.595 75.416C153.827 75.656 154.095 75.868 154.399 76.052C154.711 76.236 155.095 76.328 155.551 76.328C156.015 76.328 156.395 76.204 156.691 75.956C156.987 75.7 157.135 75.356 157.135 74.924C157.135 74.7 157.091 74.496 157.003 74.312C156.923 74.12 156.787 73.956 156.595 73.82C156.403 73.684 156.151 73.58 155.839 73.508C155.527 73.436 155.143 73.4 154.687 73.4V72.644C155.095 72.644 155.435 72.608 155.707 72.536C155.987 72.464 156.211 72.364 156.379 72.236C156.555 72.108 156.679 71.956 156.751 71.78C156.823 71.604 156.859 71.416 156.859 71.216C156.859 70.84 156.739 70.544 156.499 70.328C156.267 70.112 155.947 70.004 155.539 70.004C155.219 70.004 154.923 70.076 154.651 70.22C154.387 70.364 154.139 70.552 153.907 70.784L153.379 70.16C153.675 69.88 153.999 69.652 154.351 69.476C154.711 69.292 155.119 69.2 155.575 69.2C155.911 69.2 156.219 69.244 156.499 69.332C156.779 69.42 157.019 69.548 157.219 69.716C157.427 69.876 157.587 70.076 157.699 70.316C157.811 70.556 157.867 70.832 157.867 71.144C157.867 71.608 157.739 71.988 157.483 72.284C157.227 72.58 156.891 72.808 156.475 72.968V73.016C156.707 73.072 156.923 73.156 157.123 73.268C157.323 73.372 157.499 73.508 157.651 73.676C157.803 73.836 157.919 74.024 157.999 74.24C158.087 74.456 158.131 74.696 158.131 74.96C158.131 75.296 158.063 75.6 157.927 75.872C157.799 76.144 157.619 76.376 157.387 76.568C157.163 76.752 156.899 76.896 156.595 77C156.291 77.096 155.963 77.144 155.611 77.144ZM164.351 77L162.251 71.168H163.271L164.375 74.48C164.463 74.768 164.551 75.056 164.639 75.344C164.735 75.632 164.827 75.916 164.915 76.196H164.963C165.051 75.916 165.139 75.632 165.227 75.344C165.315 75.056 165.403 74.768 165.491 74.48L166.595 71.168H167.567L165.503 77H164.351ZM171.489 77.144C171.097 77.144 170.729 77.076 170.385 76.94C170.049 76.796 169.753 76.596 169.497 76.34C169.249 76.076 169.053 75.756 168.909 75.38C168.765 75.004 168.693 74.576 168.693 74.096C168.693 73.616 168.765 73.188 168.909 72.812C169.061 72.428 169.257 72.104 169.497 71.84C169.745 71.576 170.025 71.376 170.337 71.24C170.649 71.096 170.973 71.024 171.309 71.024C171.677 71.024 172.005 71.088 172.293 71.216C172.589 71.344 172.833 71.528 173.025 71.768C173.225 72.008 173.377 72.296 173.481 72.632C173.585 72.968 173.637 73.344 173.637 73.76C173.637 73.864 173.633 73.968 173.625 74.072C173.625 74.168 173.617 74.252 173.601 74.324H169.665C169.705 74.948 169.897 75.444 170.241 75.812C170.593 76.172 171.049 76.352 171.609 76.352C171.889 76.352 172.145 76.312 172.377 76.232C172.617 76.144 172.845 76.032 173.061 75.896L173.409 76.544C173.153 76.704 172.869 76.844 172.557 76.964C172.245 77.084 171.889 77.144 171.489 77.144ZM169.653 73.616H172.773C172.773 73.024 172.645 72.576 172.389 72.272C172.141 71.96 171.789 71.804 171.333 71.804C171.125 71.804 170.925 71.844 170.733 71.924C170.549 72.004 170.381 72.124 170.229 72.284C170.077 72.436 169.949 72.624 169.845 72.848C169.749 73.072 169.685 73.328 169.653 73.616ZM175.558 77V71.168H176.374L176.458 72.224H176.494C176.694 71.856 176.934 71.564 177.214 71.348C177.502 71.132 177.814 71.024 178.15 71.024C178.382 71.024 178.59 71.064 178.774 71.144L178.582 72.008C178.486 71.976 178.398 71.952 178.318 71.936C178.238 71.92 178.138 71.912 178.018 71.912C177.77 71.912 177.51 72.012 177.238 72.212C176.974 72.412 176.742 72.76 176.542 73.256V77H175.558ZM180.199 77V71.168H181.183V77H180.199ZM180.703 69.968C180.511 69.968 180.347 69.908 180.211 69.788C180.083 69.668 180.019 69.516 180.019 69.332C180.019 69.14 180.083 68.988 180.211 68.876C180.347 68.756 180.511 68.696 180.703 68.696C180.895 68.696 181.055 68.756 181.183 68.876C181.319 68.988 181.387 69.14 181.387 69.332C181.387 69.516 181.319 69.668 181.183 69.788C181.055 69.908 180.895 69.968 180.703 69.968ZM183.8 77V71.972H183.008V71.228L183.8 71.168V70.244C183.8 69.644 183.936 69.172 184.208 68.828C184.488 68.484 184.92 68.312 185.504 68.312C185.688 68.312 185.86 68.332 186.02 68.372C186.188 68.404 186.34 68.448 186.476 68.504L186.26 69.26C186.044 69.164 185.824 69.116 185.6 69.116C185.056 69.116 184.784 69.492 184.784 70.244V71.168H186.02V71.972H184.784V77H183.8ZM187.616 77V71.168H188.6V77H187.616ZM188.12 69.968C187.928 69.968 187.764 69.908 187.628 69.788C187.5 69.668 187.436 69.516 187.436 69.332C187.436 69.14 187.5 68.988 187.628 68.876C187.764 68.756 187.928 68.696 188.12 68.696C188.312 68.696 188.472 68.756 188.6 68.876C188.736 68.988 188.804 69.14 188.804 69.332C188.804 69.516 188.736 69.668 188.6 69.788C188.472 69.908 188.312 69.968 188.12 69.968ZM193.413 77.144C193.021 77.144 192.653 77.076 192.309 76.94C191.973 76.796 191.677 76.596 191.421 76.34C191.173 76.076 190.977 75.756 190.833 75.38C190.689 75.004 190.617 74.576 190.617 74.096C190.617 73.616 190.689 73.188 190.833 72.812C190.985 72.428 191.181 72.104 191.421 71.84C191.669 71.576 191.949 71.376 192.261 71.24C192.573 71.096 192.897 71.024 193.233 71.024C193.601 71.024 193.929 71.088 194.217 71.216C194.513 71.344 194.757 71.528 194.949 71.768C195.149 72.008 195.301 72.296 195.405 72.632C195.509 72.968 195.561 73.344 195.561 73.76C195.561 73.864 195.557 73.968 195.549 74.072C195.549 74.168 195.541 74.252 195.525 74.324H191.589C191.629 74.948 191.821 75.444 192.165 75.812C192.517 76.172 192.973 76.352 193.533 76.352C193.813 76.352 194.069 76.312 194.301 76.232C194.541 76.144 194.769 76.032 194.985 75.896L195.333 76.544C195.077 76.704 194.793 76.844 194.481 76.964C194.169 77.084 193.813 77.144 193.413 77.144ZM191.577 73.616H194.697C194.697 73.024 194.569 72.576 194.313 72.272C194.065 71.96 193.713 71.804 193.257 71.804C193.049 71.804 192.849 71.844 192.657 71.924C192.473 72.004 192.305 72.124 192.153 72.284C192.001 72.436 191.873 72.624 191.769 72.848C191.673 73.072 191.609 73.328 191.577 73.616ZM199.474 77.144C198.738 77.144 198.15 76.88 197.71 76.352C197.278 75.824 197.062 75.072 197.062 74.096C197.062 73.624 197.13 73.2 197.266 72.824C197.41 72.44 197.598 72.116 197.83 71.852C198.062 71.588 198.33 71.384 198.634 71.24C198.938 71.096 199.258 71.024 199.594 71.024C199.93 71.024 200.222 71.084 200.47 71.204C200.718 71.324 200.97 71.488 201.226 71.696L201.178 70.7V68.456H202.174V77H201.358L201.274 76.316H201.238C201.006 76.54 200.738 76.736 200.434 76.904C200.138 77.064 199.818 77.144 199.474 77.144ZM199.69 76.316C199.962 76.316 200.218 76.252 200.458 76.124C200.698 75.988 200.938 75.784 201.178 75.512V72.464C200.93 72.24 200.69 72.084 200.458 71.996C200.234 71.9 200.002 71.852 199.762 71.852C199.53 71.852 199.31 71.908 199.102 72.02C198.902 72.124 198.726 72.276 198.574 72.476C198.422 72.668 198.302 72.9 198.214 73.172C198.126 73.444 198.082 73.748 198.082 74.084C198.082 74.788 198.222 75.336 198.502 75.728C198.782 76.12 199.178 76.316 199.69 76.316ZM207.5 77V71.168H208.316L208.4 72.224H208.436C208.636 71.856 208.876 71.564 209.156 71.348C209.444 71.132 209.756 71.024 210.092 71.024C210.324 71.024 210.532 71.064 210.716 71.144L210.524 72.008C210.428 71.976 210.34 71.952 210.26 71.936C210.18 71.92 210.08 71.912 209.96 71.912C209.712 71.912 209.452 72.012 209.18 72.212C208.916 72.412 208.684 72.76 208.484 73.256V77H207.5ZM213.192 77.144C212.704 77.144 212.296 77 211.968 76.712C211.648 76.424 211.488 76.016 211.488 75.488C211.488 74.848 211.772 74.36 212.34 74.024C212.908 73.68 213.816 73.44 215.064 73.304C215.064 73.12 215.044 72.94 215.004 72.764C214.972 72.588 214.912 72.432 214.824 72.296C214.736 72.16 214.612 72.052 214.452 71.972C214.3 71.884 214.104 71.84 213.864 71.84C213.528 71.84 213.212 71.904 212.916 72.032C212.62 72.16 212.356 72.304 212.124 72.464L211.74 71.78C212.012 71.604 212.344 71.436 212.736 71.276C213.128 71.108 213.56 71.024 214.032 71.024C214.744 71.024 215.26 71.244 215.58 71.684C215.9 72.116 216.06 72.696 216.06 73.424V77H215.244L215.16 76.304H215.124C214.844 76.536 214.544 76.736 214.224 76.904C213.904 77.064 213.56 77.144 213.192 77.144ZM213.48 76.352C213.76 76.352 214.024 76.288 214.272 76.16C214.52 76.024 214.784 75.828 215.064 75.572V73.952C214.576 74.016 214.164 74.092 213.828 74.18C213.5 74.268 213.232 74.372 213.024 74.492C212.824 74.612 212.676 74.752 212.58 74.912C212.492 75.064 212.448 75.232 212.448 75.416C212.448 75.752 212.548 75.992 212.748 76.136C212.948 76.28 213.192 76.352 213.48 76.352ZM220.046 77.144C219.734 77.144 219.47 77.096 219.254 77C219.046 76.904 218.874 76.772 218.738 76.604C218.61 76.436 218.518 76.232 218.462 75.992C218.406 75.752 218.378 75.488 218.378 75.2V71.972H217.514V71.228L218.426 71.168L218.546 69.536H219.374V71.168H220.946V71.972H219.374V75.212C219.374 75.572 219.438 75.852 219.566 76.052C219.702 76.244 219.938 76.34 220.274 76.34C220.378 76.34 220.49 76.324 220.61 76.292C220.73 76.26 220.838 76.224 220.934 76.184L221.126 76.928C220.966 76.984 220.79 77.032 220.598 77.072C220.414 77.12 220.23 77.144 220.046 77.144ZM222.745 77V71.168H223.729V77H222.745ZM223.249 69.968C223.057 69.968 222.893 69.908 222.757 69.788C222.629 69.668 222.565 69.516 222.565 69.332C222.565 69.14 222.629 68.988 222.757 68.876C222.893 68.756 223.057 68.696 223.249 68.696C223.441 68.696 223.601 68.756 223.729 68.876C223.865 68.988 223.933 69.14 223.933 69.332C223.933 69.516 223.865 69.668 223.729 69.788C223.601 69.908 223.441 69.968 223.249 69.968ZM226.178 77V71.168H226.994L227.078 72.008H227.114C227.394 71.728 227.686 71.496 227.99 71.312C228.302 71.12 228.662 71.024 229.07 71.024C229.686 71.024 230.134 71.216 230.414 71.6C230.702 71.984 230.846 72.552 230.846 73.304V77H229.862V73.436C229.862 72.884 229.774 72.488 229.598 72.248C229.422 72 229.142 71.876 228.758 71.876C228.454 71.876 228.186 71.952 227.954 72.104C227.722 72.256 227.458 72.48 227.162 72.776V77H226.178ZM235.189 79.688C234.829 79.688 234.501 79.652 234.205 79.58C233.909 79.516 233.653 79.416 233.437 79.28C233.229 79.144 233.065 78.98 232.945 78.788C232.833 78.596 232.777 78.372 232.777 78.116C232.777 77.868 232.853 77.632 233.005 77.408C233.157 77.184 233.365 76.98 233.629 76.796V76.748C233.485 76.66 233.361 76.54 233.257 76.388C233.161 76.228 233.113 76.032 233.113 75.8C233.113 75.552 233.181 75.336 233.317 75.152C233.453 74.968 233.597 74.824 233.749 74.72V74.672C233.557 74.512 233.381 74.3 233.221 74.036C233.069 73.764 232.993 73.452 232.993 73.1C232.993 72.78 233.049 72.492 233.161 72.236C233.281 71.98 233.441 71.764 233.641 71.588C233.841 71.404 234.073 71.264 234.337 71.168C234.609 71.072 234.893 71.024 235.189 71.024C235.349 71.024 235.497 71.04 235.633 71.072C235.777 71.096 235.905 71.128 236.017 71.168H238.045V71.924H236.845C236.981 72.06 237.093 72.232 237.181 72.44C237.277 72.648 237.325 72.876 237.325 73.124C237.325 73.436 237.269 73.72 237.157 73.976C237.045 74.224 236.893 74.436 236.701 74.612C236.509 74.78 236.281 74.912 236.017 75.008C235.761 75.104 235.485 75.152 235.189 75.152C235.045 75.152 234.897 75.136 234.745 75.104C234.593 75.064 234.449 75.012 234.313 74.948C234.209 75.036 234.121 75.136 234.049 75.248C233.977 75.352 233.941 75.484 233.941 75.644C233.941 75.828 234.013 75.98 234.157 76.1C234.301 76.22 234.573 76.28 234.973 76.28H236.101C236.781 76.28 237.289 76.392 237.625 76.616C237.969 76.832 238.141 77.184 238.141 77.672C238.141 77.944 238.073 78.2 237.937 78.44C237.801 78.688 237.605 78.904 237.349 79.088C237.093 79.272 236.781 79.416 236.413 79.52C236.053 79.632 235.645 79.688 235.189 79.688ZM235.189 74.492C235.357 74.492 235.513 74.46 235.657 74.396C235.809 74.332 235.941 74.24 236.053 74.12C236.173 74 236.265 73.856 236.329 73.688C236.393 73.512 236.425 73.316 236.425 73.1C236.425 72.668 236.305 72.336 236.065 72.104C235.825 71.864 235.533 71.744 235.189 71.744C234.845 71.744 234.553 71.864 234.313 72.104C234.073 72.336 233.953 72.668 233.953 73.1C233.953 73.316 233.985 73.512 234.049 73.688C234.113 73.856 234.201 74 234.313 74.12C234.433 74.24 234.565 74.332 234.709 74.396C234.861 74.46 235.021 74.492 235.189 74.492ZM235.333 79.004C235.613 79.004 235.865 78.968 236.089 78.896C236.321 78.832 236.517 78.744 236.677 78.632C236.837 78.528 236.961 78.404 237.049 78.26C237.137 78.116 237.181 77.968 237.181 77.816C237.181 77.544 237.081 77.356 236.881 77.252C236.681 77.148 236.389 77.096 236.005 77.096H234.997C234.885 77.096 234.761 77.088 234.625 77.072C234.497 77.064 234.369 77.04 234.241 77C234.033 77.152 233.881 77.312 233.785 77.48C233.689 77.648 233.641 77.816 233.641 77.984C233.641 78.296 233.789 78.544 234.085 78.728C234.389 78.912 234.805 79.004 235.333 79.004ZM241.272 77.144C240.856 77.144 240.46 77.068 240.084 76.916C239.708 76.764 239.38 76.572 239.1 76.34L239.592 75.68C239.848 75.888 240.108 76.056 240.372 76.184C240.644 76.312 240.956 76.376 241.308 76.376C241.692 76.376 241.98 76.288 242.172 76.112C242.364 75.936 242.46 75.72 242.46 75.464C242.46 75.312 242.42 75.18 242.34 75.068C242.26 74.956 242.156 74.86 242.028 74.78C241.908 74.692 241.768 74.616 241.608 74.552C241.448 74.488 241.288 74.424 241.128 74.36C240.92 74.288 240.712 74.208 240.504 74.12C240.296 74.024 240.108 73.912 239.94 73.784C239.78 73.648 239.648 73.492 239.544 73.316C239.44 73.14 239.388 72.928 239.388 72.68C239.388 72.448 239.432 72.232 239.52 72.032C239.616 71.824 239.748 71.648 239.916 71.504C240.092 71.352 240.304 71.236 240.552 71.156C240.8 71.068 241.08 71.024 241.392 71.024C241.76 71.024 242.096 71.088 242.4 71.216C242.712 71.344 242.98 71.5 243.204 71.684L242.736 72.308C242.536 72.156 242.328 72.032 242.112 71.936C241.896 71.84 241.66 71.792 241.404 71.792C241.036 71.792 240.764 71.876 240.588 72.044C240.42 72.212 240.336 72.408 240.336 72.632C240.336 72.768 240.372 72.888 240.444 72.992C240.516 73.088 240.612 73.176 240.732 73.256C240.852 73.328 240.988 73.396 241.14 73.46C241.3 73.516 241.464 73.576 241.632 73.64C241.84 73.72 242.048 73.804 242.256 73.892C242.472 73.98 242.664 74.092 242.832 74.228C243 74.356 243.136 74.516 243.24 74.708C243.352 74.9 243.408 75.132 243.408 75.404C243.408 75.644 243.36 75.868 243.264 76.076C243.176 76.284 243.04 76.468 242.856 76.628C242.68 76.788 242.456 76.912 242.184 77C241.92 77.096 241.616 77.144 241.272 77.144Z" fill="#00141F"/>
<path d="M293.43 48L291.345 38.16H292.635L293.67 43.515C293.76 44.055 293.855 44.585 293.955 45.105C294.055 45.625 294.15 46.155 294.24 46.695H294.3C294.41 46.155 294.525 45.625 294.645 45.105C294.765 44.575 294.88 44.045 294.99 43.515L296.355 38.16H297.495L298.86 43.515C298.98 44.035 299.1 44.56 299.22 45.09C299.34 45.62 299.46 46.155 299.58 46.695H299.64C299.73 46.155 299.82 45.625 299.91 45.105C300 44.575 300.095 44.045 300.195 43.515L301.23 38.16H302.43L300.39 48H298.89L297.405 42.075C297.315 41.695 297.23 41.325 297.15 40.965C297.08 40.595 297.005 40.22 296.925 39.84H296.865C296.785 40.22 296.7 40.595 296.61 40.965C296.53 41.325 296.45 41.695 296.37 42.075L294.915 48H293.43ZM304.022 48V40.71H305.042L305.147 42.03H305.192C305.442 41.57 305.742 41.205 306.092 40.935C306.452 40.665 306.842 40.53 307.262 40.53C307.552 40.53 307.812 40.58 308.042 40.68L307.802 41.76C307.682 41.72 307.572 41.69 307.472 41.67C307.372 41.65 307.247 41.64 307.097 41.64C306.787 41.64 306.462 41.765 306.122 42.015C305.792 42.265 305.502 42.7 305.252 43.32V48H304.022ZM309.222 48V40.71H310.452V48H309.222ZM309.852 39.21C309.612 39.21 309.407 39.135 309.237 38.985C309.077 38.835 308.997 38.645 308.997 38.415C308.997 38.175 309.077 37.985 309.237 37.845C309.407 37.695 309.612 37.62 309.852 37.62C310.092 37.62 310.292 37.695 310.452 37.845C310.622 37.985 310.707 38.175 310.707 38.415C310.707 38.645 310.622 38.835 310.452 38.985C310.292 39.135 310.092 39.21 309.852 39.21ZM315.209 48.18C314.819 48.18 314.489 48.12 314.219 48C313.959 47.88 313.744 47.715 313.574 47.505C313.414 47.295 313.299 47.04 313.229 46.74C313.159 46.44 313.124 46.11 313.124 45.75V41.715H312.044V40.785L313.184 40.71L313.334 38.67H314.369V40.71H316.334V41.715H314.369V45.765C314.369 46.215 314.449 46.565 314.609 46.815C314.779 47.055 315.074 47.175 315.494 47.175C315.624 47.175 315.764 47.155 315.914 47.115C316.064 47.075 316.199 47.03 316.319 46.98L316.559 47.91C316.359 47.98 316.139 48.04 315.899 48.09C315.669 48.15 315.439 48.18 315.209 48.18ZM320.732 48.18C320.242 48.18 319.782 48.095 319.352 47.925C318.932 47.745 318.562 47.495 318.242 47.175C317.932 46.845 317.687 46.445 317.507 45.975C317.327 45.505 317.237 44.97 317.237 44.37C317.237 43.77 317.327 43.235 317.507 42.765C317.697 42.285 317.942 41.88 318.242 41.55C318.552 41.22 318.902 40.97 319.292 40.8C319.682 40.62 320.087 40.53 320.507 40.53C320.967 40.53 321.377 40.61 321.737 40.77C322.107 40.93 322.412 41.16 322.652 41.46C322.902 41.76 323.092 42.12 323.222 42.54C323.352 42.96 323.417 43.43 323.417 43.95C323.417 44.08 323.412 44.21 323.402 44.34C323.402 44.46 323.392 44.565 323.372 44.655H318.452C318.502 45.435 318.742 46.055 319.172 46.515C319.612 46.965 320.182 47.19 320.882 47.19C321.232 47.19 321.552 47.14 321.842 47.04C322.142 46.93 322.427 46.79 322.697 46.62L323.132 47.43C322.812 47.63 322.457 47.805 322.067 47.955C321.677 48.105 321.232 48.18 320.732 48.18ZM318.437 43.77H322.337C322.337 43.03 322.177 42.47 321.857 42.09C321.547 41.7 321.107 41.505 320.537 41.505C320.277 41.505 320.027 41.555 319.787 41.655C319.557 41.755 319.347 41.905 319.157 42.105C318.967 42.295 318.807 42.53 318.677 42.81C318.557 43.09 318.477 43.41 318.437 43.77ZM329.901 48.18C329.291 48.18 328.781 48 328.371 47.64C327.971 47.28 327.771 46.77 327.771 46.11C327.771 45.31 328.126 44.7 328.836 44.28C329.546 43.85 330.681 43.55 332.241 43.38C332.241 43.15 332.216 42.925 332.166 42.705C332.126 42.485 332.051 42.29 331.941 42.12C331.831 41.95 331.676 41.815 331.476 41.715C331.286 41.605 331.041 41.55 330.741 41.55C330.321 41.55 329.926 41.63 329.556 41.79C329.186 41.95 328.856 42.13 328.566 42.33L328.086 41.475C328.426 41.255 328.841 41.045 329.331 40.845C329.821 40.635 330.361 40.53 330.951 40.53C331.841 40.53 332.486 40.805 332.886 41.355C333.286 41.895 333.486 42.62 333.486 43.53V48H332.466L332.361 47.13H332.316C331.966 47.42 331.591 47.67 331.191 47.88C330.791 48.08 330.361 48.18 329.901 48.18ZM330.261 47.19C330.611 47.19 330.941 47.11 331.251 46.95C331.561 46.78 331.891 46.535 332.241 46.215V44.19C331.631 44.27 331.116 44.365 330.696 44.475C330.286 44.585 329.951 44.715 329.691 44.865C329.441 45.015 329.256 45.19 329.136 45.39C329.026 45.58 328.971 45.79 328.971 46.02C328.971 46.44 329.096 46.74 329.346 46.92C329.596 47.1 329.901 47.19 330.261 47.19ZM338.783 48V40.71H339.803L339.908 42.03H339.953C340.203 41.57 340.503 41.205 340.853 40.935C341.213 40.665 341.603 40.53 342.023 40.53C342.313 40.53 342.573 40.58 342.803 40.68L342.563 41.76C342.443 41.72 342.333 41.69 342.233 41.67C342.133 41.65 342.008 41.64 341.858 41.64C341.548 41.64 341.223 41.765 340.883 42.015C340.553 42.265 340.263 42.7 340.013 43.32V48H338.783ZM346.791 48.18C346.301 48.18 345.841 48.095 345.411 47.925C344.991 47.745 344.621 47.495 344.301 47.175C343.991 46.845 343.746 46.445 343.566 45.975C343.386 45.505 343.296 44.97 343.296 44.37C343.296 43.77 343.386 43.235 343.566 42.765C343.756 42.285 344.001 41.88 344.301 41.55C344.611 41.22 344.961 40.97 345.351 40.8C345.741 40.62 346.146 40.53 346.566 40.53C347.026 40.53 347.436 40.61 347.796 40.77C348.166 40.93 348.471 41.16 348.711 41.46C348.961 41.76 349.151 42.12 349.281 42.54C349.411 42.96 349.476 43.43 349.476 43.95C349.476 44.08 349.471 44.21 349.461 44.34C349.461 44.46 349.451 44.565 349.431 44.655H344.511C344.561 45.435 344.801 46.055 345.231 46.515C345.671 46.965 346.241 47.19 346.941 47.19C347.291 47.19 347.611 47.14 347.901 47.04C348.201 46.93 348.486 46.79 348.756 46.62L349.191 47.43C348.871 47.63 348.516 47.805 348.126 47.955C347.736 48.105 347.291 48.18 346.791 48.18ZM344.496 43.77H348.396C348.396 43.03 348.236 42.47 347.916 42.09C347.606 41.7 347.166 41.505 346.596 41.505C346.336 41.505 346.086 41.555 345.846 41.655C345.616 41.755 345.406 41.905 345.216 42.105C345.026 42.295 344.866 42.53 344.736 42.81C344.616 43.09 344.536 43.41 344.496 43.77ZM352.926 48L350.301 40.71H351.576L352.956 44.85C353.066 45.21 353.176 45.57 353.286 45.93C353.406 46.29 353.521 46.645 353.631 46.995H353.691C353.801 46.645 353.911 46.29 354.021 45.93C354.131 45.57 354.241 45.21 354.351 44.85L355.731 40.71H356.946L354.366 48H352.926ZM358.353 48V40.71H359.583V48H358.353ZM358.983 39.21C358.743 39.21 358.538 39.135 358.368 38.985C358.208 38.835 358.128 38.645 358.128 38.415C358.128 38.175 358.208 37.985 358.368 37.845C358.538 37.695 358.743 37.62 358.983 37.62C359.223 37.62 359.423 37.695 359.583 37.845C359.753 37.985 359.838 38.175 359.838 38.415C359.838 38.645 359.753 38.835 359.583 38.985C359.423 39.135 359.223 39.21 358.983 39.21ZM364.999 48.18C364.509 48.18 364.049 48.095 363.619 47.925C363.199 47.745 362.829 47.495 362.509 47.175C362.199 46.845 361.954 46.445 361.774 45.975C361.594 45.505 361.504 44.97 361.504 44.37C361.504 43.77 361.594 43.235 361.774 42.765C361.964 42.285 362.209 41.88 362.509 41.55C362.819 41.22 363.169 40.97 363.559 40.8C363.949 40.62 364.354 40.53 364.774 40.53C365.234 40.53 365.644 40.61 366.004 40.77C366.374 40.93 366.679 41.16 366.919 41.46C367.169 41.76 367.359 42.12 367.489 42.54C367.619 42.96 367.684 43.43 367.684 43.95C367.684 44.08 367.679 44.21 367.669 44.34C367.669 44.46 367.659 44.565 367.639 44.655H362.719C362.769 45.435 363.009 46.055 363.439 46.515C363.879 46.965 364.449 47.19 365.149 47.19C365.499 47.19 365.819 47.14 366.109 47.04C366.409 46.93 366.694 46.79 366.964 46.62L367.399 47.43C367.079 47.63 366.724 47.805 366.334 47.955C365.944 48.105 365.499 48.18 364.999 48.18ZM362.704 43.77H366.604C366.604 43.03 366.444 42.47 366.124 42.09C365.814 41.7 365.374 41.505 364.804 41.505C364.544 41.505 364.294 41.555 364.054 41.655C363.824 41.755 363.614 41.905 363.424 42.105C363.234 42.295 363.074 42.53 362.944 42.81C362.824 43.09 362.744 43.41 362.704 43.77ZM370.714 48L368.689 40.71H369.949L371.029 44.925C371.109 45.275 371.184 45.615 371.254 45.945C371.324 46.275 371.394 46.61 371.464 46.95H371.524C371.604 46.61 371.684 46.275 371.764 45.945C371.844 45.605 371.929 45.265 372.019 44.925L373.144 40.71H374.344L375.484 44.925C375.574 45.275 375.659 45.615 375.739 45.945C375.829 46.275 375.914 46.61 375.994 46.95H376.054C376.134 46.61 376.209 46.275 376.279 45.945C376.349 45.615 376.424 45.275 376.504 44.925L377.569 40.71H378.739L376.789 48H375.289L374.239 44.085C374.149 43.735 374.064 43.39 373.984 43.05C373.914 42.71 373.834 42.355 373.744 41.985H373.684C373.604 42.355 373.524 42.715 373.444 43.065C373.364 43.405 373.274 43.75 373.174 44.1L372.154 48H370.714ZM385.009 48.18C384.399 48.18 383.889 48 383.479 47.64C383.079 47.28 382.879 46.77 382.879 46.11C382.879 45.31 383.234 44.7 383.944 44.28C384.654 43.85 385.789 43.55 387.349 43.38C387.349 43.15 387.324 42.925 387.274 42.705C387.234 42.485 387.159 42.29 387.049 42.12C386.939 41.95 386.784 41.815 386.584 41.715C386.394 41.605 386.149 41.55 385.849 41.55C385.429 41.55 385.034 41.63 384.664 41.79C384.294 41.95 383.964 42.13 383.674 42.33L383.194 41.475C383.534 41.255 383.949 41.045 384.439 40.845C384.929 40.635 385.469 40.53 386.059 40.53C386.949 40.53 387.594 40.805 387.994 41.355C388.394 41.895 388.594 42.62 388.594 43.53V48H387.574L387.469 47.13H387.424C387.074 47.42 386.699 47.67 386.299 47.88C385.899 48.08 385.469 48.18 385.009 48.18ZM385.369 47.19C385.719 47.19 386.049 47.11 386.359 46.95C386.669 46.78 386.999 46.535 387.349 46.215V44.19C386.739 44.27 386.224 44.365 385.804 44.475C385.394 44.585 385.059 44.715 384.799 44.865C384.549 45.015 384.364 45.19 384.244 45.39C384.134 45.58 384.079 45.79 384.079 46.02C384.079 46.44 384.204 46.74 384.454 46.92C384.704 47.1 385.009 47.19 385.369 47.19ZM390.887 48V40.71H391.907L392.012 41.76H392.057C392.407 41.41 392.772 41.12 393.152 40.89C393.542 40.65 393.992 40.53 394.502 40.53C395.272 40.53 395.832 40.77 396.182 41.25C396.542 41.73 396.722 42.44 396.722 43.38V48H395.492V43.545C395.492 42.855 395.382 42.36 395.162 42.06C394.942 41.75 394.592 41.595 394.112 41.595C393.732 41.595 393.397 41.69 393.107 41.88C392.817 42.07 392.487 42.35 392.117 42.72V48H390.887ZM403.248 48L401.223 40.71H402.483L403.563 44.925C403.643 45.275 403.718 45.615 403.788 45.945C403.858 46.275 403.928 46.61 403.998 46.95H404.058C404.138 46.61 404.218 46.275 404.298 45.945C404.378 45.605 404.463 45.265 404.553 44.925L405.678 40.71H406.878L408.018 44.925C408.108 45.275 408.193 45.615 408.273 45.945C408.363 46.275 408.448 46.61 408.528 46.95H408.588C408.668 46.61 408.743 46.275 408.813 45.945C408.883 45.615 408.958 45.275 409.038 44.925L410.103 40.71H411.273L409.323 48H407.823L406.773 44.085C406.683 43.735 406.598 43.39 406.518 43.05C406.448 42.71 406.368 42.355 406.278 41.985H406.218C406.138 42.355 406.058 42.715 405.978 43.065C405.898 43.405 405.808 43.75 405.708 44.1L404.688 48H403.248ZM412.86 48V40.71H414.09V48H412.86ZM413.49 39.21C413.25 39.21 413.045 39.135 412.875 38.985C412.715 38.835 412.635 38.645 412.635 38.415C412.635 38.175 412.715 37.985 412.875 37.845C413.045 37.695 413.25 37.62 413.49 37.62C413.73 37.62 413.93 37.695 414.09 37.845C414.26 37.985 414.345 38.175 414.345 38.415C414.345 38.645 414.26 38.835 414.09 38.985C413.93 39.135 413.73 39.21 413.49 39.21ZM416.551 48V40.71H417.571L417.676 41.76H417.721C418.071 41.41 418.436 41.12 418.816 40.89C419.206 40.65 419.656 40.53 420.166 40.53C420.936 40.53 421.496 40.77 421.846 41.25C422.206 41.73 422.386 42.44 422.386 43.38V48H421.156V43.545C421.156 42.855 421.046 42.36 420.826 42.06C420.606 41.75 420.256 41.595 419.776 41.595C419.396 41.595 419.061 41.69 418.771 41.88C418.481 42.07 418.151 42.35 417.781 42.72V48H416.551ZM427.712 48V46.98H429.902V39.93H428.162V39.135C428.602 39.055 428.982 38.96 429.302 38.85C429.632 38.73 429.927 38.59 430.187 38.43H431.132V46.98H433.112V48H427.712ZM437.718 48.18C436.748 48.18 435.993 47.75 435.453 46.89C434.913 46.03 434.643 44.795 434.643 43.185C434.643 41.575 434.913 40.35 435.453 39.51C435.993 38.67 436.748 38.25 437.718 38.25C438.678 38.25 439.428 38.67 439.968 39.51C440.508 40.35 440.778 41.575 440.778 43.185C440.778 44.795 440.508 46.03 439.968 46.89C439.428 47.75 438.678 48.18 437.718 48.18ZM437.718 47.19C437.998 47.19 438.248 47.115 438.468 46.965C438.698 46.805 438.893 46.565 439.053 46.245C439.223 45.915 439.353 45.5 439.443 45C439.533 44.49 439.578 43.885 439.578 43.185C439.578 42.485 439.533 41.885 439.443 41.385C439.353 40.885 439.223 40.48 439.053 40.17C438.893 39.85 438.698 39.615 438.468 39.465C438.248 39.315 437.998 39.24 437.718 39.24C437.438 39.24 437.183 39.315 436.953 39.465C436.723 39.615 436.523 39.85 436.353 40.17C436.193 40.48 436.068 40.885 435.978 41.385C435.888 41.885 435.843 42.485 435.843 43.185C435.843 44.585 436.013 45.605 436.353 46.245C436.703 46.875 437.158 47.19 437.718 47.19ZM445.174 48.18C444.204 48.18 443.449 47.75 442.909 46.89C442.369 46.03 442.099 44.795 442.099 43.185C442.099 41.575 442.369 40.35 442.909 39.51C443.449 38.67 444.204 38.25 445.174 38.25C446.134 38.25 446.884 38.67 447.424 39.51C447.964 40.35 448.234 41.575 448.234 43.185C448.234 44.795 447.964 46.03 447.424 46.89C446.884 47.75 446.134 48.18 445.174 48.18ZM445.174 47.19C445.454 47.19 445.704 47.115 445.924 46.965C446.154 46.805 446.349 46.565 446.509 46.245C446.679 45.915 446.809 45.5 446.899 45C446.989 44.49 447.034 43.885 447.034 43.185C447.034 42.485 446.989 41.885 446.899 41.385C446.809 40.885 446.679 40.48 446.509 40.17C446.349 39.85 446.154 39.615 445.924 39.465C445.704 39.315 445.454 39.24 445.174 39.24C444.894 39.24 444.639 39.315 444.409 39.465C444.179 39.615 443.979 39.85 443.809 40.17C443.649 40.48 443.524 40.885 443.434 41.385C443.344 41.885 443.299 42.485 443.299 43.185C443.299 44.585 443.469 45.605 443.809 46.245C444.159 46.875 444.614 47.19 445.174 47.19ZM453.128 48V40.71H454.148L454.253 42.03H454.298C454.548 41.57 454.848 41.205 455.198 40.935C455.558 40.665 455.948 40.53 456.368 40.53C456.658 40.53 456.918 40.58 457.148 40.68L456.908 41.76C456.788 41.72 456.678 41.69 456.578 41.67C456.478 41.65 456.353 41.64 456.203 41.64C455.893 41.64 455.568 41.765 455.228 42.015C454.898 42.265 454.608 42.7 454.358 43.32V48H453.128ZM461.137 48.18C460.647 48.18 460.187 48.095 459.757 47.925C459.337 47.745 458.967 47.495 458.647 47.175C458.337 46.845 458.092 46.445 457.912 45.975C457.732 45.505 457.642 44.97 457.642 44.37C457.642 43.77 457.732 43.235 457.912 42.765C458.102 42.285 458.347 41.88 458.647 41.55C458.957 41.22 459.307 40.97 459.697 40.8C460.087 40.62 460.492 40.53 460.912 40.53C461.372 40.53 461.782 40.61 462.142 40.77C462.512 40.93 462.817 41.16 463.057 41.46C463.307 41.76 463.497 42.12 463.627 42.54C463.757 42.96 463.822 43.43 463.822 43.95C463.822 44.08 463.817 44.21 463.807 44.34C463.807 44.46 463.797 44.565 463.777 44.655H458.857C458.907 45.435 459.147 46.055 459.577 46.515C460.017 46.965 460.587 47.19 461.287 47.19C461.637 47.19 461.957 47.14 462.247 47.04C462.547 46.93 462.832 46.79 463.102 46.62L463.537 47.43C463.217 47.63 462.862 47.805 462.472 47.955C462.082 48.105 461.637 48.18 461.137 48.18ZM458.842 43.77H462.742C462.742 43.03 462.582 42.47 462.262 42.09C461.952 41.7 461.512 41.505 460.942 41.505C460.682 41.505 460.432 41.555 460.192 41.655C459.962 41.755 459.752 41.905 459.562 42.105C459.372 42.295 459.212 42.53 459.082 42.81C458.962 43.09 458.882 43.41 458.842 43.77ZM466.852 48L464.827 40.71H466.087L467.167 44.925C467.247 45.275 467.322 45.615 467.392 45.945C467.462 46.275 467.532 46.61 467.602 46.95H467.662C467.742 46.61 467.822 46.275 467.902 45.945C467.982 45.605 468.067 45.265 468.157 44.925L469.282 40.71H470.482L471.622 44.925C471.712 45.275 471.797 45.615 471.877 45.945C471.967 46.275 472.052 46.61 472.132 46.95H472.192C472.272 46.61 472.347 46.275 472.417 45.945C472.487 45.615 472.562 45.275 472.642 44.925L473.707 40.71H474.877L472.927 48H471.427L470.377 44.085C470.287 43.735 470.202 43.39 470.122 43.05C470.052 42.71 469.972 42.355 469.882 41.985H469.822C469.742 42.355 469.662 42.715 469.582 43.065C469.502 43.405 469.412 43.75 469.312 44.1L468.292 48H466.852ZM477.997 48.18C477.387 48.18 476.877 48 476.467 47.64C476.067 47.28 475.867 46.77 475.867 46.11C475.867 45.31 476.222 44.7 476.932 44.28C477.642 43.85 478.777 43.55 480.337 43.38C480.337 43.15 480.312 42.925 480.262 42.705C480.222 42.485 480.147 42.29 480.037 42.12C479.927 41.95 479.772 41.815 479.572 41.715C479.382 41.605 479.137 41.55 478.837 41.55C478.417 41.55 478.022 41.63 477.652 41.79C477.282 41.95 476.952 42.13 476.662 42.33L476.182 41.475C476.522 41.255 476.937 41.045 477.427 40.845C477.917 40.635 478.457 40.53 479.047 40.53C479.937 40.53 480.582 40.805 480.982 41.355C481.382 41.895 481.582 42.62 481.582 43.53V48H480.562L480.457 47.13H480.412C480.062 47.42 479.687 47.67 479.287 47.88C478.887 48.08 478.457 48.18 477.997 48.18ZM478.357 47.19C478.707 47.19 479.037 47.11 479.347 46.95C479.657 46.78 479.987 46.535 480.337 46.215V44.19C479.727 44.27 479.212 44.365 478.792 44.475C478.382 44.585 478.047 44.715 477.787 44.865C477.537 45.015 477.352 45.19 477.232 45.39C477.122 45.58 477.067 45.79 477.067 46.02C477.067 46.44 477.192 46.74 477.442 46.92C477.692 47.1 477.997 47.19 478.357 47.19ZM483.876 48V40.71H484.896L485.001 42.03H485.046C485.296 41.57 485.596 41.205 485.946 40.935C486.306 40.665 486.696 40.53 487.116 40.53C487.406 40.53 487.666 40.58 487.896 40.68L487.656 41.76C487.536 41.72 487.426 41.69 487.326 41.67C487.226 41.65 487.101 41.64 486.951 41.64C486.641 41.64 486.316 41.765 485.976 42.015C485.646 42.265 485.356 42.7 485.106 43.32V48H483.876ZM491.419 48.18C490.499 48.18 489.764 47.85 489.214 47.19C488.674 46.53 488.404 45.59 488.404 44.37C488.404 43.78 488.489 43.25 488.659 42.78C488.839 42.3 489.074 41.895 489.364 41.565C489.654 41.235 489.989 40.98 490.369 40.8C490.749 40.62 491.149 40.53 491.569 40.53C491.989 40.53 492.354 40.605 492.664 40.755C492.974 40.905 493.289 41.11 493.609 41.37L493.549 40.125V37.32H494.794V48H493.774L493.669 47.145H493.624C493.334 47.425 492.999 47.67 492.619 47.88C492.249 48.08 491.849 48.18 491.419 48.18ZM491.689 47.145C492.029 47.145 492.349 47.065 492.649 46.905C492.949 46.735 493.249 46.48 493.549 46.14V42.33C493.239 42.05 492.939 41.855 492.649 41.745C492.369 41.625 492.079 41.565 491.779 41.565C491.489 41.565 491.214 41.635 490.954 41.775C490.704 41.905 490.484 42.095 490.294 42.345C490.104 42.585 489.954 42.875 489.844 43.215C489.734 43.555 489.679 43.935 489.679 44.355C489.679 45.235 489.854 45.92 490.204 46.41C490.554 46.9 491.049 47.145 491.689 47.145ZM500.252 51.075V40.71H501.272L501.377 41.55H501.422C501.752 41.27 502.112 41.03 502.502 40.83C502.902 40.63 503.317 40.53 503.747 40.53C504.217 40.53 504.632 40.62 504.992 40.8C505.352 40.97 505.652 41.22 505.892 41.55C506.132 41.87 506.312 42.26 506.432 42.72C506.562 43.17 506.627 43.68 506.627 44.25C506.627 44.87 506.542 45.425 506.372 45.915C506.202 46.395 505.972 46.805 505.682 47.145C505.392 47.485 505.057 47.745 504.677 47.925C504.297 48.095 503.897 48.18 503.477 48.18C503.137 48.18 502.797 48.105 502.457 47.955C502.127 47.805 501.792 47.6 501.452 47.34L501.482 48.615V51.075H500.252ZM503.267 47.145C503.567 47.145 503.842 47.08 504.092 46.95C504.352 46.81 504.572 46.62 504.752 46.38C504.942 46.13 505.087 45.825 505.187 45.465C505.297 45.105 505.352 44.7 505.352 44.25C505.352 43.85 505.317 43.485 505.247 43.155C505.177 42.825 505.062 42.545 504.902 42.315C504.752 42.075 504.552 41.89 504.302 41.76C504.062 41.63 503.772 41.565 503.432 41.565C503.122 41.565 502.807 41.65 502.487 41.82C502.177 41.99 501.842 42.235 501.482 42.555V46.38C501.812 46.66 502.132 46.86 502.442 46.98C502.752 47.09 503.027 47.145 503.267 47.145ZM511.408 48.18C510.958 48.18 510.528 48.095 510.118 47.925C509.718 47.755 509.363 47.51 509.053 47.19C508.743 46.86 508.493 46.46 508.303 45.99C508.123 45.51 508.033 44.97 508.033 44.37C508.033 43.76 508.123 43.22 508.303 42.75C508.493 42.27 508.743 41.865 509.053 41.535C509.363 41.205 509.718 40.955 510.118 40.785C510.528 40.615 510.958 40.53 511.408 40.53C511.858 40.53 512.283 40.615 512.683 40.785C513.093 40.955 513.453 41.205 513.763 41.535C514.073 41.865 514.318 42.27 514.498 42.75C514.688 43.22 514.783 43.76 514.783 44.37C514.783 44.97 514.688 45.51 514.498 45.99C514.318 46.46 514.073 46.86 513.763 47.19C513.453 47.51 513.093 47.755 512.683 47.925C512.283 48.095 511.858 48.18 511.408 48.18ZM511.408 47.16C511.718 47.16 512.003 47.095 512.263 46.965C512.523 46.825 512.743 46.635 512.923 46.395C513.113 46.145 513.258 45.85 513.358 45.51C513.458 45.17 513.508 44.79 513.508 44.37C513.508 43.95 513.458 43.57 513.358 43.23C513.258 42.88 513.113 42.58 512.923 42.33C512.743 42.08 512.523 41.89 512.263 41.76C512.003 41.62 511.718 41.55 511.408 41.55C511.098 41.55 510.813 41.62 510.553 41.76C510.293 41.89 510.068 42.08 509.878 42.33C509.698 42.58 509.558 42.88 509.458 43.23C509.358 43.57 509.308 43.95 509.308 44.37C509.308 44.79 509.358 45.17 509.458 45.51C509.558 45.85 509.698 46.145 509.878 46.395C510.068 46.635 510.293 46.825 510.553 46.965C510.813 47.095 511.098 47.16 511.408 47.16ZM516.703 48V40.71H517.933V48H516.703ZM517.333 39.21C517.093 39.21 516.888 39.135 516.718 38.985C516.558 38.835 516.478 38.645 516.478 38.415C516.478 38.175 516.558 37.985 516.718 37.845C516.888 37.695 517.093 37.62 517.333 37.62C517.573 37.62 517.773 37.695 517.933 37.845C518.103 37.985 518.188 38.175 518.188 38.415C518.188 38.645 518.103 38.835 517.933 38.985C517.773 39.135 517.573 39.21 517.333 39.21ZM520.394 48V40.71H521.414L521.519 41.76H521.564C521.914 41.41 522.279 41.12 522.659 40.89C523.049 40.65 523.499 40.53 524.009 40.53C524.779 40.53 525.339 40.77 525.689 41.25C526.049 41.73 526.229 42.44 526.229 43.38V48H524.999V43.545C524.999 42.855 524.889 42.36 524.669 42.06C524.449 41.75 524.099 41.595 523.619 41.595C523.239 41.595 522.904 41.69 522.614 41.88C522.324 42.07 521.994 42.35 521.624 42.72V48H520.394ZM530.892 48.18C530.502 48.18 530.172 48.12 529.902 48C529.642 47.88 529.427 47.715 529.257 47.505C529.097 47.295 528.982 47.04 528.912 46.74C528.842 46.44 528.807 46.11 528.807 45.75V41.715H527.727V40.785L528.867 40.71L529.017 38.67H530.052V40.71H532.017V41.715H530.052V45.765C530.052 46.215 530.132 46.565 530.292 46.815C530.462 47.055 530.757 47.175 531.177 47.175C531.307 47.175 531.447 47.155 531.597 47.115C531.747 47.075 531.882 47.03 532.002 46.98L532.242 47.91C532.042 47.98 531.822 48.04 531.582 48.09C531.352 48.15 531.122 48.18 530.892 48.18ZM535.424 48.18C534.904 48.18 534.409 48.085 533.939 47.895C533.469 47.705 533.059 47.465 532.709 47.175L533.324 46.35C533.644 46.61 533.969 46.82 534.299 46.98C534.639 47.14 535.029 47.22 535.469 47.22C535.949 47.22 536.309 47.11 536.549 46.89C536.789 46.67 536.909 46.4 536.909 46.08C536.909 45.89 536.859 45.725 536.759 45.585C536.659 45.445 536.529 45.325 536.369 45.225C536.219 45.115 536.044 45.02 535.844 44.94C535.644 44.86 535.444 44.78 535.244 44.7C534.984 44.61 534.724 44.51 534.464 44.4C534.204 44.28 533.969 44.14 533.759 43.98C533.559 43.81 533.394 43.615 533.264 43.395C533.134 43.175 533.069 42.91 533.069 42.6C533.069 42.31 533.124 42.04 533.234 41.79C533.354 41.53 533.519 41.31 533.729 41.13C533.949 40.94 534.214 40.795 534.524 40.695C534.834 40.585 535.184 40.53 535.574 40.53C536.034 40.53 536.454 40.61 536.834 40.77C537.224 40.93 537.559 41.125 537.839 41.355L537.254 42.135C537.004 41.945 536.744 41.79 536.474 41.67C536.204 41.55 535.909 41.49 535.589 41.49C535.129 41.49 534.789 41.595 534.569 41.805C534.359 42.015 534.254 42.26 534.254 42.54C534.254 42.71 534.299 42.86 534.389 42.99C534.479 43.11 534.599 43.22 534.749 43.32C534.899 43.41 535.069 43.495 535.259 43.575C535.459 43.645 535.664 43.72 535.874 43.8C536.134 43.9 536.394 44.005 536.654 44.115C536.924 44.225 537.164 44.365 537.374 44.535C537.584 44.695 537.754 44.895 537.884 45.135C538.024 45.375 538.094 45.665 538.094 46.005C538.094 46.305 538.034 46.585 537.914 46.845C537.804 47.105 537.634 47.335 537.404 47.535C537.184 47.735 536.904 47.89 536.564 48C536.234 48.12 535.854 48.18 535.424 48.18Z" fill="#00141F"/>
<path d="M310.268 83L308.322 73.816H309.526L310.492 78.814C310.576 79.318 310.665 79.8127 310.758 80.298C310.851 80.7833 310.94 81.278 311.024 81.782H311.08C311.183 81.278 311.29 80.7833 311.402 80.298C311.514 79.8033 311.621 79.3087 311.724 78.814L312.998 73.816H314.062L315.336 78.814C315.448 79.2993 315.56 79.7893 315.672 80.284C315.784 80.7787 315.896 81.278 316.008 81.782H316.064C316.148 81.278 316.232 80.7833 316.316 80.298C316.4 79.8033 316.489 79.3087 316.582 78.814L317.548 73.816H318.668L316.764 83H315.364L313.978 77.47C313.894 77.1153 313.815 76.77 313.74 76.434C313.675 76.0887 313.605 75.7387 313.53 75.384H313.474C313.399 75.7387 313.32 76.0887 313.236 76.434C313.161 76.77 313.087 77.1153 313.012 77.47L311.654 83H310.268ZM320.154 83V76.196H321.106L321.204 77.428H321.246C321.479 76.9987 321.759 76.658 322.086 76.406C322.422 76.154 322.786 76.028 323.178 76.028C323.449 76.028 323.691 76.0747 323.906 76.168L323.682 77.176C323.57 77.1387 323.467 77.1107 323.374 77.092C323.281 77.0733 323.164 77.064 323.024 77.064C322.735 77.064 322.431 77.1807 322.114 77.414C321.806 77.6473 321.535 78.0533 321.302 78.632V83H320.154ZM325.007 83V76.196H326.155V83H325.007ZM325.595 74.796C325.371 74.796 325.18 74.726 325.021 74.586C324.872 74.446 324.797 74.2687 324.797 74.054C324.797 73.83 324.872 73.6527 325.021 73.522C325.18 73.382 325.371 73.312 325.595 73.312C325.819 73.312 326.006 73.382 326.155 73.522C326.314 73.6527 326.393 73.83 326.393 74.054C326.393 74.2687 326.314 74.446 326.155 74.586C326.006 74.726 325.819 74.796 325.595 74.796ZM330.595 83.168C330.231 83.168 329.923 83.112 329.671 83C329.428 82.888 329.227 82.734 329.069 82.538C328.919 82.342 328.812 82.104 328.747 81.824C328.681 81.544 328.649 81.236 328.649 80.9V77.134H327.641V76.266L328.705 76.196L328.845 74.292H329.811V76.196H331.645V77.134H329.811V80.914C329.811 81.334 329.885 81.6607 330.035 81.894C330.193 82.118 330.469 82.23 330.861 82.23C330.982 82.23 331.113 82.2113 331.253 82.174C331.393 82.1367 331.519 82.0947 331.631 82.048L331.855 82.916C331.668 82.9813 331.463 83.0373 331.239 83.084C331.024 83.14 330.809 83.168 330.595 83.168ZM335.75 83.168C335.292 83.168 334.863 83.0887 334.462 82.93C334.07 82.762 333.724 82.5287 333.426 82.23C333.136 81.922 332.908 81.5487 332.74 81.11C332.572 80.6713 332.488 80.172 332.488 79.612C332.488 79.052 332.572 78.5527 332.74 78.114C332.917 77.666 333.146 77.288 333.426 76.98C333.715 76.672 334.042 76.4387 334.406 76.28C334.77 76.112 335.148 76.028 335.54 76.028C335.969 76.028 336.352 76.1027 336.688 76.252C337.033 76.4013 337.318 76.616 337.542 76.896C337.775 77.176 337.952 77.512 338.074 77.904C338.195 78.296 338.256 78.7347 338.256 79.22C338.256 79.3413 338.251 79.4627 338.242 79.584C338.242 79.696 338.232 79.794 338.214 79.878H333.622C333.668 80.606 333.892 81.1847 334.294 81.614C334.704 82.034 335.236 82.244 335.89 82.244C336.216 82.244 336.515 82.1973 336.786 82.104C337.066 82.0013 337.332 81.8707 337.584 81.712L337.99 82.468C337.691 82.6547 337.36 82.818 336.996 82.958C336.632 83.098 336.216 83.168 335.75 83.168ZM333.608 79.052H337.248C337.248 78.3613 337.098 77.8387 336.8 77.484C336.51 77.12 336.1 76.938 335.568 76.938C335.325 76.938 335.092 76.9847 334.868 77.078C334.653 77.1713 334.457 77.3113 334.28 77.498C334.102 77.6753 333.953 77.8947 333.832 78.156C333.72 78.4173 333.645 78.716 333.608 79.052ZM342.852 83V73.816H345.722C346.188 73.816 346.618 73.8627 347.01 73.956C347.411 74.04 347.752 74.1847 348.032 74.39C348.321 74.5953 348.545 74.8613 348.704 75.188C348.862 75.5147 348.942 75.916 348.942 76.392C348.942 77.1107 348.755 77.6847 348.382 78.114C348.008 78.5433 347.504 78.8373 346.87 78.996L349.208 83H347.892L345.68 79.122H344.014V83H342.852ZM344.014 78.17H345.554C346.272 78.17 346.823 78.0253 347.206 77.736C347.588 77.4373 347.78 76.9893 347.78 76.392C347.78 75.7853 347.588 75.3607 347.206 75.118C346.823 74.8753 346.272 74.754 345.554 74.754H344.014V78.17ZM353.332 83.168C352.874 83.168 352.445 83.0887 352.044 82.93C351.652 82.762 351.306 82.5287 351.008 82.23C350.718 81.922 350.49 81.5487 350.322 81.11C350.154 80.6713 350.07 80.172 350.07 79.612C350.07 79.052 350.154 78.5527 350.322 78.114C350.499 77.666 350.728 77.288 351.008 76.98C351.297 76.672 351.624 76.4387 351.988 76.28C352.352 76.112 352.73 76.028 353.122 76.028C353.551 76.028 353.934 76.1027 354.27 76.252C354.615 76.4013 354.9 76.616 355.124 76.896C355.357 77.176 355.534 77.512 355.656 77.904C355.777 78.296 355.838 78.7347 355.838 79.22C355.838 79.3413 355.833 79.4627 355.824 79.584C355.824 79.696 355.814 79.794 355.796 79.878H351.204C351.25 80.606 351.474 81.1847 351.876 81.614C352.286 82.034 352.818 82.244 353.472 82.244C353.798 82.244 354.097 82.1973 354.368 82.104C354.648 82.0013 354.914 81.8707 355.166 81.712L355.572 82.468C355.273 82.6547 354.942 82.818 354.578 82.958C354.214 83.098 353.798 83.168 353.332 83.168ZM351.19 79.052H354.83C354.83 78.3613 354.68 77.8387 354.382 77.484C354.092 77.12 353.682 76.938 353.15 76.938C352.907 76.938 352.674 76.9847 352.45 77.078C352.235 77.1713 352.039 77.3113 351.862 77.498C351.684 77.6753 351.535 77.8947 351.414 78.156C351.302 78.4173 351.227 78.716 351.19 79.052ZM359.057 83L356.607 76.196H357.797L359.085 80.06C359.188 80.396 359.291 80.732 359.393 81.068C359.505 81.404 359.613 81.7353 359.715 82.062H359.771C359.874 81.7353 359.977 81.404 360.079 81.068C360.182 80.732 360.285 80.396 360.387 80.06L361.675 76.196H362.809L360.401 83H359.057ZM364.123 83V76.196H365.271V83H364.123ZM364.711 74.796C364.487 74.796 364.295 74.726 364.137 74.586C363.987 74.446 363.913 74.2687 363.913 74.054C363.913 73.83 363.987 73.6527 364.137 73.522C364.295 73.382 364.487 73.312 364.711 73.312C364.935 73.312 365.121 73.382 365.271 73.522C365.429 73.6527 365.509 73.83 365.509 74.054C365.509 74.2687 365.429 74.446 365.271 74.586C365.121 74.726 364.935 74.796 364.711 74.796ZM370.326 83.168C369.869 83.168 369.439 83.0887 369.038 82.93C368.646 82.762 368.301 82.5287 368.002 82.23C367.713 81.922 367.484 81.5487 367.316 81.11C367.148 80.6713 367.064 80.172 367.064 79.612C367.064 79.052 367.148 78.5527 367.316 78.114C367.493 77.666 367.722 77.288 368.002 76.98C368.291 76.672 368.618 76.4387 368.982 76.28C369.346 76.112 369.724 76.028 370.116 76.028C370.545 76.028 370.928 76.1027 371.264 76.252C371.609 76.4013 371.894 76.616 372.118 76.896C372.351 77.176 372.529 77.512 372.65 77.904C372.771 78.296 372.832 78.7347 372.832 79.22C372.832 79.3413 372.827 79.4627 372.818 79.584C372.818 79.696 372.809 79.794 372.79 79.878H368.198C368.245 80.606 368.469 81.1847 368.87 81.614C369.281 82.034 369.813 82.244 370.466 82.244C370.793 82.244 371.091 82.1973 371.362 82.104C371.642 82.0013 371.908 81.8707 372.16 81.712L372.566 82.468C372.267 82.6547 371.936 82.818 371.572 82.958C371.208 83.098 370.793 83.168 370.326 83.168ZM368.184 79.052H371.824C371.824 78.3613 371.675 77.8387 371.376 77.484C371.087 77.12 370.676 76.938 370.144 76.938C369.901 76.938 369.668 76.9847 369.444 77.078C369.229 77.1713 369.033 77.3113 368.856 77.498C368.679 77.6753 368.529 77.8947 368.408 78.156C368.296 78.4173 368.221 78.716 368.184 79.052ZM375.66 83L373.77 76.196H374.946L375.954 80.13C376.028 80.4567 376.098 80.774 376.164 81.082C376.229 81.39 376.294 81.7027 376.36 82.02H376.416C376.49 81.7027 376.565 81.39 376.64 81.082C376.714 80.7647 376.794 80.4473 376.878 80.13L377.928 76.196H379.048L380.112 80.13C380.196 80.4567 380.275 80.774 380.35 81.082C380.434 81.39 380.513 81.7027 380.588 82.02H380.644C380.718 81.7027 380.788 81.39 380.854 81.082C380.919 80.774 380.989 80.4567 381.064 80.13L382.058 76.196H383.15L381.33 83H379.93L378.95 79.346C378.866 79.0193 378.786 78.6973 378.712 78.38C378.646 78.0627 378.572 77.7313 378.488 77.386H378.432C378.357 77.7313 378.282 78.0673 378.208 78.394C378.133 78.7113 378.049 79.0333 377.956 79.36L377.004 83H375.66Z" fill="#FC2779"/>
<rect x="292.25" y="60.25" width="111.5" height="35.5" stroke="#A7A7A7" stroke-width="0.5"/>
<path d="M270 35.5V99.5" stroke="#A7A7A7" stroke-width="0.5"/>
</svg>
