<svg width="34" height="20" viewBox="0 0 34 20" fill="none" xmlns="http://www.w3.org/2000/svg">
<rect width="34" height="20" rx="4" fill="#008945"/>
<path fill-rule="evenodd" clip-rule="evenodd" d="M20.8769 12.7705L17.5227 15.1738C17.4828 15.2042 17.4342 15.2209 17.384 15.2215C17.3339 15.2221 17.2849 15.2065 17.2443 15.177C17.2037 15.1476 17.1737 15.1058 17.1587 15.0579C17.1437 15.0101 17.1445 14.9587 17.1611 14.9113L18.4094 10.9796L15.0902 8.52965C15.0524 8.49955 15.0246 8.45866 15.0104 8.41243C14.9963 8.36619 14.9965 8.31676 15.0111 8.27065C15.0256 8.22453 15.0537 8.18391 15.0918 8.15412C15.1299 8.12434 15.1761 8.10679 15.2244 8.10381L19.3486 8.07464L20.6552 4.16047C20.6706 4.11379 20.7003 4.07314 20.74 4.04433C20.7799 4.01551 20.8278 4 20.8769 4C20.926 4 20.9739 4.01551 21.0137 4.04433C21.0535 4.07314 21.0832 4.11379 21.0986 4.16047L22.4052 8.07464L26.5294 8.10381C26.5776 8.10679 26.6239 8.12434 26.6619 8.15412C26.7 8.18391 26.7282 8.22453 26.7427 8.27065C26.7572 8.31676 26.7575 8.36619 26.7434 8.41243C26.7292 8.45866 26.7014 8.49955 26.6636 8.52965L23.3444 10.9796L24.5927 14.9113C24.6092 14.9587 24.61 15.0101 24.5951 15.0579C24.5801 15.1058 24.5501 15.1476 24.5095 15.177C24.4689 15.2065 24.4199 15.2221 24.3697 15.2215C24.3196 15.2209 24.271 15.2042 24.2311 15.1738L20.8769 12.7705Z" fill="white"/>
<path d="M9.276 15.168C8.92133 15.168 8.59467 15.1307 8.296 15.056C8.00667 14.9907 7.74067 14.902 7.498 14.79C7.26467 14.678 7.05 14.552 6.854 14.412C6.66733 14.2627 6.49933 14.1087 6.35 13.95L6.91 13.194C7.17133 13.4647 7.47933 13.7027 7.834 13.908C8.198 14.1133 8.64133 14.216 9.164 14.216C9.43467 14.216 9.68667 14.1693 9.92 14.076C10.1627 13.9733 10.3727 13.8333 10.55 13.656C10.7273 13.4787 10.8673 13.264 10.97 13.012C11.0727 12.76 11.124 12.48 11.124 12.172C11.124 11.556 10.9513 11.0753 10.606 10.73C10.2607 10.3847 9.79867 10.212 9.22 10.212C8.912 10.212 8.646 10.2587 8.422 10.352C8.20733 10.4453 7.96467 10.5807 7.694 10.758L7.078 10.366L7.372 6.068H11.838V7.062H8.38L8.142 9.708C8.35667 9.596 8.57133 9.50733 8.786 9.442C9.00067 9.37667 9.24333 9.344 9.514 9.344C9.89667 9.344 10.256 9.4 10.592 9.512C10.928 9.624 11.222 9.79667 11.474 10.03C11.726 10.254 11.922 10.5433 12.062 10.898C12.2113 11.2433 12.286 11.6587 12.286 12.144C12.286 12.6293 12.202 13.0587 12.034 13.432C11.866 13.8053 11.642 14.1227 11.362 14.384C11.082 14.636 10.76 14.832 10.396 14.972C10.0413 15.1027 9.668 15.168 9.276 15.168Z" fill="white"/>
</svg>
