<svg width="1440" height="84" viewBox="0 0 1440 84" fill="none" xmlns="http://www.w3.org/2000/svg">
<rect width="1440" height="84" fill="#FC2779"/>
<path d="M460.164 32V23.796H457.392V22.816H464.112V23.796H461.34V32H460.164ZM465.766 32V22.816H471.058V23.796H466.928V26.68H470.414V27.674H466.928V31.006H471.198V32H465.766ZM473.149 32V22.816H476.019C476.485 22.816 476.915 22.8627 477.307 22.956C477.708 23.04 478.049 23.1847 478.329 23.39C478.618 23.5953 478.842 23.8613 479.001 24.188C479.159 24.5147 479.239 24.916 479.239 25.392C479.239 26.1107 479.052 26.6847 478.679 27.114C478.305 27.5433 477.801 27.8373 477.167 27.996L479.505 32H478.189L475.977 28.122H474.311V32H473.149ZM474.311 27.17H475.851C476.569 27.17 477.12 27.0253 477.503 26.736C477.885 26.4373 478.077 25.9893 478.077 25.392C478.077 24.7853 477.885 24.3607 477.503 24.118C477.12 23.8753 476.569 23.754 475.851 23.754H474.311V27.17ZM481.119 32V22.816H482.519L484.283 27.716C484.395 28.0333 484.503 28.3553 484.605 28.682C484.717 28.9993 484.829 29.3167 484.941 29.634H484.997C485.109 29.3167 485.212 28.9993 485.305 28.682C485.408 28.3553 485.515 28.0333 485.627 27.716L487.363 22.816H488.777V32H487.685V26.946C487.685 26.5353 487.704 26.0827 487.741 25.588C487.779 25.0933 487.811 24.6407 487.839 24.23H487.783L487.055 26.316L485.319 31.076H484.549L482.813 26.316L482.085 24.23H482.029C482.057 24.6407 482.085 25.0933 482.113 25.588C482.151 26.0827 482.169 26.5353 482.169 26.946V32H481.119ZM493.839 32.168C493.195 32.168 492.598 32.0467 492.047 31.804C491.497 31.5613 491.021 31.23 490.619 30.81L491.319 29.998C491.646 30.3433 492.029 30.6233 492.467 30.838C492.915 31.0433 493.377 31.146 493.853 31.146C494.46 31.146 494.931 31.0107 495.267 30.74C495.603 30.46 495.771 30.096 495.771 29.648C495.771 29.4147 495.729 29.2187 495.645 29.06C495.571 28.892 495.463 28.752 495.323 28.64C495.193 28.5187 495.034 28.4113 494.847 28.318C494.661 28.2247 494.46 28.1267 494.245 28.024L492.929 27.45C492.715 27.3567 492.495 27.2447 492.271 27.114C492.047 26.9833 491.847 26.8247 491.669 26.638C491.492 26.4513 491.347 26.232 491.235 25.98C491.123 25.7187 491.067 25.42 491.067 25.084C491.067 24.7387 491.137 24.4167 491.277 24.118C491.427 23.8193 491.627 23.5627 491.879 23.348C492.141 23.124 492.444 22.9513 492.789 22.83C493.144 22.7087 493.531 22.648 493.951 22.648C494.502 22.648 495.011 22.7553 495.477 22.97C495.944 23.1753 496.341 23.446 496.667 23.782L496.037 24.538C495.757 24.2673 495.445 24.0573 495.099 23.908C494.763 23.7493 494.381 23.67 493.951 23.67C493.438 23.67 493.023 23.7913 492.705 24.034C492.397 24.2673 492.243 24.594 492.243 25.014C492.243 25.238 492.285 25.4293 492.369 25.588C492.463 25.7373 492.584 25.8727 492.733 25.994C492.883 26.106 493.046 26.2087 493.223 26.302C493.401 26.386 493.583 26.4653 493.769 26.54L495.071 27.1C495.333 27.212 495.58 27.3427 495.813 27.492C496.047 27.632 496.247 27.8 496.415 27.996C496.583 28.1827 496.714 28.4067 496.807 28.668C496.91 28.92 496.961 29.214 496.961 29.55C496.961 29.914 496.887 30.2547 496.737 30.572C496.597 30.8893 496.392 31.1693 496.121 31.412C495.851 31.6453 495.524 31.832 495.141 31.972C494.759 32.1027 494.325 32.168 493.839 32.168ZM503.561 32.168C503.141 32.168 502.758 32.1073 502.413 31.986C502.077 31.8553 501.783 31.678 501.531 31.454C501.288 31.23 501.097 30.964 500.957 30.656C500.826 30.3387 500.761 29.9933 500.761 29.62C500.761 29.312 500.807 29.032 500.901 28.78C501.003 28.528 501.139 28.2947 501.307 28.08C501.475 27.8653 501.666 27.6693 501.881 27.492C502.105 27.3053 502.333 27.1327 502.567 26.974C502.38 26.5913 502.231 26.2227 502.119 25.868C502.016 25.504 501.965 25.154 501.965 24.818C501.965 24.51 502.016 24.2253 502.119 23.964C502.221 23.7027 502.366 23.474 502.553 23.278C502.739 23.082 502.963 22.928 503.225 22.816C503.486 22.704 503.775 22.648 504.093 22.648C504.662 22.648 505.105 22.816 505.423 23.152C505.74 23.488 505.899 23.9267 505.899 24.468C505.899 24.7667 505.838 25.042 505.717 25.294C505.595 25.546 505.437 25.784 505.241 26.008C505.045 26.2227 504.821 26.428 504.569 26.624C504.326 26.8107 504.079 26.9973 503.827 27.184C504.125 27.66 504.475 28.1173 504.877 28.556C505.287 28.9947 505.712 29.396 506.151 29.76C506.431 29.3773 506.678 28.962 506.893 28.514C507.117 28.066 507.299 27.576 507.439 27.044H508.517C508.33 27.6507 508.106 28.2293 507.845 28.78C507.583 29.3307 507.271 29.8487 506.907 30.334C507.224 30.5487 507.527 30.7307 507.817 30.88C508.106 31.0293 508.377 31.1413 508.629 31.216L508.321 32.168C507.994 32.0747 507.653 31.944 507.299 31.776C506.944 31.5987 506.58 31.3793 506.207 31.118C505.852 31.4353 505.455 31.692 505.017 31.888C504.587 32.0747 504.102 32.168 503.561 32.168ZM502.959 24.804C502.959 25.056 502.996 25.3173 503.071 25.588C503.155 25.8587 503.262 26.134 503.393 26.414C503.598 26.274 503.794 26.134 503.981 25.994C504.177 25.8447 504.345 25.6953 504.485 25.546C504.634 25.3873 504.751 25.224 504.835 25.056C504.919 24.8787 504.961 24.6873 504.961 24.482C504.961 24.2113 504.891 23.978 504.751 23.782C504.62 23.5767 504.401 23.474 504.093 23.474C503.747 23.474 503.472 23.6 503.267 23.852C503.061 24.104 502.959 24.4213 502.959 24.804ZM503.687 31.244C504.004 31.244 504.307 31.1787 504.597 31.048C504.886 30.9173 505.166 30.7353 505.437 30.502C504.989 30.11 504.555 29.6853 504.135 29.228C503.724 28.7613 503.355 28.276 503.029 27.772C502.702 28.0333 502.427 28.3087 502.203 28.598C501.988 28.878 501.881 29.1953 501.881 29.55C501.881 29.802 501.927 30.0353 502.021 30.25C502.114 30.4553 502.24 30.6327 502.399 30.782C502.567 30.9313 502.758 31.048 502.973 31.132C503.197 31.2067 503.435 31.244 503.687 31.244ZM516.378 32.168C515.8 32.168 515.268 32.0607 514.782 31.846C514.297 31.6313 513.872 31.3233 513.508 30.922C513.154 30.5113 512.874 30.012 512.668 29.424C512.472 28.8267 512.374 28.1547 512.374 27.408C512.374 26.6707 512.477 26.008 512.682 25.42C512.888 24.832 513.172 24.3327 513.536 23.922C513.9 23.5113 514.33 23.1987 514.824 22.984C515.319 22.76 515.86 22.648 516.448 22.648C517.008 22.648 517.498 22.7647 517.918 22.998C518.348 23.222 518.698 23.4833 518.968 23.782L518.338 24.538C518.096 24.2767 517.82 24.0667 517.512 23.908C517.204 23.7493 516.854 23.67 516.462 23.67C516.024 23.67 515.627 23.7587 515.272 23.936C514.918 24.104 514.614 24.3513 514.362 24.678C514.11 24.9953 513.914 25.3827 513.774 25.84C513.644 26.2973 513.578 26.8107 513.578 27.38C513.578 27.9587 513.644 28.4813 513.774 28.948C513.914 29.4053 514.106 29.7973 514.348 30.124C514.591 30.4507 514.885 30.7027 515.23 30.88C515.585 31.0573 515.982 31.146 516.42 31.146C516.868 31.146 517.26 31.0573 517.596 30.88C517.932 30.6933 518.25 30.4367 518.548 30.11L519.192 30.838C518.828 31.258 518.418 31.5847 517.96 31.818C517.503 32.0513 516.976 32.168 516.378 32.168ZM523.882 32.168C523.304 32.168 522.772 32.056 522.286 31.832C521.81 31.608 521.4 31.2907 521.054 30.88C520.709 30.46 520.438 29.956 520.242 29.368C520.056 28.7707 519.962 28.1033 519.962 27.366C519.962 26.6287 520.056 25.9707 520.242 25.392C520.438 24.804 520.709 24.3093 521.054 23.908C521.4 23.4973 521.81 23.1847 522.286 22.97C522.772 22.7553 523.304 22.648 523.882 22.648C524.461 22.648 524.988 22.76 525.464 22.984C525.95 23.1987 526.365 23.5113 526.71 23.922C527.065 24.3233 527.336 24.818 527.522 25.406C527.718 25.9847 527.816 26.638 527.816 27.366C527.816 28.1033 527.718 28.7707 527.522 29.368C527.336 29.956 527.065 30.46 526.71 30.88C526.365 31.2907 525.95 31.608 525.464 31.832C524.988 32.056 524.461 32.168 523.882 32.168ZM523.882 31.146C524.293 31.146 524.662 31.0573 524.988 30.88C525.324 30.7027 525.609 30.4507 525.842 30.124C526.085 29.788 526.272 29.3913 526.402 28.934C526.533 28.4673 526.598 27.9447 526.598 27.366C526.598 26.7967 526.533 26.2833 526.402 25.826C526.272 25.3687 526.085 24.9813 525.842 24.664C525.609 24.3467 525.324 24.104 524.988 23.936C524.662 23.7587 524.293 23.67 523.882 23.67C523.472 23.67 523.098 23.7587 522.762 23.936C522.436 24.104 522.151 24.3467 521.908 24.664C521.675 24.9813 521.493 25.3687 521.362 25.826C521.232 26.2833 521.166 26.7967 521.166 27.366C521.166 27.9447 521.232 28.4673 521.362 28.934C521.493 29.3913 521.675 29.788 521.908 30.124C522.151 30.4507 522.436 30.7027 522.762 30.88C523.098 31.0573 523.472 31.146 523.882 31.146ZM529.791 32V22.816H532.087C533.506 22.816 534.584 23.208 535.321 23.992C536.059 24.776 536.427 25.9007 536.427 27.366C536.427 28.094 536.334 28.7473 536.147 29.326C535.961 29.8953 535.685 30.3807 535.321 30.782C534.957 31.174 534.509 31.4773 533.977 31.692C533.445 31.8973 532.834 32 532.143 32H529.791ZM530.953 31.048H532.003C533.077 31.048 533.879 30.726 534.411 30.082C534.953 29.438 535.223 28.5327 535.223 27.366C535.223 26.1993 534.953 25.308 534.411 24.692C533.879 24.076 533.077 23.768 532.003 23.768H530.953V31.048ZM538.405 32V22.816H539.567V32H538.405ZM543.986 32V23.796H541.214V22.816H547.934V23.796H545.162V32H543.986ZM549.588 32V22.816H550.75V32H549.588ZM556.654 32.168C556.075 32.168 555.543 32.056 555.058 31.832C554.582 31.608 554.171 31.2907 553.826 30.88C553.481 30.46 553.21 29.956 553.014 29.368C552.827 28.7707 552.734 28.1033 552.734 27.366C552.734 26.6287 552.827 25.9707 553.014 25.392C553.21 24.804 553.481 24.3093 553.826 23.908C554.171 23.4973 554.582 23.1847 555.058 22.97C555.543 22.7553 556.075 22.648 556.654 22.648C557.233 22.648 557.76 22.76 558.236 22.984C558.721 23.1987 559.137 23.5113 559.482 23.922C559.837 24.3233 560.107 24.818 560.294 25.406C560.49 25.9847 560.588 26.638 560.588 27.366C560.588 28.1033 560.49 28.7707 560.294 29.368C560.107 29.956 559.837 30.46 559.482 30.88C559.137 31.2907 558.721 31.608 558.236 31.832C557.76 32.056 557.233 32.168 556.654 32.168ZM556.654 31.146C557.065 31.146 557.433 31.0573 557.76 30.88C558.096 30.7027 558.381 30.4507 558.614 30.124C558.857 29.788 559.043 29.3913 559.174 28.934C559.305 28.4673 559.37 27.9447 559.37 27.366C559.37 26.7967 559.305 26.2833 559.174 25.826C559.043 25.3687 558.857 24.9813 558.614 24.664C558.381 24.3467 558.096 24.104 557.76 23.936C557.433 23.7587 557.065 23.67 556.654 23.67C556.243 23.67 555.87 23.7587 555.534 23.936C555.207 24.104 554.923 24.3467 554.68 24.664C554.447 24.9813 554.265 25.3687 554.134 25.826C554.003 26.2833 553.938 26.7967 553.938 27.366C553.938 27.9447 554.003 28.4673 554.134 28.934C554.265 29.3913 554.447 29.788 554.68 30.124C554.923 30.4507 555.207 30.7027 555.534 30.88C555.87 31.0573 556.243 31.146 556.654 31.146ZM562.563 32V22.816H563.767L567.085 28.584L568.079 30.488H568.135C568.107 30.0213 568.074 29.5407 568.037 29.046C568.009 28.542 567.995 28.0473 567.995 27.562V22.816H569.101V32H567.897L564.565 26.218L563.571 24.328H563.515C563.552 24.7947 563.585 25.2707 563.613 25.756C563.65 26.232 563.669 26.7127 563.669 27.198V32H562.563ZM574.175 32.168C573.531 32.168 572.934 32.0467 572.383 31.804C571.833 31.5613 571.357 31.23 570.955 30.81L571.655 29.998C571.982 30.3433 572.365 30.6233 572.803 30.838C573.251 31.0433 573.713 31.146 574.189 31.146C574.796 31.146 575.267 31.0107 575.603 30.74C575.939 30.46 576.107 30.096 576.107 29.648C576.107 29.4147 576.065 29.2187 575.981 29.06C575.907 28.892 575.799 28.752 575.659 28.64C575.529 28.5187 575.37 28.4113 575.183 28.318C574.997 28.2247 574.796 28.1267 574.581 28.024L573.265 27.45C573.051 27.3567 572.831 27.2447 572.607 27.114C572.383 26.9833 572.183 26.8247 572.005 26.638C571.828 26.4513 571.683 26.232 571.571 25.98C571.459 25.7187 571.403 25.42 571.403 25.084C571.403 24.7387 571.473 24.4167 571.613 24.118C571.763 23.8193 571.963 23.5627 572.215 23.348C572.477 23.124 572.78 22.9513 573.125 22.83C573.48 22.7087 573.867 22.648 574.287 22.648C574.838 22.648 575.347 22.7553 575.813 22.97C576.28 23.1753 576.677 23.446 577.003 23.782L576.373 24.538C576.093 24.2673 575.781 24.0573 575.435 23.908C575.099 23.7493 574.717 23.67 574.287 23.67C573.774 23.67 573.359 23.7913 573.041 24.034C572.733 24.2673 572.579 24.594 572.579 25.014C572.579 25.238 572.621 25.4293 572.705 25.588C572.799 25.7373 572.92 25.8727 573.069 25.994C573.219 26.106 573.382 26.2087 573.559 26.302C573.737 26.386 573.919 26.4653 574.105 26.54L575.407 27.1C575.669 27.212 575.916 27.3427 576.149 27.492C576.383 27.632 576.583 27.8 576.751 27.996C576.919 28.1827 577.05 28.4067 577.143 28.668C577.246 28.92 577.297 29.214 577.297 29.55C577.297 29.914 577.223 30.2547 577.073 30.572C576.933 30.8893 576.728 31.1693 576.457 31.412C576.187 31.6453 575.86 31.832 575.477 31.972C575.095 32.1027 574.661 32.168 574.175 32.168Z" fill="white"/>
<path d="M605.808 32.168C605.164 32.168 604.567 32.0467 604.016 31.804C603.465 31.5613 602.989 31.23 602.588 30.81L603.288 29.998C603.615 30.3433 603.997 30.6233 604.436 30.838C604.884 31.0433 605.346 31.146 605.822 31.146C606.429 31.146 606.9 31.0107 607.236 30.74C607.572 30.46 607.74 30.096 607.74 29.648C607.74 29.4147 607.698 29.2187 607.614 29.06C607.539 28.892 607.432 28.752 607.292 28.64C607.161 28.5187 607.003 28.4113 606.816 28.318C606.629 28.2247 606.429 28.1267 606.214 28.024L604.898 27.45C604.683 27.3567 604.464 27.2447 604.24 27.114C604.016 26.9833 603.815 26.8247 603.638 26.638C603.461 26.4513 603.316 26.232 603.204 25.98C603.092 25.7187 603.036 25.42 603.036 25.084C603.036 24.7387 603.106 24.4167 603.246 24.118C603.395 23.8193 603.596 23.5627 603.848 23.348C604.109 23.124 604.413 22.9513 604.758 22.83C605.113 22.7087 605.5 22.648 605.92 22.648C606.471 22.648 606.979 22.7553 607.446 22.97C607.913 23.1753 608.309 23.446 608.636 23.782L608.006 24.538C607.726 24.2673 607.413 24.0573 607.068 23.908C606.732 23.7493 606.349 23.67 605.92 23.67C605.407 23.67 604.991 23.7913 604.674 24.034C604.366 24.2673 604.212 24.594 604.212 25.014C604.212 25.238 604.254 25.4293 604.338 25.588C604.431 25.7373 604.553 25.8727 604.702 25.994C604.851 26.106 605.015 26.2087 605.192 26.302C605.369 26.386 605.551 26.4653 605.738 26.54L607.04 27.1C607.301 27.212 607.549 27.3427 607.782 27.492C608.015 27.632 608.216 27.8 608.384 27.996C608.552 28.1827 608.683 28.4067 608.776 28.668C608.879 28.92 608.93 29.214 608.93 29.55C608.93 29.914 608.855 30.2547 608.706 30.572C608.566 30.8893 608.361 31.1693 608.09 31.412C607.819 31.6453 607.493 31.832 607.11 31.972C606.727 32.1027 606.293 32.168 605.808 32.168ZM610.739 32V22.816H611.901V26.666H616.171V22.816H617.347V32H616.171V27.674H611.901V32H610.739ZM619.871 32V22.816H621.033V32H619.871ZM623.549 32V22.816H626.167C626.68 22.816 627.147 22.8627 627.567 22.956C627.996 23.0493 628.36 23.2033 628.659 23.418C628.958 23.6233 629.191 23.8987 629.359 24.244C629.527 24.5893 629.611 25.014 629.611 25.518C629.611 26.0033 629.527 26.4233 629.359 26.778C629.2 27.1327 628.972 27.4267 628.673 27.66C628.374 27.8933 628.015 28.0707 627.595 28.192C627.184 28.304 626.727 28.36 626.223 28.36H624.711V32H623.549ZM624.711 27.408H626.083C626.886 27.408 627.478 27.2587 627.861 26.96C628.253 26.652 628.449 26.1713 628.449 25.518C628.449 24.8553 628.244 24.398 627.833 24.146C627.432 23.8847 626.83 23.754 626.027 23.754H624.711V27.408ZM631.479 32V22.816H634.097C634.61 22.816 635.077 22.8627 635.497 22.956C635.926 23.0493 636.29 23.2033 636.589 23.418C636.887 23.6233 637.121 23.8987 637.289 24.244C637.457 24.5893 637.541 25.014 637.541 25.518C637.541 26.0033 637.457 26.4233 637.289 26.778C637.13 27.1327 636.901 27.4267 636.603 27.66C636.304 27.8933 635.945 28.0707 635.525 28.192C635.114 28.304 634.657 28.36 634.153 28.36H632.641V32H631.479ZM632.641 27.408H634.013C634.815 27.408 635.408 27.2587 635.791 26.96C636.183 26.652 636.379 26.1713 636.379 25.518C636.379 24.8553 636.173 24.398 635.763 24.146C635.361 23.8847 634.759 23.754 633.957 23.754H632.641V27.408ZM639.408 32V22.816H640.57V32H639.408ZM643.086 32V22.816H644.29L647.608 28.584L648.602 30.488H648.658C648.63 30.0213 648.598 29.5407 648.56 29.046C648.532 28.542 648.518 28.0473 648.518 27.562V22.816H649.624V32H648.42L645.088 26.218L644.094 24.328H644.038C644.076 24.7947 644.108 25.2707 644.136 25.756C644.174 26.232 644.192 26.7127 644.192 27.198V32H643.086ZM655.763 32.168C655.156 32.168 654.596 32.0607 654.083 31.846C653.579 31.6313 653.145 31.3233 652.781 30.922C652.417 30.5113 652.132 30.012 651.927 29.424C651.721 28.8267 651.619 28.1547 651.619 27.408C651.619 26.6707 651.721 26.008 651.927 25.42C652.141 24.832 652.435 24.3327 652.809 23.922C653.182 23.5113 653.625 23.1987 654.139 22.984C654.661 22.76 655.226 22.648 655.833 22.648C656.15 22.648 656.439 22.6807 656.701 22.746C656.971 22.8113 657.214 22.9 657.429 23.012C657.653 23.1147 657.849 23.236 658.017 23.376C658.194 23.5067 658.348 23.642 658.479 23.782L657.835 24.538C657.601 24.2953 657.331 24.09 657.023 23.922C656.715 23.754 656.327 23.67 655.861 23.67C655.394 23.67 654.974 23.7587 654.601 23.936C654.227 24.104 653.91 24.3513 653.649 24.678C653.387 24.9953 653.182 25.3827 653.033 25.84C652.893 26.2973 652.823 26.8107 652.823 27.38C652.823 27.9587 652.888 28.4813 653.019 28.948C653.159 29.4053 653.355 29.7973 653.607 30.124C653.868 30.4507 654.185 30.7027 654.559 30.88C654.941 31.0573 655.38 31.146 655.875 31.146C656.201 31.146 656.509 31.0993 656.799 31.006C657.097 30.9033 657.34 30.768 657.527 30.6V28.206H655.581V27.24H658.591V31.104C658.292 31.412 657.9 31.6687 657.415 31.874C656.929 32.07 656.379 32.168 655.763 32.168ZM663.594 32V22.816H666.212C666.725 22.816 667.192 22.8627 667.612 22.956C668.041 23.0493 668.405 23.2033 668.704 23.418C669.003 23.6233 669.236 23.8987 669.404 24.244C669.572 24.5893 669.656 25.014 669.656 25.518C669.656 26.0033 669.572 26.4233 669.404 26.778C669.245 27.1327 669.017 27.4267 668.718 27.66C668.419 27.8933 668.06 28.0707 667.64 28.192C667.229 28.304 666.772 28.36 666.268 28.36H664.756V32H663.594ZM664.756 27.408H666.128C666.931 27.408 667.523 27.2587 667.906 26.96C668.298 26.652 668.494 26.1713 668.494 25.518C668.494 24.8553 668.289 24.398 667.878 24.146C667.477 23.8847 666.875 23.754 666.072 23.754H664.756V27.408ZM674.912 32.168C674.333 32.168 673.801 32.056 673.316 31.832C672.84 31.608 672.429 31.2907 672.084 30.88C671.738 30.46 671.468 29.956 671.272 29.368C671.085 28.7707 670.992 28.1033 670.992 27.366C670.992 26.6287 671.085 25.9707 671.272 25.392C671.468 24.804 671.738 24.3093 672.084 23.908C672.429 23.4973 672.84 23.1847 673.316 22.97C673.801 22.7553 674.333 22.648 674.912 22.648C675.49 22.648 676.018 22.76 676.494 22.984C676.979 23.1987 677.394 23.5113 677.74 23.922C678.094 24.3233 678.365 24.818 678.552 25.406C678.748 25.9847 678.846 26.638 678.846 27.366C678.846 28.1033 678.748 28.7707 678.552 29.368C678.365 29.956 678.094 30.46 677.74 30.88C677.394 31.2907 676.979 31.608 676.494 31.832C676.018 32.056 675.49 32.168 674.912 32.168ZM674.912 31.146C675.322 31.146 675.691 31.0573 676.018 30.88C676.354 30.7027 676.638 30.4507 676.872 30.124C677.114 29.788 677.301 29.3913 677.432 28.934C677.562 28.4673 677.628 27.9447 677.628 27.366C677.628 26.7967 677.562 26.2833 677.432 25.826C677.301 25.3687 677.114 24.9813 676.872 24.664C676.638 24.3467 676.354 24.104 676.018 23.936C675.691 23.7587 675.322 23.67 674.912 23.67C674.501 23.67 674.128 23.7587 673.792 23.936C673.465 24.104 673.18 24.3467 672.938 24.664C672.704 24.9813 672.522 25.3687 672.392 25.826C672.261 26.2833 672.196 26.7967 672.196 27.366C672.196 27.9447 672.261 28.4673 672.392 28.934C672.522 29.3913 672.704 29.788 672.938 30.124C673.18 30.4507 673.465 30.7027 673.792 30.88C674.128 31.0573 674.501 31.146 674.912 31.146ZM680.821 32V22.816H681.983V31.006H686.001V32H680.821ZM687.629 32V22.816H688.791V32H687.629ZM694.779 32.168C694.2 32.168 693.668 32.0607 693.183 31.846C692.698 31.6313 692.273 31.3233 691.909 30.922C691.554 30.5113 691.274 30.012 691.069 29.424C690.873 28.8267 690.775 28.1547 690.775 27.408C690.775 26.6707 690.878 26.008 691.083 25.42C691.288 24.832 691.573 24.3327 691.937 23.922C692.301 23.5113 692.73 23.1987 693.225 22.984C693.72 22.76 694.261 22.648 694.849 22.648C695.409 22.648 695.899 22.7647 696.319 22.998C696.748 23.222 697.098 23.4833 697.369 23.782L696.739 24.538C696.496 24.2767 696.221 24.0667 695.913 23.908C695.605 23.7493 695.255 23.67 694.863 23.67C694.424 23.67 694.028 23.7587 693.673 23.936C693.318 24.104 693.015 24.3513 692.763 24.678C692.511 24.9953 692.315 25.3827 692.175 25.84C692.044 26.2973 691.979 26.8107 691.979 27.38C691.979 27.9587 692.044 28.4813 692.175 28.948C692.315 29.4053 692.506 29.7973 692.749 30.124C692.992 30.4507 693.286 30.7027 693.631 30.88C693.986 31.0573 694.382 31.146 694.821 31.146C695.269 31.146 695.661 31.0573 695.997 30.88C696.333 30.6933 696.65 30.4367 696.949 30.11L697.593 30.838C697.229 31.258 696.818 31.5847 696.361 31.818C695.904 32.0513 695.376 32.168 694.779 32.168ZM700.693 32V28.444L697.935 22.816H699.181L700.371 25.406C700.521 25.742 700.665 26.0733 700.805 26.4C700.945 26.7267 701.095 27.0627 701.253 27.408H701.309C701.468 27.0627 701.627 26.7267 701.785 26.4C701.944 26.0733 702.093 25.742 702.233 25.406L703.409 22.816H704.627L701.869 28.444V32H700.693Z" fill="white"/>
<path d="M733.732 32.168C733.153 32.168 732.621 32.0607 732.136 31.846C731.651 31.6313 731.226 31.3233 730.862 30.922C730.507 30.5113 730.227 30.012 730.022 29.424C729.826 28.8267 729.728 28.1547 729.728 27.408C729.728 26.6707 729.831 26.008 730.036 25.42C730.241 24.832 730.526 24.3327 730.89 23.922C731.254 23.5113 731.683 23.1987 732.178 22.984C732.673 22.76 733.214 22.648 733.802 22.648C734.362 22.648 734.852 22.7647 735.272 22.998C735.701 23.222 736.051 23.4833 736.322 23.782L735.692 24.538C735.449 24.2767 735.174 24.0667 734.866 23.908C734.558 23.7493 734.208 23.67 733.816 23.67C733.377 23.67 732.981 23.7587 732.626 23.936C732.271 24.104 731.968 24.3513 731.716 24.678C731.464 24.9953 731.268 25.3827 731.128 25.84C730.997 26.2973 730.932 26.8107 730.932 27.38C730.932 27.9587 730.997 28.4813 731.128 28.948C731.268 29.4053 731.459 29.7973 731.702 30.124C731.945 30.4507 732.239 30.7027 732.584 30.88C732.939 31.0573 733.335 31.146 733.774 31.146C734.222 31.146 734.614 31.0573 734.95 30.88C735.286 30.6933 735.603 30.4367 735.902 30.11L736.546 30.838C736.182 31.258 735.771 31.5847 735.314 31.818C734.857 32.0513 734.329 32.168 733.732 32.168ZM739.84 26.862L739.406 28.262H742.164L741.73 26.862C741.562 26.3487 741.403 25.84 741.254 25.336C741.105 24.8227 740.955 24.3 740.806 23.768H740.75C740.61 24.3 740.465 24.8227 740.316 25.336C740.167 25.84 740.008 26.3487 739.84 26.862ZM737.04 32L740.148 22.816H741.464L744.572 32H743.326L742.458 29.2H739.112L738.23 32H737.04ZM745.873 32V22.816H747.077L750.395 28.584L751.389 30.488H751.445C751.417 30.0213 751.385 29.5407 751.347 29.046C751.319 28.542 751.305 28.0473 751.305 27.562V22.816H752.411V32H751.207L747.875 26.218L746.881 24.328H746.825C746.863 24.7947 746.895 25.2707 746.923 25.756C746.961 26.232 746.979 26.7127 746.979 27.198V32H745.873ZM758.41 32.168C757.831 32.168 757.299 32.0607 756.814 31.846C756.328 31.6313 755.904 31.3233 755.54 30.922C755.185 30.5113 754.905 30.012 754.7 29.424C754.504 28.8267 754.406 28.1547 754.406 27.408C754.406 26.6707 754.508 26.008 754.714 25.42C754.919 24.832 755.204 24.3327 755.568 23.922C755.932 23.5113 756.361 23.1987 756.856 22.984C757.35 22.76 757.892 22.648 758.48 22.648C759.04 22.648 759.53 22.7647 759.95 22.998C760.379 23.222 760.729 23.4833 761 23.782L760.37 24.538C760.127 24.2767 759.852 24.0667 759.544 23.908C759.236 23.7493 758.886 23.67 758.494 23.67C758.055 23.67 757.658 23.7587 757.304 23.936C756.949 24.104 756.646 24.3513 756.394 24.678C756.142 24.9953 755.946 25.3827 755.806 25.84C755.675 26.2973 755.61 26.8107 755.61 27.38C755.61 27.9587 755.675 28.4813 755.806 28.948C755.946 29.4053 756.137 29.7973 756.38 30.124C756.622 30.4507 756.916 30.7027 757.262 30.88C757.616 31.0573 758.013 31.146 758.452 31.146C758.9 31.146 759.292 31.0573 759.628 30.88C759.964 30.6933 760.281 30.4367 760.58 30.11L761.224 30.838C760.86 31.258 760.449 31.5847 759.992 31.818C759.534 32.0513 759.007 32.168 758.41 32.168ZM762.936 32V22.816H768.228V23.796H764.098V26.68H767.584V27.674H764.098V31.006H768.368V32H762.936ZM770.319 32V22.816H771.481V31.006H775.499V32H770.319ZM777.127 32V22.816H778.289V31.006H782.307V32H777.127ZM785.559 26.862L785.125 28.262H787.883L787.449 26.862C787.281 26.3487 787.122 25.84 786.973 25.336C786.823 24.8227 786.674 24.3 786.525 23.768H786.469C786.329 24.3 786.184 24.8227 786.035 25.336C785.885 25.84 785.727 26.3487 785.559 26.862ZM782.759 32L785.867 22.816H787.183L790.291 32H789.045L788.177 29.2H784.831L783.949 32H782.759ZM792.73 32V23.796H789.958V22.816H796.678V23.796H793.906V32H792.73ZM798.332 32V22.816H799.494V32H798.332ZM805.398 32.168C804.819 32.168 804.287 32.056 803.802 31.832C803.326 31.608 802.915 31.2907 802.57 30.88C802.225 30.46 801.954 29.956 801.758 29.368C801.571 28.7707 801.478 28.1033 801.478 27.366C801.478 26.6287 801.571 25.9707 801.758 25.392C801.954 24.804 802.225 24.3093 802.57 23.908C802.915 23.4973 803.326 23.1847 803.802 22.97C804.287 22.7553 804.819 22.648 805.398 22.648C805.977 22.648 806.504 22.76 806.98 22.984C807.465 23.1987 807.881 23.5113 808.226 23.922C808.581 24.3233 808.851 24.818 809.038 25.406C809.234 25.9847 809.332 26.638 809.332 27.366C809.332 28.1033 809.234 28.7707 809.038 29.368C808.851 29.956 808.581 30.46 808.226 30.88C807.881 31.2907 807.465 31.608 806.98 31.832C806.504 32.056 805.977 32.168 805.398 32.168ZM805.398 31.146C805.809 31.146 806.177 31.0573 806.504 30.88C806.84 30.7027 807.125 30.4507 807.358 30.124C807.601 29.788 807.787 29.3913 807.918 28.934C808.049 28.4673 808.114 27.9447 808.114 27.366C808.114 26.7967 808.049 26.2833 807.918 25.826C807.787 25.3687 807.601 24.9813 807.358 24.664C807.125 24.3467 806.84 24.104 806.504 23.936C806.177 23.7587 805.809 23.67 805.398 23.67C804.987 23.67 804.614 23.7587 804.278 23.936C803.951 24.104 803.667 24.3467 803.424 24.664C803.191 24.9813 803.009 25.3687 802.878 25.826C802.747 26.2833 802.682 26.7967 802.682 27.366C802.682 27.9447 802.747 28.4673 802.878 28.934C803.009 29.3913 803.191 29.788 803.424 30.124C803.667 30.4507 803.951 30.7027 804.278 30.88C804.614 31.0573 804.987 31.146 805.398 31.146ZM811.307 32V22.816H812.511L815.829 28.584L816.823 30.488H816.879C816.851 30.0213 816.818 29.5407 816.781 29.046C816.753 28.542 816.739 28.0473 816.739 27.562V22.816H817.845V32H816.641L813.309 26.218L812.315 24.328H812.259C812.296 24.7947 812.329 25.2707 812.357 25.756C812.394 26.232 812.413 26.7127 812.413 27.198V32H811.307ZM823.174 32V22.816H825.792C826.305 22.816 826.772 22.8627 827.192 22.956C827.621 23.0493 827.985 23.2033 828.284 23.418C828.583 23.6233 828.816 23.8987 828.984 24.244C829.152 24.5893 829.236 25.014 829.236 25.518C829.236 26.0033 829.152 26.4233 828.984 26.778C828.825 27.1327 828.597 27.4267 828.298 27.66C827.999 27.8933 827.64 28.0707 827.22 28.192C826.809 28.304 826.352 28.36 825.848 28.36H824.336V32H823.174ZM824.336 27.408H825.708C826.511 27.408 827.103 27.2587 827.486 26.96C827.878 26.652 828.074 26.1713 828.074 25.518C828.074 24.8553 827.869 24.398 827.458 24.146C827.057 23.8847 826.455 23.754 825.652 23.754H824.336V27.408ZM834.492 32.168C833.913 32.168 833.381 32.056 832.896 31.832C832.42 31.608 832.009 31.2907 831.664 30.88C831.318 30.46 831.048 29.956 830.852 29.368C830.665 28.7707 830.572 28.1033 830.572 27.366C830.572 26.6287 830.665 25.9707 830.852 25.392C831.048 24.804 831.318 24.3093 831.664 23.908C832.009 23.4973 832.42 23.1847 832.896 22.97C833.381 22.7553 833.913 22.648 834.492 22.648C835.07 22.648 835.598 22.76 836.074 22.984C836.559 23.1987 836.974 23.5113 837.32 23.922C837.674 24.3233 837.945 24.818 838.132 25.406C838.328 25.9847 838.426 26.638 838.426 27.366C838.426 28.1033 838.328 28.7707 838.132 29.368C837.945 29.956 837.674 30.46 837.32 30.88C836.974 31.2907 836.559 31.608 836.074 31.832C835.598 32.056 835.07 32.168 834.492 32.168ZM834.492 31.146C834.902 31.146 835.271 31.0573 835.598 30.88C835.934 30.7027 836.218 30.4507 836.452 30.124C836.694 29.788 836.881 29.3913 837.012 28.934C837.142 28.4673 837.208 27.9447 837.208 27.366C837.208 26.7967 837.142 26.2833 837.012 25.826C836.881 25.3687 836.694 24.9813 836.452 24.664C836.218 24.3467 835.934 24.104 835.598 23.936C835.271 23.7587 834.902 23.67 834.492 23.67C834.081 23.67 833.708 23.7587 833.372 23.936C833.045 24.104 832.76 24.3467 832.518 24.664C832.284 24.9813 832.102 25.3687 831.972 25.826C831.841 26.2833 831.776 26.7967 831.776 27.366C831.776 27.9447 831.841 28.4673 831.972 28.934C832.102 29.3913 832.284 29.788 832.518 30.124C832.76 30.4507 833.045 30.7027 833.372 30.88C833.708 31.0573 834.081 31.146 834.492 31.146ZM840.401 32V22.816H841.563V31.006H845.581V32H840.401ZM847.209 32V22.816H848.371V32H847.209ZM854.359 32.168C853.78 32.168 853.248 32.0607 852.763 31.846C852.278 31.6313 851.853 31.3233 851.489 30.922C851.134 30.5113 850.854 30.012 850.649 29.424C850.453 28.8267 850.355 28.1547 850.355 27.408C850.355 26.6707 850.458 26.008 850.663 25.42C850.868 24.832 851.153 24.3327 851.517 23.922C851.881 23.5113 852.31 23.1987 852.805 22.984C853.3 22.76 853.841 22.648 854.429 22.648C854.989 22.648 855.479 22.7647 855.899 22.998C856.328 23.222 856.678 23.4833 856.949 23.782L856.319 24.538C856.076 24.2767 855.801 24.0667 855.493 23.908C855.185 23.7493 854.835 23.67 854.443 23.67C854.004 23.67 853.608 23.7587 853.253 23.936C852.898 24.104 852.595 24.3513 852.343 24.678C852.091 24.9953 851.895 25.3827 851.755 25.84C851.624 26.2973 851.559 26.8107 851.559 27.38C851.559 27.9587 851.624 28.4813 851.755 28.948C851.895 29.4053 852.086 29.7973 852.329 30.124C852.572 30.4507 852.866 30.7027 853.211 30.88C853.566 31.0573 853.962 31.146 854.401 31.146C854.849 31.146 855.241 31.0573 855.577 30.88C855.913 30.6933 856.23 30.4367 856.529 30.11L857.173 30.838C856.809 31.258 856.398 31.5847 855.941 31.818C855.484 32.0513 854.956 32.168 854.359 32.168ZM860.273 32V28.444L857.515 22.816H858.761L859.951 25.406C860.101 25.742 860.245 26.0733 860.385 26.4C860.525 26.7267 860.675 27.0627 860.833 27.408H860.889C861.048 27.0627 861.207 26.7267 861.365 26.4C861.524 26.0733 861.673 25.742 861.813 25.406L862.989 22.816H864.207L861.449 28.444V32H860.273Z" fill="white"/>
<path d="M890.26 32V22.816H892.878C893.391 22.816 893.858 22.8627 894.278 22.956C894.707 23.0493 895.071 23.2033 895.37 23.418C895.669 23.6233 895.902 23.8987 896.07 24.244C896.238 24.5893 896.322 25.014 896.322 25.518C896.322 26.0033 896.238 26.4233 896.07 26.778C895.911 27.1327 895.683 27.4267 895.384 27.66C895.085 27.8933 894.726 28.0707 894.306 28.192C893.895 28.304 893.438 28.36 892.934 28.36H891.422V32H890.26ZM891.422 27.408H892.794C893.597 27.408 894.189 27.2587 894.572 26.96C894.964 26.652 895.16 26.1713 895.16 25.518C895.16 24.8553 894.955 24.398 894.544 24.146C894.143 23.8847 893.541 23.754 892.738 23.754H891.422V27.408ZM898.19 32V22.816H901.06C901.526 22.816 901.956 22.8627 902.348 22.956C902.749 23.04 903.09 23.1847 903.37 23.39C903.659 23.5953 903.883 23.8613 904.042 24.188C904.2 24.5147 904.28 24.916 904.28 25.392C904.28 26.1107 904.093 26.6847 903.72 27.114C903.346 27.5433 902.842 27.8373 902.208 27.996L904.546 32H903.23L901.018 28.122H899.352V32H898.19ZM899.352 27.17H900.892C901.61 27.17 902.161 27.0253 902.544 26.736C902.926 26.4373 903.118 25.9893 903.118 25.392C903.118 24.7853 902.926 24.3607 902.544 24.118C902.161 23.8753 901.61 23.754 900.892 23.754H899.352V27.17ZM906.16 32V22.816H907.322V32H906.16ZM911.518 32L908.578 22.816H909.824L911.294 27.772C911.462 28.3227 911.607 28.8313 911.728 29.298C911.859 29.7647 912.013 30.2687 912.19 30.81H912.246C912.414 30.2687 912.563 29.7647 912.694 29.298C912.825 28.8313 912.969 28.3227 913.128 27.772L914.598 22.816H915.788L912.876 32H911.518ZM918.434 26.862L918 28.262H920.758L920.324 26.862C920.156 26.3487 919.997 25.84 919.848 25.336C919.698 24.8227 919.549 24.3 919.4 23.768H919.344C919.204 24.3 919.059 24.8227 918.91 25.336C918.76 25.84 918.602 26.3487 918.434 26.862ZM915.634 32L918.742 22.816H920.058L923.166 32H921.92L921.052 29.2H917.706L916.824 32H915.634ZM927.802 32.168C927.224 32.168 926.692 32.0607 926.206 31.846C925.721 31.6313 925.296 31.3233 924.932 30.922C924.578 30.5113 924.298 30.012 924.092 29.424C923.896 28.8267 923.798 28.1547 923.798 27.408C923.798 26.6707 923.901 26.008 924.106 25.42C924.312 24.832 924.596 24.3327 924.96 23.922C925.324 23.5113 925.754 23.1987 926.248 22.984C926.743 22.76 927.284 22.648 927.872 22.648C928.432 22.648 928.922 22.7647 929.342 22.998C929.772 23.222 930.122 23.4833 930.392 23.782L929.762 24.538C929.52 24.2767 929.244 24.0667 928.936 23.908C928.628 23.7493 928.278 23.67 927.886 23.67C927.448 23.67 927.051 23.7587 926.696 23.936C926.342 24.104 926.038 24.3513 925.786 24.678C925.534 24.9953 925.338 25.3827 925.198 25.84C925.068 26.2973 925.002 26.8107 925.002 27.38C925.002 27.9587 925.068 28.4813 925.198 28.948C925.338 29.4053 925.53 29.7973 925.772 30.124C926.015 30.4507 926.309 30.7027 926.654 30.88C927.009 31.0573 927.406 31.146 927.844 31.146C928.292 31.146 928.684 31.0573 929.02 30.88C929.356 30.6933 929.674 30.4367 929.972 30.11L930.616 30.838C930.252 31.258 929.842 31.5847 929.384 31.818C928.927 32.0513 928.4 32.168 927.802 32.168ZM933.717 32V28.444L930.959 22.816H932.205L933.395 25.406C933.544 25.742 933.689 26.0733 933.829 26.4C933.969 26.7267 934.118 27.0627 934.277 27.408H934.333C934.491 27.0627 934.65 26.7267 934.809 26.4C934.967 26.0733 935.117 25.742 935.257 25.406L936.433 22.816H937.651L934.893 28.444V32H933.717ZM941.694 32V22.816H944.312C944.825 22.816 945.292 22.8627 945.712 22.956C946.141 23.0493 946.505 23.2033 946.804 23.418C947.102 23.6233 947.336 23.8987 947.504 24.244C947.672 24.5893 947.756 25.014 947.756 25.518C947.756 26.0033 947.672 26.4233 947.504 26.778C947.345 27.1327 947.116 27.4267 946.818 27.66C946.519 27.8933 946.16 28.0707 945.74 28.192C945.329 28.304 944.872 28.36 944.368 28.36H942.856V32H941.694ZM942.856 27.408H944.228C945.03 27.408 945.623 27.2587 946.006 26.96C946.398 26.652 946.594 26.1713 946.594 25.518C946.594 24.8553 946.388 24.398 945.978 24.146C945.576 23.8847 944.974 23.754 944.172 23.754H942.856V27.408ZM953.011 32.168C952.433 32.168 951.901 32.056 951.415 31.832C950.939 31.608 950.529 31.2907 950.183 30.88C949.838 30.46 949.567 29.956 949.371 29.368C949.185 28.7707 949.091 28.1033 949.091 27.366C949.091 26.6287 949.185 25.9707 949.371 25.392C949.567 24.804 949.838 24.3093 950.183 23.908C950.529 23.4973 950.939 23.1847 951.415 22.97C951.901 22.7553 952.433 22.648 953.011 22.648C953.59 22.648 954.117 22.76 954.593 22.984C955.079 23.1987 955.494 23.5113 955.839 23.922C956.194 24.3233 956.465 24.818 956.651 25.406C956.847 25.9847 956.945 26.638 956.945 27.366C956.945 28.1033 956.847 28.7707 956.651 29.368C956.465 29.956 956.194 30.46 955.839 30.88C955.494 31.2907 955.079 31.608 954.593 31.832C954.117 32.056 953.59 32.168 953.011 32.168ZM953.011 31.146C953.422 31.146 953.791 31.0573 954.117 30.88C954.453 30.7027 954.738 30.4507 954.971 30.124C955.214 29.788 955.401 29.3913 955.531 28.934C955.662 28.4673 955.727 27.9447 955.727 27.366C955.727 26.7967 955.662 26.2833 955.531 25.826C955.401 25.3687 955.214 24.9813 954.971 24.664C954.738 24.3467 954.453 24.104 954.117 23.936C953.791 23.7587 953.422 23.67 953.011 23.67C952.601 23.67 952.227 23.7587 951.891 23.936C951.565 24.104 951.28 24.3467 951.037 24.664C950.804 24.9813 950.622 25.3687 950.491 25.826C950.361 26.2833 950.295 26.7967 950.295 27.366C950.295 27.9447 950.361 28.4673 950.491 28.934C950.622 29.3913 950.804 29.788 951.037 30.124C951.28 30.4507 951.565 30.7027 951.891 30.88C952.227 31.0573 952.601 31.146 953.011 31.146ZM958.92 32V22.816H960.082V31.006H964.1V32H958.92ZM965.729 32V22.816H966.891V32H965.729ZM972.878 32.168C972.3 32.168 971.768 32.0607 971.282 31.846C970.797 31.6313 970.372 31.3233 970.008 30.922C969.654 30.5113 969.374 30.012 969.168 29.424C968.972 28.8267 968.874 28.1547 968.874 27.408C968.874 26.6707 968.977 26.008 969.182 25.42C969.388 24.832 969.672 24.3327 970.036 23.922C970.4 23.5113 970.83 23.1987 971.324 22.984C971.819 22.76 972.36 22.648 972.948 22.648C973.508 22.648 973.998 22.7647 974.418 22.998C974.848 23.222 975.198 23.4833 975.468 23.782L974.838 24.538C974.596 24.2767 974.32 24.0667 974.012 23.908C973.704 23.7493 973.354 23.67 972.962 23.67C972.524 23.67 972.127 23.7587 971.772 23.936C971.418 24.104 971.114 24.3513 970.862 24.678C970.61 24.9953 970.414 25.3827 970.274 25.84C970.144 26.2973 970.078 26.8107 970.078 27.38C970.078 27.9587 970.144 28.4813 970.274 28.948C970.414 29.4053 970.606 29.7973 970.848 30.124C971.091 30.4507 971.385 30.7027 971.73 30.88C972.085 31.0573 972.482 31.146 972.92 31.146C973.368 31.146 973.76 31.0573 974.096 30.88C974.432 30.6933 974.75 30.4367 975.048 30.11L975.692 30.838C975.328 31.258 974.918 31.5847 974.46 31.818C974.003 32.0513 973.476 32.168 972.878 32.168ZM978.793 32V28.444L976.035 22.816H977.281L978.471 25.406C978.62 25.742 978.765 26.0733 978.905 26.4C979.045 26.7267 979.194 27.0627 979.353 27.408H979.409C979.567 27.0627 979.726 26.7267 979.885 26.4C980.043 26.0733 980.193 25.742 980.333 25.406L981.509 22.816H982.727L979.969 28.444V32H978.793Z" fill="white"/>
<path d="M578.208 62.154C577.601 62.154 577.023 62.0467 576.472 61.832C575.921 61.608 575.441 61.2953 575.03 60.894C574.619 60.4833 574.293 59.9933 574.05 59.424C573.807 58.8453 573.686 58.1967 573.686 57.478C573.686 56.7687 573.807 56.1293 574.05 55.56C574.293 54.9907 574.619 54.5053 575.03 54.104C575.441 53.7027 575.921 53.3947 576.472 53.18C577.023 52.9653 577.601 52.858 578.208 52.858C578.815 52.858 579.389 52.9653 579.93 53.18C580.481 53.3947 580.961 53.7027 581.372 54.104C581.792 54.5053 582.123 54.9907 582.366 55.56C582.609 56.1293 582.73 56.7687 582.73 57.478C582.73 58.1967 582.609 58.8453 582.366 59.424C582.123 59.9933 581.792 60.4833 581.372 60.894C580.961 61.2953 580.481 61.608 579.93 61.832C579.389 62.0467 578.815 62.154 578.208 62.154ZM578.208 61.566C578.74 61.566 579.239 61.468 579.706 61.272C580.173 61.076 580.579 60.8007 580.924 60.446C581.279 60.082 581.559 59.6527 581.764 59.158C581.969 58.654 582.072 58.094 582.072 57.478C582.072 56.8713 581.969 56.3207 581.764 55.826C581.559 55.322 581.279 54.8927 580.924 54.538C580.579 54.1833 580.173 53.9127 579.706 53.726C579.239 53.53 578.74 53.432 578.208 53.432C577.676 53.432 577.177 53.53 576.71 53.726C576.243 53.9127 575.833 54.1833 575.478 54.538C575.133 54.8927 574.857 55.322 574.652 55.826C574.447 56.3207 574.344 56.8713 574.344 57.478C574.344 58.094 574.447 58.654 574.652 59.158C574.857 59.6527 575.133 60.082 575.478 60.446C575.833 60.8007 576.243 61.076 576.71 61.272C577.177 61.468 577.676 61.566 578.208 61.566ZM578.32 60.25C577.965 60.25 577.634 60.1893 577.326 60.068C577.018 59.9373 576.747 59.7553 576.514 59.522C576.281 59.2793 576.099 58.99 575.968 58.654C575.837 58.3087 575.772 57.9167 575.772 57.478C575.772 57.0767 575.842 56.7127 575.982 56.386C576.131 56.0593 576.323 55.7793 576.556 55.546C576.799 55.3127 577.074 55.1353 577.382 55.014C577.699 54.8927 578.026 54.832 578.362 54.832C578.754 54.832 579.085 54.9113 579.356 55.07C579.636 55.2193 579.888 55.406 580.112 55.63L579.622 56.176C579.435 55.9893 579.244 55.8493 579.048 55.756C578.861 55.6533 578.647 55.602 578.404 55.602C577.891 55.602 577.475 55.7793 577.158 56.134C576.85 56.4793 576.696 56.9273 576.696 57.478C576.696 58.094 576.845 58.584 577.144 58.948C577.452 59.3027 577.858 59.48 578.362 59.48C578.661 59.48 578.922 59.424 579.146 59.312C579.37 59.1907 579.585 59.0413 579.79 58.864L580.21 59.452C579.949 59.676 579.673 59.8673 579.384 60.026C579.095 60.1753 578.74 60.25 578.32 60.25ZM583.978 62V61.314C584.65 60.642 585.247 60.0353 585.77 59.494C586.293 58.9527 586.731 58.4533 587.086 57.996C587.441 57.5293 587.711 57.1047 587.898 56.722C588.085 56.33 588.178 55.952 588.178 55.588C588.178 55.0747 588.038 54.6547 587.758 54.328C587.478 54.0013 587.053 53.838 586.484 53.838C586.111 53.838 585.765 53.9453 585.448 54.16C585.131 54.3653 584.841 54.6173 584.58 54.916L583.922 54.258C584.295 53.8473 584.692 53.5207 585.112 53.278C585.532 53.026 586.036 52.9 586.624 52.9C587.455 52.9 588.108 53.1427 588.584 53.628C589.06 54.104 589.298 54.7387 589.298 55.532C589.298 55.952 589.205 56.3767 589.018 56.806C588.841 57.226 588.589 57.6647 588.262 58.122C587.945 58.57 587.562 59.0413 587.114 59.536C586.675 60.0213 586.19 60.5393 585.658 61.09C585.901 61.0713 586.153 61.0527 586.414 61.034C586.675 61.0153 586.923 61.006 587.156 61.006H589.746V62H583.978ZM593.863 62.168C592.958 62.168 592.253 61.7667 591.749 60.964C591.245 60.1613 590.993 59.0087 590.993 57.506C590.993 56.0033 591.245 54.86 591.749 54.076C592.253 53.292 592.958 52.9 593.863 52.9C594.759 52.9 595.459 53.292 595.963 54.076C596.467 54.86 596.719 56.0033 596.719 57.506C596.719 59.0087 596.467 60.1613 595.963 60.964C595.459 61.7667 594.759 62.168 593.863 62.168ZM593.863 61.244C594.124 61.244 594.358 61.174 594.563 61.034C594.778 60.8847 594.96 60.6607 595.109 60.362C595.268 60.054 595.389 59.6667 595.473 59.2C595.557 58.724 595.599 58.1593 595.599 57.506C595.599 56.8527 595.557 56.2927 595.473 55.826C595.389 55.3593 595.268 54.9813 595.109 54.692C594.96 54.3933 594.778 54.174 594.563 54.034C594.358 53.894 594.124 53.824 593.863 53.824C593.602 53.824 593.364 53.894 593.149 54.034C592.934 54.174 592.748 54.3933 592.589 54.692C592.44 54.9813 592.323 55.3593 592.239 55.826C592.155 56.2927 592.113 56.8527 592.113 57.506C592.113 58.8127 592.272 59.7647 592.589 60.362C592.916 60.95 593.34 61.244 593.863 61.244ZM597.896 62V61.314C598.568 60.642 599.165 60.0353 599.688 59.494C600.211 58.9527 600.649 58.4533 601.004 57.996C601.359 57.5293 601.629 57.1047 601.816 56.722C602.003 56.33 602.096 55.952 602.096 55.588C602.096 55.0747 601.956 54.6547 601.676 54.328C601.396 54.0013 600.971 53.838 600.402 53.838C600.029 53.838 599.683 53.9453 599.366 54.16C599.049 54.3653 598.759 54.6173 598.498 54.916L597.84 54.258C598.213 53.8473 598.61 53.5207 599.03 53.278C599.45 53.026 599.954 52.9 600.542 52.9C601.373 52.9 602.026 53.1427 602.502 53.628C602.978 54.104 603.216 54.7387 603.216 55.532C603.216 55.952 603.123 56.3767 602.936 56.806C602.759 57.226 602.507 57.6647 602.18 58.122C601.863 58.57 601.48 59.0413 601.032 59.536C600.593 60.0213 600.108 60.5393 599.576 61.09C599.819 61.0713 600.071 61.0527 600.332 61.034C600.593 61.0153 600.841 61.006 601.074 61.006H603.664V62H597.896ZM605.401 62V61.048H607.445V54.468H605.821V53.726C606.232 53.6513 606.586 53.5627 606.885 53.46C607.193 53.348 607.468 53.2173 607.711 53.068H608.593V61.048H610.441V62H605.401ZM615.317 62V52.816H616.521L619.839 58.584L620.833 60.488H620.889C620.861 60.0213 620.828 59.5407 620.791 59.046C620.763 58.542 620.749 58.0473 620.749 57.562V52.816H621.855V62H620.651L617.319 56.218L616.325 54.328H616.269C616.306 54.7947 616.339 55.2707 616.367 55.756C616.404 56.232 616.423 56.7127 616.423 57.198V62H615.317ZM624.381 64.926C624.222 64.926 624.078 64.912 623.947 64.884C623.816 64.8653 623.695 64.8327 623.583 64.786L623.807 63.876C623.882 63.8947 623.966 63.9133 624.059 63.932C624.152 63.96 624.241 63.974 624.325 63.974C624.717 63.974 625.034 63.834 625.277 63.554C625.529 63.2833 625.725 62.938 625.865 62.518L626.019 62.014L623.289 55.196H624.479L625.865 58.962C625.968 59.2607 626.075 59.578 626.187 59.914C626.308 60.2407 626.42 60.5627 626.523 60.88H626.579C626.682 60.572 626.78 60.25 626.873 59.914C626.966 59.578 627.06 59.2607 627.153 58.962L628.371 55.196H629.491L626.929 62.56C626.808 62.896 626.672 63.2087 626.523 63.498C626.374 63.7873 626.196 64.0347 625.991 64.24C625.786 64.4547 625.552 64.6227 625.291 64.744C625.03 64.8653 624.726 64.926 624.381 64.926ZM630.804 62V52.032H631.938V58.78H631.98L634.878 55.196H636.152L633.87 57.926L636.46 62H635.2L633.212 58.724L631.938 60.208V62H630.804ZM639.167 62.168C638.598 62.168 638.122 62 637.739 61.664C637.366 61.328 637.179 60.852 637.179 60.236C637.179 59.4893 637.511 58.92 638.173 58.528C638.836 58.1267 639.895 57.8467 641.351 57.688C641.351 57.4733 641.328 57.2633 641.281 57.058C641.244 56.8527 641.174 56.6707 641.071 56.512C640.969 56.3533 640.824 56.2273 640.637 56.134C640.46 56.0313 640.231 55.98 639.951 55.98C639.559 55.98 639.191 56.0547 638.845 56.204C638.5 56.3533 638.192 56.5213 637.921 56.708L637.473 55.91C637.791 55.7047 638.178 55.5087 638.635 55.322C639.093 55.126 639.597 55.028 640.147 55.028C640.978 55.028 641.58 55.2847 641.953 55.798C642.327 56.302 642.513 56.9787 642.513 57.828V62H641.561L641.463 61.188H641.421C641.095 61.4587 640.745 61.692 640.371 61.888C639.998 62.0747 639.597 62.168 639.167 62.168ZM639.503 61.244C639.83 61.244 640.138 61.1693 640.427 61.02C640.717 60.8613 641.025 60.6327 641.351 60.334V58.444C640.782 58.5187 640.301 58.6073 639.909 58.71C639.527 58.8127 639.214 58.934 638.971 59.074C638.738 59.214 638.565 59.3773 638.453 59.564C638.351 59.7413 638.299 59.9373 638.299 60.152C638.299 60.544 638.416 60.824 638.649 60.992C638.883 61.16 639.167 61.244 639.503 61.244ZM646.222 62.168C645.653 62.168 645.177 62 644.794 61.664C644.421 61.328 644.234 60.852 644.234 60.236C644.234 59.4893 644.565 58.92 645.228 58.528C645.891 58.1267 646.95 57.8467 648.406 57.688C648.406 57.4733 648.383 57.2633 648.336 57.058C648.299 56.8527 648.229 56.6707 648.126 56.512C648.023 56.3533 647.879 56.2273 647.692 56.134C647.515 56.0313 647.286 55.98 647.006 55.98C646.614 55.98 646.245 56.0547 645.9 56.204C645.555 56.3533 645.247 56.5213 644.976 56.708L644.528 55.91C644.845 55.7047 645.233 55.5087 645.69 55.322C646.147 55.126 646.651 55.028 647.202 55.028C648.033 55.028 648.635 55.2847 649.008 55.798C649.381 56.302 649.568 56.9787 649.568 57.828V62H648.616L648.518 61.188H648.476C648.149 61.4587 647.799 61.692 647.426 61.888C647.053 62.0747 646.651 62.168 646.222 62.168ZM646.558 61.244C646.885 61.244 647.193 61.1693 647.482 61.02C647.771 60.8613 648.079 60.6327 648.406 60.334V58.444C647.837 58.5187 647.356 58.6073 646.964 58.71C646.581 58.8127 646.269 58.934 646.026 59.074C645.793 59.214 645.62 59.3773 645.508 59.564C645.405 59.7413 645.354 59.9373 645.354 60.152C645.354 60.544 645.471 60.824 645.704 60.992C645.937 61.16 646.222 61.244 646.558 61.244ZM654.623 62V52.816H659.915V53.796H655.785V56.68H659.271V57.674H655.785V61.006H660.055V62H654.623ZM661.32 58.934V58.052H664.54V58.934H661.32ZM666.354 62V52.816H669.224C669.69 52.816 670.12 52.8627 670.512 52.956C670.913 53.04 671.254 53.1847 671.534 53.39C671.823 53.5953 672.047 53.8613 672.206 54.188C672.364 54.5147 672.444 54.916 672.444 55.392C672.444 56.1107 672.257 56.6847 671.884 57.114C671.51 57.5433 671.006 57.8373 670.372 57.996L672.71 62H671.394L669.182 58.122H667.516V62H666.354ZM667.516 57.17H669.056C669.774 57.17 670.325 57.0253 670.708 56.736C671.09 56.4373 671.282 55.9893 671.282 55.392C671.282 54.7853 671.09 54.3607 670.708 54.118C670.325 53.8753 669.774 53.754 669.056 53.754H667.516V57.17ZM676.834 62.168C676.376 62.168 675.947 62.0887 675.546 61.93C675.154 61.762 674.808 61.5287 674.51 61.23C674.22 60.922 673.992 60.5487 673.824 60.11C673.656 59.6713 673.572 59.172 673.572 58.612C673.572 58.052 673.656 57.5527 673.824 57.114C674.001 56.666 674.23 56.288 674.51 55.98C674.799 55.672 675.126 55.4387 675.49 55.28C675.854 55.112 676.232 55.028 676.624 55.028C677.053 55.028 677.436 55.1027 677.772 55.252C678.117 55.4013 678.402 55.616 678.626 55.896C678.859 56.176 679.036 56.512 679.158 56.904C679.279 57.296 679.34 57.7347 679.34 58.22C679.34 58.3413 679.335 58.4627 679.326 58.584C679.326 58.696 679.316 58.794 679.298 58.878H674.706C674.752 59.606 674.976 60.1847 675.378 60.614C675.788 61.034 676.32 61.244 676.974 61.244C677.3 61.244 677.599 61.1973 677.87 61.104C678.15 61.0013 678.416 60.8707 678.668 60.712L679.074 61.468C678.775 61.6547 678.444 61.818 678.08 61.958C677.716 62.098 677.3 62.168 676.834 62.168ZM674.692 58.052H678.332C678.332 57.3613 678.182 56.8387 677.884 56.484C677.594 56.12 677.184 55.938 676.652 55.938C676.409 55.938 676.176 55.9847 675.952 56.078C675.737 56.1713 675.541 56.3113 675.364 56.498C675.186 56.6753 675.037 56.8947 674.916 57.156C674.804 57.4173 674.729 57.716 674.692 58.052ZM683.026 62.168C682.662 62.168 682.354 62.112 682.102 62C681.86 61.888 681.659 61.734 681.5 61.538C681.351 61.342 681.244 61.104 681.178 60.824C681.113 60.544 681.08 60.236 681.08 59.9V56.134H680.072V55.266L681.136 55.196L681.276 53.292H682.242V55.196H684.076V56.134H682.242V59.914C682.242 60.334 682.317 60.6607 682.466 60.894C682.625 61.118 682.9 61.23 683.292 61.23C683.414 61.23 683.544 61.2113 683.684 61.174C683.824 61.1367 683.95 61.0947 684.062 61.048L684.286 61.916C684.1 61.9813 683.894 62.0373 683.67 62.084C683.456 62.14 683.241 62.168 683.026 62.168ZM686.882 62.168C686.313 62.168 685.837 62 685.454 61.664C685.081 61.328 684.894 60.852 684.894 60.236C684.894 59.4893 685.225 58.92 685.888 58.528C686.551 58.1267 687.61 57.8467 689.066 57.688C689.066 57.4733 689.043 57.2633 688.996 57.058C688.959 56.8527 688.889 56.6707 688.786 56.512C688.683 56.3533 688.539 56.2273 688.352 56.134C688.175 56.0313 687.946 55.98 687.666 55.98C687.274 55.98 686.905 56.0547 686.56 56.204C686.215 56.3533 685.907 56.5213 685.636 56.708L685.188 55.91C685.505 55.7047 685.893 55.5087 686.35 55.322C686.807 55.126 687.311 55.028 687.862 55.028C688.693 55.028 689.295 55.2847 689.668 55.798C690.041 56.302 690.228 56.9787 690.228 57.828V62H689.276L689.178 61.188H689.136C688.809 61.4587 688.459 61.692 688.086 61.888C687.713 62.0747 687.311 62.168 686.882 62.168ZM687.218 61.244C687.545 61.244 687.853 61.1693 688.142 61.02C688.431 60.8613 688.739 60.6327 689.066 60.334V58.444C688.497 58.5187 688.016 58.6073 687.624 58.71C687.241 58.8127 686.929 58.934 686.686 59.074C686.453 59.214 686.28 59.3773 686.168 59.564C686.065 59.7413 686.014 59.9373 686.014 60.152C686.014 60.544 686.131 60.824 686.364 60.992C686.597 61.16 686.882 61.244 687.218 61.244ZM692.369 62V55.196H693.517V62H692.369ZM692.957 53.796C692.733 53.796 692.541 53.726 692.383 53.586C692.233 53.446 692.159 53.2687 692.159 53.054C692.159 52.83 692.233 52.6527 692.383 52.522C692.541 52.382 692.733 52.312 692.957 52.312C693.181 52.312 693.367 52.382 693.517 52.522C693.675 52.6527 693.755 52.83 693.755 53.054C693.755 53.2687 693.675 53.446 693.517 53.586C693.367 53.726 693.181 53.796 692.957 53.796ZM697.032 62.168C696.593 62.168 696.281 62.0373 696.094 61.776C695.907 61.5147 695.814 61.132 695.814 60.628V52.032H696.962V60.712C696.962 60.8987 696.995 61.0293 697.06 61.104C697.125 61.1787 697.2 61.216 697.284 61.216C697.321 61.216 697.354 61.216 697.382 61.216C697.419 61.216 697.471 61.2067 697.536 61.188L697.69 62.056C697.615 62.0933 697.527 62.1213 697.424 62.14C697.321 62.1587 697.191 62.168 697.032 62.168ZM702.297 62V52.816H704.915C705.428 52.816 705.895 52.8627 706.315 52.956C706.744 53.0493 707.108 53.2033 707.407 53.418C707.706 53.6233 707.939 53.8987 708.107 54.244C708.275 54.5893 708.359 55.014 708.359 55.518C708.359 56.0033 708.275 56.4233 708.107 56.778C707.948 57.1327 707.72 57.4267 707.421 57.66C707.122 57.8933 706.763 58.0707 706.343 58.192C705.932 58.304 705.475 58.36 704.971 58.36H703.459V62H702.297ZM703.459 57.408H704.831C705.634 57.408 706.226 57.2587 706.609 56.96C707.001 56.652 707.197 56.1713 707.197 55.518C707.197 54.8553 706.992 54.398 706.581 54.146C706.18 53.8847 705.578 53.754 704.775 53.754H703.459V57.408ZM711.585 62L709.135 55.196H710.325L711.613 59.06C711.715 59.396 711.818 59.732 711.921 60.068C712.033 60.404 712.14 60.7353 712.243 61.062H712.299C712.401 60.7353 712.504 60.404 712.607 60.068C712.709 59.732 712.812 59.396 712.915 59.06L714.203 55.196H715.337L712.929 62H711.585ZM718.792 62.168C718.428 62.168 718.12 62.112 717.868 62C717.625 61.888 717.425 61.734 717.266 61.538C717.117 61.342 717.009 61.104 716.944 60.824C716.879 60.544 716.846 60.236 716.846 59.9V56.134H715.838V55.266L716.902 55.196L717.042 53.292H718.008V55.196H719.842V56.134H718.008V59.914C718.008 60.334 718.083 60.6607 718.232 60.894C718.391 61.118 718.666 61.23 719.058 61.23C719.179 61.23 719.31 61.2113 719.45 61.174C719.59 61.1367 719.716 61.0947 719.828 61.048L720.052 61.916C719.865 61.9813 719.66 62.0373 719.436 62.084C719.221 62.14 719.007 62.168 718.792 62.168ZM722.078 62.168C721.845 62.168 721.644 62.0887 721.476 61.93C721.317 61.762 721.238 61.552 721.238 61.3C721.238 61.0293 721.317 60.8147 721.476 60.656C721.644 60.488 721.845 60.404 722.078 60.404C722.302 60.404 722.493 60.488 722.652 60.656C722.82 60.8147 722.904 61.0293 722.904 61.3C722.904 61.552 722.82 61.762 722.652 61.93C722.493 62.0887 722.302 62.168 722.078 62.168ZM727.877 62V52.816H729.039V61.006H733.057V62H727.877ZM736.442 62.168C736.078 62.168 735.77 62.112 735.518 62C735.276 61.888 735.075 61.734 734.916 61.538C734.767 61.342 734.66 61.104 734.594 60.824C734.529 60.544 734.496 60.236 734.496 59.9V56.134H733.488V55.266L734.552 55.196L734.692 53.292H735.658V55.196H737.492V56.134H735.658V59.914C735.658 60.334 735.733 60.6607 735.882 60.894C736.041 61.118 736.316 61.23 736.708 61.23C736.83 61.23 736.96 61.2113 737.1 61.174C737.24 61.1367 737.366 61.0947 737.478 61.048L737.702 61.916C737.516 61.9813 737.31 62.0373 737.086 62.084C736.872 62.14 736.657 62.168 736.442 62.168ZM741.163 62.168C740.305 62.168 739.619 61.86 739.105 61.244C738.601 60.628 738.349 59.7507 738.349 58.612C738.349 58.0613 738.429 57.5667 738.587 57.128C738.755 56.68 738.975 56.302 739.245 55.994C739.516 55.686 739.829 55.448 740.183 55.28C740.538 55.112 740.911 55.028 741.303 55.028C741.695 55.028 742.036 55.098 742.325 55.238C742.615 55.378 742.909 55.5693 743.207 55.812L743.151 54.65V52.032H744.313V62H743.361L743.263 61.202H743.221C742.951 61.4633 742.638 61.692 742.283 61.888C741.938 62.0747 741.565 62.168 741.163 62.168ZM741.415 61.202C741.733 61.202 742.031 61.1273 742.311 60.978C742.591 60.8193 742.871 60.5813 743.151 60.264V56.708C742.862 56.4467 742.582 56.2647 742.311 56.162C742.05 56.05 741.779 55.994 741.499 55.994C741.229 55.994 740.972 56.0593 740.729 56.19C740.496 56.3113 740.291 56.4887 740.113 56.722C739.936 56.946 739.796 57.2167 739.693 57.534C739.591 57.8513 739.539 58.206 739.539 58.598C739.539 59.4193 739.703 60.0587 740.029 60.516C740.356 60.9733 740.818 61.202 741.415 61.202ZM747.207 62.168C746.974 62.168 746.773 62.0887 746.605 61.93C746.446 61.762 746.367 61.552 746.367 61.3C746.367 61.0293 746.446 60.8147 746.605 60.656C746.773 60.488 746.974 60.404 747.207 60.404C747.431 60.404 747.622 60.488 747.781 60.656C747.949 60.8147 748.033 61.0293 748.033 61.3C748.033 61.552 747.949 61.762 747.781 61.93C747.622 62.0887 747.431 62.168 747.207 62.168ZM754.588 56.862L754.154 58.262H756.912L756.478 56.862C756.31 56.3487 756.151 55.84 756.002 55.336C755.853 54.8227 755.703 54.3 755.554 53.768H755.498C755.358 54.3 755.213 54.8227 755.064 55.336C754.915 55.84 754.756 56.3487 754.588 56.862ZM751.788 62L754.896 52.816H756.212L759.32 62H758.074L757.206 59.2H753.86L752.978 62H751.788ZM761.727 62.168C761.289 62.168 760.976 62.0373 760.789 61.776C760.603 61.5147 760.509 61.132 760.509 60.628V52.032H761.657V60.712C761.657 60.8987 761.69 61.0293 761.755 61.104C761.821 61.1787 761.895 61.216 761.979 61.216C762.017 61.216 762.049 61.216 762.077 61.216C762.115 61.216 762.166 61.2067 762.231 61.188L762.385 62.056C762.311 62.0933 762.222 62.1213 762.119 62.14C762.017 62.1587 761.886 62.168 761.727 62.168ZM765.296 62.168C764.857 62.168 764.544 62.0373 764.358 61.776C764.171 61.5147 764.078 61.132 764.078 60.628V52.032H765.226V60.712C765.226 60.8987 765.258 61.0293 765.324 61.104C765.389 61.1787 765.464 61.216 765.548 61.216C765.585 61.216 765.618 61.216 765.646 61.216C765.683 61.216 765.734 61.2067 765.8 61.188L765.954 62.056C765.879 62.0933 765.79 62.1213 765.688 62.14C765.585 62.1587 765.454 62.168 765.296 62.168ZM770.561 62V52.816H773.431C773.897 52.816 774.327 52.8627 774.719 52.956C775.12 53.04 775.461 53.1847 775.741 53.39C776.03 53.5953 776.254 53.8613 776.413 54.188C776.571 54.5147 776.651 54.916 776.651 55.392C776.651 56.1107 776.464 56.6847 776.091 57.114C775.717 57.5433 775.213 57.8373 774.579 57.996L776.917 62H775.601L773.389 58.122H771.723V62H770.561ZM771.723 57.17H773.263C773.981 57.17 774.532 57.0253 774.915 56.736C775.297 56.4373 775.489 55.9893 775.489 55.392C775.489 54.7853 775.297 54.3607 774.915 54.118C774.532 53.8753 773.981 53.754 773.263 53.754H771.723V57.17ZM778.419 62V55.196H779.567V62H778.419ZM779.007 53.796C778.783 53.796 778.592 53.726 778.433 53.586C778.284 53.446 778.209 53.2687 778.209 53.054C778.209 52.83 778.284 52.6527 778.433 52.522C778.592 52.382 778.783 52.312 779.007 52.312C779.231 52.312 779.418 52.382 779.567 52.522C779.726 52.6527 779.805 52.83 779.805 53.054C779.805 53.2687 779.726 53.446 779.567 53.586C779.418 53.726 779.231 53.796 779.007 53.796ZM784.161 65.136C783.741 65.136 783.358 65.094 783.013 65.01C782.667 64.9353 782.369 64.8187 782.117 64.66C781.874 64.5013 781.683 64.31 781.543 64.086C781.412 63.862 781.347 63.6007 781.347 63.302C781.347 63.0127 781.435 62.7373 781.613 62.476C781.79 62.2147 782.033 61.9767 782.341 61.762V61.706C782.173 61.6033 782.028 61.4633 781.907 61.286C781.795 61.0993 781.739 60.8707 781.739 60.6C781.739 60.3107 781.818 60.0587 781.977 59.844C782.135 59.6293 782.303 59.4613 782.481 59.34V59.284C782.257 59.0973 782.051 58.85 781.865 58.542C781.687 58.2247 781.599 57.8607 781.599 57.45C781.599 57.0767 781.664 56.7407 781.795 56.442C781.935 56.1433 782.121 55.8913 782.355 55.686C782.588 55.4713 782.859 55.308 783.167 55.196C783.484 55.084 783.815 55.028 784.161 55.028C784.347 55.028 784.52 55.0467 784.679 55.084C784.847 55.112 784.996 55.1493 785.127 55.196H787.493V56.078H786.093C786.251 56.2367 786.382 56.4373 786.485 56.68C786.597 56.9227 786.653 57.1887 786.653 57.478C786.653 57.842 786.587 58.1733 786.457 58.472C786.326 58.7613 786.149 59.0087 785.925 59.214C785.701 59.41 785.435 59.564 785.127 59.676C784.828 59.788 784.506 59.844 784.161 59.844C783.993 59.844 783.82 59.8253 783.643 59.788C783.465 59.7413 783.297 59.6807 783.139 59.606C783.017 59.7087 782.915 59.8253 782.831 59.956C782.747 60.0773 782.705 60.2313 782.705 60.418C782.705 60.6327 782.789 60.81 782.957 60.95C783.125 61.09 783.442 61.16 783.909 61.16H785.225C786.018 61.16 786.611 61.2907 787.003 61.552C787.404 61.804 787.605 62.2147 787.605 62.784C787.605 63.1013 787.525 63.4 787.367 63.68C787.208 63.9693 786.979 64.2213 786.681 64.436C786.382 64.6507 786.018 64.8187 785.589 64.94C785.169 65.0707 784.693 65.136 784.161 65.136ZM784.161 59.074C784.357 59.074 784.539 59.0367 784.707 58.962C784.884 58.8873 785.038 58.78 785.169 58.64C785.309 58.5 785.416 58.332 785.491 58.136C785.565 57.9307 785.603 57.702 785.603 57.45C785.603 56.946 785.463 56.5587 785.183 56.288C784.903 56.008 784.562 55.868 784.161 55.868C783.759 55.868 783.419 56.008 783.139 56.288C782.859 56.5587 782.719 56.946 782.719 57.45C782.719 57.702 782.756 57.9307 782.831 58.136C782.905 58.332 783.008 58.5 783.139 58.64C783.279 58.78 783.433 58.8873 783.601 58.962C783.778 59.0367 783.965 59.074 784.161 59.074ZM784.329 64.338C784.655 64.338 784.949 64.296 785.211 64.212C785.481 64.1373 785.71 64.0347 785.897 63.904C786.083 63.7827 786.228 63.638 786.331 63.47C786.433 63.302 786.485 63.1293 786.485 62.952C786.485 62.6347 786.368 62.4153 786.135 62.294C785.901 62.1727 785.561 62.112 785.113 62.112H783.937C783.806 62.112 783.661 62.1027 783.503 62.084C783.353 62.0747 783.204 62.0467 783.055 62C782.812 62.1773 782.635 62.364 782.523 62.56C782.411 62.756 782.355 62.952 782.355 63.148C782.355 63.512 782.527 63.8013 782.873 64.016C783.227 64.2307 783.713 64.338 784.329 64.338ZM788.919 62V52.032H790.067V54.748L790.025 56.148C790.352 55.84 790.693 55.5787 791.047 55.364C791.402 55.14 791.817 55.028 792.293 55.028C793.012 55.028 793.535 55.252 793.861 55.7C794.197 56.148 794.365 56.8107 794.365 57.688V62H793.217V57.842C793.217 57.198 793.115 56.736 792.909 56.456C792.704 56.1667 792.377 56.022 791.929 56.022C791.575 56.022 791.262 56.1107 790.991 56.288C790.721 56.4653 790.413 56.7267 790.067 57.072V62H788.919ZM798.677 62.168C798.313 62.168 798.005 62.112 797.753 62C797.51 61.888 797.309 61.734 797.151 61.538C797.001 61.342 796.894 61.104 796.829 60.824C796.763 60.544 796.731 60.236 796.731 59.9V56.134H795.723V55.266L796.787 55.196L796.927 53.292H797.893V55.196H799.727V56.134H797.893V59.914C797.893 60.334 797.967 60.6607 798.117 60.894C798.275 61.118 798.551 61.23 798.943 61.23C799.064 61.23 799.195 61.2113 799.335 61.174C799.475 61.1367 799.601 61.0947 799.713 61.048L799.937 61.916C799.75 61.9813 799.545 62.0373 799.321 62.084C799.106 62.14 798.891 62.168 798.677 62.168ZM802.906 62.168C802.421 62.168 801.959 62.0793 801.52 61.902C801.082 61.7247 800.699 61.5007 800.372 61.23L800.946 60.46C801.245 60.7027 801.548 60.8987 801.856 61.048C802.174 61.1973 802.538 61.272 802.948 61.272C803.396 61.272 803.732 61.1693 803.956 60.964C804.18 60.7587 804.292 60.5067 804.292 60.208C804.292 60.0307 804.246 59.8767 804.152 59.746C804.059 59.6153 803.938 59.5033 803.788 59.41C803.648 59.3073 803.485 59.2187 803.298 59.144C803.112 59.0693 802.925 58.9947 802.738 58.92C802.496 58.836 802.253 58.7427 802.01 58.64C801.768 58.528 801.548 58.3973 801.352 58.248C801.166 58.0893 801.012 57.9073 800.89 57.702C800.769 57.4967 800.708 57.2493 800.708 56.96C800.708 56.6893 800.76 56.4373 800.862 56.204C800.974 55.9613 801.128 55.756 801.324 55.588C801.53 55.4107 801.777 55.2753 802.066 55.182C802.356 55.0793 802.682 55.028 803.046 55.028C803.476 55.028 803.868 55.1027 804.222 55.252C804.586 55.4013 804.899 55.5833 805.16 55.798L804.614 56.526C804.381 56.3487 804.138 56.204 803.886 56.092C803.634 55.98 803.359 55.924 803.06 55.924C802.631 55.924 802.314 56.022 802.108 56.218C801.912 56.414 801.814 56.6427 801.814 56.904C801.814 57.0627 801.856 57.2027 801.94 57.324C802.024 57.436 802.136 57.5387 802.276 57.632C802.416 57.716 802.575 57.7953 802.752 57.87C802.939 57.9353 803.13 58.0053 803.326 58.08C803.569 58.1733 803.812 58.2713 804.054 58.374C804.306 58.4767 804.53 58.6073 804.726 58.766C804.922 58.9153 805.081 59.102 805.202 59.326C805.333 59.55 805.398 59.8207 805.398 60.138C805.398 60.418 805.342 60.6793 805.23 60.922C805.128 61.1647 804.969 61.3793 804.754 61.566C804.549 61.7527 804.288 61.8973 803.97 62C803.662 62.112 803.308 62.168 802.906 62.168ZM809.908 62V52.816H812.778C813.245 52.816 813.674 52.8627 814.066 52.956C814.468 53.04 814.808 53.1847 815.088 53.39C815.378 53.5953 815.602 53.8613 815.76 54.188C815.919 54.5147 815.998 54.916 815.998 55.392C815.998 56.1107 815.812 56.6847 815.438 57.114C815.065 57.5433 814.561 57.8373 813.926 57.996L816.264 62H814.948L812.736 58.122H811.07V62H809.908ZM811.07 57.17H812.61C813.329 57.17 813.88 57.0253 814.262 56.736C814.645 56.4373 814.836 55.9893 814.836 55.392C814.836 54.7853 814.645 54.3607 814.262 54.118C813.88 53.8753 813.329 53.754 812.61 53.754H811.07V57.17ZM820.388 62.168C819.931 62.168 819.502 62.0887 819.1 61.93C818.708 61.762 818.363 61.5287 818.064 61.23C817.775 60.922 817.546 60.5487 817.378 60.11C817.21 59.6713 817.126 59.172 817.126 58.612C817.126 58.052 817.21 57.5527 817.378 57.114C817.556 56.666 817.784 56.288 818.064 55.98C818.354 55.672 818.68 55.4387 819.044 55.28C819.408 55.112 819.786 55.028 820.178 55.028C820.608 55.028 820.99 55.1027 821.326 55.252C821.672 55.4013 821.956 55.616 822.18 55.896C822.414 56.176 822.591 56.512 822.712 56.904C822.834 57.296 822.894 57.7347 822.894 58.22C822.894 58.3413 822.89 58.4627 822.88 58.584C822.88 58.696 822.871 58.794 822.852 58.878H818.26C818.307 59.606 818.531 60.1847 818.932 60.614C819.343 61.034 819.875 61.244 820.528 61.244C820.855 61.244 821.154 61.1973 821.424 61.104C821.704 61.0013 821.97 60.8707 822.222 60.712L822.628 61.468C822.33 61.6547 821.998 61.818 821.634 61.958C821.27 62.098 820.855 62.168 820.388 62.168ZM818.246 58.052H821.886C821.886 57.3613 821.737 56.8387 821.438 56.484C821.149 56.12 820.738 55.938 820.206 55.938C819.964 55.938 819.73 55.9847 819.506 56.078C819.292 56.1713 819.096 56.3113 818.918 56.498C818.741 56.6753 818.592 56.8947 818.47 57.156C818.358 57.4173 818.284 57.716 818.246 58.052ZM826.354 62.168C825.868 62.168 825.406 62.0793 824.968 61.902C824.529 61.7247 824.146 61.5007 823.82 61.23L824.394 60.46C824.692 60.7027 824.996 60.8987 825.304 61.048C825.621 61.1973 825.985 61.272 826.396 61.272C826.844 61.272 827.18 61.1693 827.404 60.964C827.628 60.7587 827.74 60.5067 827.74 60.208C827.74 60.0307 827.693 59.8767 827.6 59.746C827.506 59.6153 827.385 59.5033 827.236 59.41C827.096 59.3073 826.932 59.2187 826.746 59.144C826.559 59.0693 826.372 58.9947 826.186 58.92C825.943 58.836 825.7 58.7427 825.458 58.64C825.215 58.528 824.996 58.3973 824.8 58.248C824.613 58.0893 824.459 57.9073 824.338 57.702C824.216 57.4967 824.156 57.2493 824.156 56.96C824.156 56.6893 824.207 56.4373 824.31 56.204C824.422 55.9613 824.576 55.756 824.772 55.588C824.977 55.4107 825.224 55.2753 825.514 55.182C825.803 55.0793 826.13 55.028 826.494 55.028C826.923 55.028 827.315 55.1027 827.67 55.252C828.034 55.4013 828.346 55.5833 828.608 55.798L828.062 56.526C827.828 56.3487 827.586 56.204 827.334 56.092C827.082 55.98 826.806 55.924 826.508 55.924C826.078 55.924 825.761 56.022 825.556 56.218C825.36 56.414 825.262 56.6427 825.262 56.904C825.262 57.0627 825.304 57.2027 825.388 57.324C825.472 57.436 825.584 57.5387 825.724 57.632C825.864 57.716 826.022 57.7953 826.2 57.87C826.386 57.9353 826.578 58.0053 826.774 58.08C827.016 58.1733 827.259 58.2713 827.502 58.374C827.754 58.4767 827.978 58.6073 828.174 58.766C828.37 58.9153 828.528 59.102 828.65 59.326C828.78 59.55 828.846 59.8207 828.846 60.138C828.846 60.418 828.79 60.6793 828.678 60.922C828.575 61.1647 828.416 61.3793 828.202 61.566C827.996 61.7527 827.735 61.8973 827.418 62C827.11 62.112 826.755 62.168 826.354 62.168ZM833.199 62.168C832.742 62.168 832.312 62.0887 831.911 61.93C831.519 61.762 831.174 61.5287 830.875 61.23C830.586 60.922 830.357 60.5487 830.189 60.11C830.021 59.6713 829.937 59.172 829.937 58.612C829.937 58.052 830.021 57.5527 830.189 57.114C830.366 56.666 830.595 56.288 830.875 55.98C831.164 55.672 831.491 55.4387 831.855 55.28C832.219 55.112 832.597 55.028 832.989 55.028C833.418 55.028 833.801 55.1027 834.137 55.252C834.482 55.4013 834.767 55.616 834.991 55.896C835.224 56.176 835.402 56.512 835.523 56.904C835.644 57.296 835.705 57.7347 835.705 58.22C835.705 58.3413 835.7 58.4627 835.691 58.584C835.691 58.696 835.682 58.794 835.663 58.878H831.071C831.118 59.606 831.342 60.1847 831.743 60.614C832.154 61.034 832.686 61.244 833.339 61.244C833.666 61.244 833.964 61.1973 834.235 61.104C834.515 61.0013 834.781 60.8707 835.033 60.712L835.439 61.468C835.14 61.6547 834.809 61.818 834.445 61.958C834.081 62.098 833.666 62.168 833.199 62.168ZM831.057 58.052H834.697C834.697 57.3613 834.548 56.8387 834.249 56.484C833.96 56.12 833.549 55.938 833.017 55.938C832.774 55.938 832.541 55.9847 832.317 56.078C832.102 56.1713 831.906 56.3113 831.729 56.498C831.552 56.6753 831.402 56.8947 831.281 57.156C831.169 57.4173 831.094 57.716 831.057 58.052ZM837.386 62V55.196H838.338L838.436 56.428H838.478C838.712 55.9987 838.992 55.658 839.318 55.406C839.654 55.154 840.018 55.028 840.41 55.028C840.681 55.028 840.924 55.0747 841.138 55.168L840.914 56.176C840.802 56.1387 840.7 56.1107 840.606 56.092C840.513 56.0733 840.396 56.064 840.256 56.064C839.967 56.064 839.664 56.1807 839.346 56.414C839.038 56.6473 838.768 57.0533 838.534 57.632V62H837.386ZM844.065 62L841.615 55.196H842.805L844.093 59.06C844.196 59.396 844.299 59.732 844.401 60.068C844.513 60.404 844.621 60.7353 844.723 61.062H844.779C844.882 60.7353 844.985 60.404 845.087 60.068C845.19 59.732 845.293 59.396 845.395 59.06L846.683 55.196H847.817L845.409 62H844.065ZM851.834 62.168C851.376 62.168 850.947 62.0887 850.546 61.93C850.154 61.762 849.808 61.5287 849.51 61.23C849.22 60.922 848.992 60.5487 848.824 60.11C848.656 59.6713 848.572 59.172 848.572 58.612C848.572 58.052 848.656 57.5527 848.824 57.114C849.001 56.666 849.23 56.288 849.51 55.98C849.799 55.672 850.126 55.4387 850.49 55.28C850.854 55.112 851.232 55.028 851.624 55.028C852.053 55.028 852.436 55.1027 852.772 55.252C853.117 55.4013 853.402 55.616 853.626 55.896C853.859 56.176 854.036 56.512 854.158 56.904C854.279 57.296 854.34 57.7347 854.34 58.22C854.34 58.3413 854.335 58.4627 854.326 58.584C854.326 58.696 854.316 58.794 854.298 58.878H849.706C849.752 59.606 849.976 60.1847 850.378 60.614C850.788 61.034 851.32 61.244 851.974 61.244C852.3 61.244 852.599 61.1973 852.87 61.104C853.15 61.0013 853.416 60.8707 853.668 60.712L854.074 61.468C853.775 61.6547 853.444 61.818 853.08 61.958C852.716 62.098 852.3 62.168 851.834 62.168ZM849.692 58.052H853.332C853.332 57.3613 853.182 56.8387 852.884 56.484C852.594 56.12 852.184 55.938 851.652 55.938C851.409 55.938 851.176 55.9847 850.952 56.078C850.737 56.1713 850.541 56.3113 850.364 56.498C850.186 56.6753 850.037 56.8947 849.916 57.156C849.804 57.4173 849.729 57.716 849.692 58.052ZM858.345 62.168C857.486 62.168 856.8 61.86 856.287 61.244C855.783 60.628 855.531 59.7507 855.531 58.612C855.531 58.0613 855.61 57.5667 855.769 57.128C855.937 56.68 856.156 56.302 856.427 55.994C856.698 55.686 857.01 55.448 857.365 55.28C857.72 55.112 858.093 55.028 858.485 55.028C858.877 55.028 859.218 55.098 859.507 55.238C859.796 55.378 860.09 55.5693 860.389 55.812L860.333 54.65V52.032H861.495V62H860.543L860.445 61.202H860.403C860.132 61.4633 859.82 61.692 859.465 61.888C859.12 62.0747 858.746 62.168 858.345 62.168ZM858.597 61.202C858.914 61.202 859.213 61.1273 859.493 60.978C859.773 60.8193 860.053 60.5813 860.333 60.264V56.708C860.044 56.4467 859.764 56.2647 859.493 56.162C859.232 56.05 858.961 55.994 858.681 55.994C858.41 55.994 858.154 56.0593 857.911 56.19C857.678 56.3113 857.472 56.4887 857.295 56.722C857.118 56.946 856.978 57.2167 856.875 57.534C856.772 57.8513 856.721 58.206 856.721 58.598C856.721 59.4193 856.884 60.0587 857.211 60.516C857.538 60.9733 858 61.202 858.597 61.202ZM864.389 62.168C864.155 62.168 863.955 62.0887 863.787 61.93C863.628 61.762 863.549 61.552 863.549 61.3C863.549 61.0293 863.628 60.8147 863.787 60.656C863.955 60.488 864.155 60.404 864.389 60.404C864.613 60.404 864.804 60.488 864.963 60.656C865.131 60.8147 865.215 61.0293 865.215 61.3C865.215 61.552 865.131 61.762 864.963 61.93C864.804 62.0887 864.613 62.168 864.389 62.168Z" fill="white"/>
</svg>
