<svg width="64" height="20" viewBox="0 0 64 20" fill="none" xmlns="http://www.w3.org/2000/svg">
<path d="M18.7426 1.8309C19.4262 0.678898 17.2113 1.0029 17.2113 1.0029C16.4183 1.0029 16.0629 1.8429 15.8988 2.0829L13.5062 6.2229C13.0551 6.9069 11.5648 9.8349 11.0726 10.4829C11.0316 9.8229 11.0863 8.5029 11.1 8.1909C11.1957 6.9429 11.2914 5.9949 11.4418 4.8549C11.5512 3.9669 11.7699 2.9709 11.5648 2.0829C11.4281 1.5309 11.223 1.4949 10.3207 1.4109C9.37733 1.3269 8.73475 2.5269 8.42029 3.0909C7.27186 5.1789 5.9867 7.2189 4.96131 9.3549C4.66053 9.9789 4.29139 10.6029 3.97694 11.2149C3.60779 11.9589 3.266 12.6909 2.86951 13.4229C2.44569 14.1909 1.11951 16.7109 0.750373 17.5029C0.340216 18.3669 0.258185 19.0629 1.89881 19.0269C2.15858 19.0269 2.73279 19.0749 3.44373 18.4029C4.00428 17.8749 4.11365 17.3829 4.44178 16.6509C5.61756 14.0589 6.45154 12.3429 7.7367 9.7749C7.85975 9.5229 8.14686 8.7909 8.43397 8.2269C8.42029 9.0309 8.2699 9.9909 8.20154 10.6269C7.98279 12.9549 7.8324 15.1989 7.59998 17.5029C7.57264 17.8149 7.47693 18.1869 7.641 18.4749C7.80506 18.7629 8.21522 18.8349 8.54334 18.8709C9.85584 19.0149 9.99256 18.4389 10.4027 17.6469C10.7719 16.9389 10.9906 16.3629 11.3187 15.6429C12.3305 13.4229 13.3969 11.2269 14.5726 9.0669C14.8734 8.5149 15.1742 7.9749 15.5023 7.4349C16.1039 6.4389 16.5961 5.5029 17.2523 4.3989C17.7445 3.6069 18.223 2.7069 18.7426 1.8309ZM63.7914 8.0829C63.641 6.7509 61.5629 7.4229 60.3187 7.6269C59.8539 7.6989 58.4183 7.9389 56.764 8.2149C56.6957 6.7149 56.723 7.0149 56.7094 6.1029C56.6683 4.7829 56.5863 3.7509 56.5043 2.5869C56.4496 1.8549 56.3265 0.834898 54.8226 1.0269C53.0726 1.2429 52.7855 2.0109 52.3207 2.9349C51.1039 5.3469 51.1449 5.3589 49.764 8.0469C49.6547 8.2509 49.1488 9.3309 49.0668 9.5469C49.0121 9.5589 48.9027 9.5829 48.766 9.6189C48.2055 9.7269 47.5219 9.8589 46.7699 10.0029L46.7836 9.9429C46.9613 8.7189 47.1801 7.4949 47.3715 6.2709C47.5492 5.1549 47.7406 3.3309 47.891 2.2149C48.0551 1.0149 46.4691 1.0389 46.4691 1.0389C45.4984 0.990898 45.1293 1.2429 44.514 1.9389C43.4613 3.1389 42.1898 4.4349 41.0687 5.7549C39.0316 8.1429 37.5414 9.9429 35.6957 12.3429C35.1625 13.0389 34.3422 14.0949 33.6312 14.9229C33.1527 14.0949 32.7426 13.1829 32.3461 12.3429C31.7719 11.1429 31.348 10.3989 31.0746 9.6069C30.8285 8.9109 31.1293 8.8149 31.7172 8.4189C33.4125 7.2909 35.3265 6.5109 37.0629 5.4309C38.2933 4.6629 39.7699 3.8109 40.973 3.0189C40.973 3.0189 41.6703 2.6589 42.0531 2.2029C42.5316 1.6269 41.1781 1.0269 41.1781 1.0269C40.4125 0.918898 39.9887 1.0749 39.4555 1.2909C38.9086 1.5069 38.1976 1.9989 37.7328 2.3229C36.7074 3.0189 35.4086 3.8469 34.3969 4.5429C33.1527 5.3949 32.3051 5.9229 30.9379 6.6309L34.4105 2.0709C35.5453 0.786898 32.5375 0.426898 31.389 1.7829C30.3226 2.9949 29.598 4.0629 28.764 5.1669C26.7543 7.7949 25.1 10.5549 23.4457 13.4469C22.8168 14.5509 22.2015 15.7029 21.6273 16.8429C21.3539 17.3949 20.5472 18.6669 21.6547 18.7989C24.0199 19.0629 24.4027 18.0789 24.9359 16.8909C25.8109 14.9349 26.098 14.5749 26.6586 13.3629C27.2055 12.1869 27.6019 11.5149 28.2172 10.5069C28.2308 10.4949 28.4086 10.2429 28.4086 10.2429C28.518 10.4469 29.2426 12.5589 29.3383 12.7989C29.8305 13.9389 30.6918 16.6029 31.184 17.8149C31.5394 18.8229 31.6351 19.1109 33.1801 19.0749C33.9457 19.0629 34.2738 18.7989 34.7797 17.9589C35.2855 17.1189 37.473 13.5429 37.473 13.5429C38.1293 13.4469 39.0726 13.3029 39.6879 13.2069C39.7972 13.1949 40.0433 13.1469 40.3851 13.0869C40.6176 13.0629 40.809 13.0269 40.9594 12.9909C40.973 12.9909 40.973 12.9909 40.9867 12.9789C41.5883 12.8709 42.3539 12.7389 43.1879 12.5949C43.0375 13.2549 42.5726 14.7069 42.4769 15.0789C42.4769 15.0789 41.4652 18.5349 42.7777 18.7149C43.598 18.8229 44.0219 18.7029 44.0219 18.7029C45.5531 18.5469 45.5805 16.7349 45.5805 16.7349L46.4144 12.0429C47.016 11.9349 47.6176 11.8269 48.2055 11.7309L46.4008 17.0829C46.141 17.8389 45.9496 18.8109 47.4945 18.8109C48.7523 18.8709 48.8344 18.1749 48.8344 18.1749C48.8617 18.0669 49.8597 15.2469 50.1058 14.2389C50.2699 13.5909 50.8578 11.9229 51.0902 11.2509C51.7465 11.1429 52.2387 11.0589 52.4711 11.0229C52.7445 10.9869 53.2777 10.9029 53.975 10.8069C53.9613 11.4309 53.975 12.2949 53.9887 12.4149C54.139 14.3109 53.975 16.2789 54.4262 18.1389C54.4945 18.4389 54.6312 18.8229 55.0687 18.8229C55.5883 18.8229 55.7523 18.7749 56.2992 18.7389C57.8851 18.6189 57.598 17.2149 57.5023 16.3269C57.393 15.3429 57.2836 14.5149 57.1332 13.5309C57.0101 12.7269 56.9281 11.6709 56.9144 10.3989V10.3749C59.5121 9.9909 62.3148 9.5709 62.725 9.5109C63.3812 9.3549 63.9281 9.4029 63.7914 8.0829ZM43.4887 10.6029C43.4887 10.6149 43.475 10.6149 43.475 10.6269C41.6566 10.9749 39.9476 11.3109 38.9906 11.5029C39.9476 10.0989 44.1586 4.9869 44.8012 4.3869C44.4457 5.9709 43.8715 8.9109 43.4887 10.6029ZM53.9887 8.5869V8.6709C53.1137 8.8149 52.2933 8.9589 51.6371 9.0669C52.4711 7.1709 53.3461 4.8429 53.8656 3.6669C53.8246 4.5429 54.0297 7.7229 53.9887 8.5869ZM28.4906 2.9349C28.764 2.4909 29.3793 1.6149 28.6137 1.2789C28.1625 1.0869 27.5609 0.966898 27.0961 1.1709C26.7133 1.3509 26.4262 1.6989 26.2347 2.0229L23.309 6.0669C22.8305 6.6429 22.3793 7.3629 21.4086 7.4589C20.766 7.5189 20.3012 7.2789 20.3148 6.7749C20.3285 6.2589 20.6703 5.5749 20.9301 5.1309C21.6957 3.8589 21.7914 3.4269 22.5297 2.1669C23.2406 0.954898 20.9164 0.678898 20.3422 1.5549C19.932 2.1789 19.139 3.3549 18.9613 3.7509C18.6332 4.4709 16.1722 7.9029 17.2387 9.2589C18.6058 10.7949 22.2426 8.3709 20.3832 11.1669C18.8793 13.4109 17.9359 14.6949 16.6234 16.7709C16.3363 17.2149 15.9808 17.6589 15.8851 18.1869C15.7484 18.9309 16.9105 18.9189 17.4164 18.8949C18.3051 18.8349 18.7289 18.4749 19.0844 17.7669C19.2758 17.3949 19.5355 16.9389 19.7269 16.5669C21.4496 13.2669 23.2816 10.3989 25.5512 7.2069C26.6312 5.6949 27.5883 4.3989 28.4906 2.9349Z" fill="#FC2779"/>
</svg>
