<svg width="14" height="13" viewBox="0 0 14 13" fill="none" xmlns="http://www.w3.org/2000/svg">
<path fill-rule="evenodd" clip-rule="evenodd" d="M6.85951 10.1663L3.02617 12.9129C2.98057 12.9477 2.92499 12.9667 2.86769 12.9674C2.81037 12.9681 2.75437 12.9503 2.70799 12.9166C2.6616 12.8829 2.6273 12.8352 2.61016 12.7805C2.59302 12.7258 2.59396 12.6671 2.61284 12.6129L4.03951 8.11959L0.246174 5.31959C0.202941 5.28519 0.171154 5.23846 0.155007 5.18563C0.138854 5.13279 0.139094 5.07629 0.155701 5.02359C0.172307 4.97089 0.204487 4.92446 0.248014 4.89042C0.291541 4.85638 0.344361 4.83633 0.399507 4.83292L5.11284 4.79959L6.60617 0.326253C6.62371 0.272899 6.65764 0.226446 6.70311 0.193513C6.74864 0.160579 6.80337 0.142853 6.85951 0.142853C6.91564 0.142853 6.97037 0.160579 7.01591 0.193513C7.06137 0.226446 7.09531 0.272899 7.11284 0.326253L8.60617 4.79959L13.3195 4.83292C13.3746 4.83633 13.4275 4.85638 13.471 4.89042C13.5145 4.92446 13.5467 4.97089 13.5633 5.02359C13.5799 5.07629 13.5802 5.13279 13.564 5.18563C13.5478 5.23846 13.516 5.28519 13.4728 5.31959L9.67951 8.11959L11.1062 12.6129C11.125 12.6671 11.126 12.7258 11.1088 12.7805C11.0917 12.8352 11.0574 12.8829 11.011 12.9166C10.9646 12.9503 10.9086 12.9681 10.8513 12.9674C10.794 12.9667 10.7384 12.9477 10.6928 12.9129L6.85951 10.1663Z" fill="#00141F"/>
</svg>
