<svg width="14" height="14" viewBox="0 0 14 14" fill="none" xmlns="http://www.w3.org/2000/svg">
<path d="M6.99989 3.16666L7.79322 5.55333L8.01989 6.22001H8.73322H11.2532L9.25322 7.71335L8.67989 8.14001L8.89322 8.80668L9.65322 11.2067L7.60656 9.74001L6.99989 9.37335L6.41989 9.78668L4.37323 11.2533L5.13323 8.85335L5.34656 8.18668L4.77323 7.76001L2.77323 6.26668H5.28656H6.00656L6.23322 5.59999L6.99989 3.16666ZM6.99989 0.579993C6.94389 0.578719 6.88902 0.595553 6.84336 0.627979C6.79776 0.660413 6.76376 0.706713 6.74656 0.759993L5.25323 5.23333L0.539895 5.27333C0.484488 5.27469 0.430888 5.29329 0.386535 5.32652C0.342188 5.35975 0.309295 5.40598 0.292428 5.45877C0.275568 5.51156 0.275568 5.5683 0.292442 5.62109C0.309308 5.67388 0.342208 5.72008 0.386562 5.75335L4.1799 8.55335L2.75323 13.0467C2.74051 13.0871 2.7376 13.1299 2.74474 13.1717C2.75188 13.2134 2.76885 13.2528 2.79426 13.2867C2.81967 13.3206 2.85278 13.3479 2.89086 13.3665C2.92894 13.385 2.97088 13.3942 3.01323 13.3933C3.06774 13.3927 3.12093 13.3765 3.16656 13.3467L6.99989 10.6067L10.8332 13.3467C10.8789 13.3765 10.932 13.3927 10.9866 13.3933C11.0289 13.3942 11.0708 13.385 11.109 13.3665C11.147 13.3479 11.1801 13.3206 11.2056 13.2867C11.231 13.2528 11.2479 13.2134 11.255 13.1717C11.2622 13.1299 11.2593 13.0871 11.2466 13.0467L9.81989 8.55335L13.6132 5.75335C13.6576 5.72008 13.6905 5.67388 13.7074 5.62109C13.7242 5.5683 13.7242 5.51156 13.7074 5.45877C13.6905 5.40598 13.6576 5.35975 13.6132 5.32652C13.5689 5.29329 13.5153 5.27469 13.4599 5.27333L8.74656 5.23333L7.25322 0.759993C7.23602 0.706713 7.20209 0.660413 7.15642 0.627979C7.11076 0.595553 7.05589 0.578719 6.99989 0.579993Z" fill="#00141F"/>
</svg>
