<svg width="133" height="33" viewBox="0 0 133 33" fill="none" xmlns="http://www.w3.org/2000/svg">
<g filter="url(#filter0_d_656_207249)">
<rect width="133" height="30" fill="white"/>
<path d="M7.26 18V8.816H10.13C10.5967 8.816 11.026 8.86267 11.418 8.956C11.8193 9.04 12.16 9.18467 12.44 9.39C12.7293 9.59533 12.9533 9.86133 13.112 10.188C13.2707 10.5147 13.35 10.916 13.35 11.392C13.35 12.1107 13.1633 12.6847 12.79 13.114C12.4167 13.5433 11.9127 13.8373 11.278 13.996L13.616 18H12.3L10.088 14.122H8.422V18H7.26ZM8.422 13.17H9.962C10.6807 13.17 11.2313 13.0253 11.614 12.736C11.9967 12.4373 12.188 11.9893 12.188 11.392C12.188 10.7853 11.9967 10.3607 11.614 10.118C11.2313 9.87533 10.6807 9.754 9.962 9.754H8.422V13.17ZM16.758 12.862L16.324 14.262H19.082L18.648 12.862C18.48 12.3487 18.3213 11.84 18.172 11.336C18.0227 10.8227 17.8733 10.3 17.724 9.768H17.668C17.528 10.3 17.3833 10.8227 17.234 11.336C17.0847 11.84 16.926 12.3487 16.758 12.862ZM13.958 18L17.066 8.816H18.382L21.49 18H20.244L19.376 15.2H16.03L15.148 18H13.958ZM23.9296 18V9.796H21.1576V8.816H27.8776V9.796H25.1056V18H23.9296ZM29.5315 18V8.816H30.6935V18H29.5315ZM33.2092 18V8.816H34.4132L37.7312 14.584L38.7252 16.488H38.7812C38.7532 16.0213 38.7206 15.5407 38.6832 15.046C38.6552 14.542 38.6412 14.0473 38.6412 13.562V8.816H39.7472V18H38.5432L35.2112 12.218L34.2172 10.328H34.1612C34.1986 10.7947 34.2312 11.2707 34.2592 11.756C34.2966 12.232 34.3152 12.7127 34.3152 13.198V18H33.2092ZM45.8857 18.168C45.279 18.168 44.719 18.0607 44.2057 17.846C43.7017 17.6313 43.2677 17.3233 42.9037 16.922C42.5397 16.5113 42.255 16.012 42.0497 15.424C41.8443 14.8267 41.7417 14.1547 41.7417 13.408C41.7417 12.6707 41.8443 12.008 42.0497 11.42C42.2643 10.832 42.5583 10.3327 42.9317 9.922C43.305 9.51133 43.7483 9.19867 44.2617 8.984C44.7843 8.76 45.349 8.648 45.9557 8.648C46.273 8.648 46.5623 8.68067 46.8237 8.746C47.0943 8.81133 47.337 8.9 47.5517 9.012C47.7757 9.11467 47.9717 9.236 48.1397 9.376C48.317 9.50667 48.471 9.642 48.6017 9.782L47.9577 10.538C47.7243 10.2953 47.4537 10.09 47.1457 9.922C46.8377 9.754 46.4503 9.67 45.9837 9.67C45.517 9.67 45.097 9.75867 44.7237 9.936C44.3503 10.104 44.033 10.3513 43.7717 10.678C43.5103 10.9953 43.305 11.3827 43.1557 11.84C43.0157 12.2973 42.9457 12.8107 42.9457 13.38C42.9457 13.9587 43.011 14.4813 43.1417 14.948C43.2817 15.4053 43.4777 15.7973 43.7297 16.124C43.991 16.4507 44.3083 16.7027 44.6817 16.88C45.0643 17.0573 45.503 17.146 45.9977 17.146C46.3243 17.146 46.6323 17.0993 46.9217 17.006C47.2203 16.9033 47.463 16.768 47.6497 16.6V14.206H45.7037V13.24H48.7137V17.104C48.415 17.412 48.023 17.6687 47.5377 17.874C47.0523 18.07 46.5017 18.168 45.8857 18.168ZM53.4623 18.168C52.8183 18.168 52.221 18.0467 51.6703 17.804C51.1196 17.5613 50.6436 17.23 50.2423 16.81L50.9423 15.998C51.269 16.3433 51.6516 16.6233 52.0903 16.838C52.5383 17.0433 53.0003 17.146 53.4763 17.146C54.083 17.146 54.5543 17.0107 54.8903 16.74C55.2263 16.46 55.3943 16.096 55.3943 15.648C55.3943 15.4147 55.3523 15.2187 55.2683 15.06C55.1936 14.892 55.0863 14.752 54.9463 14.64C54.8156 14.5187 54.657 14.4113 54.4703 14.318C54.2836 14.2247 54.083 14.1267 53.8683 14.024L52.5523 13.45C52.3376 13.3567 52.1183 13.2447 51.8943 13.114C51.6703 12.9833 51.4696 12.8247 51.2923 12.638C51.115 12.4513 50.9703 12.232 50.8583 11.98C50.7463 11.7187 50.6903 11.42 50.6903 11.084C50.6903 10.7387 50.7603 10.4167 50.9003 10.118C51.0496 9.81933 51.2503 9.56267 51.5023 9.348C51.7636 9.124 52.067 8.95133 52.4123 8.83C52.767 8.70867 53.1543 8.648 53.5743 8.648C54.125 8.648 54.6336 8.75533 55.1003 8.97C55.567 9.17533 55.9636 9.446 56.2903 9.782L55.6603 10.538C55.3803 10.2673 55.0676 10.0573 54.7223 9.908C54.3863 9.74933 54.0036 9.67 53.5743 9.67C53.061 9.67 52.6456 9.79133 52.3283 10.034C52.0203 10.2673 51.8663 10.594 51.8663 11.014C51.8663 11.238 51.9083 11.4293 51.9923 11.588C52.0856 11.7373 52.207 11.8727 52.3563 11.994C52.5056 12.106 52.669 12.2087 52.8463 12.302C53.0236 12.386 53.2056 12.4653 53.3923 12.54L54.6943 13.1C54.9556 13.212 55.203 13.3427 55.4363 13.492C55.6696 13.632 55.8703 13.8 56.0383 13.996C56.2063 14.1827 56.337 14.4067 56.4303 14.668C56.533 14.92 56.5843 15.214 56.5843 15.55C56.5843 15.914 56.5096 16.2547 56.3603 16.572C56.2203 16.8893 56.015 17.1693 55.7443 17.412C55.4736 17.6453 55.147 17.832 54.7643 17.972C54.3816 18.1027 53.9476 18.168 53.4623 18.168ZM63.1835 18.168C62.7635 18.168 62.3809 18.1073 62.0355 17.986C61.6995 17.8553 61.4055 17.678 61.1535 17.454C60.9109 17.23 60.7195 16.964 60.5795 16.656C60.4489 16.3387 60.3835 15.9933 60.3835 15.62C60.3835 15.312 60.4302 15.032 60.5235 14.78C60.6262 14.528 60.7615 14.2947 60.9295 14.08C61.0975 13.8653 61.2889 13.6693 61.5035 13.492C61.7275 13.3053 61.9562 13.1327 62.1895 12.974C62.0029 12.5913 61.8535 12.2227 61.7415 11.868C61.6389 11.504 61.5875 11.154 61.5875 10.818C61.5875 10.51 61.6389 10.2253 61.7415 9.964C61.8442 9.70267 61.9889 9.474 62.1755 9.278C62.3622 9.082 62.5862 8.928 62.8475 8.816C63.1089 8.704 63.3982 8.648 63.7155 8.648C64.2849 8.648 64.7282 8.816 65.0455 9.152C65.3629 9.488 65.5215 9.92667 65.5215 10.468C65.5215 10.7667 65.4609 11.042 65.3395 11.294C65.2182 11.546 65.0595 11.784 64.8635 12.008C64.6675 12.2227 64.4435 12.428 64.1915 12.624C63.9489 12.8107 63.7015 12.9973 63.4495 13.184C63.7482 13.66 64.0982 14.1173 64.4995 14.556C64.9102 14.9947 65.3349 15.396 65.7735 15.76C66.0535 15.3773 66.3009 14.962 66.5155 14.514C66.7395 14.066 66.9215 13.576 67.0615 13.044H68.1395C67.9529 13.6507 67.7289 14.2293 67.4675 14.78C67.2062 15.3307 66.8935 15.8487 66.5295 16.334C66.8469 16.5487 67.1502 16.7307 67.4395 16.88C67.7289 17.0293 67.9995 17.1413 68.2515 17.216L67.9435 18.168C67.6169 18.0747 67.2762 17.944 66.9215 17.776C66.5669 17.5987 66.2029 17.3793 65.8295 17.118C65.4749 17.4353 65.0782 17.692 64.6395 17.888C64.2102 18.0747 63.7249 18.168 63.1835 18.168ZM62.5815 10.804C62.5815 11.056 62.6189 11.3173 62.6935 11.588C62.7775 11.8587 62.8849 12.134 63.0155 12.414C63.2209 12.274 63.4169 12.134 63.6035 11.994C63.7995 11.8447 63.9675 11.6953 64.1075 11.546C64.2569 11.3873 64.3735 11.224 64.4575 11.056C64.5415 10.8787 64.5835 10.6873 64.5835 10.482C64.5835 10.2113 64.5135 9.978 64.3735 9.782C64.2429 9.57667 64.0235 9.474 63.7155 9.474C63.3702 9.474 63.0949 9.6 62.8895 9.852C62.6842 10.104 62.5815 10.4213 62.5815 10.804ZM63.3095 17.244C63.6269 17.244 63.9302 17.1787 64.2195 17.048C64.5089 16.9173 64.7889 16.7353 65.0595 16.502C64.6115 16.11 64.1775 15.6853 63.7575 15.228C63.3469 14.7613 62.9782 14.276 62.6515 13.772C62.3249 14.0333 62.0495 14.3087 61.8255 14.598C61.6109 14.878 61.5035 15.1953 61.5035 15.55C61.5035 15.802 61.5502 16.0353 61.6435 16.25C61.7369 16.4553 61.8629 16.6327 62.0215 16.782C62.1895 16.9313 62.3809 17.048 62.5955 17.132C62.8195 17.2067 63.0575 17.244 63.3095 17.244ZM72.5295 18V8.816H75.3995C75.8662 8.816 76.2955 8.86267 76.6875 8.956C77.0889 9.04 77.4295 9.18467 77.7095 9.39C77.9989 9.59533 78.2229 9.86133 78.3815 10.188C78.5402 10.5147 78.6195 10.916 78.6195 11.392C78.6195 12.1107 78.4329 12.6847 78.0595 13.114C77.6862 13.5433 77.1822 13.8373 76.5475 13.996L78.8855 18H77.5695L75.3575 14.122H73.6915V18H72.5295ZM73.6915 13.17H75.2315C75.9502 13.17 76.5009 13.0253 76.8835 12.736C77.2662 12.4373 77.4575 11.9893 77.4575 11.392C77.4575 10.7853 77.2662 10.3607 76.8835 10.118C76.5009 9.87533 75.9502 9.754 75.2315 9.754H73.6915V13.17ZM80.5002 18V8.816H85.7922V9.796H81.6622V12.68H85.1482V13.674H81.6622V17.006H85.9322V18H80.5002ZM89.563 18L86.623 8.816H87.869L89.339 13.772C89.507 14.3227 89.6517 14.8313 89.773 15.298C89.9037 15.7647 90.0577 16.2687 90.235 16.81H90.291C90.459 16.2687 90.6084 15.7647 90.739 15.298C90.8697 14.8313 91.0144 14.3227 91.173 13.772L92.643 8.816H93.833L90.921 18H89.563ZM95.0881 18V8.816H96.2501V18H95.0881ZM98.7659 18V8.816H104.058V9.796H99.9279V12.68H103.414V13.674H99.9279V17.006H104.198V18H98.7659ZM107.157 18L105.211 8.816H106.415L107.381 13.814C107.465 14.318 107.553 14.8127 107.647 15.298C107.74 15.7833 107.829 16.278 107.913 16.782H107.969C108.071 16.278 108.179 15.7833 108.291 15.298C108.403 14.8033 108.51 14.3087 108.613 13.814L109.887 8.816H110.951L112.225 13.814C112.337 14.2993 112.449 14.7893 112.561 15.284C112.673 15.7787 112.785 16.278 112.897 16.782H112.953C113.037 16.278 113.121 15.7833 113.205 15.298C113.289 14.8033 113.377 14.3087 113.471 13.814L114.437 8.816H115.557L113.653 18H112.253L110.867 12.47C110.783 12.1153 110.703 11.77 110.629 11.434C110.563 11.0887 110.493 10.7387 110.419 10.384H110.363C110.288 10.7387 110.209 11.0887 110.125 11.434C110.05 11.77 109.975 12.1153 109.901 12.47L108.543 18H107.157ZM119.621 18.168C118.977 18.168 118.379 18.0467 117.829 17.804C117.278 17.5613 116.802 17.23 116.401 16.81L117.101 15.998C117.427 16.3433 117.81 16.6233 118.249 16.838C118.697 17.0433 119.159 17.146 119.635 17.146C120.241 17.146 120.713 17.0107 121.049 16.74C121.385 16.46 121.553 16.096 121.553 15.648C121.553 15.4147 121.511 15.2187 121.427 15.06C121.352 14.892 121.245 14.752 121.105 14.64C120.974 14.5187 120.815 14.4113 120.629 14.318C120.442 14.2247 120.241 14.1267 120.027 14.024L118.711 13.45C118.496 13.3567 118.277 13.2447 118.053 13.114C117.829 12.9833 117.628 12.8247 117.451 12.638C117.273 12.4513 117.129 12.232 117.017 11.98C116.905 11.7187 116.849 11.42 116.849 11.084C116.849 10.7387 116.919 10.4167 117.059 10.118C117.208 9.81933 117.409 9.56267 117.66 9.348C117.922 9.124 118.225 8.95133 118.571 8.83C118.925 8.70867 119.313 8.648 119.733 8.648C120.283 8.648 120.792 8.75533 121.259 8.97C121.725 9.17533 122.122 9.446 122.449 9.782L121.819 10.538C121.539 10.2673 121.226 10.0573 120.881 9.908C120.545 9.74933 120.162 9.67 119.733 9.67C119.219 9.67 118.804 9.79133 118.487 10.034C118.179 10.2673 118.025 10.594 118.025 11.014C118.025 11.238 118.067 11.4293 118.151 11.588C118.244 11.7373 118.365 11.8727 118.515 11.994C118.664 12.106 118.827 12.2087 119.005 12.302C119.182 12.386 119.364 12.4653 119.551 12.54L120.853 13.1C121.114 13.212 121.361 13.3427 121.595 13.492C121.828 13.632 122.029 13.8 122.197 13.996C122.365 14.1827 122.495 14.4067 122.589 14.668C122.691 14.92 122.743 15.214 122.743 15.55C122.743 15.914 122.668 16.2547 122.519 16.572C122.379 16.8893 122.173 17.1693 121.903 17.412C121.632 17.6453 121.305 17.832 120.923 17.972C120.54 18.1027 120.106 18.168 119.621 18.168Z" fill="#FC2779"/>
</g>
<defs>
<filter id="filter0_d_656_207249" x="0" y="0" width="133" height="33" filterUnits="userSpaceOnUse" color-interpolation-filters="sRGB">
<feFlood flood-opacity="0" result="BackgroundImageFix"/>
<feColorMatrix in="SourceAlpha" type="matrix" values="0 0 0 0 0 0 0 0 0 0 0 0 0 0 0 0 0 0 127 0" result="hardAlpha"/>
<feOffset dy="3"/>
<feComposite in2="hardAlpha" operator="out"/>
<feColorMatrix type="matrix" values="0 0 0 0 0.988235 0 0 0 0 0.152941 0 0 0 0 0.47451 0 0 0 1 0"/>
<feBlend mode="normal" in2="BackgroundImageFix" result="effect1_dropShadow_656_207249"/>
<feBlend mode="normal" in="SourceGraphic" in2="effect1_dropShadow_656_207249" result="shape"/>
</filter>
</defs>
</svg>
