<svg width="16" height="11" viewBox="0 0 16 11" fill="none" xmlns="http://www.w3.org/2000/svg">
<path fill-rule="evenodd" clip-rule="evenodd" d="M8.00396 6.99869L1.66961 0.132647C1.59767 0.0538515 1.4999 0.00920445 1.3977 0.00848242C1.2955 0.00776038 1.19721 0.0510224 1.12434 0.128795L0.111258 1.2296C0.0399561 1.30887 0.000327013 1.41546 0.000966066 1.52624C0.00160512 1.63702 0.0424608 1.74307 0.114672 1.82138L7.54714 9.88036C7.60603 9.94464 7.68242 9.98662 7.76501 10.0001C7.8476 10.0135 7.93199 9.99778 8.00566 9.95511C8.07939 9.99769 8.16379 10.0134 8.24637 9.99981C8.32894 9.98625 8.40529 9.94418 8.4641 9.87983L15.8873 1.81394C16.0362 1.65132 16.0406 1.38376 15.89 1.22215L14.8756 0.12252C14.8028 0.0447217 14.7045 0.00142349 14.6023 0.00210717C14.5001 0.00279085 14.4023 0.047402 14.3304 0.126168L8.00396 6.99869Z" fill="#FC2779"/>
</svg>
