<svg width="69" height="22" viewBox="0 0 69 22" fill="none" xmlns="http://www.w3.org/2000/svg">
<path d="M11.6562 0L62.125 0.6875L67.9688 3.4375L68.5 5.5L67.4375 7.5625L67.9688 8.25L66.9062 9.625L67.4375 10.3125L66.375 11.6875V13.0625L64.25 13.75L63.7188 15.8125H62.125L62.6563 17.1875L61.0625 17.875L62.125 19.25L59.4688 19.9375V22H6.34378L6.87503 20.625L3.15625 19.25L5.28125 17.875L6.34378 15.8125L0.5 14.4375L6.87503 13.75L5.8125 11.6875V9.625L7.9375 8.25L6.87503 6.1875L8.46875 4.8125L7.9375 2.75L10.5937 2.0625L11.6562 0Z" fill="url(#paint0_linear_1174_8960)"/>
<defs>
<linearGradient id="paint0_linear_1174_8960" x1="68.5" y1="12.4348" x2="0.5" y2="12.4348" gradientUnits="userSpaceOnUse">
<stop stop-color="#A90880"/>
<stop offset="0.213542" stop-color="#A90880"/>
<stop offset="1" stop-color="#F62579"/>
</linearGradient>
</defs>
</svg>
