<svg width="12" height="20" viewBox="0 0 12 20" fill="none" xmlns="http://www.w3.org/2000/svg">
<path d="M1.38501 0C1.01817 0.00157877 0.666822 0.145792 0.40743 0.401251C0.148038 0.656709 0.00160308 1.00273 0 1.364L0 18.636C0.00160308 18.9973 0.148038 19.3433 0.40743 19.5987C0.666822 19.8542 1.01817 19.9984 1.38501 20H10.615C10.9818 19.9984 11.3332 19.8542 11.5926 19.5987C11.852 19.3433 11.9984 18.9973 12 18.636V1.364C11.9984 1.0029 11.8521 0.657031 11.5929 0.401601C11.3338 0.146171 10.9827 0.00184159 10.616 0L1.38501 0ZM0.922999 3.182H11.077V16.364H0.922999V3.182ZM4.61499 17.727H7.38501C7.50754 17.727 7.62505 17.7749 7.71169 17.8603C7.79834 17.9456 7.84701 18.0613 7.84701 18.182C7.84701 18.3027 7.79834 18.4184 7.71169 18.5037C7.62505 18.5891 7.50754 18.637 7.38501 18.637H4.61499C4.49246 18.637 4.37495 18.5891 4.28831 18.5037C4.20166 18.4184 4.15299 18.3027 4.15299 18.182C4.15299 18.0613 4.20166 17.9456 4.28831 17.8603C4.37495 17.7749 4.49246 17.727 4.61499 17.727Z" fill="#3F414D"/>
</svg>
